<?xml version="1.0" encoding="UTF-8" standalone="no"?>
<!-- Created with Inkscape (http://www.inkscape.org/) -->
<svg
   xmlns:dc="http://purl.org/dc/elements/1.1/"
   xmlns:cc="http://creativecommons.org/ns#"
   xmlns:rdf="http://www.w3.org/1999/02/22-rdf-syntax-ns#"
   xmlns:svg="http://www.w3.org/2000/svg"
   xmlns="http://www.w3.org/2000/svg"
   xmlns:sodipodi="http://sodipodi.sourceforge.net/DTD/sodipodi-0.dtd"
   xmlns:inkscape="http://www.inkscape.org/namespaces/inkscape"
   width="300"
   height="300"
   id="svg2"
   sodipodi:version="0.32"
   inkscape:version="0.46"
   version="1.0"
   sodipodi:docname="1永.svg"
   inkscape:output_extension="org.inkscape.output.svg.inkscape"
   inkscape:export-filename="F:\Download\兰亭集序矢量化\矢量字转位图\1永.png"
   inkscape:export-xdpi="90"
   inkscape:export-ydpi="90">
  <defs
     id="defs4">
    <inkscape:perspective
       sodipodi:type="inkscape:persp3d"
       inkscape:vp_x="0 : 526.18109 : 1"
       inkscape:vp_y="0 : 1000 : 0"
       inkscape:vp_z="744.09448 : 526.18109 : 1"
       inkscape:persp3d-origin="372.04724 : 350.78739 : 1"
       id="perspective10" />
    <inkscape:perspective
       id="perspective2390"
       inkscape:persp3d-origin="372.04724 : 350.78739 : 1"
       inkscape:vp_z="744.09448 : 526.18109 : 1"
       inkscape:vp_y="0 : 1000 : 0"
       inkscape:vp_x="0 : 526.18109 : 1"
       sodipodi:type="inkscape:persp3d" />
  </defs>
  <sodipodi:namedview
     id="base"
     pagecolor="#ffffff"
     bordercolor="#666666"
     borderopacity="1.0"
     gridtolerance="10000"
     guidetolerance="10"
     objecttolerance="10"
     inkscape:pageopacity="0.0"
     inkscape:pageshadow="2"
     inkscape:zoom="1.4940652"
     inkscape:cx="195.36878"
     inkscape:cy="154.255"
     inkscape:document-units="px"
     inkscape:current-layer="layer1"
     showgrid="true"
     width="300px"
     borderlayer="true"
     inkscape:showpageshadow="true"
     inkscape:window-width="1024"
     inkscape:window-height="718"
     inkscape:window-x="-4"
     inkscape:window-y="-4">
    <inkscape:grid
       type="xygrid"
       id="grid2396"
       visible="true"
       enabled="true"
       dotted="false" />
  </sodipodi:namedview>
  <metadata
     id="metadata7">
    <rdf:RDF>
      <cc:Work
         rdf:about="">
        <dc:format>image/svg+xml</dc:format>
        <dc:type
           rdf:resource="http://purl.org/dc/dcmitype/StillImage" />
      </cc:Work>
    </rdf:RDF>
  </metadata>
  <g
     inkscape:label="Layer 1"
     inkscape:groupmode="layer"
     id="layer1"
     transform="translate(-121.21427,-114.50503)">
    <path
       style="fill:#000000"
       d="M 257.18302,125.38003 C 245.73575,125.38003 239.47246,128.89396 246.27677,131.50503 C 248.2335,132.25589 250.51129,136.25571 251.33927,140.38003 C 253.55029,151.39349 259.19564,162.77484 263.83927,165.63003 C 268.24113,168.33658 284.9988,167.23233 288.18302,164.03628 C 291.41503,160.79223 283.13591,139.77042 275.68302,132.31753 C 269.89218,126.52669 266.77029,125.38003 257.18302,125.38003 z M 272.74552,188.63003 C 267.04369,188.51717 259.82091,190.05804 250.49552,193.25503 C 240.93151,196.53383 231.07213,198.68556 228.58927,198.03628 C 222.68883,196.49329 220.1314,200.72392 225.71427,202.78628 C 228.07621,203.6588 233.82489,206.7541 238.49552,209.66128 C 243.16614,212.56848 249.56988,215.31081 252.71427,215.75503 C 256.58333,216.30164 258.43301,218.08091 258.43302,221.28628 C 258.43302,225.10049 256.58354,226.16836 248.99552,226.78628 C 242.03068,227.35343 236.47254,230.16033 227.68302,237.56753 C 212.04589,250.74547 182.93557,269.84879 178.46427,269.84878 C 176.51891,269.84878 173.25857,267.43566 171.21427,264.50503 L 167.49552,259.16128 L 167.43302,265.09878 C 167.34784,275.41131 177.66264,283.7379 195.15177,287.50503 C 202.23712,289.03121 203.75935,288.2624 212.08927,278.91128 C 223.08912,266.56292 227.57119,268.23671 217.62052,280.97378 C 213.75773,285.91822 207.5985,295.30501 203.90177,301.81753 C 200.20505,308.33005 192.90444,318.38338 187.68302,324.16128 C 177.15435,335.81206 179.22512,339.62314 191.49552,331.19253 C 199.48307,325.70451 206.5294,318.54196 215.40177,306.91128 C 218.22312,303.21282 223.74426,296.18477 227.65177,291.28628 C 231.55928,286.38777 238.19547,277.43622 242.40177,271.38003 C 246.60806,265.32384 251.13491,260.34878 252.46427,260.34878 C 254.32656,260.34878 256.49389,297.57261 255.24552,308.00503 C 255.14954,308.80714 254.81483,317.05648 254.49552,326.34878 C 254.1762,335.6411 253.33636,343.24372 252.62052,343.22378 C 248.99602,343.12278 245.00569,338.72076 246.43302,336.41128 C 247.32802,334.96315 246.90615,333.78627 245.52677,333.78628 C 244.1474,333.78628 243.02677,335.50344 243.02677,337.63003 C 243.02677,339.75664 240.6449,343.6475 237.71427,346.25503 C 233.79288,349.74409 233.21057,351.2917 235.55802,352.13003 C 241.09412,354.10707 254.57109,367.03416 256.08927,371.81753 C 257.97884,377.77106 268.124,377.89604 271.27677,372.00503 C 272.74562,369.26046 273.09219,352.31149 272.18302,327.00503 C 271.18638,299.26362 271.51195,286.41128 273.21427,286.41128 C 274.5843,286.41128 278.96065,291.47439 282.96427,297.66128 C 291.95687,311.55779 303.53768,324.25686 312.90177,330.53628 C 321.66557,336.41315 348.88147,346.32284 351.62052,344.63003 C 352.72512,343.94734 356.96476,344.6593 361.02677,346.19253 C 367.39594,348.59662 369.32219,348.31396 374.99552,344.22378 C 378.61377,341.61519 386.06553,338.05127 391.55802,336.28628 C 402.96885,332.61943 402.78357,329.90985 390.96427,327.69253 C 386.45119,326.84589 382.74551,325.19384 382.74552,324.03628 C 382.74552,322.87873 381.24999,321.94254 379.40177,321.94253 C 377.55356,321.94253 373.02672,320.42094 369.33927,318.56753 C 365.65184,316.7141 355.17555,312.25079 346.05802,308.66128 C 336.9405,305.07176 326.91431,300.18958 323.80802,297.81753 C 320.70174,295.44545 316.89069,293.50503 315.30802,293.50503 C 313.72535,293.50503 308.01469,290.31879 302.62052,286.41128 C 297.22636,282.50376 291.83063,279.31753 290.65177,279.31753 C 289.47292,279.31753 285.11601,275.45234 280.96427,270.72378 C 271.83745,260.3289 272.63496,259.22315 296.30802,249.63003 C 305.42555,245.9353 313.94302,242.13644 315.24552,241.19253 C 316.54802,240.2486 321.87927,238.67639 327.08927,237.72378 C 332.29928,236.77116 338.67633,234.55523 341.24552,232.78628 C 343.81471,231.01732 347.68355,229.56753 349.83927,229.56753 C 355.51973,229.56753 359.69732,223.47482 357.90177,217.81753 C 357.04913,215.13111 355.468,213.483 354.37052,214.16128 C 353.27303,214.83956 352.02614,214.58377 351.58927,213.59878 C 350.297,210.68519 335.36035,203.53628 330.58927,203.53628 C 325.48657,203.53628 322.40062,207.2622 325.77677,209.34878 C 328.9582,211.31501 326.16192,217.72378 322.12052,217.72378 C 320.30611,217.72378 318.80802,218.546 318.80802,219.53628 C 318.80802,221.05032 311.78843,226.66177 281.46427,249.31753 C 279.80466,250.55745 277.82507,250.95958 277.08927,250.22378 C 274.36588,247.5004 281.95611,221.06025 287.33927,214.50503 C 293.31683,207.22599 292.91647,201.19223 285.96427,193.97378 C 282.64413,190.52649 278.44735,188.74289 272.74552,188.63003 z"
       id="path2404"
       inkscape:export-filename="F:\Download\兰亭集序矢量化\矢量字转位图\1永.png"
       inkscape:export-xdpi="90"
       inkscape:export-ydpi="90" />
  </g>
</svg>
