<?xml version="1.0" encoding="UTF-8" standalone="no"?>
<!-- Created with Inkscape (http://www.inkscape.org/) -->
<svg
   xmlns:dc="http://purl.org/dc/elements/1.1/"
   xmlns:cc="http://creativecommons.org/ns#"
   xmlns:rdf="http://www.w3.org/1999/02/22-rdf-syntax-ns#"
   xmlns:svg="http://www.w3.org/2000/svg"
   xmlns="http://www.w3.org/2000/svg"
   xmlns:sodipodi="http://sodipodi.sourceforge.net/DTD/sodipodi-0.dtd"
   xmlns:inkscape="http://www.inkscape.org/namespaces/inkscape"
   width="300"
   height="300"
   id="svg2"
   sodipodi:version="0.32"
   inkscape:version="0.46"
   version="1.0"
   sodipodi:docname="2和.svg"
   inkscape:output_extension="org.inkscape.output.svg.inkscape">
  <defs
     id="defs4">
    <inkscape:perspective
       sodipodi:type="inkscape:persp3d"
       inkscape:vp_x="0 : 526.18109 : 1"
       inkscape:vp_y="0 : 1000 : 0"
       inkscape:vp_z="744.09448 : 526.18109 : 1"
       inkscape:persp3d-origin="372.04724 : 350.78739 : 1"
       id="perspective10" />
    <inkscape:perspective
       id="perspective2390"
       inkscape:persp3d-origin="372.04724 : 350.78739 : 1"
       inkscape:vp_z="744.09448 : 526.18109 : 1"
       inkscape:vp_y="0 : 1000 : 0"
       inkscape:vp_x="0 : 526.18109 : 1"
       sodipodi:type="inkscape:persp3d" />
  </defs>
  <sodipodi:namedview
     id="base"
     pagecolor="#ffffff"
     bordercolor="#666666"
     borderopacity="1.0"
     gridtolerance="10000"
     guidetolerance="10"
     objecttolerance="10"
     inkscape:pageopacity="0.0"
     inkscape:pageshadow="2"
     inkscape:zoom="1.6"
     inkscape:cx="150"
     inkscape:cy="150"
     inkscape:document-units="px"
     inkscape:current-layer="layer1"
     showgrid="false"
     inkscape:window-width="1024"
     inkscape:window-height="718"
     inkscape:window-x="-4"
     inkscape:window-y="-4" />
  <metadata
     id="metadata7">
    <rdf:RDF>
      <cc:Work
         rdf:about="">
        <dc:format>image/svg+xml</dc:format>
        <dc:type
           rdf:resource="http://purl.org/dc/dcmitype/StillImage" />
      </cc:Work>
    </rdf:RDF>
  </metadata>
  <g
     inkscape:label="Layer 1"
     inkscape:groupmode="layer"
     id="layer1">
    <path
       style="fill:#000000"
       d="M 126.21875 60.53125 C 119.97724 60.554155 116.90758 62.42973 106.875 69.1875 C 99.237219 74.33217 90.002823 81.257889 86.375 84.59375 C 82.747186 87.929596 77.301213 91.943007 74.28125 93.5 C 71.261285 95.057007 69.862786 96.693848 71.15625 97.125 C 72.449711 97.556158 81.148539 94.417839 90.5 90.15625 C 99.851443 85.89466 109.67915 82.406253 112.34375 82.40625 C 116.90242 82.40625 117.17885 83.269258 116.6875 96.96875 C 116.40032 104.97629 115.04987 112.85844 113.6875 114.5 C 110.93226 117.81986 110.37141 118.12695 65.5 140.5625 C 30.239396 158.19271 22.62438 160.80666 18 156.96875 C 15.571611 154.95337 14.9375 155.15748 14.9375 157.875 C 14.9375 164.33295 29.442995 173.06778 40.78125 173.4375 C 50.055517 173.73991 66.15913 168.21134 69.90625 163.4375 C 70.510881 162.66719 74.068121 160.22163 77.84375 157.96875 C 81.619386 155.71589 89.381274 150.5467 95.0625 146.5 C 100.74371 142.4533 105.89223 139.67347 106.53125 140.3125 C 107.88066 141.66192 95.131856 167.6213 90.625 172.6875 C 88.948524 174.57204 87.101222 179.73568 86.53125 184.1875 C 85.686891 190.78238 86.595465 193.45715 91.4375 198.625 C 94.70608 202.11353 99.470135 206.05705 102.03125 207.375 C 104.59237 208.69295 107.2567 212.56476 107.9375 215.96875 C 108.6183 219.37274 111.66972 224.83504 114.71875 228.125 C 117.76778 231.41497 120.77409 234.09374 121.40625 234.09375 C 122.0384 234.09375 124.64431 229.49501 127.21875 223.84375 C 130.61495 216.38866 132.21892 207.48122 133.03125 191.40625 C 133.9465 173.29473 135.13421 167.54504 139.5 159.90625 C 142.43734 154.76683 145.77921 150.56249 146.9375 150.5625 C 148.0958 150.5625 149.03125 149.08065 149.03125 147.28125 C 149.03125 142.30254 175.05589 117.3849 177 120.5 C 177.88433 121.91702 178.71221 135.75902 178.84375 151.25 L 179.0625 179.40625 L 185.625 185.96875 C 193.24987 193.59362 198.11631 192.84612 203.0625 183.28125 C 206.11756 177.3734 207.20497 176.9375 219.53125 176.9375 C 226.79467 176.9375 236.34923 178.46069 240.78125 180.3125 C 250.62979 184.42748 253.13547 183.5928 257.53125 174.78125 C 261.61941 166.58634 260.60237 162.99197 253.28125 159.65625 L 247.84375 157.1875 L 256.5625 145.34375 C 270.80892 126.05911 274.2244 119.55018 272.15625 115.625 C 271.12878 113.67493 269.79336 110.45704 269.1875 108.46875 C 268.58163 106.48045 264.58646 102.19743 260.3125 98.9375 C 253.10734 93.441868 251.94028 93.20108 244.21875 95.65625 C 239.63846 97.112626 231.3601 101.13547 225.8125 104.625 C 220.2649 108.11453 214.88319 110.96875 213.875 110.96875 C 212.86682 110.96875 210.28588 112.57569 208.125 114.53125 C 204.47023 117.83877 203.57568 117.58756 195.21875 110.96875 L 186.21875 103.875 L 176.59375 107.53125 C 171.30066 109.55269 165.79633 112.65599 164.34375 114.40625 C 161.47919 117.85785 156.79079 118.86495 158.8125 115.59375 C 161.22625 111.68822 157.28212 106.55569 150.46875 104.78125 C 144.80612 103.30649 143.66314 102.00668 144.1875 97.59375 C 144.55719 94.482567 142.93601 90.188717 140.34375 87.40625 C 137.87553 84.756921 135.84375 82.188139 135.84375 81.6875 C 135.84375 81.186854 139.81917 80.117232 144.65625 79.34375 C 152.0421 78.162711 153.43749 77.118242 153.4375 72.75 C 153.4375 65.207084 148.69453 62.375037 133.875 61.03125 C 130.7133 60.744559 128.29925 60.523615 126.21875 60.53125 z M 145.125 126.53125 C 145.40982 126.53963 145.64327 126.64326 145.8125 126.8125 C 146.48944 127.48944 145.26213 128.70557 143.09375 129.53125 C 139.96019 130.72444 139.71972 130.48395 141.875 128.3125 C 142.99359 127.18554 144.27053 126.5061 145.125 126.53125 z M 223.4375 133.96875 C 224.98241 133.98409 226 134.34572 226 135.15625 C 226 136.41081 223.43117 142.38216 220.28125 148.40625 C 212.94328 162.43983 207.22769 163.1595 205.0625 150.34375 C 204.11068 144.71002 204.45012 140.42492 205.96875 138.90625 C 207.3039 137.5711 208.40625 137.28668 208.40625 138.28125 C 208.40625 139.27581 209.64466 139.12808 211.15625 137.9375 C 214.12406 135.59991 220.0387 133.935 223.4375 133.96875 z "
       id="path2404"
       inkscape:export-filename="F:\Download\兰亭集序矢量化\矢量字转位图\2和.png"
       inkscape:export-xdpi="90"
       inkscape:export-ydpi="90" />
  </g>
</svg>
