<?xml version="1.0" encoding="UTF-8" standalone="no"?>
<!-- Created with Inkscape (http://www.inkscape.org/) -->
<svg
   xmlns:dc="http://purl.org/dc/elements/1.1/"
   xmlns:cc="http://creativecommons.org/ns#"
   xmlns:rdf="http://www.w3.org/1999/02/22-rdf-syntax-ns#"
   xmlns:svg="http://www.w3.org/2000/svg"
   xmlns="http://www.w3.org/2000/svg"
   xmlns:sodipodi="http://sodipodi.sourceforge.net/DTD/sodipodi-0.dtd"
   xmlns:inkscape="http://www.inkscape.org/namespaces/inkscape"
   width="300"
   height="300"
   id="svg2"
   sodipodi:version="0.32"
   inkscape:version="0.46"
   version="1.0"
   sodipodi:docname="3九.svg"
   inkscape:output_extension="org.inkscape.output.svg.inkscape">
  <defs
     id="defs4">
    <inkscape:perspective
       sodipodi:type="inkscape:persp3d"
       inkscape:vp_x="0 : 526.18109 : 1"
       inkscape:vp_y="0 : 1000 : 0"
       inkscape:vp_z="744.09448 : 526.18109 : 1"
       inkscape:persp3d-origin="372.04724 : 350.78739 : 1"
       id="perspective10" />
    <inkscape:perspective
       id="perspective2390"
       inkscape:persp3d-origin="372.04724 : 350.78739 : 1"
       inkscape:vp_z="744.09448 : 526.18109 : 1"
       inkscape:vp_y="0 : 1000 : 0"
       inkscape:vp_x="0 : 526.18109 : 1"
       sodipodi:type="inkscape:persp3d" />
    <inkscape:perspective
       id="perspective2456"
       inkscape:persp3d-origin="372.04724 : 350.78739 : 1"
       inkscape:vp_z="744.09448 : 526.18109 : 1"
       inkscape:vp_y="0 : 1000 : 0"
       inkscape:vp_x="0 : 526.18109 : 1"
       sodipodi:type="inkscape:persp3d" />
  </defs>
  <sodipodi:namedview
     id="base"
     pagecolor="#ffffff"
     bordercolor="#666666"
     borderopacity="1.0"
     gridtolerance="10000"
     guidetolerance="10"
     objecttolerance="10"
     inkscape:pageopacity="0.0"
     inkscape:pageshadow="2"
     inkscape:zoom="1.1313709"
     inkscape:cx="150"
     inkscape:cy="150"
     inkscape:document-units="px"
     inkscape:current-layer="layer1"
     showgrid="false"
     inkscape:window-width="1024"
     inkscape:window-height="718"
     inkscape:window-x="-4"
     inkscape:window-y="-4" />
  <metadata
     id="metadata7">
    <rdf:RDF>
      <cc:Work
         rdf:about="">
        <dc:format>image/svg+xml</dc:format>
        <dc:type
           rdf:resource="http://purl.org/dc/dcmitype/StillImage" />
      </cc:Work>
    </rdf:RDF>
  </metadata>
  <g
     inkscape:label="Layer 1"
     inkscape:groupmode="layer"
     id="layer1">
    <path
       style="fill:#000000"
       d="M 51.957982,225.56397 C 58.698995,218.96247 69.344216,206.55589 75.614041,197.99378 C 81.883851,189.43168 88.084064,181.16139 89.392246,179.61535 C 90.700459,178.0693 93.997254,172.06473 96.718486,166.27181 C 99.439706,160.47891 103.52581,152.95592 105.79872,149.55406 C 108.07163,146.15221 109.29742,142.73501 108.52272,141.9603 C 107.748,141.1856 101.85804,143.14892 95.433901,146.32326 C 68.938523,159.41536 51.322342,161.9695 44.424287,153.71908 C 39.179752,147.44637 39.246427,133.42652 44.547857,127.73611 C 48.687087,123.29316 48.702959,123.29937 47.624483,128.94105 C 46.039343,137.23316 51.188037,136.47183 87.070711,123.10808 L 117.95955,111.60418 L 116.65986,104.76071 C 115.94502,100.99681 113.7529,96.316065 111.78848,94.359087 C 103.64138,86.242769 93.403957,74.186894 94.112466,73.543293 C 95.898225,71.921128 119.77829,78.214912 124.48413,81.547989 C 127.31536,83.553308 131.58349,84.683654 133.96884,84.059867 C 137.27135,83.196243 137.97599,83.78536 136.92293,86.52961 C 136.01841,88.886777 136.7199,90.133511 138.95072,90.133511 C 140.82664,90.133511 142.80606,88.882558 143.34944,87.353621 C 143.89281,85.824669 143.99121,87.325821 143.56811,90.6895 C 142.65332,97.962006 144.58905,98.336476 152.19016,92.357446 C 155.30014,89.911127 159.06984,87.909591 160.56728,87.909591 C 162.06471,87.909591 166.62026,85.851309 170.6907,83.335649 C 179.0247,78.184952 183.25832,79.323372 194.39383,89.709367 C 204.18921,98.845456 202.73473,106.16517 189.40801,114.8006 C 176.35539,123.2584 172.69721,128.307 166.96165,145.77841 C 163.35209,156.77364 163.08185,160.37578 165.18398,169.4736 C 168.82014,185.21048 174.3499,188.52544 196.42679,188.20293 C 206.21655,188.05992 216.07812,186.95186 218.34139,185.74059 C 220.60467,184.52933 226.52529,183.53829 231.49834,183.53829 C 240.08353,183.53829 240.54022,183.19771 240.54022,176.79509 C 240.54022,169.1282 235.34801,155.50044 230.30289,149.92564 C 228.04298,147.42848 227.69937,145.68341 229.27575,144.70917 C 230.57859,143.90397 231.64453,144.33364 231.64453,145.664 C 231.64453,148.55822 266.74723,183.53829 269.6516,183.53829 C 272.95798,183.53829 271.95409,194.61137 268.04826,201.22342 C 265.26278,205.93886 261.52234,208.04398 251.92482,210.29766 C 238.50207,213.44961 187.51021,214.59844 178.1483,211.95983 C 170.13511,209.70136 152.92738,192.06513 147.74417,180.7986 C 142.15099,168.64093 141.48887,150.99341 146.0387,135.34258 C 148.00985,128.56202 149.15814,122.54983 148.59044,121.98212 C 145.99717,119.38883 138.22693,129.51389 138.09199,135.66221 C 138.0107,139.36565 135.04695,147.39955 131.50587,153.51533 C 127.9648,159.63112 121.95965,170.25359 118.16106,177.1208 C 103.71426,203.23848 70.336535,230.57642 46.160168,236.09298 C 40.178138,237.45795 40.605923,236.68108 51.957982,225.56397 z"
       id="path2470"
       inkscape:export-filename="F:\Download\兰亭集序矢量化\矢量字转位图\3九.png"
       inkscape:export-xdpi="90"
       inkscape:export-ydpi="90" />
  </g>
</svg>
