<?xml version="1.0" encoding="UTF-8" standalone="no"?>
<!-- Created with Inkscape (http://www.inkscape.org/) -->
<svg
   xmlns:dc="http://purl.org/dc/elements/1.1/"
   xmlns:cc="http://creativecommons.org/ns#"
   xmlns:rdf="http://www.w3.org/1999/02/22-rdf-syntax-ns#"
   xmlns:svg="http://www.w3.org/2000/svg"
   xmlns="http://www.w3.org/2000/svg"
   xmlns:sodipodi="http://sodipodi.sourceforge.net/DTD/sodipodi-0.dtd"
   xmlns:inkscape="http://www.inkscape.org/namespaces/inkscape"
   width="300"
   height="300"
   id="svg2"
   sodipodi:version="0.32"
   inkscape:version="0.46"
   version="1.0"
   sodipodi:docname="4年.svg"
   inkscape:output_extension="org.inkscape.output.svg.inkscape"
   inkscape:export-filename="F:\Download\兰亭集序矢量化\矢量字转位图\1永.png"
   inkscape:export-xdpi="90"
   inkscape:export-ydpi="90">
  <defs
     id="defs4">
    <inkscape:perspective
       sodipodi:type="inkscape:persp3d"
       inkscape:vp_x="0 : 526.18109 : 1"
       inkscape:vp_y="0 : 1000 : 0"
       inkscape:vp_z="744.09448 : 526.18109 : 1"
       inkscape:persp3d-origin="372.04724 : 350.78739 : 1"
       id="perspective10" />
    <inkscape:perspective
       id="perspective2390"
       inkscape:persp3d-origin="372.04724 : 350.78739 : 1"
       inkscape:vp_z="744.09448 : 526.18109 : 1"
       inkscape:vp_y="0 : 1000 : 0"
       inkscape:vp_x="0 : 526.18109 : 1"
       sodipodi:type="inkscape:persp3d" />
    <inkscape:perspective
       id="perspective2468"
       inkscape:persp3d-origin="372.04724 : 350.78739 : 1"
       inkscape:vp_z="744.09448 : 526.18109 : 1"
       inkscape:vp_y="0 : 1000 : 0"
       inkscape:vp_x="0 : 526.18109 : 1"
       sodipodi:type="inkscape:persp3d" />
  </defs>
  <sodipodi:namedview
     id="base"
     pagecolor="#ffffff"
     bordercolor="#666666"
     borderopacity="1.0"
     gridtolerance="10000"
     guidetolerance="10"
     objecttolerance="10"
     inkscape:pageopacity="0.0"
     inkscape:pageshadow="2"
     inkscape:zoom="1.0564636"
     inkscape:cx="146.26925"
     inkscape:cy="164.8925"
     inkscape:document-units="px"
     inkscape:current-layer="layer1"
     showgrid="true"
     width="300px"
     borderlayer="true"
     inkscape:showpageshadow="true"
     inkscape:window-width="1024"
     inkscape:window-height="718"
     inkscape:window-x="-4"
     inkscape:window-y="-4"
     inkscape:snap-intersection-grid-guide="true"
     inkscape:snap-global="false">
    <inkscape:grid
       type="xygrid"
       id="grid2396"
       visible="true"
       enabled="true"
       dotted="false" />
  </sodipodi:namedview>
  <metadata
     id="metadata7">
    <rdf:RDF>
      <cc:Work
         rdf:about="">
        <dc:format>image/svg+xml</dc:format>
        <dc:type
           rdf:resource="http://purl.org/dc/dcmitype/StillImage" />
      </cc:Work>
    </rdf:RDF>
  </metadata>
  <g
     inkscape:label="Layer 1"
     inkscape:groupmode="layer"
     id="layer1"
     transform="translate(-121.21427,-114.50503)">
    <path
       style="fill:#000000"
       d="M 190.15625 19.25 C 184.26694 19.232811 177.8947 20.924242 171.09375 24.3125 C 154.27631 32.69104 150.316 32.90222 142.375 25.8125 C 136.40424 20.4818 133.76656 19.63535 123.59375 19.875 C 112.28194 20.14147 111.75372 20.40695 111.75 25.9375 C 111.74785 29.12223 112.83474 32.111569 114.1875 32.5625 C 119.37803 34.29267 113.24647 42.738821 97.5625 55.46875 C 88.61956 62.72733 80.11193 69.093809 78.625 69.625 C 71.76906 72.07419 79.29599 72.477032 90.15625 70.25 C 98.11586 68.61777 105.5346 65.17527 111.875 60.15625 C 124.09018 50.48681 131.7902 46.660801 136.96875 47.65625 C 140.29044 48.29477 141.34518 51.24233 142.6875 63.375 C 143.71211 72.63576 143.533 79.285043 142.1875 80.90625 C 140.29983 83.18074 125.58281 88.771721 119.34375 89.59375 C 118.14946 89.75111 115.20104 90.649538 112.8125 91.59375 C 88.80572 101.08391 81.343751 101.88451 81.34375 94.9375 C 81.34375 92.47848 80.350531 91.074411 79.15625 91.8125 C 74.92303 94.42878 76.888783 103.59388 82.46875 107.25 C 86.49859 109.89047 90.551679 110.47807 97.6875 109.5 C 105.22372 108.46704 107.40625 108.8776 107.40625 111.25 C 107.40625 112.93188 109.8268 116.21396 112.8125 118.5625 C 117.89382 122.55948 120.80138 131.64752 116.0625 128.71875 C 114.86825 127.98066 113.90625 128.78377 113.90625 130.5 C 113.90625 132.21622 111.71835 135.23564 109.03125 137.21875 C 104.22021 140.76929 104.26609 140.82394 112.1875 139.59375 C 116.61185 138.90666 121.98085 139.23403 124.125 140.34375 C 126.26913 141.45348 130.84511 143.49438 134.3125 144.875 C 140.29841 147.25842 140.42417 147.55197 136.5 150.28125 C 134.22689 151.86221 128.92996 153.8598 124.75 154.75 C 120.57005 155.64016 116.19428 157.0044 115 157.75 C 111.00238 160.24575 97.669589 164.49819 93.75 164.53125 C 91.61801 164.54922 87.673676 165.99813 85 167.75 C 80.12062 170.9471 70.049942 172.42989 63.96875 170.84375 C 61.59139 170.22367 60.513611 172.12276 60.03125 177.90625 C 59.471 184.6234 60.612349 187.02777 67.4375 193.65625 C 71.86557 197.95674 77.313661 201.46874 79.53125 201.46875 C 81.74885 201.46875 88.183198 198.29879 93.84375 194.40625 C 105.67911 186.26749 110.56766 183.75435 126.46875 177.65625 C 127.67624 177.19317 128.64901 176.82179 129.65625 176.4375 L 131.15625 175.875 L 147.3125 169.8125 C 147.34378 169.79653 147.37522 169.76537 147.40625 169.75 C 148.54618 169.18538 149.50989 169.04112 149.90625 169.4375 C 150.54045 170.07171 151.87572 185.59171 152.875 203.9375 C 153.87428 222.28327 156.48848 248.7798 158.6875 262.8125 C 160.88649 276.84518 162.89099 288.3125 163.125 288.3125 C 163.35899 288.3125 166.35733 284.1694 169.78125 279.09375 C 180.36579 263.40317 183.60796 233.1911 180.09375 183.09375 C 179.34243 172.38328 178.2988 162.93118 177.78125 162.09375 C 177.26369 161.25633 178.39355 159.01268 180.28125 157.125 C 185.3507 152.05557 197.49615 152.95325 208.71875 159.21875 C 214.15842 162.25569 222.18692 164.94019 226.53125 165.1875 C 234.39305 165.63506 234.40512 165.60869 234.125 157.125 C 233.79786 147.21774 230.93044 144.5374 215.09375 139.375 C 197.23688 133.55408 177.18812 123.58443 174.96875 119.4375 C 173.83796 117.32465 172.62779 110.24816 172.28125 103.71875 L 171.65625 91.84375 L 179.59375 90.5625 C 188.61239 89.09656 193.6311 89.396929 199.15625 91.75 C 201.39793 92.70469 204.37202 92.23013 206.34375 90.59375 C 209.38359 88.07091 209.3773 87.621407 206.3125 85.90625 C 201.48782 83.20624 202.13804 79.874997 207.46875 79.875 C 214.85139 79.875 211.0043 74.742819 200.59375 70.71875 C 194.41483 68.33038 187.86524 67.460033 182.1875 68.21875 L 173.375 69.375 L 174.28125 61.59375 C 174.85441 56.68437 173.85723 51.781809 171.625 48.375 L 168.09375 42.96875 L 179.53125 42.5625 C 185.82872 42.33854 193.77346 42.074598 197.15625 42 C 202.02311 41.89265 203.93949 40.343939 206.375 34.5625 C 210.27208 25.31163 210.51353 26.244251 203.03125 22.375 C 199.01959 20.300493 194.73683 19.263369 190.15625 19.25 z M 144.3125 32.09375 C 145.50676 32.09375 146.46875 33.08696 146.46875 34.28125 C 146.46875 35.47551 145.50676 36.437501 144.3125 36.4375 C 143.11823 36.4375 142.125 35.47551 142.125 34.28125 C 142.125 33.08696 143.11823 32.093749 144.3125 32.09375 z M 144.09375 98.125 C 144.20478 98.108102 144.30726 98.116301 144.40625 98.125 C 145.7921 98.246793 146.46875 100.51045 146.46875 104.90625 C 146.46875 109.04871 146.53543 113.13414 146.625 114 C 146.96109 117.24897 142.07814 117.0169 140.8125 113.71875 C 140.08697 111.82804 138.18409 110.28125 136.5625 110.28125 C 134.94088 110.28125 132.57511 108.32794 131.3125 105.96875 C 129.32676 102.25833 129.82456 101.51721 135.03125 100.375 C 138.34181 99.64877 142.25717 98.67866 143.75 98.21875 C 143.86315 98.183892 143.98272 98.141898 144.09375 98.125 z "
       transform="translate(121.21427,114.50503)"
       id="path2476" />
  </g>
</svg>
