<?xml version="1.0" encoding="UTF-8" standalone="no"?>
<!-- Created with Inkscape (http://www.inkscape.org/) -->
<svg
   xmlns:dc="http://purl.org/dc/elements/1.1/"
   xmlns:cc="http://creativecommons.org/ns#"
   xmlns:rdf="http://www.w3.org/1999/02/22-rdf-syntax-ns#"
   xmlns:svg="http://www.w3.org/2000/svg"
   xmlns="http://www.w3.org/2000/svg"
   xmlns:sodipodi="http://sodipodi.sourceforge.net/DTD/sodipodi-0.dtd"
   xmlns:inkscape="http://www.inkscape.org/namespaces/inkscape"
   width="300"
   height="300"
   id="svg2"
   sodipodi:version="0.32"
   inkscape:version="0.46"
   version="1.0"
   sodipodi:docname="5岁.svg"
   inkscape:output_extension="org.inkscape.output.svg.inkscape"
   inkscape:export-filename="F:\Download\兰亭集序矢量化\矢量字转位图\1永.png"
   inkscape:export-xdpi="90"
   inkscape:export-ydpi="90">
  <defs
     id="defs4">
    <inkscape:perspective
       sodipodi:type="inkscape:persp3d"
       inkscape:vp_x="0 : 526.18109 : 1"
       inkscape:vp_y="0 : 1000 : 0"
       inkscape:vp_z="744.09448 : 526.18109 : 1"
       inkscape:persp3d-origin="372.04724 : 350.78739 : 1"
       id="perspective10" />
    <inkscape:perspective
       id="perspective2390"
       inkscape:persp3d-origin="372.04724 : 350.78739 : 1"
       inkscape:vp_z="744.09448 : 526.18109 : 1"
       inkscape:vp_y="0 : 1000 : 0"
       inkscape:vp_x="0 : 526.18109 : 1"
       sodipodi:type="inkscape:persp3d" />
    <inkscape:perspective
       id="perspective2409"
       inkscape:persp3d-origin="372.04724 : 350.78739 : 1"
       inkscape:vp_z="744.09448 : 526.18109 : 1"
       inkscape:vp_y="0 : 1000 : 0"
       inkscape:vp_x="0 : 526.18109 : 1"
       sodipodi:type="inkscape:persp3d" />
  </defs>
  <sodipodi:namedview
     id="base"
     pagecolor="#ffffff"
     bordercolor="#666666"
     borderopacity="1.0"
     gridtolerance="10000"
     guidetolerance="10"
     objecttolerance="10"
     inkscape:pageopacity="0.0"
     inkscape:pageshadow="2"
     inkscape:zoom="1.0564636"
     inkscape:cx="146.20655"
     inkscape:cy="134.73411"
     inkscape:document-units="px"
     inkscape:current-layer="layer1"
     showgrid="true"
     width="300px"
     borderlayer="true"
     inkscape:showpageshadow="true"
     inkscape:window-width="1024"
     inkscape:window-height="718"
     inkscape:window-x="-4"
     inkscape:window-y="-4"
     inkscape:snap-global="false">
    <inkscape:grid
       type="xygrid"
       id="grid2396"
       visible="true"
       enabled="true"
       dotted="false" />
  </sodipodi:namedview>
  <metadata
     id="metadata7">
    <rdf:RDF>
      <cc:Work
         rdf:about="">
        <dc:format>image/svg+xml</dc:format>
        <dc:type
           rdf:resource="http://purl.org/dc/dcmitype/StillImage" />
      </cc:Work>
    </rdf:RDF>
  </metadata>
  <g
     inkscape:label="Layer 1"
     inkscape:groupmode="layer"
     id="layer1"
     transform="translate(-121.21427,-114.50503)">
    <path
       style="fill:#000000"
       d="M 246.15736,139.92815 C 242.58796,140.01806 239.66491,141.10155 236.22989,143.50067 C 228.48066,148.91295 228.43714,150.09707 235.81768,151.57317 C 243.45943,153.10152 244.39539,158.11986 242.17263,185.61511 C 239.90119,213.71252 238.1433,218.17331 229.35967,218.24865 C 226.28546,218.27502 226.07969,217.61458 228.01998,213.98911 C 229.30645,211.58534 229.74158,206.65745 229.01616,202.79066 C 227.47736,194.58818 221.77754,192.35175 210.05436,195.33647 L 202.39406,197.29448 L 207.99329,199.56165 C 211.53455,201.00328 213.59252,203.39425 213.59252,206.01966 C 213.59252,211.76943 205.39066,223.74913 199.68033,226.35551 C 195.91691,228.07325 195.11787,229.87268 195.6269,235.14939 C 196.48039,243.997 201.19484,244.39634 216.68412,236.90129 C 229.50801,230.69599 234.46424,230.54132 229.05051,236.52343 C 223.43268,242.73105 225.18251,244.89718 233.13829,241.57304 C 241.83019,237.94133 247.57311,239.31173 249.48941,245.45471 C 250.25957,247.92356 251.9222,250.56776 253.16498,251.3631 C 256.8585,253.72685 252.26163,256.79148 236.88256,262.21805 C 219.19685,268.4585 217.6803,268.4617 217.6803,262.1837 C 217.6803,259.37672 217.33616,257.06538 216.89022,257.06538 C 214.97027,257.06538 203.3843,268.38502 203.35589,270.29056 C 203.33869,271.44402 202.51677,273.70059 201.50093,275.30582 C 199.9786,277.71139 198.32597,277.2365 192.19179,272.55773 C 188.09852,269.43565 184.31569,267.31171 183.77577,267.85163 C 183.23585,268.39155 184.78787,272.68669 187.24523,277.40123 C 191.29282,285.16671 191.58992,287.84564 190.33683,305.67218 C 189.57606,316.49494 187.61855,328.03634 185.97424,331.33245 C 184.32993,334.62857 182.98569,338.54595 182.9857,340.05763 C 182.9857,344.85437 177.12722,343.03694 173.81395,337.20649 C 170.69961,331.72607 170.62825,331.84489 171.85594,342.80571 C 173.60281,358.40177 179.0211,368.48006 185.28722,367.81331 C 192.53123,367.04253 199.29784,362.97403 199.37117,359.32859 C 199.40688,357.55345 200.72673,354.38531 202.29101,352.32097 C 203.8553,350.25663 206.1796,342.01826 207.47803,333.97748 C 208.77644,325.93672 210.21476,317.37441 210.67268,314.98133 C 211.21182,312.16374 213.51547,310.25492 217.16503,309.55386 C 220.26473,308.95841 223.17212,308.83373 223.62304,309.27905 C 224.07396,309.72438 220.62413,317.74178 215.96275,327.10727 C 206.17042,346.78169 205.68744,350.72846 212.28718,358.40111 L 217.13068,364.00034 L 219.84442,359.01943 C 221.34187,356.27876 222.8191,348.07713 223.10777,340.779 C 223.87926,321.2749 225.28153,315.68628 231.38639,308.31722 C 237.30899,301.16813 244.65057,297.48802 261.7184,293.03098 C 271.57944,290.4559 272.88269,290.49543 275.768,293.68365 C 277.51492,295.61397 278.9283,297.9304 278.9283,298.80196 C 278.9283,299.6735 281.76611,304.54729 285.21455,309.65691 C 295.106,324.31325 293.62214,331.9394 277.58861,348.95456 C 273.88556,352.88433 271.74449,356.41085 272.84816,356.78661 C 273.95181,357.16241 281.59633,353.83561 289.8176,349.40113 L 304.76032,341.32862 L 312.76413,350.46601 C 333.82734,374.52464 342.5467,381.88326 357.42055,388.11481 C 367.77908,392.45461 376.13312,392.72912 377.65334,388.76748 C 378.67054,386.11674 371.89804,361.41503 364.63428,341.29427 C 361.47518,332.54351 358.48452,332.77577 359.92818,341.67213 C 361.45816,351.10023 358.89836,367.30999 355.87475,367.26369 C 351.71943,367.20008 336.98287,356.25542 329.73357,347.82097 C 325.92529,343.3901 322.11456,339.44358 321.24885,339.06145 C 320.38313,338.67931 318.33437,335.73363 316.68015,332.53474 C 314.3308,327.99159 314.05211,323.91069 315.44351,313.84774 C 317.96001,295.64774 314.54703,276.14615 308.12673,271.93941 C 302.53681,268.27675 299.58165,269.79404 303.38628,274.37834 C 307.08116,278.83039 305.828,308.1111 301.94353,308.11111 C 299.8426,308.11111 295.37952,301.01088 295.31377,297.56532 C 295.27806,295.69401 294.20315,293.8058 292.9092,293.37449 C 290.85735,292.69055 289.9772,289.49723 289.30233,280.25237 C 289.20876,278.97061 287.06513,277.41981 284.52753,276.78291 C 279.38372,275.4919 271.63655,264.17387 274.63441,262.3211 C 275.68205,261.67363 282.43632,261.65635 289.61149,262.3211 C 299.82684,263.26749 303.20915,262.87327 305.20689,260.46614 C 308.38936,256.63149 304.58006,249.51169 298.33667,247.61883 C 296.0883,246.93718 292.64126,244.98165 290.67637,243.25624 C 287.44771,240.4211 287.10386,240.44838 287.10386,243.53105 C 287.10386,246.03774 285.51237,246.81679 281.16112,246.48525 C 277.90461,246.23711 273.84453,247.18943 272.12678,248.61502 C 269.532,250.76849 268.65108,250.52807 266.83672,247.13792 C 265.63563,244.89365 264.63825,240.63534 264.63825,237.65702 C 264.63825,233.51487 263.20835,231.69627 258.52375,229.92802 C 248.21642,226.03744 251.27898,223.00679 267.14588,221.4433 C 281.62709,220.01636 282.00293,220.09558 286.69165,225.77154 C 289.31927,228.95242 292.10004,233.12331 292.87484,235.04633 C 294.0862,238.05284 294.99326,238.20378 299.3672,236.00816 C 303.68317,233.84167 304.42139,232.05745 304.31376,224.32879 C 304.18451,215.04729 302.5302,202.46329 299.74506,189.77159 C 297.88909,181.314 290.49642,176.47654 276.38632,174.48535 C 265.13644,172.8978 262.58593,177.06207 272.50465,180.80596 C 277.44496,182.67072 278.50468,184.44089 279.64967,192.79449 C 281.1893,204.02725 280.76639,205.01259 275.56189,202.34409 C 273.48767,201.28058 268.33344,198.92582 264.12298,197.12273 C 256.62359,193.91118 254.25907,188.89018 258.21459,184.51587 C 260.43204,182.06365 264.63825,160.57732 264.63825,151.67623 C 264.63825,144.09467 261.58507,141.71063 249.97033,140.16861 C 248.5886,139.98517 247.34716,139.89819 246.15736,139.92815 z M 252.2375,160.81362 C 252.50388,160.75281 252.77374,160.92923 253.06193,161.29453 C 253.43101,161.76237 252.51742,172.66577 251.03521,185.51206 C 249.55301,198.35834 247.35905,209.84633 246.15736,211.03492 C 243.88163,213.28584 244.39695,205.86522 248.52758,176.51207 C 250.06421,165.59235 251.08322,161.07714 252.2375,160.81362 z M 256.32528,198.22196 C 256.41258,198.20757 256.50966,198.2172 256.60009,198.22196 C 257.53031,198.27097 258.6447,199.37783 260.58482,201.69142 C 265.7616,207.86477 265.67266,209.35239 260.0352,210.86316 C 257.50893,211.54018 254.7628,212.11883 253.9207,212.13415 C 251.69106,212.17475 252.10616,203.48501 254.50467,199.90516 C 255.17496,198.90473 255.71415,198.32268 256.32528,198.22196 z M 336.8786,254.76386 C 332.94268,254.85768 333.19929,256.48826 338.32134,259.2295 C 340.66289,260.48265 344.62263,263.28426 347.14957,265.4814 C 349.67649,267.67854 354.89273,271.21291 358.72589,273.3478 C 366.61865,277.74368 368.59035,277.656 371.67625,272.76383 C 376.39054,265.29016 367.58949,259.69647 344.77935,255.62264 C 341.32202,255.00518 338.66765,254.72122 336.8786,254.76386 z M 259.21077,266.37453 C 260.74884,266.35923 261.67427,267.63263 263.57336,270.53101 C 265.47034,273.42618 266.69187,275.94698 266.32145,276.13024 C 265.95104,276.31352 262.92265,277.98011 259.55428,279.80581 C 256.18591,281.63148 244.48464,287.82744 233.58486,293.5806 C 222.68506,299.33375 213.2868,304.02333 212.69939,304.02333 C 211.04004,304.02333 209.08582,294.55767 209.8826,290.4203 C 210.27562,288.3795 212.42472,286.44354 214.6574,286.09206 C 216.89008,285.7406 221.02217,284.4784 223.82915,283.30962 C 230.61301,280.48495 235.60414,278.03387 253.7146,268.60735 C 256.46008,267.17832 258.01449,266.38642 259.21077,266.37453 z M 263.74512,297.87448 C 263.05861,297.87179 262.61153,298.8981 262.61153,301.10349 C 262.61153,303.41959 261.4387,303.93812 258.352,302.95845 C 255.28416,301.98474 253.18596,302.86664 250.93216,306.0844 C 248.71844,309.24492 246.23622,310.31648 242.44744,309.75996 C 237.27924,309.00081 237.08961,309.35706 236.95126,319.27522 C 236.87232,324.93456 236.06517,332.95393 235.16501,337.10343 C 233.24735,345.94331 234.74207,353.47815 239.35584,358.09195 C 247.16277,365.89887 251.50982,353.80706 248.56193,332.53474 C 246.43868,317.21311 247.31561,310.17218 251.34437,310.17218 C 255.28662,310.17218 258.60596,315.16194 259.89779,323.12254 C 260.54073,327.08441 263.24933,332.40817 265.94359,334.93931 C 270.56993,339.28554 271.0548,339.34339 274.35961,336.03855 C 277.66441,332.73375 277.63523,332.00041 274.11915,322.88208 C 272.07147,317.57181 269.36256,309.77959 268.10771,305.56913 C 266.66532,300.72941 264.88929,297.87898 263.74512,297.87448 z"
       id="path2415" />
  </g>
</svg>
