<?xml version="1.0" encoding="UTF-8" standalone="no"?>
<!-- Created with Inkscape (http://www.inkscape.org/) -->
<svg
   xmlns:dc="http://purl.org/dc/elements/1.1/"
   xmlns:cc="http://creativecommons.org/ns#"
   xmlns:rdf="http://www.w3.org/1999/02/22-rdf-syntax-ns#"
   xmlns:svg="http://www.w3.org/2000/svg"
   xmlns="http://www.w3.org/2000/svg"
   xmlns:sodipodi="http://sodipodi.sourceforge.net/DTD/sodipodi-0.dtd"
   xmlns:inkscape="http://www.inkscape.org/namespaces/inkscape"
   width="300"
   height="300"
   id="svg2"
   sodipodi:version="0.32"
   inkscape:version="0.46"
   version="1.0"
   sodipodi:docname="6在.svg"
   inkscape:output_extension="org.inkscape.output.svg.inkscape"
   inkscape:export-filename="F:\Download\兰亭集序矢量化\矢量字转位图\1永.png"
   inkscape:export-xdpi="90"
   inkscape:export-ydpi="90">
  <defs
     id="defs4">
    <inkscape:perspective
       sodipodi:type="inkscape:persp3d"
       inkscape:vp_x="0 : 526.18109 : 1"
       inkscape:vp_y="0 : 1000 : 0"
       inkscape:vp_z="744.09448 : 526.18109 : 1"
       inkscape:persp3d-origin="372.04724 : 350.78739 : 1"
       id="perspective10" />
    <inkscape:perspective
       id="perspective2390"
       inkscape:persp3d-origin="372.04724 : 350.78739 : 1"
       inkscape:vp_z="744.09448 : 526.18109 : 1"
       inkscape:vp_y="0 : 1000 : 0"
       inkscape:vp_x="0 : 526.18109 : 1"
       sodipodi:type="inkscape:persp3d" />
    <inkscape:perspective
       id="perspective2409"
       inkscape:persp3d-origin="372.04724 : 350.78739 : 1"
       inkscape:vp_z="744.09448 : 526.18109 : 1"
       inkscape:vp_y="0 : 1000 : 0"
       inkscape:vp_x="0 : 526.18109 : 1"
       sodipodi:type="inkscape:persp3d" />
    <inkscape:perspective
       id="perspective2456"
       inkscape:persp3d-origin="372.04724 : 350.78739 : 1"
       inkscape:vp_z="744.09448 : 526.18109 : 1"
       inkscape:vp_y="0 : 1000 : 0"
       inkscape:vp_x="0 : 526.18109 : 1"
       sodipodi:type="inkscape:persp3d" />
  </defs>
  <sodipodi:namedview
     id="base"
     pagecolor="#ffffff"
     bordercolor="#666666"
     borderopacity="1.0"
     gridtolerance="10000"
     guidetolerance="10"
     objecttolerance="10"
     inkscape:pageopacity="0.0"
     inkscape:pageshadow="2"
     inkscape:zoom="1.0564636"
     inkscape:cx="138.89036"
     inkscape:cy="130.29387"
     inkscape:document-units="px"
     inkscape:current-layer="layer1"
     showgrid="true"
     width="300px"
     borderlayer="true"
     inkscape:showpageshadow="true"
     inkscape:window-width="1024"
     inkscape:window-height="718"
     inkscape:window-x="-4"
     inkscape:window-y="-4"
     inkscape:snap-global="false">
    <inkscape:grid
       type="xygrid"
       id="grid2396"
       visible="true"
       enabled="true"
       dotted="false" />
  </sodipodi:namedview>
  <metadata
     id="metadata7">
    <rdf:RDF>
      <cc:Work
         rdf:about="">
        <dc:format>image/svg+xml</dc:format>
        <dc:type
           rdf:resource="http://purl.org/dc/dcmitype/StillImage" />
      </cc:Work>
    </rdf:RDF>
  </metadata>
  <g
     inkscape:label="Layer 1"
     inkscape:groupmode="layer"
     id="layer1"
     transform="translate(-121.21427,-114.50503)">
    <path
       style="fill:#000000"
       d="M 312.55802,147.50503 C 308.23511,147.71439 303.71782,152.58784 300.77677,161.44253 C 298.7791,167.45694 295.38869,173.88065 293.24552,175.72378 C 289.25233,179.15792 254.02385,184.31753 234.52677,184.31753 L 223.87052,184.31753 L 235.83927,195.16128 C 252.13227,209.91149 255.70375,211.66161 263.68302,208.88003 C 267.27883,207.62652 270.80859,207.1931 271.55802,207.94253 C 272.91515,209.29965 265.88965,220.33394 255.37052,233.34878 L 249.83927,240.19253 L 244.37052,235.06753 C 241.35642,232.24541 236.72604,229.91128 234.08927,229.91128 C 231.45252,229.91128 228.90379,228.6986 228.40177,227.19253 C 227.77347,225.30764 227.0087,225.22135 225.96427,226.91128 C 225.12976,228.26156 227.56191,235.60205 231.37052,243.22378 C 239.86271,260.21814 242.28264,254.87734 203.90177,303.19253 C 191.31281,319.03995 176.3707,335.47152 170.68302,339.69253 C 164.99536,343.91354 157.83832,349.20998 154.77677,351.47378 C 146.66932,357.46864 139.61151,374.56895 142.30802,381.66128 C 143.48194,384.74897 145.79548,387.28629 147.46427,387.28628 C 152.42081,387.28628 171.60376,371.68362 187.43302,354.78628 C 188.2181,353.94822 188.94918,353.20857 189.62052,352.53628 C 189.68995,352.46675 189.73972,352.41658 189.80802,352.34878 L 218.46427,321.78628 C 218.5295,321.70862 218.6463,321.58585 218.71427,321.50503 C 220.61348,319.2468 223.04597,316.34304 225.49552,313.47378 C 228.55959,309.88467 231.68121,304.99875 232.43302,302.63003 C 233.1848,300.26134 234.78257,298.34877 235.99552,298.34878 C 238.48295,298.34878 236.68553,317.99859 233.12052,329.69253 C 229.38282,341.95295 233.61601,355.11245 242.93302,360.09878 C 246.38608,361.9468 247.62009,360.93046 250.52677,353.97378 C 253.13144,347.73993 253.99553,336.81745 253.99552,310.25503 C 253.99552,276.7426 254.34244,274.14319 260.02677,262.06753 C 263.33103,255.04797 266.72567,248.78842 267.58927,248.16128 C 268.4529,247.53413 269.88531,245.4802 270.77677,243.59878 C 271.66824,241.71737 276.48967,234.03069 281.49552,226.50503 C 286.50137,218.97938 292.27403,210.21911 294.30802,207.03628 C 299.85468,198.35687 315.81438,188.41901 325.65177,187.53628 C 338.05263,186.42352 345.68808,180.90192 344.80802,173.63003 C 344.25495,169.06017 341.85782,166.90823 333.83927,163.81753 C 327.402,161.33634 322.45545,157.62286 320.58927,153.84878 C 318.39192,149.40497 315.5158,147.36178 312.55802,147.50503 z M 319.27677,225.34878 C 314.6753,225.34878 304.18301,231.89493 304.18302,234.75503 C 304.18302,235.86505 305.62329,236.75503 307.37052,236.75503 C 310.65616,236.75503 313.00133,240.98033 314.71427,249.94253 C 315.44393,253.76015 314.3138,255.61704 310.49552,257.03628 C 307.64355,258.09637 304.18276,258.53944 302.77677,258.00503 C 301.37078,257.47063 299.63567,258.51771 298.93302,260.34878 C 297.53541,263.99087 275.10228,273.17993 267.02677,273.41128 C 262.09895,273.55246 262.13313,273.57961 267.49552,275.72378 C 276.06706,279.15115 305.57307,281.10543 307.27677,278.34878 C 308.95746,275.62935 317.87052,277.30778 317.87052,280.34878 C 317.87052,281.45676 316.51841,282.38003 314.87052,282.38003 C 312.62714,282.38003 312.11602,285.72509 312.83927,295.72378 C 313.68269,307.38392 313.0107,310.28074 307.52677,318.56753 C 304.0725,323.78726 298.8253,328.6697 295.87052,329.41128 C 292.91574,330.15289 290.51968,331.41905 290.52677,332.22378 C 290.54322,334.08975 308.27046,335.0852 314.99552,333.59878 C 322.65613,331.90557 329.71307,316.06704 333.77677,291.50503 C 337.33148,270.01943 337.42297,269.8051 345.05802,267.31753 C 353.72644,264.4933 361.92777,254.81571 360.77677,248.75503 C 360.20017,245.71889 357.38849,244.59303 349.21427,244.06753 C 341.82057,243.59221 338.40176,242.367 338.40177,240.19253 C 338.40177,236.19343 324.43537,225.34878 319.27677,225.34878 z M 368.46427,323.84878 C 360.6398,323.8009 348.99875,326.38299 333.05802,331.53628 C 318.68477,336.18284 304.40781,339.43766 299.71427,339.09878 C 295.19935,338.77279 290.31675,339.23621 288.87052,340.13003 C 285.77113,342.04556 282.77252,338.11104 284.80802,334.81753 C 285.58321,333.56325 285.06338,332.53628 283.65177,332.53628 C 278.22353,332.53628 282.53356,344.76449 289.37052,348.75503 C 297.41486,353.45029 306.69974,353.88296 326.99552,350.53628 C 335.14832,349.19193 349.70381,348.21541 359.33927,348.34878 C 377.83971,348.60488 379.22366,347.87155 380.90177,337.22378 C 382.30308,328.33233 378.52431,323.91034 368.46427,323.84878 z"
       id="path2466"
       inkscape:export-filename="E:\MyWork\Recent\Calligraphy Vectorization Project\矢量字转位图\6在.png"
       inkscape:export-xdpi="90"
       inkscape:export-ydpi="90" />
  </g>
</svg>
