<?xml version="1.0" encoding="UTF-8" standalone="no"?>
<!-- Created with Inkscape (http://www.inkscape.org/) -->
<svg
   xmlns:dc="http://purl.org/dc/elements/1.1/"
   xmlns:cc="http://creativecommons.org/ns#"
   xmlns:rdf="http://www.w3.org/1999/02/22-rdf-syntax-ns#"
   xmlns:svg="http://www.w3.org/2000/svg"
   xmlns="http://www.w3.org/2000/svg"
   xmlns:sodipodi="http://sodipodi.sourceforge.net/DTD/sodipodi-0.dtd"
   xmlns:inkscape="http://www.inkscape.org/namespaces/inkscape"
   width="300"
   height="300"
   id="svg2"
   sodipodi:version="0.32"
   inkscape:version="0.46"
   version="1.0"
   sodipodi:docname="7癸.svg"
   inkscape:output_extension="org.inkscape.output.svg.inkscape"
   inkscape:export-filename="F:\Download\兰亭集序矢量化\矢量字转位图\1永.png"
   inkscape:export-xdpi="90"
   inkscape:export-ydpi="90">
  <defs
     id="defs4">
    <inkscape:perspective
       sodipodi:type="inkscape:persp3d"
       inkscape:vp_x="0 : 526.18109 : 1"
       inkscape:vp_y="0 : 1000 : 0"
       inkscape:vp_z="744.09448 : 526.18109 : 1"
       inkscape:persp3d-origin="372.04724 : 350.78739 : 1"
       id="perspective10" />
    <inkscape:perspective
       id="perspective2390"
       inkscape:persp3d-origin="372.04724 : 350.78739 : 1"
       inkscape:vp_z="744.09448 : 526.18109 : 1"
       inkscape:vp_y="0 : 1000 : 0"
       inkscape:vp_x="0 : 526.18109 : 1"
       sodipodi:type="inkscape:persp3d" />
    <inkscape:perspective
       id="perspective2389"
       inkscape:persp3d-origin="372.04724 : 350.78739 : 1"
       inkscape:vp_z="744.09448 : 526.18109 : 1"
       inkscape:vp_y="0 : 1000 : 0"
       inkscape:vp_x="0 : 526.18109 : 1"
       sodipodi:type="inkscape:persp3d" />
  </defs>
  <sodipodi:namedview
     id="base"
     pagecolor="#ffffff"
     bordercolor="#666666"
     borderopacity="1.0"
     gridtolerance="10000"
     guidetolerance="10"
     objecttolerance="10"
     inkscape:pageopacity="0.0"
     inkscape:pageshadow="2"
     inkscape:zoom="1.0564636"
     inkscape:cx="202.49331"
     inkscape:cy="142.73985"
     inkscape:document-units="px"
     inkscape:current-layer="layer1"
     showgrid="true"
     width="300px"
     borderlayer="true"
     inkscape:showpageshadow="true"
     inkscape:window-width="1024"
     inkscape:window-height="718"
     inkscape:window-x="-4"
     inkscape:window-y="-4">
    <inkscape:grid
       type="xygrid"
       id="grid2396"
       visible="true"
       enabled="true"
       dotted="false" />
  </sodipodi:namedview>
  <metadata
     id="metadata7">
    <rdf:RDF>
      <cc:Work
         rdf:about="">
        <dc:format>image/svg+xml</dc:format>
        <dc:type
           rdf:resource="http://purl.org/dc/dcmitype/StillImage" />
      </cc:Work>
    </rdf:RDF>
  </metadata>
  <g
     inkscape:label="Layer 1"
     inkscape:groupmode="layer"
     id="layer1"
     transform="translate(-121.21427,-114.50503)">
    <path
       style="fill:#000000"
       d="M 302.03899,163.85074 C 301.76597,163.88175 301.5499,163.95611 301.38751,164.05647 C 300.09434,164.8557 299.68289,167.17004 300.46173,169.1997 C 301.2611,171.28281 299.53117,173.62679 296.51859,174.58295 C 293.58331,175.51456 291.29074,178.35784 291.40965,180.89197 C 291.54333,183.74131 292.13277,184.17451 292.98691,182.05777 C 293.74655,180.17518 295.51519,178.62895 296.89576,178.62895 C 302.00493,178.62895 299.14609,185.7884 289.83239,196.25308 C 284.56233,202.17442 280.2317,207.8847 280.2317,208.93972 C 280.2317,212.84482 299.77915,203.99907 303.78769,198.27609 C 306.07163,195.01531 309.70599,192.34423 311.8797,192.34423 C 314.05341,192.34423 315.82284,191.10724 315.82284,189.60118 C 315.82284,188.09511 317.54538,186.85812 319.62883,186.85812 C 323.80314,186.85812 327.11227,177.9452 324.39489,174.03433 C 321.84621,170.36626 306.13428,163.3856 302.03899,163.85074 z M 232.74255,190.62982 C 231.68432,190.65194 230.64004,190.73611 229.58803,190.93841 C 209.829,194.73811 206.30635,195.83083 206.30635,198.07036 C 206.30635,199.37679 209.67378,201.17457 213.81546,202.08208 C 228.79344,205.36402 228.74235,205.26716 224.30765,213.84293 C 222.05057,218.20765 216.88854,225.71387 212.85539,230.50699 L 205.51772,239.21619 L 201.60887,231.15847 C 198.73751,225.22977 193.78098,221.64012 182.85322,217.61463 C 174.67336,214.60138 167.97215,212.59235 167.97215,213.15716 C 167.97215,213.72198 173.5043,222.28783 180.28161,232.18711 C 187.05892,242.08638 192.62536,251.3116 192.62536,252.69145 C 192.62536,256.18958 169.39539,277.21977 157.3771,284.61376 C 146.47713,291.31974 149.72915,292.6789 165.02336,287.80256 C 181.78929,282.45696 188.08892,279.07028 201.19741,268.39545 C 214.98971,257.16374 220.21562,255.81969 225.47345,262.15499 C 227.34834,264.4141 231.40558,266.26957 234.49125,266.26958 C 241.6937,266.26958 250.12665,273.88971 250.12666,280.39631 C 250.12666,283.17503 248.2213,285.43669 245.90921,285.43668 C 243.59713,285.43668 238.97272,287.21913 235.62276,289.41411 C 225.1034,296.30665 210.62723,292.52769 206.27206,281.73355 C 204.30051,276.84714 203.87895,276.67889 203.73474,280.77348 C 203.48005,288.00454 211.00803,301.24789 217.27857,304.60378 C 224.38134,308.40507 224.17287,310.68565 215.70132,320.75352 C 211.8282,325.35645 209.49852,330.47828 210.5238,332.1372 C 214.96295,339.31991 233.49892,327.77269 237.8172,315.13026 C 239.55318,310.0479 257.82243,301.86073 267.4422,301.86072 C 278.06553,301.86072 290.92831,285.98079 283.66052,281.83642 C 282.53097,281.1923 276.91274,279.81987 271.17961,278.78477 C 262.28597,277.17905 260.89668,277.58522 261.61321,281.56211 C 262.07509,284.12575 260.88989,286.76713 259.0073,287.42539 C 256.89935,288.16247 255.58974,286.18273 255.61277,282.24788 C 255.68636,269.67118 258.66275,264.56054 267.40791,261.98355 C 274.19316,259.98411 276.11712,257.91875 276.11711,252.58859 C 276.11711,246.41072 275.19973,245.80549 266.55071,246.65673 C 261.27947,247.17553 252.80515,249.34025 247.72649,251.45708 C 237.91625,255.54606 224.87524,256.55071 221.77033,253.44579 C 220.74113,252.4166 226.07855,245.76105 233.63404,238.66758 C 241.18953,231.57411 247.38362,224.41189 247.38361,222.75786 C 247.38361,221.10384 249.62599,218.34624 252.38968,216.62027 C 264.2707,209.20045 248.61593,190.29804 232.74255,190.62982 z M 336.22432,198.10465 C 335.50482,198.15996 336.39251,200.23748 338.45305,203.1793 C 344.24193,211.44408 340.57875,221.38156 326.93222,234.31298 C 321.10043,239.83916 315.79371,244.35942 315.13708,244.35942 C 314.48046,244.35942 310.97275,241.76128 307.35366,238.59901 C 295.75761,228.46668 272.18482,213.73644 269.1909,214.73442 C 267.59668,215.26583 274.35253,222.84293 284.20913,231.60421 C 294.06572,240.36549 302.14185,249.28745 302.14185,251.42279 C 302.14185,253.55813 304.63713,255.29736 307.69654,255.29736 C 310.75595,255.29736 313.96159,257.15282 314.82849,259.41194 C 315.69539,261.67104 318.04381,263.52651 320.04029,263.52652 C 322.03677,263.52652 324.38549,265.69124 325.2521,268.32687 C 327.62465,275.54257 355.81632,287.85877 377.37015,291.09423 C 387.86926,292.67024 396.99784,294.50361 397.66876,295.17453 C 401.02462,298.53038 403.46346,295.53823 403.46347,288.04258 C 403.46347,281.08914 401.84164,279.01828 393.89706,275.69883 C 388.64704,273.50523 377.89198,270.39458 369.9639,268.8069 C 355.74569,265.95954 332.24271,255.98691 332.31546,252.82861 C 332.45172,246.91327 336.12704,238.88898 338.72736,238.87331 C 343.51848,238.84442 354.15704,221.55707 354.15704,213.80864 C 354.15704,207.38421 351.60993,205.11899 336.63578,198.20751 C 336.46632,198.1293 336.32711,198.09675 336.22432,198.10465 z M 265.59064,314.30734 C 262.48209,314.50493 263.76524,316.31798 268.12796,319.69058 C 273.10635,323.53912 273.12322,323.98922 268.64229,327.47401 C 262.2458,332.44851 265.15692,334.5969 275.8771,332.85725 C 280.73306,332.06924 290.14562,333.33019 296.82718,335.66888 C 315.15188,342.08296 319.08059,341.57333 318.05158,332.85725 C 317.29451,326.44465 315.301,325.05388 302.14185,321.78216 C 280.8294,316.48332 269.58735,314.0533 265.59064,314.30734 z"
       id="path2403" />
  </g>
</svg>
