<?xml version="1.0" encoding="UTF-8" standalone="no"?>
<!-- Created with Inkscape (http://www.inkscape.org/) -->
<svg
   xmlns:dc="http://purl.org/dc/elements/1.1/"
   xmlns:cc="http://creativecommons.org/ns#"
   xmlns:rdf="http://www.w3.org/1999/02/22-rdf-syntax-ns#"
   xmlns:svg="http://www.w3.org/2000/svg"
   xmlns="http://www.w3.org/2000/svg"
   xmlns:sodipodi="http://sodipodi.sourceforge.net/DTD/sodipodi-0.dtd"
   xmlns:inkscape="http://www.inkscape.org/namespaces/inkscape"
   width="300"
   height="300"
   id="svg2"
   sodipodi:version="0.32"
   inkscape:version="0.46"
   version="1.0"
   sodipodi:docname="8丑.svg"
   inkscape:output_extension="org.inkscape.output.svg.inkscape"
   inkscape:export-filename="F:\Download\兰亭集序矢量化\矢量字转位图\1永.png"
   inkscape:export-xdpi="90"
   inkscape:export-ydpi="90">
  <defs
     id="defs4">
    <inkscape:perspective
       sodipodi:type="inkscape:persp3d"
       inkscape:vp_x="0 : 526.18109 : 1"
       inkscape:vp_y="0 : 1000 : 0"
       inkscape:vp_z="744.09448 : 526.18109 : 1"
       inkscape:persp3d-origin="372.04724 : 350.78739 : 1"
       id="perspective10" />
    <inkscape:perspective
       id="perspective2390"
       inkscape:persp3d-origin="372.04724 : 350.78739 : 1"
       inkscape:vp_z="744.09448 : 526.18109 : 1"
       inkscape:vp_y="0 : 1000 : 0"
       inkscape:vp_x="0 : 526.18109 : 1"
       sodipodi:type="inkscape:persp3d" />
    <inkscape:perspective
       id="perspective2389"
       inkscape:persp3d-origin="372.04724 : 350.78739 : 1"
       inkscape:vp_z="744.09448 : 526.18109 : 1"
       inkscape:vp_y="0 : 1000 : 0"
       inkscape:vp_x="0 : 526.18109 : 1"
       sodipodi:type="inkscape:persp3d" />
    <inkscape:perspective
       id="perspective2444"
       inkscape:persp3d-origin="372.04724 : 350.78739 : 1"
       inkscape:vp_z="744.09448 : 526.18109 : 1"
       inkscape:vp_y="0 : 1000 : 0"
       inkscape:vp_x="0 : 526.18109 : 1"
       sodipodi:type="inkscape:persp3d" />
  </defs>
  <sodipodi:namedview
     id="base"
     pagecolor="#ffffff"
     bordercolor="#666666"
     borderopacity="1.0"
     gridtolerance="10000"
     guidetolerance="10"
     objecttolerance="10"
     inkscape:pageopacity="0.0"
     inkscape:pageshadow="2"
     inkscape:zoom="1.0564636"
     inkscape:cx="202.49331"
     inkscape:cy="185.62042"
     inkscape:document-units="px"
     inkscape:current-layer="layer1"
     showgrid="true"
     width="300px"
     borderlayer="true"
     inkscape:showpageshadow="true"
     inkscape:window-width="1024"
     inkscape:window-height="718"
     inkscape:window-x="-4"
     inkscape:window-y="-4">
    <inkscape:grid
       type="xygrid"
       id="grid2396"
       visible="true"
       enabled="true"
       dotted="false" />
  </sodipodi:namedview>
  <metadata
     id="metadata7">
    <rdf:RDF>
      <cc:Work
         rdf:about="">
        <dc:format>image/svg+xml</dc:format>
        <dc:type
           rdf:resource="http://purl.org/dc/dcmitype/StillImage" />
      </cc:Work>
    </rdf:RDF>
  </metadata>
  <g
     inkscape:label="Layer 1"
     inkscape:groupmode="layer"
     id="layer1"
     transform="translate(-121.21427,-114.50503)">
    <path
       style="fill:#000000"
       d="M 206.28125 79.59375 C 205.59418 79.658627 204.97054 80.358018 204.1875 81.625 C 202.9886 83.5649 200.63274 84.309651 198.96875 83.28125 C 190.00637 77.7422 119.26788 84.137682 104.3125 91.84375 C 101.9336 93.06953 93.613208 95.512011 85.84375 97.25 C 51.93672 104.83482 42.42291 110.05102 62.09375 110.28125 C 67.39112 110.34325 76.349468 112.17178 82 114.34375 C 87.65051 116.51571 94.884083 118.93152 98.0625 119.6875 C 105.7086 121.5061 105.36311 123.66813 95.9375 133.09375 C 88.16886 140.86238 88.12497 141.01652 94 141.28125 C 104.69568 141.76321 80.491058 148.28526 67.21875 148.5 C 60.50874 148.60857 55.031249 149.86862 55.03125 151.28125 C 55.03125 152.69388 57.191001 153.84375 59.84375 153.84375 C 62.4965 153.84375 69.06204 155.6733 74.40625 157.90625 C 84.35046 162.06121 108.22895 162.04124 117.40625 157.875 C 121.53644 156 121.79772 156.89879 120.25 167.03125 C 117.99203 181.81329 116.6319 183.20036 99.3125 188.40625 C 91.20676 190.84269 76.482158 195.85026 66.59375 199.53125 C 56.70534 203.21226 44.292882 206.26944 39 206.34375 C 33.70711 206.41806 29.34823 207.16111 29.34375 207.96875 C 29.33438 209.65946 51.784561 220.09409 62.15625 223.21875 C 71.9302 226.16332 75.045367 226.1479 76.875 223.1875 C 77.74805 221.77488 81.197673 220.625 84.5625 220.625 C 87.92734 220.625 91.408177 219.47512 92.28125 218.0625 C 93.15429 216.64987 96.603903 215.46874 99.96875 215.46875 C 103.33358 215.46875 106.71545 214.50012 107.46875 213.28125 C 110.81011 207.87482 189.4977 194.95221 214.28125 195.75 L 228.40625 196.21875 L 229.1875 186.59375 C 229.90195 177.96252 229.06462 176.4273 221.03125 171.6875 C 212.73965 166.79534 212.26547 165.82696 214.65625 158.96875 C 216.07719 154.89264 218.89688 150.19885 220.90625 148.53125 C 222.91559 146.86363 224.56249 144.03877 224.5625 142.25 C 224.5625 140.46124 228.64819 138.22078 233.65625 137.28125 C 240.07878 136.07637 243.47137 133.74408 245.15625 129.3125 C 247.41179 123.37996 251.93882 121.75285 263.25 122.8125 C 265.45968 123.0195 268.79951 120.30902 270.6875 116.78125 C 276.07208 106.72004 270.7883 102.46875 252.8125 102.46875 C 242.56305 102.46875 236.98995 101.24304 234.6875 98.46875 C 232.8612 96.26819 227.24416 92.77086 222.1875 90.6875 C 217.13084 88.60413 211.50908 84.919183 209.6875 82.5 C 208.15788 80.468531 207.16463 79.510337 206.28125 79.59375 z M 196.34375 103.03125 L 197.875 109.1875 C 200.27021 118.7308 197.44788 122.51694 185.5 125.8125 C 159.98329 132.85072 157.52686 133.06428 155.9375 128.5625 C 155.1098 126.21809 152.68566 122.2846 150.5625 119.8125 C 148.43934 117.34039 147.17791 115.21148 147.75 115.09375 C 148.3221 114.97603 151.08098 114.53512 153.90625 114.09375 C 156.7315 113.65237 167.43315 110.97058 177.6875 108.15625 L 196.34375 103.03125 z M 190.46875 141.09375 C 193.97316 140.93819 193.72538 142.27902 192.53125 146.40625 C 186.96978 165.62799 184.18362 168.54039 170 170 C 162.56626 170.76499 153.71999 172.24075 150.34375 173.28125 C 144.41126 175.10955 144.26822 174.84478 146.03125 165.15625 C 148.24986 152.96408 154.23015 146.36557 164.3125 145 C 168.4798 144.43557 176.92942 143.11684 183.09375 142.09375 C 186.51046 141.52668 188.87584 141.16446 190.46875 141.09375 z "
       transform="translate(121.21427,114.50503)"
       id="path2454" />
  </g>
</svg>
