<?xml version="1.0" encoding="UTF-8" standalone="no"?>
<!-- Created with Inkscape (http://www.inkscape.org/) -->
<svg
   xmlns:dc="http://purl.org/dc/elements/1.1/"
   xmlns:cc="http://creativecommons.org/ns#"
   xmlns:rdf="http://www.w3.org/1999/02/22-rdf-syntax-ns#"
   xmlns:svg="http://www.w3.org/2000/svg"
   xmlns="http://www.w3.org/2000/svg"
   xmlns:sodipodi="http://sodipodi.sourceforge.net/DTD/sodipodi-0.dtd"
   xmlns:inkscape="http://www.inkscape.org/namespaces/inkscape"
   width="300"
   height="300"
   id="svg2"
   sodipodi:version="0.32"
   inkscape:version="0.46"
   version="1.0"
   sodipodi:docname="9暮.svg"
   inkscape:output_extension="org.inkscape.output.svg.inkscape"
   inkscape:export-filename="F:\Download\兰亭集序矢量化\矢量字转位图\1永.png"
   inkscape:export-xdpi="90"
   inkscape:export-ydpi="90">
  <defs
     id="defs4">
    <inkscape:perspective
       sodipodi:type="inkscape:persp3d"
       inkscape:vp_x="0 : 526.18109 : 1"
       inkscape:vp_y="0 : 1000 : 0"
       inkscape:vp_z="744.09448 : 526.18109 : 1"
       inkscape:persp3d-origin="372.04724 : 350.78739 : 1"
       id="perspective10" />
    <inkscape:perspective
       id="perspective2390"
       inkscape:persp3d-origin="372.04724 : 350.78739 : 1"
       inkscape:vp_z="744.09448 : 526.18109 : 1"
       inkscape:vp_y="0 : 1000 : 0"
       inkscape:vp_x="0 : 526.18109 : 1"
       sodipodi:type="inkscape:persp3d" />
    <inkscape:perspective
       id="perspective2389"
       inkscape:persp3d-origin="372.04724 : 350.78739 : 1"
       inkscape:vp_z="744.09448 : 526.18109 : 1"
       inkscape:vp_y="0 : 1000 : 0"
       inkscape:vp_x="0 : 526.18109 : 1"
       sodipodi:type="inkscape:persp3d" />
    <inkscape:perspective
       id="perspective2444"
       inkscape:persp3d-origin="372.04724 : 350.78739 : 1"
       inkscape:vp_z="744.09448 : 526.18109 : 1"
       inkscape:vp_y="0 : 1000 : 0"
       inkscape:vp_x="0 : 526.18109 : 1"
       sodipodi:type="inkscape:persp3d" />
    <inkscape:perspective
       id="perspective2486"
       inkscape:persp3d-origin="372.04724 : 350.78739 : 1"
       inkscape:vp_z="744.09448 : 526.18109 : 1"
       inkscape:vp_y="0 : 1000 : 0"
       inkscape:vp_x="0 : 526.18109 : 1"
       sodipodi:type="inkscape:persp3d" />
  </defs>
  <sodipodi:namedview
     id="base"
     pagecolor="#ffffff"
     bordercolor="#666666"
     borderopacity="1.0"
     gridtolerance="10000"
     guidetolerance="10"
     objecttolerance="10"
     inkscape:pageopacity="0.0"
     inkscape:pageshadow="2"
     inkscape:zoom="1.0564636"
     inkscape:cx="251.47527"
     inkscape:cy="132.3682"
     inkscape:document-units="px"
     inkscape:current-layer="layer1"
     showgrid="true"
     width="300px"
     borderlayer="true"
     inkscape:showpageshadow="true"
     inkscape:window-width="1024"
     inkscape:window-height="718"
     inkscape:window-x="-4"
     inkscape:window-y="-4">
    <inkscape:grid
       type="xygrid"
       id="grid2396"
       visible="true"
       enabled="true"
       dotted="false" />
  </sodipodi:namedview>
  <metadata
     id="metadata7">
    <rdf:RDF>
      <cc:Work
         rdf:about="">
        <dc:format>image/svg+xml</dc:format>
        <dc:type
           rdf:resource="http://purl.org/dc/dcmitype/StillImage" />
      </cc:Work>
    </rdf:RDF>
  </metadata>
  <g
     inkscape:label="Layer 1"
     inkscape:groupmode="layer"
     id="layer1"
     transform="translate(-121.21427,-114.50503)">
    <path
       style="fill:#000000"
       d="M 286.30802,143.44253 L 284.08927,148.03628 C 281.42665,153.55717 279.02173,153.95111 277.74552,149.06753 C 276.93425,145.96311 275.41465,163.23983 276.12052,167.53628 C 276.71236,171.13863 263.11576,209.47115 258.83927,216.25503 C 253.67623,224.44526 238.50485,231.64796 230.58927,229.66128 C 227.97174,229.00433 224.02578,229.82968 221.58927,231.53628 C 218.83822,233.46319 216.77556,233.81773 215.96427,232.50503 C 215.261,231.36711 213.73813,230.44253 212.58927,230.44253 C 210.06739,230.44253 212.17392,241.89613 215.77677,247.81753 C 217.14679,250.06921 220.3726,258.37416 222.96427,266.25503 C 225.55595,274.13592 229.10154,282.21541 230.83927,284.19253 C 232.577,286.16964 233.64522,288.06678 233.18302,288.41128 C 216.16581,301.09505 186.03464,313.67023 179.08927,311.00503 C 177.40237,310.35771 176.02677,310.71754 176.02677,311.81753 C 176.02677,312.9175 180.09436,314.95904 185.05802,316.34878 C 193.76803,318.78743 194.57404,318.62173 208.08927,311.25503 C 215.79131,307.05689 223.31492,302.63733 224.80802,301.44253 C 226.78129,299.86351 228.0188,300.08759 229.37052,302.22378 C 230.9263,304.68245 231.25055,304.58627 231.27677,301.78628 C 231.30947,298.29524 240.24915,291.2274 242.18302,293.16128 C 243.28675,294.26502 234.21439,309.68091 222.90177,325.94253 C 219.64092,330.62995 216.96427,335.03343 216.96427,335.72378 C 216.96427,336.41413 211.92344,343.10902 205.74552,350.59878 C 199.5676,358.08857 194.8772,364.60546 195.33927,365.06753 C 196.98641,366.71467 216.76047,352.39838 219.24552,347.75503 C 220.63745,345.15421 222.45488,343.00502 223.30802,343.00503 C 224.16116,343.00503 226.31806,340.25754 228.08927,336.88003 C 229.8605,333.50251 232.79009,327.87625 234.62052,324.38003 C 237.03259,319.77286 238.42149,318.75247 239.62052,320.69253 C 240.5304,322.16475 240.7475,324.20931 240.12052,325.22378 C 238.00024,328.65447 239.7126,370.56941 242.18302,375.72378 C 245.41393,382.46484 251.23629,383.60447 252.12052,377.66128 C 252.66729,373.98623 254.31147,373.05543 260.99552,372.66128 C 265.49887,372.39571 273.0857,371.47998 277.87052,370.63003 C 283.8623,369.56571 286.55803,369.79531 286.55802,371.38003 C 286.55802,372.64555 288.57206,375.99439 291.02677,378.81753 C 296.05594,384.6016 298.83927,385.36576 298.83927,380.97378 C 298.83927,379.34097 300.2054,377.26315 301.83927,376.34878 C 304.21075,375.02164 304.91356,367.79556 305.40177,340.44253 C 305.73812,321.59725 305.42733,306.15979 304.71427,306.16128 C 304.0012,306.16278 302.93004,304.32666 302.33927,302.06753 C 301.6634,299.483 298.90317,297.46781 294.87052,296.66128 C 291.34557,295.95629 288.79501,294.35655 289.21427,293.09878 C 290.52752,289.15902 294.09541,290.57133 302.93302,298.50503 C 307.63594,302.72693 312.26061,306.16128 313.21427,306.16128 C 314.16793,306.16128 316.16406,307.34097 317.65177,308.78628 C 323.56216,314.52822 340.95868,323.18423 351.83927,325.78628 C 365.09113,328.9554 384.83927,329.57908 384.83927,326.81753 C 384.83927,325.78378 385.34528,323.54327 385.99552,321.84878 C 387.32215,318.39164 381.72963,314.67551 372.99552,313.22378 C 350.12886,309.42296 343.06815,307.61381 332.93302,302.97378 C 326.59897,300.07397 320.60368,296.26185 319.62052,294.50503 C 318.43179,292.38089 317.3848,292.07807 316.46427,293.56753 C 314.65211,296.49966 300.90177,290.12078 300.90177,286.34878 C 300.90177,284.86854 299.0597,283.66128 296.80802,283.66128 C 292.4891,283.66128 291.18684,278.70723 294.90177,276.41128 C 296.10436,275.66803 296.65603,273.90054 296.12052,272.50503 C 294.58674,268.50804 297.13968,266.29646 306.96427,263.13003 C 318.56947,259.38972 327.69584,251.78254 323.71427,249.16128 C 322.02608,248.04986 317.45947,248.38246 311.96427,250.03628 C 306.29359,251.7429 302.93302,252.00011 302.93302,250.69253 C 302.93302,245.30805 309.88489,228.28449 313.37052,225.13003 C 315.51919,223.18551 317.27676,219.15699 317.27677,216.16128 C 317.27677,209.16271 302.61694,199.85242 297.83927,203.81753 C 296.24711,205.1389 294.12982,205.72256 293.12052,205.09878 C 292.11122,204.47501 289.50662,205.26314 287.37052,206.88003 C 285.23444,208.49692 282.20231,209.87548 280.62052,209.91128 C 278.34529,209.96278 278.4717,209.18522 281.15177,206.22378 C 283.01502,204.16491 284.52678,200.98987 284.52677,199.16128 C 284.52677,193.73978 289.07284,185.41128 292.02677,185.41128 C 293.53481,185.41128 294.74551,186.2499 294.74552,187.28628 C 294.74552,188.89812 300.61691,190.91766 310.62052,192.75503 C 312.0313,193.01415 315.96522,192.18485 319.33927,190.91128 C 324.63209,188.91347 325.46427,187.54188 325.46427,181.00503 C 325.46427,174.29758 324.78589,173.292 319.49552,172.13003 C 315.4539,171.24234 310.40938,172.24221 303.93302,175.19253 C 298.66635,177.59178 294.00963,179.20664 293.58927,178.78628 C 293.1689,178.36592 293.64442,173.0113 294.62052,166.88003 C 296.62588,154.28347 296.16245,152.66128 290.55802,152.66128 C 287.84341,152.66128 286.52767,151.18306 286.43302,148.03628 L 286.30802,143.44253 z M 224.87052,166.06753 C 220.13497,166.13951 219.35883,168.19468 224.96427,169.97378 C 229.24102,171.33117 235.40177,182.62159 235.40177,189.09878 C 235.40177,192.94981 233.07754,194.65073 207.96427,209.41128 C 205.59816,210.80198 201.59116,211.95719 199.05802,211.97378 C 191.38867,212.02404 193.87963,215.19743 204.18302,218.50503 C 217.10331,222.65272 228.40721,222.43691 233.58927,217.94253 C 237.72156,214.35861 243.58927,214.6845 243.58927,218.50503 C 243.58927,219.58871 245.64988,220.17798 248.18302,219.81753 C 252.05267,219.2669 252.70933,218.07609 252.24552,212.28628 C 251.83061,207.10707 252.96283,204.19134 256.83927,200.59878 C 259.67603,197.96976 261.99553,194.51594 261.99552,192.91128 C 261.99552,189.16733 256.66091,184.66568 254.08927,186.25503 C 251.7328,187.71141 245.62052,182.08158 245.62052,178.44253 C 245.62052,173.95771 236.69394,167.55573 228.74552,166.34878 C 227.25951,166.12314 225.96334,166.05092 224.87052,166.06753 z M 283.74552,224.69253 C 286.4067,224.41524 287.05772,226.16513 285.46427,229.81753 C 284.58354,231.8363 284.03553,234.19191 284.21427,235.03628 C 284.393,235.88067 283.5901,236.56753 282.46427,236.56753 C 281.33842,236.56753 280.43302,235.26749 280.43302,233.66128 C 280.43302,232.05507 278.8095,230.36553 276.83927,229.91128 C 273.96363,229.24828 274.37596,228.53803 278.90177,226.34878 C 280.919,225.373 282.53589,224.81857 283.74552,224.69253 z M 269.68302,231.56753 C 270.39492,231.57368 271.00155,231.63997 271.46427,231.81753 C 275.68606,233.43759 274.88042,236.11008 269.68302,237.72378 C 267.14988,238.51027 262.77886,240.69013 259.96427,242.56753 C 250.57308,248.83167 244.29449,250.80401 241.77677,248.28628 C 238.48261,244.99211 238.94386,242.72378 242.90177,242.72378 C 244.78334,242.72378 248.04489,241.16172 250.15177,239.25503 C 254.40902,235.40228 264.69971,231.5245 269.68302,231.56753 z M 282.05802,240.78628 C 282.09822,240.77122 282.12512,240.77669 282.15177,240.78628 C 282.36494,240.86297 282.14986,241.71295 281.62052,243.38003 C 280.9657,245.44233 280.43302,248.90793 280.43302,251.06753 C 280.43302,253.55545 279.01326,255.00503 276.55802,255.00503 C 271.35344,255.00503 269.22219,249.10037 273.80802,247.38003 C 275.75925,246.64804 278.59007,244.60731 280.08927,242.84878 C 281.14968,241.60494 281.77664,240.8917 282.05802,240.78628 z M 268.02677,250.34878 C 269.48707,250.38118 270.18302,251.35763 270.18302,253.28628 C 270.18302,254.22241 265.81202,257.74057 260.46427,261.09878 C 249.34668,268.08025 246.56287,268.60934 244.80802,264.03628 C 243.0807,259.53494 245.06861,257.04531 250.37052,257.03628 C 252.83722,257.03207 257.75543,255.265 261.30802,253.09878 C 264.35993,251.23784 266.56647,250.31638 268.02677,250.34878 z M 271.18302,276.34878 C 272.14867,276.31274 273.65941,278.39537 275.08927,281.81753 C 276.76544,285.82917 279.58547,290.29951 281.33927,291.75503 C 285.40607,295.13018 285.49172,298.80051 281.46427,297.25503 C 279.77551,296.60699 278.37052,296.86947 278.37052,297.84878 C 278.37052,301.11768 264.4033,307.92889 259.58927,307.00503 C 255.67351,306.25355 255.52024,306.39037 258.68302,307.78628 C 262.1872,309.33284 261.94904,309.93791 255.96427,314.97378 C 249.79448,320.16531 245.95262,321.80217 245.37052,319.47378 C 243.64618,312.57642 246.45566,304.07751 254.30802,292.44253 C 257.58145,287.59223 262.26414,282.57585 264.71427,281.28628 C 267.1644,279.99672 269.82858,277.94412 270.62052,276.72378 C 270.77642,276.48355 270.96018,276.3571 271.18302,276.34878 z M 281.21427,314.50503 C 283.31436,314.57275 284.54055,315.704 284.55802,317.94253 C 284.57339,319.91274 285.17986,323.74482 285.90177,326.44253 C 287.10351,330.93344 286.71146,331.24477 281.37052,330.22378 C 277.22898,329.43207 272.49102,330.82371 265.02677,335.03628 C 252.40659,342.15866 252.09665,342.17567 249.96427,336.41128 C 248.6624,332.89202 249.31829,331.04257 252.90177,328.22378 C 255.44794,326.22097 258.5033,324.59878 259.68302,324.59878 C 260.86274,324.59878 265.22298,322.28837 269.37052,319.47378 C 274.35802,316.08917 278.51416,314.41796 281.21427,314.50503 z M 284.65177,336.88003 C 285.93254,336.88003 286.55544,340.42024 286.18302,345.56753 C 285.64215,353.04315 284.86553,354.29917 280.77677,354.50503 C 278.15973,354.63679 273.27417,356.79292 269.90177,359.28628 C 266.52936,361.77961 261.07552,364.15006 257.77677,364.56753 C 252.0281,365.29506 251.77677,365.00979 251.77677,357.25503 C 251.77677,352.80516 251.55823,348.46706 251.27677,347.63003 C 250.99531,346.79299 255.57754,346.13875 261.46427,346.16128 C 268.28954,346.18743 272.51236,345.23384 273.15177,343.56753 C 273.70326,342.13035 276.021,340.97378 278.30802,340.97378 C 280.59503,340.97378 282.46426,340.03712 282.46427,338.91128 C 282.46427,337.78544 283.46122,336.88003 284.65177,336.88003 z"
       id="path2496"
       inkscape:export-filename="E:\MyWork\Recent\Calligraphy Vectorization Project\矢量字转位图\9暮.png"
       inkscape:export-xdpi="90"
       inkscape:export-ydpi="90" />
  </g>
</svg>
