<?xml version="1.0" encoding="UTF-8" standalone="no"?>
<!-- Created with Inkscape (http://www.inkscape.org/) -->
<svg
   xmlns:dc="http://purl.org/dc/elements/1.1/"
   xmlns:cc="http://creativecommons.org/ns#"
   xmlns:rdf="http://www.w3.org/1999/02/22-rdf-syntax-ns#"
   xmlns:svg="http://www.w3.org/2000/svg"
   xmlns="http://www.w3.org/2000/svg"
   xmlns:sodipodi="http://sodipodi.sourceforge.net/DTD/sodipodi-0.dtd"
   xmlns:inkscape="http://www.inkscape.org/namespaces/inkscape"
   width="300"
   height="300"
   id="svg2"
   sodipodi:version="0.32"
   inkscape:version="0.46"
   version="1.0"
   sodipodi:docname="10春.svg"
   inkscape:output_extension="org.inkscape.output.svg.inkscape"
   inkscape:export-filename="F:\Download\兰亭集序矢量化\矢量字转位图\1永.png"
   inkscape:export-xdpi="90"
   inkscape:export-ydpi="90">
  <defs
     id="defs4">
    <inkscape:perspective
       sodipodi:type="inkscape:persp3d"
       inkscape:vp_x="0 : 526.18109 : 1"
       inkscape:vp_y="0 : 1000 : 0"
       inkscape:vp_z="744.09448 : 526.18109 : 1"
       inkscape:persp3d-origin="372.04724 : 350.78739 : 1"
       id="perspective10" />
    <inkscape:perspective
       id="perspective2390"
       inkscape:persp3d-origin="372.04724 : 350.78739 : 1"
       inkscape:vp_z="744.09448 : 526.18109 : 1"
       inkscape:vp_y="0 : 1000 : 0"
       inkscape:vp_x="0 : 526.18109 : 1"
       sodipodi:type="inkscape:persp3d" />
    <inkscape:perspective
       id="perspective2389"
       inkscape:persp3d-origin="372.04724 : 350.78739 : 1"
       inkscape:vp_z="744.09448 : 526.18109 : 1"
       inkscape:vp_y="0 : 1000 : 0"
       inkscape:vp_x="0 : 526.18109 : 1"
       sodipodi:type="inkscape:persp3d" />
    <inkscape:perspective
       id="perspective2444"
       inkscape:persp3d-origin="372.04724 : 350.78739 : 1"
       inkscape:vp_z="744.09448 : 526.18109 : 1"
       inkscape:vp_y="0 : 1000 : 0"
       inkscape:vp_x="0 : 526.18109 : 1"
       sodipodi:type="inkscape:persp3d" />
    <inkscape:perspective
       id="perspective2486"
       inkscape:persp3d-origin="372.04724 : 350.78739 : 1"
       inkscape:vp_z="744.09448 : 526.18109 : 1"
       inkscape:vp_y="0 : 1000 : 0"
       inkscape:vp_x="0 : 526.18109 : 1"
       sodipodi:type="inkscape:persp3d" />
    <inkscape:perspective
       id="perspective3311"
       inkscape:persp3d-origin="372.04724 : 350.78739 : 1"
       inkscape:vp_z="744.09448 : 526.18109 : 1"
       inkscape:vp_y="0 : 1000 : 0"
       inkscape:vp_x="0 : 526.18109 : 1"
       sodipodi:type="inkscape:persp3d" />
  </defs>
  <sodipodi:namedview
     id="base"
     pagecolor="#ffffff"
     bordercolor="#666666"
     borderopacity="1.0"
     gridtolerance="10000"
     guidetolerance="10"
     objecttolerance="10"
     inkscape:pageopacity="0.0"
     inkscape:pageshadow="2"
     inkscape:zoom="0.7470326"
     inkscape:cx="147.36249"
     inkscape:cy="129.90172"
     inkscape:document-units="px"
     inkscape:current-layer="layer1"
     showgrid="true"
     width="300px"
     borderlayer="true"
     inkscape:showpageshadow="true"
     inkscape:window-width="1024"
     inkscape:window-height="718"
     inkscape:window-x="-4"
     inkscape:window-y="-4">
    <inkscape:grid
       type="xygrid"
       id="grid2396"
       visible="true"
       enabled="true"
       dotted="false" />
  </sodipodi:namedview>
  <metadata
     id="metadata7">
    <rdf:RDF>
      <cc:Work
         rdf:about="">
        <dc:format>image/svg+xml</dc:format>
        <dc:type
           rdf:resource="http://purl.org/dc/dcmitype/StillImage" />
      </cc:Work>
    </rdf:RDF>
  </metadata>
  <g
     inkscape:label="Layer 1"
     inkscape:groupmode="layer"
     id="layer1"
     transform="translate(-121.21427,-114.50503)">
    <path
       style="fill:#000000"
       d="M 249.08927,148.41128 C 246.86225,148.44536 245.33927,148.96629 245.33927,150.06753 C 245.33927,151.07702 246.66192,151.88003 248.27677,151.88003 C 250.4853,151.88003 250.97784,154.7179 250.30802,163.28628 C 248.75919,183.09916 245.19359,204.96322 243.18302,206.97378 C 242.11657,208.04025 236.0754,209.39681 229.74552,210.00503 C 221.25164,210.82118 219.36267,211.57027 222.55802,212.81753 C 224.93928,213.74703 230.55173,214.57739 235.02677,214.66128 C 243.71477,214.82412 244.77613,217.33764 241.30802,229.69253 C 239.60814,235.74829 223.25513,245.19253 214.46427,245.19253 C 211.16411,245.19253 208.46427,246.15544 208.46427,247.34878 C 208.46427,250.57273 220.522,249.97552 229.27677,246.31753 L 236.93302,243.13003 L 236.24552,249.03628 C 235.66839,254.04497 232.91464,256.25479 218.21427,263.53628 C 206.55361,269.31212 197.88947,272.16929 191.77677,272.22378 C 185.9599,272.27563 183.41987,273.04568 184.74552,274.38003 C 188.31502,277.97297 203.11746,276.037 217.15177,270.13003 C 224.56738,267.00885 231.17128,264.99329 231.83927,265.66128 C 234.2788,268.10082 224.98659,297.65159 215.08927,318.94253 C 203.07882,344.7792 179.28191,381.68538 174.52677,381.81753 C 171.66105,381.89716 169.07446,387.33399 170.99552,389.25503 C 172.73707,390.9966 173.33526,390.92871 178.21427,388.31753 C 180.52251,387.0822 182.43302,384.65312 182.43302,382.94253 C 182.43302,381.09347 183.71873,380.33774 185.62052,381.06753 C 189.34148,382.4954 191.82372,380.21982 201.83927,366.16128 C 205.87754,360.49289 209.84196,355.84877 210.65177,355.84878 C 211.4616,355.84878 213.90552,351.93466 216.05802,347.16128 C 218.21051,342.3879 220.79591,338.47379 221.80802,338.47378 C 222.82013,338.47378 223.65177,336.15477 223.65177,333.31753 C 223.65177,330.48029 225.11176,326.95938 226.90177,325.47378 C 228.69179,323.9882 230.18299,321.66309 230.21427,320.31753 C 230.24557,318.97196 232.19788,313.96589 234.55802,309.19253 L 238.83927,300.50503 L 237.99552,332.56753 C 237.08764,366.03921 238.74062,375.31636 245.71427,375.34878 C 248.48231,375.36164 249.72419,372.63396 250.80802,363.97378 L 252.21427,352.59878 L 270.46427,352.34878 C 283.71967,352.18527 288.74552,352.88477 288.74552,354.84878 C 288.74552,358.22378 294.68113,360.68795 296.33927,358.00503 C 297.01238,356.91592 298.99372,356.58281 300.74552,357.25503 C 305.03506,358.90108 304.98764,347.64821 300.62052,328.81753 C 298.79806,320.95928 297.75081,309.89597 298.30802,304.25503 C 298.86524,298.6141 299.39238,291.42672 299.46427,288.28628 C 299.58731,282.91145 300.4041,283.38938 313.58927,296.31753 C 329.52163,311.9393 348.57395,322.16189 367.05802,325.00503 L 379.21427,326.88003 L 384.33927,319.41128 L 389.46427,311.91128 L 384.46427,307.88003 C 381.70978,305.64958 375.38878,302.74163 370.43302,301.41128 C 354.06094,297.01631 344.2339,292.05624 329.96427,281.03628 C 306.75231,263.11046 287.76078,245.45852 289.65177,243.56753 C 290.34101,242.8783 295.04498,242.23331 300.12052,242.13003 C 321.97011,241.68543 317.92267,228.0462 295.90177,227.91128 C 282.20878,227.82738 278.98348,224.42443 290.71427,222.44253 C 301.14828,220.67971 303.48713,216.05272 296.30802,211.34878 C 291.36507,208.11004 290.35924,208.16581 281.58927,212.41128 C 276.4121,214.9175 271.49959,216.97378 270.68302,216.97378 C 269.86644,216.97378 267.16915,219.0189 264.68302,221.50503 C 259.40098,226.78707 257.31889,225.74629 259.08927,218.69253 C 259.99477,215.08473 264.3433,211.90471 274.55802,207.34878 C 289.88913,200.51087 292.15314,196.49963 282.77677,192.84878 C 278.0775,191.01904 275.45748,191.28773 270.52677,194.06753 C 267.08345,196.00879 263.94045,197.26245 263.52677,196.84878 C 263.1131,196.43511 264.27815,187.43519 266.12052,176.88003 C 269.35918,158.32539 269.34109,157.56936 265.21427,153.44253 C 262.29485,150.52311 253.98872,148.33631 249.08927,148.41128 z M 272.15177,228.03628 C 272.39406,228.02944 272.6431,228.02661 272.90177,228.03628 C 276.35068,228.1652 281.04279,229.68024 281.68302,231.63003 C 282.23047,233.29724 280.56255,234.34878 277.33927,234.34878 C 271.84037,234.34878 269.21427,232.77957 269.21427,229.50503 C 269.21427,228.53879 270.45574,228.08413 272.15177,228.03628 z M 261.21427,234.50503 C 265.77166,234.60047 267.94091,238.2181 264.90177,241.88003 C 263.35029,243.74946 261.57942,244.77643 260.96427,244.16128 C 260.34911,243.54612 258.44849,244.21669 256.74552,245.63003 C 254.16472,247.77191 253.7646,247.12447 254.37052,241.81753 C 254.8416,237.69161 256.51066,235.18791 259.12052,234.69253 C 259.86131,234.55192 260.56321,234.4914 261.21427,234.50503 z M 271.83927,248.75503 C 274.14606,248.86718 275.73398,250.42782 278.90177,254.19253 C 284.25944,260.55974 284.51227,264.72378 279.52677,264.72378 C 276.80832,264.72378 256.09391,281.40186 253.37052,285.78628 C 249.79359,291.54482 247.80802,288.20211 247.80802,276.38003 C 247.80802,263.92164 251.46097,250.35001 253.40177,255.59878 C 254.23619,257.85538 254.97436,257.81692 256.96427,255.34878 C 258.33542,253.64808 262.59628,251.21186 266.43302,249.94253 C 268.83739,249.14708 270.45519,248.68774 271.83927,248.75503 z M 278.43302,281.50503 C 281.6513,281.59882 282.26724,290.10061 281.74552,312.88003 C 281.18359,337.41497 280.81948,339.59131 276.87052,340.34878 C 274.51359,340.80087 271.56236,342.49529 270.33927,344.13003 C 267.73125,347.61573 255.80188,350.37389 253.46427,348.03628 C 252.57755,347.14956 251.83999,340.98038 251.83927,334.31753 L 251.83927,322.22378 L 262.15177,322.81753 C 267.82091,323.15259 273.7824,322.55485 275.40177,321.47378 C 279.27088,318.89081 276.50086,309.50184 272.33927,311.09878 C 270.69528,311.72964 268.78638,311.32049 268.08927,310.19253 C 267.36307,309.01754 264.43915,309.72499 261.24552,311.81753 C 255.96568,315.27701 255.51657,315.25516 252.68302,311.38003 C 248.90766,306.21692 248.70759,294.77531 252.40177,295.25503 C 259.14097,296.13015 262.49727,294.75983 263.80802,290.63003 C 264.58637,288.17766 266.34961,286.55014 267.71427,287.00503 C 269.07895,287.45992 272.13939,286.04385 274.49552,283.84878 C 275.95348,282.49049 277.14123,281.66392 278.12052,281.53628 C 278.22982,281.52203 278.3292,281.502 278.43302,281.50503 z"
       id="path3325"
       inkscape:export-filename="E:\MyWork\Recent\Calligraphy Vectorization Project\矢量字转位图\10春.png"
       inkscape:export-xdpi="90"
       inkscape:export-ydpi="90" />
  </g>
</svg>
