<?xml version="1.0" encoding="UTF-8" standalone="no"?>
<!-- Created with Inkscape (http://www.inkscape.org/) -->
<svg
   xmlns:dc="http://purl.org/dc/elements/1.1/"
   xmlns:cc="http://creativecommons.org/ns#"
   xmlns:rdf="http://www.w3.org/1999/02/22-rdf-syntax-ns#"
   xmlns:svg="http://www.w3.org/2000/svg"
   xmlns="http://www.w3.org/2000/svg"
   xmlns:sodipodi="http://sodipodi.sourceforge.net/DTD/sodipodi-0.dtd"
   xmlns:inkscape="http://www.inkscape.org/namespaces/inkscape"
   width="300"
   height="300"
   id="svg2"
   sodipodi:version="0.32"
   inkscape:version="0.46"
   version="1.0"
   sodipodi:docname="11之.svg"
   inkscape:output_extension="org.inkscape.output.svg.inkscape"
   inkscape:export-filename="F:\Download\兰亭集序矢量化\矢量字转位图\1永.png"
   inkscape:export-xdpi="90"
   inkscape:export-ydpi="90">
  <defs
     id="defs4">
    <inkscape:perspective
       sodipodi:type="inkscape:persp3d"
       inkscape:vp_x="0 : 526.18109 : 1"
       inkscape:vp_y="0 : 1000 : 0"
       inkscape:vp_z="744.09448 : 526.18109 : 1"
       inkscape:persp3d-origin="372.04724 : 350.78739 : 1"
       id="perspective10" />
    <inkscape:perspective
       id="perspective2390"
       inkscape:persp3d-origin="372.04724 : 350.78739 : 1"
       inkscape:vp_z="744.09448 : 526.18109 : 1"
       inkscape:vp_y="0 : 1000 : 0"
       inkscape:vp_x="0 : 526.18109 : 1"
       sodipodi:type="inkscape:persp3d" />
    <inkscape:perspective
       id="perspective2389"
       inkscape:persp3d-origin="372.04724 : 350.78739 : 1"
       inkscape:vp_z="744.09448 : 526.18109 : 1"
       inkscape:vp_y="0 : 1000 : 0"
       inkscape:vp_x="0 : 526.18109 : 1"
       sodipodi:type="inkscape:persp3d" />
    <inkscape:perspective
       id="perspective2444"
       inkscape:persp3d-origin="372.04724 : 350.78739 : 1"
       inkscape:vp_z="744.09448 : 526.18109 : 1"
       inkscape:vp_y="0 : 1000 : 0"
       inkscape:vp_x="0 : 526.18109 : 1"
       sodipodi:type="inkscape:persp3d" />
    <inkscape:perspective
       id="perspective2486"
       inkscape:persp3d-origin="372.04724 : 350.78739 : 1"
       inkscape:vp_z="744.09448 : 526.18109 : 1"
       inkscape:vp_y="0 : 1000 : 0"
       inkscape:vp_x="0 : 526.18109 : 1"
       sodipodi:type="inkscape:persp3d" />
    <inkscape:perspective
       id="perspective3311"
       inkscape:persp3d-origin="372.04724 : 350.78739 : 1"
       inkscape:vp_z="744.09448 : 526.18109 : 1"
       inkscape:vp_y="0 : 1000 : 0"
       inkscape:vp_x="0 : 526.18109 : 1"
       sodipodi:type="inkscape:persp3d" />
    <inkscape:perspective
       id="perspective2393"
       inkscape:persp3d-origin="372.04724 : 350.78739 : 1"
       inkscape:vp_z="744.09448 : 526.18109 : 1"
       inkscape:vp_y="0 : 1000 : 0"
       inkscape:vp_x="0 : 526.18109 : 1"
       sodipodi:type="inkscape:persp3d" />
    <inkscape:perspective
       id="perspective2410"
       inkscape:persp3d-origin="372.04724 : 350.78739 : 1"
       inkscape:vp_z="744.09448 : 526.18109 : 1"
       inkscape:vp_y="0 : 1000 : 0"
       inkscape:vp_x="0 : 526.18109 : 1"
       sodipodi:type="inkscape:persp3d" />
    <inkscape:perspective
       id="perspective2427"
       inkscape:persp3d-origin="372.04724 : 350.78739 : 1"
       inkscape:vp_z="744.09448 : 526.18109 : 1"
       inkscape:vp_y="0 : 1000 : 0"
       inkscape:vp_x="0 : 526.18109 : 1"
       sodipodi:type="inkscape:persp3d" />
  </defs>
  <sodipodi:namedview
     id="base"
     pagecolor="#ffffff"
     bordercolor="#666666"
     borderopacity="1.0"
     gridtolerance="10000"
     guidetolerance="10"
     objecttolerance="10"
     inkscape:pageopacity="0.0"
     inkscape:pageshadow="2"
     inkscape:zoom="1.0564636"
     inkscape:cx="147.36249"
     inkscape:cy="161.04601"
     inkscape:document-units="px"
     inkscape:current-layer="layer1"
     showgrid="true"
     width="300px"
     borderlayer="true"
     inkscape:showpageshadow="true"
     inkscape:window-width="1024"
     inkscape:window-height="718"
     inkscape:window-x="-4"
     inkscape:window-y="-4">
    <inkscape:grid
       type="xygrid"
       id="grid2396"
       visible="true"
       enabled="true"
       dotted="false" />
  </sodipodi:namedview>
  <metadata
     id="metadata7">
    <rdf:RDF>
      <cc:Work
         rdf:about="">
        <dc:format>image/svg+xml</dc:format>
        <dc:type
           rdf:resource="http://purl.org/dc/dcmitype/StillImage" />
      </cc:Work>
    </rdf:RDF>
  </metadata>
  <g
     inkscape:label="Layer 1"
     inkscape:groupmode="layer"
     id="layer1"
     transform="translate(-121.21427,-114.50503)">
    <path
       style="fill:#000000"
       d="M 239.78173,192.83463 C 233.36004,192.91037 233.12542,194.2792 233.12542,198.41517 C 233.12542,201.80166 230.45777,206.5103 227.20871,208.87027 C 221.56721,212.96802 222.07216,213.10289 238.36978,211.79502 C 271.37057,209.14677 277.76972,207.62789 277.76972,202.44929 C 277.76972,195.62918 275.16399,194.68712 252.92624,193.40614 C 246.87973,193.05784 242.70068,192.80021 239.78173,192.83463 z M 336.63431,207.55919 C 335.80153,207.54482 334.93584,207.60694 334.21383,207.7609 C 332.7698,208.06884 329.82685,208.67249 327.65838,209.10561 C 325.48996,209.5387 316.3745,214.26047 307.42053,219.59433 C 298.46655,224.92817 289.90577,228.53033 288.39291,227.59533 C 286.88004,226.66033 285.63627,227.10642 285.63627,228.57025 C 285.63627,230.03407 281.51275,231.99239 276.45863,232.94055 C 271.40452,233.88871 267.24738,235.85911 267.24738,237.31085 C 267.24738,238.76259 264.70646,239.27513 261.56599,238.45385 C 258.1917,237.57146 254.69534,238.4897 253.0271,240.67261 C 251.47446,242.70425 247.25784,244.75291 243.64776,245.24463 C 240.03768,245.73633 234.57098,247.52274 231.51178,249.21151 C 228.45256,250.90028 225.2368,251.57628 224.38482,250.72431 C 223.53285,249.87232 218.04686,251.10054 212.1816,253.44734 C 206.31635,255.79415 198.61496,257.7168 195.07019,257.71679 C 189.25677,257.71679 188.78779,256.92311 190.26287,249.54769 C 191.80144,241.85479 191.57857,241.52779 186.32959,244.33695 C 171.84062,252.09123 172.67368,271.51038 187.77515,277.82017 C 196.60431,281.50924 197.34242,281.40894 203.91164,275.26523 C 207.70046,271.72185 213.78226,267.92422 217.39234,266.8608 C 221.00242,265.79738 226.07097,262.7117 228.65427,260.0028 C 232.49751,255.97272 237.87403,254.02355 241.66432,255.29632 C 242.02534,255.41754 248.81649,253.05059 256.75866,250.01834 L 271.21427,244.50503 L 264.18817,250.45536 C 260.33084,253.7274 252.86878,259.35107 247.61465,262.96115 C 242.36052,266.57124 236.6197,270.72836 234.83992,272.1724 C 233.06017,273.61643 229.74117,275.97271 227.47765,277.41676 C 225.21413,278.86079 219.98864,282.39525 215.87954,285.2833 C 210.78545,288.86368 203.92274,290.6188 194.26336,290.76299 C 183.03514,290.93061 178.26478,292.40862 171.26886,297.99079 C 164.07955,303.72726 162.84564,306.11357 164.57895,310.79913 C 166.48518,315.9522 179.11992,321.95996 183.03506,319.57335 C 186.90701,317.2131 228.27641,315.60557 232.41945,317.65714 C 245.14572,323.95903 275.69216,332.38325 290.88063,333.76002 C 314.91684,335.9388 348.63921,334.27702 351.29162,330.80166 C 352.01654,329.85186 361.1927,328.56364 371.69757,327.91054 C 382.20243,327.25745 391.54913,325.94356 392.4733,325.01941 C 393.39744,324.09525 396.46219,323.33854 399.26408,323.33854 C 402.83075,323.33854 403.87609,322.11119 402.76032,319.20355 C 401.88379,316.91941 401.18029,313.47764 401.18028,311.57234 C 401.18028,309.66701 396.83343,305.55625 391.532,302.42833 C 382.36723,297.02098 380.14614,296.85813 346.24897,298.89847 C 315.97432,300.72076 278.57836,301.07782 235.10887,299.97423 C 224.86218,299.7141 221.90534,295.5619 229.86451,292.61196 C 236.45467,290.16942 254.34079,278.42705 261.96941,271.53366 C 269.3046,264.90542 292.24027,253.45383 303.28555,250.92601 C 329.31179,244.96971 352.78604,234.53396 355.86363,227.5281 C 360.2142,217.62443 356.3118,212.08606 342.75273,208.93752 C 341.66971,208.68602 339.90248,208.21326 338.81945,207.86174 C 338.27795,207.686 337.46709,207.57355 336.63431,207.55919 z"
       id="path2435" />
  </g>
</svg>
