<?xml version="1.0" encoding="UTF-8" standalone="no"?>
<!-- Created with Inkscape (http://www.inkscape.org/) -->
<svg
   xmlns:dc="http://purl.org/dc/elements/1.1/"
   xmlns:cc="http://creativecommons.org/ns#"
   xmlns:rdf="http://www.w3.org/1999/02/22-rdf-syntax-ns#"
   xmlns:svg="http://www.w3.org/2000/svg"
   xmlns="http://www.w3.org/2000/svg"
   xmlns:sodipodi="http://sodipodi.sourceforge.net/DTD/sodipodi-0.dtd"
   xmlns:inkscape="http://www.inkscape.org/namespaces/inkscape"
   width="300"
   height="300"
   id="svg2"
   sodipodi:version="0.32"
   inkscape:version="0.46"
   version="1.0"
   sodipodi:docname="12出.svg"
   inkscape:output_extension="org.inkscape.output.svg.inkscape"
   inkscape:export-filename="F:\Download\兰亭集序矢量化\矢量字转位图\1永.png"
   inkscape:export-xdpi="90"
   inkscape:export-ydpi="90">
  <defs
     id="defs4">
    <inkscape:perspective
       sodipodi:type="inkscape:persp3d"
       inkscape:vp_x="0 : 526.18109 : 1"
       inkscape:vp_y="0 : 1000 : 0"
       inkscape:vp_z="744.09448 : 526.18109 : 1"
       inkscape:persp3d-origin="372.04724 : 350.78739 : 1"
       id="perspective10" />
    <inkscape:perspective
       id="perspective2390"
       inkscape:persp3d-origin="372.04724 : 350.78739 : 1"
       inkscape:vp_z="744.09448 : 526.18109 : 1"
       inkscape:vp_y="0 : 1000 : 0"
       inkscape:vp_x="0 : 526.18109 : 1"
       sodipodi:type="inkscape:persp3d" />
    <inkscape:perspective
       id="perspective2389"
       inkscape:persp3d-origin="372.04724 : 350.78739 : 1"
       inkscape:vp_z="744.09448 : 526.18109 : 1"
       inkscape:vp_y="0 : 1000 : 0"
       inkscape:vp_x="0 : 526.18109 : 1"
       sodipodi:type="inkscape:persp3d" />
    <inkscape:perspective
       id="perspective2444"
       inkscape:persp3d-origin="372.04724 : 350.78739 : 1"
       inkscape:vp_z="744.09448 : 526.18109 : 1"
       inkscape:vp_y="0 : 1000 : 0"
       inkscape:vp_x="0 : 526.18109 : 1"
       sodipodi:type="inkscape:persp3d" />
    <inkscape:perspective
       id="perspective2486"
       inkscape:persp3d-origin="372.04724 : 350.78739 : 1"
       inkscape:vp_z="744.09448 : 526.18109 : 1"
       inkscape:vp_y="0 : 1000 : 0"
       inkscape:vp_x="0 : 526.18109 : 1"
       sodipodi:type="inkscape:persp3d" />
    <inkscape:perspective
       id="perspective3311"
       inkscape:persp3d-origin="372.04724 : 350.78739 : 1"
       inkscape:vp_z="744.09448 : 526.18109 : 1"
       inkscape:vp_y="0 : 1000 : 0"
       inkscape:vp_x="0 : 526.18109 : 1"
       sodipodi:type="inkscape:persp3d" />
    <inkscape:perspective
       id="perspective2393"
       inkscape:persp3d-origin="372.04724 : 350.78739 : 1"
       inkscape:vp_z="744.09448 : 526.18109 : 1"
       inkscape:vp_y="0 : 1000 : 0"
       inkscape:vp_x="0 : 526.18109 : 1"
       sodipodi:type="inkscape:persp3d" />
    <inkscape:perspective
       id="perspective2410"
       inkscape:persp3d-origin="372.04724 : 350.78739 : 1"
       inkscape:vp_z="744.09448 : 526.18109 : 1"
       inkscape:vp_y="0 : 1000 : 0"
       inkscape:vp_x="0 : 526.18109 : 1"
       sodipodi:type="inkscape:persp3d" />
    <inkscape:perspective
       id="perspective2427"
       inkscape:persp3d-origin="372.04724 : 350.78739 : 1"
       inkscape:vp_z="744.09448 : 526.18109 : 1"
       inkscape:vp_y="0 : 1000 : 0"
       inkscape:vp_x="0 : 526.18109 : 1"
       sodipodi:type="inkscape:persp3d" />
    <inkscape:perspective
       id="perspective2477"
       inkscape:persp3d-origin="372.04724 : 350.78739 : 1"
       inkscape:vp_z="744.09448 : 526.18109 : 1"
       inkscape:vp_y="0 : 1000 : 0"
       inkscape:vp_x="0 : 526.18109 : 1"
       sodipodi:type="inkscape:persp3d" />
  </defs>
  <sodipodi:namedview
     id="base"
     pagecolor="#ffffff"
     bordercolor="#666666"
     borderopacity="1.0"
     gridtolerance="10000"
     guidetolerance="10"
     objecttolerance="10"
     inkscape:pageopacity="0.0"
     inkscape:pageshadow="2"
     inkscape:zoom="1.4940652"
     inkscape:cx="127.02923"
     inkscape:cy="184.16707"
     inkscape:document-units="px"
     inkscape:current-layer="layer1"
     showgrid="true"
     width="300px"
     borderlayer="true"
     inkscape:showpageshadow="true"
     inkscape:window-width="1024"
     inkscape:window-height="718"
     inkscape:window-x="-4"
     inkscape:window-y="-4">
    <inkscape:grid
       type="xygrid"
       id="grid2396"
       visible="true"
       enabled="true"
       dotted="false" />
  </sodipodi:namedview>
  <metadata
     id="metadata7">
    <rdf:RDF>
      <cc:Work
         rdf:about="">
        <dc:format>image/svg+xml</dc:format>
        <dc:type
           rdf:resource="http://purl.org/dc/dcmitype/StillImage" />
      </cc:Work>
    </rdf:RDF>
  </metadata>
  <g
     inkscape:label="Layer 1"
     inkscape:groupmode="layer"
     id="layer1"
     transform="translate(-121.21427,-114.50503)">
    <path
       style="fill:#000000"
       d="M 84.0625 42.15625 L 88.90625 48.3125 C 94.94909 55.99474 94.98408 58.417922 89.09375 65.90625 L 84.40625 71.875 L 100.71875 71.4375 C 118.46553 70.98284 124.78125 68.917988 124.78125 63.5625 C 124.78125 57.9567 112.2288 47.883031 103.21875 46.25 C 98.63279 45.41881 92.447547 44.15521 89.46875 43.4375 L 84.0625 42.15625 z M 227.0625 72.59375 C 221.38379 72.629497 215.70643 73.802772 211.1875 76.21875 C 202.34842 80.94444 178.03371 87.673698 169.59375 87.75 C 161.15222 87.82632 160.48386 88.201939 163.3125 91.34375 C 165.04802 93.27144 168.94056 99.18105 171.9375 104.46875 L 177.375 114.09375 L 171.40625 136.5625 C 165.24915 159.76915 153.90419 186.25091 148.03125 191.125 C 142.57549 195.65288 144.12365 196.77767 154.6875 195.9375 C 162.89041 195.28509 166.13531 193.60896 172.8125 186.5625 L 180.9375 177.96875 L 185.8125 186.21875 C 188.49264 190.75697 191.3521 198.62548 192.1875 203.6875 C 193.02291 208.74952 195.11304 214.72587 196.8125 216.96875 C 198.51196 219.21164 199.93001 222.9307 199.96875 225.25 C 200.0346 229.19473 200.3069 229.23956 204.09375 225.8125 C 206.32021 223.79758 208.9477 222.15625 209.9375 222.15625 C 213.02325 222.15625 224.37499 209.07775 224.375 205.53125 C 224.375 203.67742 225.29353 200.42657 226.40625 198.3125 C 227.51895 196.19841 231.63746 183.03235 235.5625 169.03125 C 239.48757 155.03017 245.06158 135.69437 247.9375 126.0625 C 253.9836 105.81309 254.68794 88.081171 249.75 81.03125 C 245.93703 75.5875 236.52702 72.534171 227.0625 72.59375 z M 114 77.875 C 113.80796 77.873906 113.6875 77.979457 113.6875 78.21875 C 113.6875 80.93115 69.982302 123.47247 59.5625 130.90625 C 53.7072 135.0836 51.43222 135.60146 46.5625 133.75 C 38.1407 130.54804 39.232552 134.57577 48.3125 140.1875 C 59.80131 147.28797 66.976717 147.891 74.4375 142.375 C 77.96284 139.76861 81.24074 138.02199 81.71875 138.5 C 83.13184 139.91309 73.560119 158.33339 66.25 168.25 C 62.52644 173.30121 57.466218 180.16686 55.03125 183.53125 C 44.9752 197.42563 37.668731 205.99066 29.15625 213.84375 C 23.02513 219.49994 21.349451 222.15625 23.875 222.15625 C 30.62093 222.15625 50.50079 207.55523 57.25 197.65625 C 63.97715 187.78963 66.54047 184.43424 75.5 173.8125 C 78.23787 170.5667 80.498511 167.31063 80.5 166.5625 C 80.50149 165.81436 83.515692 161.8093 87.21875 157.6875 L 93.96875 150.1875 L 92.59375 169.03125 C 91.84289 179.37989 90.660671 189.33001 89.96875 191.15625 C 89.27682 192.98247 88.910713 197.03889 89.15625 200.1875 C 89.40181 203.33611 87.649747 211.09063 85.25 217.40625 C 80.50116 229.90417 81.663399 239.97667 89.03125 250.25 C 91.12378 253.16772 94.555662 255.09224 97.09375 254.78125 C 101.23142 254.27427 101.54198 252.57283 101.5625 228.78125 C 101.58545 202.17968 105.04927 156.23777 106.53125 162.9375 C 107.00254 165.06811 108.35426 166.8125 109.53125 166.8125 C 110.70823 166.8125 115.46855 170.79255 120.125 175.6875 C 128.53649 184.52982 134.14493 185.57643 138.5625 179.125 C 143.61952 171.7397 132.87478 155.09742 121.15625 152.15625 C 114.10773 150.38718 114.56464 147.8527 122.5625 144.3125 C 126.21495 142.69576 129.1875 140.60779 129.1875 139.6875 C 129.1875 138.76722 130.6706 138.03125 132.46875 138.03125 C 134.26691 138.03125 137.39148 135.5124 139.40625 132.4375 C 142.83657 127.20217 142.79755 126.56141 139.09375 122.46875 C 136.91836 120.06497 132.30751 118.09375 128.84375 118.09375 C 122.21302 118.09375 120.95709 120.05085 124.96875 124.0625 C 126.70797 125.80172 124.64768 129.3256 117.59375 136.6875 C 108.52126 146.15606 100.15975 149.61885 97.34375 145.0625 C 96.02751 142.93277 106.86141 126.96875 109.625 126.96875 C 110.64804 126.96875 111.5 125.10094 111.5 122.84375 C 111.5 120.58656 113.76415 116.29823 116.53125 113.3125 C 119.29833 110.32676 122.74517 104.04332 124.1875 99.34375 C 126.66265 91.27899 126.42901 90.381252 120.25 83.34375 C 117.32446 80.01172 114.83216 77.879741 114 77.875 z M 222.3125 98.1875 C 228.74256 98.1875 228.85442 98.338887 227.5 107.59375 C 226.74275 112.76806 225.16357 120.97381 224 125.84375 C 222.83643 130.7137 220.91271 138.69255 219.75 143.5625 C 218.58728 148.43245 217.02487 156.15318 216.28125 160.71875 C 215.53763 165.28431 214.127 169.03125 213.125 169.03125 C 212.12298 169.03125 210.64315 172.4888 209.84375 176.75 C 208.28614 185.05283 202.81699 187.21037 198 181.40625 C 196.58349 179.69947 192.87135 177.65841 189.75 176.875 C 183.64706 175.34326 183.64027 175.51003 189.75 157.9375 C 197.53237 135.55423 200.62314 123.13957 200.6875 114.09375 C 200.74936 105.39788 201.33301 104.46465 207.09375 103.3125 C 210.56864 102.61752 213.9385 101.15398 214.59375 100.09375 C 215.24901 99.0335 218.71751 98.187499 222.3125 98.1875 z "
       transform="translate(121.21427,114.50503)"
       id="path2485" />
  </g>
</svg>
