<?xml version="1.0" encoding="UTF-8" standalone="no"?>
<!-- Created with Inkscape (http://www.inkscape.org/) -->
<svg
   xmlns:dc="http://purl.org/dc/elements/1.1/"
   xmlns:cc="http://creativecommons.org/ns#"
   xmlns:rdf="http://www.w3.org/1999/02/22-rdf-syntax-ns#"
   xmlns:svg="http://www.w3.org/2000/svg"
   xmlns="http://www.w3.org/2000/svg"
   xmlns:sodipodi="http://sodipodi.sourceforge.net/DTD/sodipodi-0.dtd"
   xmlns:inkscape="http://www.inkscape.org/namespaces/inkscape"
   width="300"
   height="300"
   id="svg2"
   sodipodi:version="0.32"
   inkscape:version="0.46"
   version="1.0"
   sodipodi:docname="13会.svg"
   inkscape:output_extension="org.inkscape.output.svg.inkscape"
   inkscape:export-filename="E:\MyWork\Recent\Calligraphy Vectorization Project\矢量字转位图\12初.png"
   inkscape:export-xdpi="90"
   inkscape:export-ydpi="90">
  <defs
     id="defs4">
    <inkscape:perspective
       sodipodi:type="inkscape:persp3d"
       inkscape:vp_x="0 : 526.18109 : 1"
       inkscape:vp_y="0 : 1000 : 0"
       inkscape:vp_z="744.09448 : 526.18109 : 1"
       inkscape:persp3d-origin="372.04724 : 350.78739 : 1"
       id="perspective10" />
    <inkscape:perspective
       id="perspective2390"
       inkscape:persp3d-origin="372.04724 : 350.78739 : 1"
       inkscape:vp_z="744.09448 : 526.18109 : 1"
       inkscape:vp_y="0 : 1000 : 0"
       inkscape:vp_x="0 : 526.18109 : 1"
       sodipodi:type="inkscape:persp3d" />
    <inkscape:perspective
       id="perspective2389"
       inkscape:persp3d-origin="372.04724 : 350.78739 : 1"
       inkscape:vp_z="744.09448 : 526.18109 : 1"
       inkscape:vp_y="0 : 1000 : 0"
       inkscape:vp_x="0 : 526.18109 : 1"
       sodipodi:type="inkscape:persp3d" />
    <inkscape:perspective
       id="perspective2444"
       inkscape:persp3d-origin="372.04724 : 350.78739 : 1"
       inkscape:vp_z="744.09448 : 526.18109 : 1"
       inkscape:vp_y="0 : 1000 : 0"
       inkscape:vp_x="0 : 526.18109 : 1"
       sodipodi:type="inkscape:persp3d" />
    <inkscape:perspective
       id="perspective2486"
       inkscape:persp3d-origin="372.04724 : 350.78739 : 1"
       inkscape:vp_z="744.09448 : 526.18109 : 1"
       inkscape:vp_y="0 : 1000 : 0"
       inkscape:vp_x="0 : 526.18109 : 1"
       sodipodi:type="inkscape:persp3d" />
    <inkscape:perspective
       id="perspective3311"
       inkscape:persp3d-origin="372.04724 : 350.78739 : 1"
       inkscape:vp_z="744.09448 : 526.18109 : 1"
       inkscape:vp_y="0 : 1000 : 0"
       inkscape:vp_x="0 : 526.18109 : 1"
       sodipodi:type="inkscape:persp3d" />
    <inkscape:perspective
       id="perspective2393"
       inkscape:persp3d-origin="372.04724 : 350.78739 : 1"
       inkscape:vp_z="744.09448 : 526.18109 : 1"
       inkscape:vp_y="0 : 1000 : 0"
       inkscape:vp_x="0 : 526.18109 : 1"
       sodipodi:type="inkscape:persp3d" />
    <inkscape:perspective
       id="perspective2410"
       inkscape:persp3d-origin="372.04724 : 350.78739 : 1"
       inkscape:vp_z="744.09448 : 526.18109 : 1"
       inkscape:vp_y="0 : 1000 : 0"
       inkscape:vp_x="0 : 526.18109 : 1"
       sodipodi:type="inkscape:persp3d" />
    <inkscape:perspective
       id="perspective2427"
       inkscape:persp3d-origin="372.04724 : 350.78739 : 1"
       inkscape:vp_z="744.09448 : 526.18109 : 1"
       inkscape:vp_y="0 : 1000 : 0"
       inkscape:vp_x="0 : 526.18109 : 1"
       sodipodi:type="inkscape:persp3d" />
    <inkscape:perspective
       id="perspective2477"
       inkscape:persp3d-origin="372.04724 : 350.78739 : 1"
       inkscape:vp_z="744.09448 : 526.18109 : 1"
       inkscape:vp_y="0 : 1000 : 0"
       inkscape:vp_x="0 : 526.18109 : 1"
       sodipodi:type="inkscape:persp3d" />
    <inkscape:perspective
       id="perspective2526"
       inkscape:persp3d-origin="372.04724 : 350.78739 : 1"
       inkscape:vp_z="744.09448 : 526.18109 : 1"
       inkscape:vp_y="0 : 1000 : 0"
       inkscape:vp_x="0 : 526.18109 : 1"
       sodipodi:type="inkscape:persp3d" />
    <inkscape:perspective
       id="perspective2541"
       inkscape:persp3d-origin="372.04724 : 350.78739 : 1"
       inkscape:vp_z="744.09448 : 526.18109 : 1"
       inkscape:vp_y="0 : 1000 : 0"
       inkscape:vp_x="0 : 526.18109 : 1"
       sodipodi:type="inkscape:persp3d" />
    <inkscape:perspective
       id="perspective2556"
       inkscape:persp3d-origin="372.04724 : 350.78739 : 1"
       inkscape:vp_z="744.09448 : 526.18109 : 1"
       inkscape:vp_y="0 : 1000 : 0"
       inkscape:vp_x="0 : 526.18109 : 1"
       sodipodi:type="inkscape:persp3d" />
    <inkscape:perspective
       id="perspective2573"
       inkscape:persp3d-origin="372.04724 : 350.78739 : 1"
       inkscape:vp_z="744.09448 : 526.18109 : 1"
       inkscape:vp_y="0 : 1000 : 0"
       inkscape:vp_x="0 : 526.18109 : 1"
       sodipodi:type="inkscape:persp3d" />
  </defs>
  <sodipodi:namedview
     id="base"
     pagecolor="#ffffff"
     bordercolor="#666666"
     borderopacity="1.0"
     gridtolerance="10000"
     guidetolerance="10"
     objecttolerance="10"
     inkscape:pageopacity="0.0"
     inkscape:pageshadow="2"
     inkscape:zoom="2.9881304"
     inkscape:cx="168.52049"
     inkscape:cy="200.82107"
     inkscape:document-units="px"
     inkscape:current-layer="layer1"
     showgrid="true"
     width="300px"
     borderlayer="true"
     inkscape:showpageshadow="true"
     inkscape:window-width="1024"
     inkscape:window-height="718"
     inkscape:window-x="-4"
     inkscape:window-y="-4">
    <inkscape:grid
       type="xygrid"
       id="grid2396"
       visible="true"
       enabled="true"
       dotted="false" />
  </sodipodi:namedview>
  <metadata
     id="metadata7">
    <rdf:RDF>
      <cc:Work
         rdf:about="">
        <dc:format>image/svg+xml</dc:format>
        <dc:type
           rdf:resource="http://purl.org/dc/dcmitype/StillImage" />
      </cc:Work>
    </rdf:RDF>
  </metadata>
  <g
     inkscape:label="Layer 1"
     inkscape:groupmode="layer"
     id="layer1"
     transform="translate(-121.21427,-114.50503)">
    <path
       style="fill:#000000"
       d="M 126.21875 53.15625 C 123.09894 53.15625 123.34073 64.578711 126.5 66.53125 C 130.79428 69.18526 127.70495 73.249673 118.96875 76.40625 C 110.9019 79.32099 110.86302 79.415317 117.3125 79.59375 C 120.97164 79.69498 123.96875 80.354932 123.96875 81.0625 C 123.96875 84.79743 104.29316 117.77202 90.0625 137.875 C 67.17783 170.20307 31.168371 211.63472 18.125 220.6875 C 9.63687 226.57871 7.6762104 230.56709 14.5 228.03125 C 23.46188 224.70086 45.534688 206.54555 70.15625 182.25 L 95.8125 156.9375 L 104.96875 166.6875 C 114.12045 176.40339 115.26789 179.08846 117.65625 196.8125 C 119.00749 206.84001 125.53643 216.09983 130.03125 214.375 C 131.99167 213.62272 132.26447 217.02578 131 226.34375 C 129.17533 239.78979 130.18255 248.1052 134.28125 253.34375 C 137.20964 257.08653 143.3125 257.3181 143.3125 253.6875 C 143.3125 252.21454 144.81079 251.60433 146.65625 252.3125 C 148.50171 253.02067 155.31048 252.22314 161.78125 250.53125 C 172.45785 247.73969 174.17986 247.89454 180.34375 252.1875 C 184.0795 254.78933 187.4662 256.50907 187.875 256.03125 C 191.43022 251.87591 200.90851 218.81781 199.15625 216.6875 C 197.95722 215.22977 196.95511 208.19483 196.90625 201.0625 C 196.85738 193.93016 196.4702 187.79978 196.0625 187.40625 C 195.65479 187.01272 191.68596 186.10303 187.21875 185.40625 C 177.66762 183.91651 169.30048 187.1005 158.34375 196.40625 C 146.54813 206.4245 138.83714 205.15827 146.875 194.53125 C 148.82858 191.94839 150.45768 187.98503 150.5 185.71875 C 150.5474 183.1802 154.85349 179.7069 161.75 176.65625 C 175.40585 170.61562 174.75 170.62823 174.75 176.71875 C 174.75 180.73312 176.06347 181.5522 181.34375 180.9375 C 187.23164 180.25206 188.34807 178.51791 192.0625 164.4375 C 194.34409 155.78863 196.28554 146.40814 196.375 143.59375 C 196.46447 140.77935 198.7784 135.62468 201.53125 132.125 C 207.67173 124.31865 205.96577 117.14046 197.4375 115 C 191.60225 113.53545 186.72553 115.62301 180.8125 122.125 C 178.53881 124.62516 163.8378 129.53457 130 139.09375 C 122.01642 141.34911 113.8706 143.68144 111.90625 144.28125 C 109.41262 145.04267 110.74993 146.87281 116.28125 150.375 C 124.14998 155.35712 124.24104 155.35382 129.53125 150.65625 C 136.31379 144.63351 143.3125 146.07327 143.3125 153.46875 C 143.3125 157.21928 141.52805 159.52103 137.875 160.5 C 128.608 162.98346 116.6875 162.21184 116.6875 159.125 C 116.6875 156.95976 116.01628 156.92124 113.96875 158.96875 C 111.92122 161.01628 109.76779 160.76511 105.5 157.96875 C 99.73195 154.18937 97.654751 147.5 102.25 147.5 C 103.61352 147.5 105.84866 145.05634 107.21875 142.0625 C 115.07733 124.89043 117.98244 121.11169 121.5625 123.375 C 127.98117 127.43289 139.46836 125.89484 146.875 119.96875 C 153.18399 114.92091 154.40645 114.65853 156.78125 117.90625 C 158.99529 120.93414 159.53865 120.20925 159.71875 113.875 C 160.00337 103.86461 155.44765 102.1982 143.9375 108.15625 C 131.15725 114.77174 120.5596 117.20911 122.1875 113.15625 C 122.88272 111.42541 126.43088 103.23722 130.0625 94.9375 C 136.17763 80.96199 137.11937 79.944338 143 81.28125 C 150.22088 82.92285 219.34107 117.09106 223.15625 120.90625 C 224.52788 122.27788 229.58156 122.95329 252.78125 124.90625 C 266.6704 126.07545 269.125 125.70874 269.125 122.4375 C 269.125 116.04378 257.98166 110.79319 239.46875 108.4375 C 229.82384 107.21023 219.75494 105.8151 217.09375 105.34375 C 211.10962 104.28382 183.86065 92.316392 182.09375 89.96875 C 180.3599 87.66501 166.23789 82.17359 153.59375 78.90625 C 143.78385 76.37129 143.3125 75.833053 143.3125 67.125 C 143.3125 59.06121 142.62371 58 137.40625 58 C 134.15829 58 130.82236 56.92435 130 55.59375 C 129.17764 54.26315 127.47082 53.156251 126.21875 53.15625 z M 184.34375 131.40625 C 185.95545 131.36189 186.84375 131.79778 186.84375 132.71875 C 186.84375 140.01864 181.26298 159.67037 178.53125 161.9375 C 176.3515 163.74653 173.36389 163.78415 169 162.125 C 163.93271 160.19842 162.65626 160.46104 162.65625 163.3125 C 162.65625 165.27546 161.02714 166.87501 159.03125 166.875 C 153.88384 166.875 154.43537 165.59811 163 157.59375 C 170.93802 150.17503 170.63361 143.78358 162.46875 146.375 C 157.07628 148.0865 148.15625 145.74828 148.15625 142.625 C 148.15625 141.44436 152.22902 139.79009 157.21875 138.96875 C 162.20849 138.1474 168.4638 136.55746 171.125 135.40625 C 176.97897 132.87387 181.65759 131.48019 184.34375 131.40625 z M 123.375 167.71875 C 124.58434 167.643 126.57754 167.98096 129.40625 168.53125 C 138.5337 170.30689 141.68786 173.8753 138.03125 178.28125 C 134.24727 182.84067 130.55154 181.96657 125.78125 175.40625 C 121.80232 169.93423 120.71445 167.8854 123.375 167.71875 z M 143.90625 184.40625 C 144.43783 184.41214 144.87318 184.56068 145.15625 184.84375 C 145.69954 185.38704 144.27141 189.74463 142 194.53125 C 137.05501 204.95204 133.625 207.62037 133.625 201.0625 C 133.625 198.4316 133.10332 194.83458 132.4375 193.0625 C 131.45125 190.43761 140.1852 184.36502 143.90625 184.40625 z M 175.625 196.53125 C 176.06776 196.54585 176.44647 196.65616 176.75 196.84375 C 180.01488 198.86156 182.12099 215.21962 180.4375 225.59375 C 179.18225 233.32891 177.50678 235.30465 169 239.0625 C 157.68889 244.05914 141.48017 247.21486 139.9375 244.71875 C 139.37019 243.80084 139.44295 240.24819 140.09375 236.84375 C 141.038 231.90422 143.46704 230.08853 152.09375 227.78125 C 168.51573 223.38904 182.08611 212.84375 171.3125 212.84375 C 169.41417 212.84375 167.34057 210.9223 166.71875 208.59375 C 165.76879 205.03643 165.30272 205.25114 163.8125 209.90625 C 160.80765 219.29273 142.83952 226.24911 140.09375 219.09375 C 138.5744 215.13441 145.61678 208 151.03125 208 C 153.07558 208 157.61906 205.7265 161.125 202.96875 C 164.63093 200.21098 167.5 198.73145 167.5 199.65625 C 167.5 200.58104 169.09365 200.01432 171.03125 198.40625 C 172.48446 197.2002 174.29672 196.48744 175.625 196.53125 z "
       transform="translate(121.21427,114.50503)"
       id="path2581"
       inkscape:export-filename="E:\MyWork\Recent\Calligraphy Vectorization Project\矢量字转位图\13会.png"
       inkscape:export-xdpi="90"
       inkscape:export-ydpi="90" />
  </g>
</svg>
