<?xml version="1.0" encoding="UTF-8" standalone="no"?>
<!-- Created with Inkscape (http://www.inkscape.org/) -->
<svg
   xmlns:dc="http://purl.org/dc/elements/1.1/"
   xmlns:cc="http://creativecommons.org/ns#"
   xmlns:rdf="http://www.w3.org/1999/02/22-rdf-syntax-ns#"
   xmlns:svg="http://www.w3.org/2000/svg"
   xmlns="http://www.w3.org/2000/svg"
   xmlns:sodipodi="http://sodipodi.sourceforge.net/DTD/sodipodi-0.dtd"
   xmlns:inkscape="http://www.inkscape.org/namespaces/inkscape"
   width="300"
   height="300"
   id="svg2"
   sodipodi:version="0.32"
   inkscape:version="0.46"
   version="1.0"
   sodipodi:docname="14于.svg"
   inkscape:output_extension="org.inkscape.output.svg.inkscape"
   inkscape:export-filename="E:\MyWork\Recent\Calligraphy Vectorization Project\矢量字转位图\12初.png"
   inkscape:export-xdpi="90"
   inkscape:export-ydpi="90">
  <defs
     id="defs4">
    <inkscape:perspective
       sodipodi:type="inkscape:persp3d"
       inkscape:vp_x="0 : 526.18109 : 1"
       inkscape:vp_y="0 : 1000 : 0"
       inkscape:vp_z="744.09448 : 526.18109 : 1"
       inkscape:persp3d-origin="372.04724 : 350.78739 : 1"
       id="perspective10" />
    <inkscape:perspective
       id="perspective2390"
       inkscape:persp3d-origin="372.04724 : 350.78739 : 1"
       inkscape:vp_z="744.09448 : 526.18109 : 1"
       inkscape:vp_y="0 : 1000 : 0"
       inkscape:vp_x="0 : 526.18109 : 1"
       sodipodi:type="inkscape:persp3d" />
    <inkscape:perspective
       id="perspective2389"
       inkscape:persp3d-origin="372.04724 : 350.78739 : 1"
       inkscape:vp_z="744.09448 : 526.18109 : 1"
       inkscape:vp_y="0 : 1000 : 0"
       inkscape:vp_x="0 : 526.18109 : 1"
       sodipodi:type="inkscape:persp3d" />
    <inkscape:perspective
       id="perspective2444"
       inkscape:persp3d-origin="372.04724 : 350.78739 : 1"
       inkscape:vp_z="744.09448 : 526.18109 : 1"
       inkscape:vp_y="0 : 1000 : 0"
       inkscape:vp_x="0 : 526.18109 : 1"
       sodipodi:type="inkscape:persp3d" />
    <inkscape:perspective
       id="perspective2486"
       inkscape:persp3d-origin="372.04724 : 350.78739 : 1"
       inkscape:vp_z="744.09448 : 526.18109 : 1"
       inkscape:vp_y="0 : 1000 : 0"
       inkscape:vp_x="0 : 526.18109 : 1"
       sodipodi:type="inkscape:persp3d" />
    <inkscape:perspective
       id="perspective3311"
       inkscape:persp3d-origin="372.04724 : 350.78739 : 1"
       inkscape:vp_z="744.09448 : 526.18109 : 1"
       inkscape:vp_y="0 : 1000 : 0"
       inkscape:vp_x="0 : 526.18109 : 1"
       sodipodi:type="inkscape:persp3d" />
    <inkscape:perspective
       id="perspective2393"
       inkscape:persp3d-origin="372.04724 : 350.78739 : 1"
       inkscape:vp_z="744.09448 : 526.18109 : 1"
       inkscape:vp_y="0 : 1000 : 0"
       inkscape:vp_x="0 : 526.18109 : 1"
       sodipodi:type="inkscape:persp3d" />
    <inkscape:perspective
       id="perspective2410"
       inkscape:persp3d-origin="372.04724 : 350.78739 : 1"
       inkscape:vp_z="744.09448 : 526.18109 : 1"
       inkscape:vp_y="0 : 1000 : 0"
       inkscape:vp_x="0 : 526.18109 : 1"
       sodipodi:type="inkscape:persp3d" />
    <inkscape:perspective
       id="perspective2427"
       inkscape:persp3d-origin="372.04724 : 350.78739 : 1"
       inkscape:vp_z="744.09448 : 526.18109 : 1"
       inkscape:vp_y="0 : 1000 : 0"
       inkscape:vp_x="0 : 526.18109 : 1"
       sodipodi:type="inkscape:persp3d" />
    <inkscape:perspective
       id="perspective2477"
       inkscape:persp3d-origin="372.04724 : 350.78739 : 1"
       inkscape:vp_z="744.09448 : 526.18109 : 1"
       inkscape:vp_y="0 : 1000 : 0"
       inkscape:vp_x="0 : 526.18109 : 1"
       sodipodi:type="inkscape:persp3d" />
    <inkscape:perspective
       id="perspective2526"
       inkscape:persp3d-origin="372.04724 : 350.78739 : 1"
       inkscape:vp_z="744.09448 : 526.18109 : 1"
       inkscape:vp_y="0 : 1000 : 0"
       inkscape:vp_x="0 : 526.18109 : 1"
       sodipodi:type="inkscape:persp3d" />
    <inkscape:perspective
       id="perspective2541"
       inkscape:persp3d-origin="372.04724 : 350.78739 : 1"
       inkscape:vp_z="744.09448 : 526.18109 : 1"
       inkscape:vp_y="0 : 1000 : 0"
       inkscape:vp_x="0 : 526.18109 : 1"
       sodipodi:type="inkscape:persp3d" />
    <inkscape:perspective
       id="perspective2556"
       inkscape:persp3d-origin="372.04724 : 350.78739 : 1"
       inkscape:vp_z="744.09448 : 526.18109 : 1"
       inkscape:vp_y="0 : 1000 : 0"
       inkscape:vp_x="0 : 526.18109 : 1"
       sodipodi:type="inkscape:persp3d" />
    <inkscape:perspective
       id="perspective2573"
       inkscape:persp3d-origin="372.04724 : 350.78739 : 1"
       inkscape:vp_z="744.09448 : 526.18109 : 1"
       inkscape:vp_y="0 : 1000 : 0"
       inkscape:vp_x="0 : 526.18109 : 1"
       sodipodi:type="inkscape:persp3d" />
    <inkscape:perspective
       id="perspective2401"
       inkscape:persp3d-origin="372.04724 : 350.78739 : 1"
       inkscape:vp_z="744.09448 : 526.18109 : 1"
       inkscape:vp_y="0 : 1000 : 0"
       inkscape:vp_x="0 : 526.18109 : 1"
       sodipodi:type="inkscape:persp3d" />
    <inkscape:perspective
       id="perspective2420"
       inkscape:persp3d-origin="372.04724 : 350.78739 : 1"
       inkscape:vp_z="744.09448 : 526.18109 : 1"
       inkscape:vp_y="0 : 1000 : 0"
       inkscape:vp_x="0 : 526.18109 : 1"
       sodipodi:type="inkscape:persp3d" />
    <inkscape:perspective
       id="perspective2433"
       inkscape:persp3d-origin="372.04724 : 350.78739 : 1"
       inkscape:vp_z="744.09448 : 526.18109 : 1"
       inkscape:vp_y="0 : 1000 : 0"
       inkscape:vp_x="0 : 526.18109 : 1"
       sodipodi:type="inkscape:persp3d" />
  </defs>
  <sodipodi:namedview
     id="base"
     pagecolor="#ffffff"
     bordercolor="#666666"
     borderopacity="1.0"
     gridtolerance="10000"
     guidetolerance="10"
     objecttolerance="10"
     inkscape:pageopacity="0.0"
     inkscape:pageshadow="2"
     inkscape:zoom="1.0564636"
     inkscape:cx="178.07682"
     inkscape:cy="185.34722"
     inkscape:document-units="px"
     inkscape:current-layer="layer1"
     showgrid="true"
     width="300px"
     borderlayer="true"
     inkscape:showpageshadow="true"
     inkscape:window-width="1024"
     inkscape:window-height="718"
     inkscape:window-x="-4"
     inkscape:window-y="-4">
    <inkscape:grid
       type="xygrid"
       id="grid2396"
       visible="true"
       enabled="true"
       dotted="false" />
  </sodipodi:namedview>
  <metadata
     id="metadata7">
    <rdf:RDF>
      <cc:Work
         rdf:about="">
        <dc:format>image/svg+xml</dc:format>
        <dc:type
           rdf:resource="http://purl.org/dc/dcmitype/StillImage" />
      </cc:Work>
    </rdf:RDF>
  </metadata>
  <g
     inkscape:label="Layer 1"
     inkscape:groupmode="layer"
     id="layer1"
     transform="translate(-121.21427,-114.50503)">
    <path
       style="fill:#000000"
       d="M 303.62409,147.31829 C 302.32534,147.37391 300.97486,147.56201 299.50377,147.8742 C 295.22445,148.78235 288.70063,150.07704 285.01724,150.75189 C 281.33383,151.42674 274.29737,152.98858 269.38618,154.18549 C 256.74207,157.26701 242.04105,157.00914 240.93633,153.69497 C 240.20849,151.51144 238.77847,151.48386 234.06913,153.62957 C 229.30688,155.79939 228.08485,157.88906 228.08485,163.96308 C 228.08485,171.53216 228.15799,171.58002 240.74013,173.15205 C 247.69215,174.02065 255.23155,175.39306 257.48302,176.22594 C 259.7345,177.05882 270.34488,177.63561 281.09312,177.50128 C 306.80095,177.18 322.68031,171.29363 323.60438,161.73941 C 324.12784,156.32735 322.89724,154.6219 315.75615,150.78459 C 310.95377,148.204 307.52034,147.15141 303.62409,147.31829 z M 285.73666,194.50579 C 284.61457,194.50254 283.90541,195.18311 283.90541,196.63135 C 283.90541,197.85915 281.91366,198.85501 279.45807,198.85501 C 275.3282,198.85501 274.97804,200.34994 274.97804,218.7045 L 274.97804,238.55399 L 266.999,240.05824 C 262.61485,240.8807 251.31322,244.68627 241.88466,248.52779 C 229.026,253.76685 220.56497,255.66514 208.00645,256.14711 C 198.79796,256.50049 190.93879,256.83608 190.54414,256.86654 C 188.05339,257.05872 198.01586,264.31882 204.44205,267.00384 C 208.69841,268.78226 212.75799,271.23126 213.50022,272.4322 C 216.11814,276.66809 230.35776,279.11046 236.6525,276.42172 C 239.92445,275.02414 243.59995,273.79865 244.82775,273.67483 C 246.05555,273.55102 249.07585,272.37515 251.53145,271.05876 C 255.09757,269.14704 270.40776,263.63045 274.78184,262.68731 C 279.24215,261.72555 274.34216,316.48238 269.09187,326.22529 C 260.52355,342.12538 235.83752,373.71424 226.2536,381.03212 C 213.79102,390.548 215.96072,390.67533 232.72839,381.45723 C 245.05858,374.67869 245.94754,374.51846 249.9291,378.12173 C 254.43762,382.20188 261.57064,383.27081 261.57064,379.85488 C 261.57064,378.70983 263.68826,377.08024 266.27958,376.25778 C 272.96727,374.1352 288.03858,360.03358 294.43512,349.9008 C 299.52282,341.84134 299.96086,338.71364 301.17152,300.29342 C 301.88212,277.74214 303.30328,259.82075 304.34351,260.46364 C 305.38375,261.10654 306.24018,259.5581 306.24017,257.03004 C 306.24017,252.80148 307.57083,252.4519 322.85226,252.4519 C 331.82517,252.4519 339.76821,251.46444 340.77239,250.26094 L 341.39371,248.69129 C 341.40852,248.6318 341.41168,248.58986 341.42641,248.52779 C 341.98799,246.16144 342.46176,241.93324 342.63635,237.70377 C 343.09631,226.5608 338.99422,221.92252 330.8967,224.49258 C 328.59082,225.22443 326.06181,224.78928 325.27213,223.51155 C 324.48244,222.23381 319.98673,221.18978 315.29834,221.18978 C 305.19406,221.18978 300.9088,216.96983 302.18525,208.27289 C 302.89451,203.44035 302.15328,201.90136 299.04596,201.6673 C 296.82629,201.50009 293.44183,199.79106 291.52473,197.87399 C 289.29685,195.64609 287.17935,194.50995 285.73666,194.50579 z"
       id="path2443"
       inkscape:export-filename="E:\MyWork\Recent\Calligraphy Vectorization Project\矢量字转位图\14于.png"
       inkscape:export-xdpi="90"
       inkscape:export-ydpi="90" />
  </g>
</svg>
