<?xml version="1.0" encoding="UTF-8" standalone="no"?>
<!-- Created with Inkscape (http://www.inkscape.org/) -->
<svg
   xmlns:dc="http://purl.org/dc/elements/1.1/"
   xmlns:cc="http://creativecommons.org/ns#"
   xmlns:rdf="http://www.w3.org/1999/02/22-rdf-syntax-ns#"
   xmlns:svg="http://www.w3.org/2000/svg"
   xmlns="http://www.w3.org/2000/svg"
   xmlns:sodipodi="http://sodipodi.sourceforge.net/DTD/sodipodi-0.dtd"
   xmlns:inkscape="http://www.inkscape.org/namespaces/inkscape"
   width="300"
   height="300"
   id="svg2"
   sodipodi:version="0.32"
   inkscape:version="0.46"
   version="1.0"
   sodipodi:docname="15会.svg"
   inkscape:output_extension="org.inkscape.output.svg.inkscape"
   inkscape:export-filename="E:\MyWork\Recent\Calligraphy Vectorization Project\矢量字转位图\12初.png"
   inkscape:export-xdpi="90"
   inkscape:export-ydpi="90">
  <defs
     id="defs4">
    <inkscape:perspective
       sodipodi:type="inkscape:persp3d"
       inkscape:vp_x="0 : 526.18109 : 1"
       inkscape:vp_y="0 : 1000 : 0"
       inkscape:vp_z="744.09448 : 526.18109 : 1"
       inkscape:persp3d-origin="372.04724 : 350.78739 : 1"
       id="perspective10" />
    <inkscape:perspective
       id="perspective2390"
       inkscape:persp3d-origin="372.04724 : 350.78739 : 1"
       inkscape:vp_z="744.09448 : 526.18109 : 1"
       inkscape:vp_y="0 : 1000 : 0"
       inkscape:vp_x="0 : 526.18109 : 1"
       sodipodi:type="inkscape:persp3d" />
    <inkscape:perspective
       id="perspective2389"
       inkscape:persp3d-origin="372.04724 : 350.78739 : 1"
       inkscape:vp_z="744.09448 : 526.18109 : 1"
       inkscape:vp_y="0 : 1000 : 0"
       inkscape:vp_x="0 : 526.18109 : 1"
       sodipodi:type="inkscape:persp3d" />
    <inkscape:perspective
       id="perspective2444"
       inkscape:persp3d-origin="372.04724 : 350.78739 : 1"
       inkscape:vp_z="744.09448 : 526.18109 : 1"
       inkscape:vp_y="0 : 1000 : 0"
       inkscape:vp_x="0 : 526.18109 : 1"
       sodipodi:type="inkscape:persp3d" />
    <inkscape:perspective
       id="perspective2486"
       inkscape:persp3d-origin="372.04724 : 350.78739 : 1"
       inkscape:vp_z="744.09448 : 526.18109 : 1"
       inkscape:vp_y="0 : 1000 : 0"
       inkscape:vp_x="0 : 526.18109 : 1"
       sodipodi:type="inkscape:persp3d" />
    <inkscape:perspective
       id="perspective3311"
       inkscape:persp3d-origin="372.04724 : 350.78739 : 1"
       inkscape:vp_z="744.09448 : 526.18109 : 1"
       inkscape:vp_y="0 : 1000 : 0"
       inkscape:vp_x="0 : 526.18109 : 1"
       sodipodi:type="inkscape:persp3d" />
    <inkscape:perspective
       id="perspective2393"
       inkscape:persp3d-origin="372.04724 : 350.78739 : 1"
       inkscape:vp_z="744.09448 : 526.18109 : 1"
       inkscape:vp_y="0 : 1000 : 0"
       inkscape:vp_x="0 : 526.18109 : 1"
       sodipodi:type="inkscape:persp3d" />
    <inkscape:perspective
       id="perspective2410"
       inkscape:persp3d-origin="372.04724 : 350.78739 : 1"
       inkscape:vp_z="744.09448 : 526.18109 : 1"
       inkscape:vp_y="0 : 1000 : 0"
       inkscape:vp_x="0 : 526.18109 : 1"
       sodipodi:type="inkscape:persp3d" />
    <inkscape:perspective
       id="perspective2427"
       inkscape:persp3d-origin="372.04724 : 350.78739 : 1"
       inkscape:vp_z="744.09448 : 526.18109 : 1"
       inkscape:vp_y="0 : 1000 : 0"
       inkscape:vp_x="0 : 526.18109 : 1"
       sodipodi:type="inkscape:persp3d" />
    <inkscape:perspective
       id="perspective2477"
       inkscape:persp3d-origin="372.04724 : 350.78739 : 1"
       inkscape:vp_z="744.09448 : 526.18109 : 1"
       inkscape:vp_y="0 : 1000 : 0"
       inkscape:vp_x="0 : 526.18109 : 1"
       sodipodi:type="inkscape:persp3d" />
    <inkscape:perspective
       id="perspective2526"
       inkscape:persp3d-origin="372.04724 : 350.78739 : 1"
       inkscape:vp_z="744.09448 : 526.18109 : 1"
       inkscape:vp_y="0 : 1000 : 0"
       inkscape:vp_x="0 : 526.18109 : 1"
       sodipodi:type="inkscape:persp3d" />
    <inkscape:perspective
       id="perspective2541"
       inkscape:persp3d-origin="372.04724 : 350.78739 : 1"
       inkscape:vp_z="744.09448 : 526.18109 : 1"
       inkscape:vp_y="0 : 1000 : 0"
       inkscape:vp_x="0 : 526.18109 : 1"
       sodipodi:type="inkscape:persp3d" />
    <inkscape:perspective
       id="perspective2556"
       inkscape:persp3d-origin="372.04724 : 350.78739 : 1"
       inkscape:vp_z="744.09448 : 526.18109 : 1"
       inkscape:vp_y="0 : 1000 : 0"
       inkscape:vp_x="0 : 526.18109 : 1"
       sodipodi:type="inkscape:persp3d" />
    <inkscape:perspective
       id="perspective2573"
       inkscape:persp3d-origin="372.04724 : 350.78739 : 1"
       inkscape:vp_z="744.09448 : 526.18109 : 1"
       inkscape:vp_y="0 : 1000 : 0"
       inkscape:vp_x="0 : 526.18109 : 1"
       sodipodi:type="inkscape:persp3d" />
    <inkscape:perspective
       id="perspective2401"
       inkscape:persp3d-origin="372.04724 : 350.78739 : 1"
       inkscape:vp_z="744.09448 : 526.18109 : 1"
       inkscape:vp_y="0 : 1000 : 0"
       inkscape:vp_x="0 : 526.18109 : 1"
       sodipodi:type="inkscape:persp3d" />
    <inkscape:perspective
       id="perspective2420"
       inkscape:persp3d-origin="372.04724 : 350.78739 : 1"
       inkscape:vp_z="744.09448 : 526.18109 : 1"
       inkscape:vp_y="0 : 1000 : 0"
       inkscape:vp_x="0 : 526.18109 : 1"
       sodipodi:type="inkscape:persp3d" />
    <inkscape:perspective
       id="perspective2433"
       inkscape:persp3d-origin="372.04724 : 350.78739 : 1"
       inkscape:vp_z="744.09448 : 526.18109 : 1"
       inkscape:vp_y="0 : 1000 : 0"
       inkscape:vp_x="0 : 526.18109 : 1"
       sodipodi:type="inkscape:persp3d" />
    <inkscape:perspective
       id="perspective2404"
       inkscape:persp3d-origin="372.04724 : 350.78739 : 1"
       inkscape:vp_z="744.09448 : 526.18109 : 1"
       inkscape:vp_y="0 : 1000 : 0"
       inkscape:vp_x="0 : 526.18109 : 1"
       sodipodi:type="inkscape:persp3d" />
    <inkscape:perspective
       id="perspective2419"
       inkscape:persp3d-origin="372.04724 : 350.78739 : 1"
       inkscape:vp_z="744.09448 : 526.18109 : 1"
       inkscape:vp_y="0 : 1000 : 0"
       inkscape:vp_x="0 : 526.18109 : 1"
       sodipodi:type="inkscape:persp3d" />
    <inkscape:perspective
       id="perspective2434"
       inkscape:persp3d-origin="372.04724 : 350.78739 : 1"
       inkscape:vp_z="744.09448 : 526.18109 : 1"
       inkscape:vp_y="0 : 1000 : 0"
       inkscape:vp_x="0 : 526.18109 : 1"
       sodipodi:type="inkscape:persp3d" />
    <inkscape:perspective
       id="perspective2453"
       inkscape:persp3d-origin="372.04724 : 350.78739 : 1"
       inkscape:vp_z="744.09448 : 526.18109 : 1"
       inkscape:vp_y="0 : 1000 : 0"
       inkscape:vp_x="0 : 526.18109 : 1"
       sodipodi:type="inkscape:persp3d" />
  </defs>
  <sodipodi:namedview
     id="base"
     pagecolor="#ffffff"
     bordercolor="#666666"
     borderopacity="1.0"
     gridtolerance="10000"
     guidetolerance="10"
     objecttolerance="10"
     inkscape:pageopacity="0.0"
     inkscape:pageshadow="2"
     inkscape:zoom="1.0564636"
     inkscape:cx="172.63615"
     inkscape:cy="151.01773"
     inkscape:document-units="px"
     inkscape:current-layer="layer1"
     showgrid="true"
     width="300px"
     borderlayer="true"
     inkscape:showpageshadow="true"
     inkscape:window-width="1024"
     inkscape:window-height="718"
     inkscape:window-x="-4"
     inkscape:window-y="-4">
    <inkscape:grid
       type="xygrid"
       id="grid2396"
       visible="true"
       enabled="true"
       dotted="false" />
  </sodipodi:namedview>
  <metadata
     id="metadata7">
    <rdf:RDF>
      <cc:Work
         rdf:about="">
        <dc:format>image/svg+xml</dc:format>
        <dc:type
           rdf:resource="http://purl.org/dc/dcmitype/StillImage" />
      </cc:Work>
    </rdf:RDF>
  </metadata>
  <g
     inkscape:label="Layer 1"
     inkscape:groupmode="layer"
     id="layer1"
     transform="translate(-121.21427,-114.50503)">
    <path
       style="fill:#000000"
       d="M 254.7285,139.66128 L 254.7285,145.22302 C 254.72302,148.27129 253.89442,152.31568 252.92008,154.231 C 251.94576,156.14631 250.32182,159.96961 249.30324,162.72716 C 246.12096,171.34248 221.73189,219.45809 219.31078,221.89318 C 218.04439,223.16689 214.15642,229.8454 210.67813,236.73587 C 205.85375,246.29293 198.41024,255.06749 179.25258,273.68904 C 165.44024,287.11486 151.49814,299.7613 148.2706,301.80485 C 145.04304,303.84838 142.40177,306.33777 142.40177,307.33247 C 142.40177,309.94535 150.20915,309.38616 159.32585,306.13823 C 159.86824,305.945 160.39813,305.76253 160.92954,305.59229 C 160.97505,305.57771 161.02064,305.57257 161.06602,305.55817 L 171.60945,301.32715 C 172.46115,300.05013 174.05204,299.10928 175.49926,299.10928 C 176.423,299.10928 177.48778,298.88468 178.67252,298.4951 L 180.4127,297.81268 C 189.88928,293.72218 204.95915,280.33843 214.39734,266.89894 C 219.82513,259.17003 224.87856,253.89125 226.10088,254.64946 C 230.05825,257.10423 235.14858,279.1649 234.15346,289.52124 C 233.31766,298.21975 233.71011,299.64668 237.42909,301.05418 C 239.75782,301.93552 242.57024,302.08579 243.67326,301.39539 C 244.77628,300.70499 249.50291,299.12857 254.18256,297.91504 C 265.20621,295.05637 262.485,299.24656 250.80457,303.10145 C 246.41328,304.55071 243.18852,306.33042 243.63914,307.0595 C 245.04125,309.32818 262.71283,309.48601 262.71284,307.23011 C 262.71284,306.07627 264.84689,305.11461 267.45568,305.1146 C 273.58119,305.1146 282.77606,297.89459 282.77606,293.06984 C 282.77606,288.35496 286.01434,286.15357 287.45066,289.89658 C 289.17675,294.39471 301.0652,296.22093 303.24873,292.31918 C 304.24372,290.54124 307.0976,289.07767 309.62938,289.07767 C 312.16116,289.07767 315.89025,287.25742 317.8867,285.05138 C 321.27029,281.31255 321.28764,280.7928 318.19379,277.37412 C 313.80121,272.52038 314.02357,269.40566 319.31978,260.99599 C 330.98145,242.47881 331.08768,241.4407 322.56129,232.9143 C 315.26722,225.62023 308.4176,222.50074 303.3511,224.1793 C 296.31492,226.5104 278.78853,235.98559 278.78389,237.45241 C 278.78126,238.27967 277.38945,238.95374 275.71299,238.95374 C 274.03655,238.95374 269.09422,241.21199 264.72599,243.96955 C 258.20336,248.0871 254.27974,248.95123 242.71787,248.95123 C 231.69918,248.95123 228.62584,248.34728 228.62584,246.05094 C 228.62584,243.05287 234.51153,226.92814 239.74933,215.58077 C 241.35369,212.10502 242.68373,207.70274 242.68374,205.82213 C 242.68374,203.94152 245.27994,199.12739 248.45021,195.1081 C 251.62049,191.08881 255.74159,182.37953 257.6288,175.76143 L 261.07503,163.75079 L 288.91786,190.80884 C 320.91091,221.91764 325.77784,225.95177 336.27798,229.80928 C 340.48786,231.35588 348.90976,235.18389 354.97635,238.33956 C 361.04295,241.49525 372.60001,246.22248 380.66956,248.81475 C 397.52523,254.22945 400.33206,253.15471 398.27606,242.19525 C 397.09395,235.89409 395.56138,234.49677 383.97931,229.0245 C 380.94456,227.59064 378.07486,226.32087 375.58551,225.27117 L 368.69304,222.84857 C 368.52878,222.82378 368.36333,222.77411 368.21535,222.71209 C 368.16793,222.69222 368.12428,222.6672 368.07886,222.64385 L 356.78477,218.6858 C 352.41722,218.11081 346.59456,216.2396 342.14681,213.87472 C 336.9606,211.11716 331.39111,208.85891 329.79497,208.85891 C 328.19881,208.85891 326.89468,208.11982 326.89467,207.2211 C 326.89467,206.32238 323.68297,204.07443 319.76336,202.20529 C 315.84374,200.33617 304.52471,190.896 294.58197,181.25493 C 284.63924,171.61384 273.86337,162.42938 270.62894,160.8505 C 267.39452,159.2716 264.69741,156.57534 264.65775,154.84518 C 264.61808,153.11501 262.35435,149.00977 259.64194,145.70072 L 254.7285,139.66128 z M 279.02274,201.0793 C 274.7997,201.19476 270.50012,202.31136 267.72865,204.49141 C 265.00395,206.63466 258.7155,208.99979 253.73899,209.74606 C 246.58968,210.81816 244.66276,211.9286 244.66277,215.00072 C 244.66277,217.81103 246.05468,218.89052 249.67857,218.89052 C 252.43612,218.89052 254.69438,219.80065 254.69438,220.90367 C 254.69438,224.34484 260.58271,223.09191 264.18005,218.89052 C 266.68776,215.96172 270.12233,214.86423 276.83899,214.86423 C 288.3012,214.86423 294.81739,210.7399 291.61343,205.48092 C 289.77242,202.45908 284.45235,200.93085 279.02274,201.0793 z M 300.96262,238.95374 C 302.25615,238.95374 302.55071,240.73102 301.71328,243.45773 C 298.19884,254.90099 295.52775,259.77173 294.07015,257.41327 C 293.24247,256.07405 290.46868,254.99067 287.89423,254.99067 C 285.31979,254.99067 282.66081,253.56215 281.99128,251.8174 C 280.22995,247.22745 280.35937,246.97221 284.65272,246.97221 C 286.79366,246.97221 289.12331,246.06208 289.80501,244.95906 C 290.48671,243.85605 292.78224,242.94591 294.92318,242.94591 C 297.06412,242.94591 298.813,242.03579 298.81299,240.93277 C 298.81299,239.82975 299.78528,238.95374 300.96262,238.95374 z M 249.84918,257.1403 C 250.62821,257.12319 251.45344,257.12036 252.3059,257.1403 C 257.98897,257.27322 264.72599,258.18659 264.72599,259.28993 C 264.72599,260.13523 260.54884,262.66227 255.44504,264.91992 C 250.34126,267.17757 245.93499,269.01446 245.65228,269.01445 C 244.15299,269.01445 243.46216,258.74648 244.90162,257.85684 C 245.62123,257.41209 247.5121,257.19163 249.84918,257.1403 z M 289.22495,269.9016 C 290.28391,269.78015 290.71733,270.3038 290.35095,271.40293 C 289.35165,274.4008 284.78921,276.05207 284.78921,273.41607 C 284.78921,272.33915 286.21577,270.91308 287.96247,270.24281 C 288.45076,270.05543 288.87197,269.94209 289.22495,269.9016 z M 263.90708,277.68121 C 264.72555,277.66467 264.72599,278.6483 264.72599,280.61563 C 264.72599,282.80134 263.14181,285.04229 261.21151,285.59731 C 259.28124,286.15233 256.0245,287.30399 253.94371,288.1564 C 247.84191,290.65606 250.88172,285.41294 258.24298,280.75212 C 261.45265,278.71989 263.08861,277.69776 263.90708,277.68121 z M 286.25642,303.20381 C 285.74212,303.19991 285.24447,303.21707 284.75509,303.23793 C 281.19595,303.38967 278.3621,304.20846 277.04371,305.79702 C 275.63008,307.50033 273.36151,308.47149 271.99379,307.94665 C 270.62607,307.42181 267.81538,308.80674 265.78374,311.05167 C 263.7521,313.29661 260.85304,315.14621 259.33485,315.14621 C 257.81665,315.14621 256.10141,316.41148 255.51329,317.94414 C 254.09316,321.64494 247.09833,319.71324 244.52629,314.90736 C 243.4194,312.8391 241.10929,311.15402 239.374,311.15403 C 236.9511,311.15403 236.52647,312.40506 237.56558,316.54517 C 238.30979,319.51035 240.21672,322.88068 241.7966,324.05182 C 243.81587,325.54867 244.83113,331.35233 245.24283,343.60322 C 245.69352,357.01419 246.68552,361.9502 249.47385,365.03128 C 253.02083,368.95065 252.95339,369.06129 246.06174,370.35418 C 242.18959,371.08058 237.13782,371.0848 234.83589,370.35418 C 229.72129,368.73088 229.21634,372.40237 234.18759,375.06289 C 238.94757,377.61036 256.40236,379.41469 257.59467,377.48549 C 259.12289,375.01279 284.47542,368.74033 287.79187,370.01297 C 289.45323,370.65049 290.79453,373.27609 290.79453,375.84768 C 290.79453,378.41923 291.89023,381.61797 293.21712,382.94487 C 298.0118,387.73954 308.84461,381.54044 308.8446,374.00514 C 308.8446,371.34803 310.22562,368.64828 311.9155,367.99982 C 314.07764,367.17013 314.89368,364.34374 314.64519,358.51415 C 314.45098,353.9579 314.88985,342.57193 315.6347,333.19628 L 316.99955,316.13572 L 309.93647,310.57398 C 304.25444,306.08055 293.97082,303.26236 286.25642,303.20381 z M 287.92835,315.93099 C 291.30295,315.79909 292.81701,317.37221 292.84179,320.60558 C 292.85686,322.57049 293.46187,326.34339 294.17252,328.99938 L 295.435,333.84458 L 291.13574,329.5112 C 285.58461,323.96007 281.36414,324.05855 272.71033,329.92065 C 268.86948,332.52245 263.64703,335.28639 261.07503,336.09657 C 253.2689,338.55559 256.26478,329.50328 264.72599,325.07545 C 276.15101,319.09661 283.58959,316.10057 287.92835,315.93099 z M 294.82082,335.34591 L 294.61609,340.77117 C 294.18021,352.64876 292.10268,355.74279 282.74194,358.34354 C 277.80061,359.71645 270.90074,361.72951 267.42156,362.84753 C 261.18271,364.85236 261.08026,364.78357 260.222,357.55876 C 259.74339,353.52974 258.74607,348.87459 258.00413,347.22006 C 256.89384,344.74407 258.78633,344.18771 268.58168,344.01267 C 276.78762,343.86603 282.70963,342.49501 287.65538,339.57693 L 294.82082,335.34591 z"
       id="path2440" />
  </g>
</svg>
