<?xml version="1.0" encoding="UTF-8" standalone="no"?>
<!-- Created with Inkscape (http://www.inkscape.org/) -->
<svg
   xmlns:dc="http://purl.org/dc/elements/1.1/"
   xmlns:cc="http://creativecommons.org/ns#"
   xmlns:rdf="http://www.w3.org/1999/02/22-rdf-syntax-ns#"
   xmlns:svg="http://www.w3.org/2000/svg"
   xmlns="http://www.w3.org/2000/svg"
   xmlns:sodipodi="http://sodipodi.sourceforge.net/DTD/sodipodi-0.dtd"
   xmlns:inkscape="http://www.inkscape.org/namespaces/inkscape"
   width="300"
   height="300"
   id="svg2"
   sodipodi:version="0.32"
   inkscape:version="0.46"
   version="1.0"
   sodipodi:docname="16稽.svg"
   inkscape:output_extension="org.inkscape.output.svg.inkscape"
   inkscape:export-filename="E:\MyWork\Recent\Calligraphy Vectorization Project\矢量字转位图\12初.png"
   inkscape:export-xdpi="90"
   inkscape:export-ydpi="90">
  <defs
     id="defs4">
    <inkscape:perspective
       sodipodi:type="inkscape:persp3d"
       inkscape:vp_x="0 : 526.18109 : 1"
       inkscape:vp_y="0 : 1000 : 0"
       inkscape:vp_z="744.09448 : 526.18109 : 1"
       inkscape:persp3d-origin="372.04724 : 350.78739 : 1"
       id="perspective10" />
    <inkscape:perspective
       id="perspective2390"
       inkscape:persp3d-origin="372.04724 : 350.78739 : 1"
       inkscape:vp_z="744.09448 : 526.18109 : 1"
       inkscape:vp_y="0 : 1000 : 0"
       inkscape:vp_x="0 : 526.18109 : 1"
       sodipodi:type="inkscape:persp3d" />
    <inkscape:perspective
       id="perspective2389"
       inkscape:persp3d-origin="372.04724 : 350.78739 : 1"
       inkscape:vp_z="744.09448 : 526.18109 : 1"
       inkscape:vp_y="0 : 1000 : 0"
       inkscape:vp_x="0 : 526.18109 : 1"
       sodipodi:type="inkscape:persp3d" />
    <inkscape:perspective
       id="perspective2444"
       inkscape:persp3d-origin="372.04724 : 350.78739 : 1"
       inkscape:vp_z="744.09448 : 526.18109 : 1"
       inkscape:vp_y="0 : 1000 : 0"
       inkscape:vp_x="0 : 526.18109 : 1"
       sodipodi:type="inkscape:persp3d" />
    <inkscape:perspective
       id="perspective2486"
       inkscape:persp3d-origin="372.04724 : 350.78739 : 1"
       inkscape:vp_z="744.09448 : 526.18109 : 1"
       inkscape:vp_y="0 : 1000 : 0"
       inkscape:vp_x="0 : 526.18109 : 1"
       sodipodi:type="inkscape:persp3d" />
    <inkscape:perspective
       id="perspective3311"
       inkscape:persp3d-origin="372.04724 : 350.78739 : 1"
       inkscape:vp_z="744.09448 : 526.18109 : 1"
       inkscape:vp_y="0 : 1000 : 0"
       inkscape:vp_x="0 : 526.18109 : 1"
       sodipodi:type="inkscape:persp3d" />
    <inkscape:perspective
       id="perspective2393"
       inkscape:persp3d-origin="372.04724 : 350.78739 : 1"
       inkscape:vp_z="744.09448 : 526.18109 : 1"
       inkscape:vp_y="0 : 1000 : 0"
       inkscape:vp_x="0 : 526.18109 : 1"
       sodipodi:type="inkscape:persp3d" />
    <inkscape:perspective
       id="perspective2410"
       inkscape:persp3d-origin="372.04724 : 350.78739 : 1"
       inkscape:vp_z="744.09448 : 526.18109 : 1"
       inkscape:vp_y="0 : 1000 : 0"
       inkscape:vp_x="0 : 526.18109 : 1"
       sodipodi:type="inkscape:persp3d" />
    <inkscape:perspective
       id="perspective2427"
       inkscape:persp3d-origin="372.04724 : 350.78739 : 1"
       inkscape:vp_z="744.09448 : 526.18109 : 1"
       inkscape:vp_y="0 : 1000 : 0"
       inkscape:vp_x="0 : 526.18109 : 1"
       sodipodi:type="inkscape:persp3d" />
    <inkscape:perspective
       id="perspective2477"
       inkscape:persp3d-origin="372.04724 : 350.78739 : 1"
       inkscape:vp_z="744.09448 : 526.18109 : 1"
       inkscape:vp_y="0 : 1000 : 0"
       inkscape:vp_x="0 : 526.18109 : 1"
       sodipodi:type="inkscape:persp3d" />
    <inkscape:perspective
       id="perspective2526"
       inkscape:persp3d-origin="372.04724 : 350.78739 : 1"
       inkscape:vp_z="744.09448 : 526.18109 : 1"
       inkscape:vp_y="0 : 1000 : 0"
       inkscape:vp_x="0 : 526.18109 : 1"
       sodipodi:type="inkscape:persp3d" />
    <inkscape:perspective
       id="perspective2541"
       inkscape:persp3d-origin="372.04724 : 350.78739 : 1"
       inkscape:vp_z="744.09448 : 526.18109 : 1"
       inkscape:vp_y="0 : 1000 : 0"
       inkscape:vp_x="0 : 526.18109 : 1"
       sodipodi:type="inkscape:persp3d" />
    <inkscape:perspective
       id="perspective2556"
       inkscape:persp3d-origin="372.04724 : 350.78739 : 1"
       inkscape:vp_z="744.09448 : 526.18109 : 1"
       inkscape:vp_y="0 : 1000 : 0"
       inkscape:vp_x="0 : 526.18109 : 1"
       sodipodi:type="inkscape:persp3d" />
    <inkscape:perspective
       id="perspective2573"
       inkscape:persp3d-origin="372.04724 : 350.78739 : 1"
       inkscape:vp_z="744.09448 : 526.18109 : 1"
       inkscape:vp_y="0 : 1000 : 0"
       inkscape:vp_x="0 : 526.18109 : 1"
       sodipodi:type="inkscape:persp3d" />
    <inkscape:perspective
       id="perspective2401"
       inkscape:persp3d-origin="372.04724 : 350.78739 : 1"
       inkscape:vp_z="744.09448 : 526.18109 : 1"
       inkscape:vp_y="0 : 1000 : 0"
       inkscape:vp_x="0 : 526.18109 : 1"
       sodipodi:type="inkscape:persp3d" />
    <inkscape:perspective
       id="perspective2420"
       inkscape:persp3d-origin="372.04724 : 350.78739 : 1"
       inkscape:vp_z="744.09448 : 526.18109 : 1"
       inkscape:vp_y="0 : 1000 : 0"
       inkscape:vp_x="0 : 526.18109 : 1"
       sodipodi:type="inkscape:persp3d" />
    <inkscape:perspective
       id="perspective2433"
       inkscape:persp3d-origin="372.04724 : 350.78739 : 1"
       inkscape:vp_z="744.09448 : 526.18109 : 1"
       inkscape:vp_y="0 : 1000 : 0"
       inkscape:vp_x="0 : 526.18109 : 1"
       sodipodi:type="inkscape:persp3d" />
    <inkscape:perspective
       id="perspective2404"
       inkscape:persp3d-origin="372.04724 : 350.78739 : 1"
       inkscape:vp_z="744.09448 : 526.18109 : 1"
       inkscape:vp_y="0 : 1000 : 0"
       inkscape:vp_x="0 : 526.18109 : 1"
       sodipodi:type="inkscape:persp3d" />
    <inkscape:perspective
       id="perspective2419"
       inkscape:persp3d-origin="372.04724 : 350.78739 : 1"
       inkscape:vp_z="744.09448 : 526.18109 : 1"
       inkscape:vp_y="0 : 1000 : 0"
       inkscape:vp_x="0 : 526.18109 : 1"
       sodipodi:type="inkscape:persp3d" />
    <inkscape:perspective
       id="perspective2434"
       inkscape:persp3d-origin="372.04724 : 350.78739 : 1"
       inkscape:vp_z="744.09448 : 526.18109 : 1"
       inkscape:vp_y="0 : 1000 : 0"
       inkscape:vp_x="0 : 526.18109 : 1"
       sodipodi:type="inkscape:persp3d" />
    <inkscape:perspective
       id="perspective2453"
       inkscape:persp3d-origin="372.04724 : 350.78739 : 1"
       inkscape:vp_z="744.09448 : 526.18109 : 1"
       inkscape:vp_y="0 : 1000 : 0"
       inkscape:vp_x="0 : 526.18109 : 1"
       sodipodi:type="inkscape:persp3d" />
    <inkscape:perspective
       id="perspective2538"
       inkscape:persp3d-origin="372.04724 : 350.78739 : 1"
       inkscape:vp_z="744.09448 : 526.18109 : 1"
       inkscape:vp_y="0 : 1000 : 0"
       inkscape:vp_x="0 : 526.18109 : 1"
       sodipodi:type="inkscape:persp3d" />
    <inkscape:perspective
       id="perspective2553"
       inkscape:persp3d-origin="372.04724 : 350.78739 : 1"
       inkscape:vp_z="744.09448 : 526.18109 : 1"
       inkscape:vp_y="0 : 1000 : 0"
       inkscape:vp_x="0 : 526.18109 : 1"
       sodipodi:type="inkscape:persp3d" />
    <inkscape:perspective
       id="perspective2570"
       inkscape:persp3d-origin="372.04724 : 350.78739 : 1"
       inkscape:vp_z="744.09448 : 526.18109 : 1"
       inkscape:vp_y="0 : 1000 : 0"
       inkscape:vp_x="0 : 526.18109 : 1"
       sodipodi:type="inkscape:persp3d" />
    <inkscape:perspective
       id="perspective2585"
       inkscape:persp3d-origin="372.04724 : 350.78739 : 1"
       inkscape:vp_z="744.09448 : 526.18109 : 1"
       inkscape:vp_y="0 : 1000 : 0"
       inkscape:vp_x="0 : 526.18109 : 1"
       sodipodi:type="inkscape:persp3d" />
    <inkscape:perspective
       id="perspective2600"
       inkscape:persp3d-origin="372.04724 : 350.78739 : 1"
       inkscape:vp_z="744.09448 : 526.18109 : 1"
       inkscape:vp_y="0 : 1000 : 0"
       inkscape:vp_x="0 : 526.18109 : 1"
       sodipodi:type="inkscape:persp3d" />
    <inkscape:perspective
       id="perspective2615"
       inkscape:persp3d-origin="372.04724 : 350.78739 : 1"
       inkscape:vp_z="744.09448 : 526.18109 : 1"
       inkscape:vp_y="0 : 1000 : 0"
       inkscape:vp_x="0 : 526.18109 : 1"
       sodipodi:type="inkscape:persp3d" />
    <inkscape:perspective
       id="perspective2630"
       inkscape:persp3d-origin="372.04724 : 350.78739 : 1"
       inkscape:vp_z="744.09448 : 526.18109 : 1"
       inkscape:vp_y="0 : 1000 : 0"
       inkscape:vp_x="0 : 526.18109 : 1"
       sodipodi:type="inkscape:persp3d" />
    <inkscape:perspective
       id="perspective2645"
       inkscape:persp3d-origin="372.04724 : 350.78739 : 1"
       inkscape:vp_z="744.09448 : 526.18109 : 1"
       inkscape:vp_y="0 : 1000 : 0"
       inkscape:vp_x="0 : 526.18109 : 1"
       sodipodi:type="inkscape:persp3d" />
  </defs>
  <sodipodi:namedview
     id="base"
     pagecolor="#ffffff"
     bordercolor="#666666"
     borderopacity="1.0"
     gridtolerance="10000"
     guidetolerance="10"
     objecttolerance="10"
     inkscape:pageopacity="0.0"
     inkscape:pageshadow="2"
     inkscape:zoom="0.74703258"
     inkscape:cx="87.236126"
     inkscape:cy="138.69986"
     inkscape:document-units="px"
     inkscape:current-layer="layer1"
     showgrid="true"
     width="300px"
     borderlayer="true"
     inkscape:showpageshadow="true"
     inkscape:window-width="1024"
     inkscape:window-height="718"
     inkscape:window-x="-4"
     inkscape:window-y="-4">
    <inkscape:grid
       type="xygrid"
       id="grid2396"
       visible="true"
       enabled="true"
       dotted="false" />
  </sodipodi:namedview>
  <metadata
     id="metadata7">
    <rdf:RDF>
      <cc:Work
         rdf:about="">
        <dc:format>image/svg+xml</dc:format>
        <dc:type
           rdf:resource="http://purl.org/dc/dcmitype/StillImage" />
      </cc:Work>
    </rdf:RDF>
  </metadata>
  <g
     inkscape:label="Layer 1"
     inkscape:groupmode="layer"
     id="layer1"
     transform="translate(-121.21427,-114.50503)">
    <path
       style="fill:#000000"
       d="M 184.21875 28.5625 C 181.29598 28.712518 178.59871 30.846372 175.15625 34.9375 C 167.67482 43.82868 167.9147 45.457669 176.625 45.0625 L 183.84375 44.75 L 184.53125 59.09375 C 185.28396 75.14855 182.6373 79.125 171.1875 79.125 C 165.60418 79.125 165.07368 78.529647 166.3125 73.59375 C 168.23063 65.95132 163.7059 66.452167 159.625 74.34375 C 155.11362 83.0678 157.13069 88.437991 167.34375 94.75 C 172.14381 97.71659 176.09375 101.24663 176.09375 102.59375 C 176.09375 107.06728 162.96853 131.1429 156.71875 138.15625 C 149.07933 146.72904 141.07393 148.99963 135.6875 144.125 C 132.028 140.81319 131.71875 140.83347 131.71875 144.34375 C 131.71875 146.43481 130.83425 147.60759 129.75 146.9375 C 128.66574 146.26739 128.07289 140.98028 128.4375 135.1875 C 129.0822 124.94524 129.33895 124.60836 137.53125 122.90625 C 142.16463 121.94358 146.69736 119.9504 147.59375 118.5 C 150.12846 114.39876 145.17196 110.1875 137.84375 110.1875 C 132.17436 110.1875 131.39049 109.5038 132.4375 105.5 C 133.31548 102.14263 131.73813 99.038231 126.90625 94.625 L 120.15625 88.46875 L 129.3125 86.9375 C 136.23095 85.76863 139.23354 83.874591 141.625 79.25 C 145.4741 71.80667 142.75131 68.031247 133.5 68.03125 C 130.08405 68.03125 127.28125 67.129833 127.28125 66.03125 C 127.28125 61.23074 111.15907 65.830993 103.28125 72.875 C 98.75082 76.92592 89.856001 83.730073 83.5 88 C 72.20633 95.58707 67.979598 101.05711 75.71875 98.0625 C 77.85373 97.23638 84.158808 95.515637 89.75 94.21875 C 98.57451 92.1719 100.54622 92.396129 104.71875 95.96875 C 110.75849 101.14015 111.29975 114.37724 105.65625 119.125 C 98.80622 124.88781 47.656351 148.13312 35.46875 151.03125 C 29.29502 152.49933 29.131081 152.31329 30.4375 145.78125 C 33.04284 132.75456 23.31489 140.71677 18.5625 155.5 C 15.94155 163.65297 16.116779 164.50266 20.9375 168.40625 C 26.65746 173.03799 31.697571 172.46029 46.3125 165.5625 C 58.67968 159.7256 78.253291 148.32549 86.65625 142.0625 C 90.53981 139.16798 95.223132 136.81249 97.0625 136.8125 C 98.90188 136.8125 101.02726 135.81371 101.78125 134.59375 C 103.59519 131.65873 107.3125 131.73898 107.3125 134.71875 C 107.3125 139.11992 90.858822 171.11646 81.15625 185.59375 C 70.24276 201.87788 60.249041 211.7115 52.625 213.625 C 45.54338 215.40237 48.341671 218.875 56.84375 218.875 C 70.52156 218.875 87.845431 207.29513 101.625 188.9375 C 104.88018 184.60082 104.96229 184.61041 104.90625 190.03125 C 104.87471 193.08121 103.06521 202.34564 100.90625 210.625 C 98.74731 218.90436 97.339014 229.40704 97.75 233.9375 C 98.78622 245.35955 104.71822 260.56642 109.15625 263.15625 C 114.22035 266.11143 117.50049 265.97441 119.875 262.6875 C 120.97666 261.16253 121.8498 239.18948 121.8125 213.875 C 121.7752 188.56051 122.49125 167.84391 123.40625 167.84375 C 124.32123 167.84357 125.06071 169.10003 125.0625 170.625 C 125.06444 172.27877 128.64738 173.6373 133.9375 174 C 143.71607 174.67047 144.75691 172.65692 139.46875 163.40625 C 135.05429 155.68394 135.18727 155.46591 143.90625 155.21875 C 150.08356 155.04366 151.6875 155.83189 151.6875 159.125 C 151.6875 164.06298 158.00062 167.84375 166.21875 167.84375 C 171.34172 167.84375 171.97259 168.54653 170.71875 172.84375 C 166.92737 185.83771 164.69315 207.2902 166.03125 218 C 168.09715 234.53501 172.97668 239.86687 186.4375 240.3125 C 198.40996 240.70883 215.92521 243.79694 219.84375 246.21875 C 221.25219 247.0892 226.48889 246.03752 231.5 243.875 C 238.94372 240.66271 240.37771 239.12444 239.21875 235.5 C 238.43856 233.06003 237.04245 221.10609 236.125 208.90625 C 234.02467 180.97719 230.64817 171.16521 221.875 167.53125 C 212.15493 163.50507 200.87802 164.46844 195.15625 169.84375 C 188.79443 175.82037 186.67882 175.75337 187.5625 169.53125 C 188.35422 163.95669 201.40894 156.41701 211.1875 155.90625 C 220.12146 155.43962 227.59305 149.30091 226.71875 143.125 C 226.10942 138.82072 224.32136 137.68547 216.375 136.625 C 211.08637 135.91921 206.09562 134.25522 205.28125 132.9375 C 202.56095 128.53598 192.23096 132.68022 183.84375 141.53125 C 174.41784 151.47842 171.03184 151.46143 178.125 141.5 C 181.12414 137.28812 187.30585 133.18336 195.0625 130.28125 C 209.62388 124.83313 210.25457 124.80109 213.6875 128.9375 C 217.41929 133.43405 233.5287 135.41586 241.53125 132.375 C 252.26745 128.29544 257.66926 121.99809 256.375 115.09375 C 253.4237 99.35012 236.10177 93.886109 224.46875 105.03125 C 221.05976 108.29727 217.79015 110.47764 217.1875 109.875 C 215.66328 108.35078 221.90084 100.358 234.3125 87.96875 C 240.10741 82.18428 244.84375 76.340691 244.84375 74.96875 C 244.84375 73.5968 245.86673 72.468747 247.125 72.46875 C 252.36683 72.46875 251.58153 65.498431 245.625 59.1875 C 237.995 51.1035 235.79017 51.00117 221.5625 58 C 206.63015 65.34548 204.48954 65.159039 204.96875 56.40625 C 205.61458 44.6099 205.26232 43.743028 196.59375 35.78125 C 191.14833 30.779834 187.53122 28.39248 184.21875 28.5625 z M 207.90625 92.4375 C 208.99581 92.445941 209.38617 94.04267 208.34375 97.4375 C 207.50089 100.18247 205.81757 106.51337 204.625 111.53125 C 203.12714 117.83368 200.78263 121.44701 197.03125 123.15625 C 194.04447 124.51712 191.59374 125.24735 191.59375 124.8125 C 191.59375 123.72178 197.8504 108.39921 201.84375 99.65625 C 203.95789 95.027606 206.50538 92.426647 207.90625 92.4375 z M 204.90625 186.03125 C 207.06168 185.93029 208.85802 189.34393 210.125 196.125 L 211.46875 203.34375 L 196.53125 203.34375 L 181.625 203.3125 L 188.28125 197.875 C 191.94119 194.87498 195.82078 192.38761 196.90625 192.34375 C 197.99174 192.29987 200.17267 190.50998 201.75 188.375 C 202.86651 186.86377 203.92651 186.07714 204.90625 186.03125 z M 182.3125 209.28125 C 183.87517 209.20021 188.49807 210.98208 193.46875 213.625 C 199.14951 216.64549 205.54993 218.65274 207.6875 218.09375 C 212.13003 216.932 214.20059 219.07998 211.96875 222.53125 C 209.94356 225.66295 191.61974 227.56822 185.4375 225.28125 C 181.92505 223.98191 180.53124 221.63221 180.53125 217.09375 C 180.53125 213.5978 181.09217 210.15785 181.8125 209.4375 C 181.90254 209.34746 182.08926 209.29283 182.3125 209.28125 z "
       transform="translate(121.21427,114.50503)"
       id="path2651"
       inkscape:export-filename="E:\MyWork\Recent\Calligraphy Vectorization Project\PNG\16稽.png"
       inkscape:export-xdpi="90"
       inkscape:export-ydpi="90" />
  </g>
</svg>
