<?xml version="1.0" encoding="UTF-8" standalone="no"?>
<!-- Created with Inkscape (http://www.inkscape.org/) -->
<svg
   xmlns:dc="http://purl.org/dc/elements/1.1/"
   xmlns:cc="http://creativecommons.org/ns#"
   xmlns:rdf="http://www.w3.org/1999/02/22-rdf-syntax-ns#"
   xmlns:svg="http://www.w3.org/2000/svg"
   xmlns="http://www.w3.org/2000/svg"
   xmlns:sodipodi="http://sodipodi.sourceforge.net/DTD/sodipodi-0.dtd"
   xmlns:inkscape="http://www.inkscape.org/namespaces/inkscape"
   width="300"
   height="300"
   id="svg2"
   sodipodi:version="0.32"
   inkscape:version="0.46"
   version="1.0"
   sodipodi:docname="18阴.svg"
   inkscape:output_extension="org.inkscape.output.svg.inkscape"
   inkscape:export-filename="E:\MyWork\Recent\Calligraphy Vectorization Project\矢量字转位图\12初.png"
   inkscape:export-xdpi="90"
   inkscape:export-ydpi="90">
  <defs
     id="defs4">
    <inkscape:perspective
       sodipodi:type="inkscape:persp3d"
       inkscape:vp_x="0 : 526.18109 : 1"
       inkscape:vp_y="0 : 1000 : 0"
       inkscape:vp_z="744.09448 : 526.18109 : 1"
       inkscape:persp3d-origin="372.04724 : 350.78739 : 1"
       id="perspective10" />
    <inkscape:perspective
       id="perspective2390"
       inkscape:persp3d-origin="372.04724 : 350.78739 : 1"
       inkscape:vp_z="744.09448 : 526.18109 : 1"
       inkscape:vp_y="0 : 1000 : 0"
       inkscape:vp_x="0 : 526.18109 : 1"
       sodipodi:type="inkscape:persp3d" />
    <inkscape:perspective
       id="perspective2389"
       inkscape:persp3d-origin="372.04724 : 350.78739 : 1"
       inkscape:vp_z="744.09448 : 526.18109 : 1"
       inkscape:vp_y="0 : 1000 : 0"
       inkscape:vp_x="0 : 526.18109 : 1"
       sodipodi:type="inkscape:persp3d" />
    <inkscape:perspective
       id="perspective2444"
       inkscape:persp3d-origin="372.04724 : 350.78739 : 1"
       inkscape:vp_z="744.09448 : 526.18109 : 1"
       inkscape:vp_y="0 : 1000 : 0"
       inkscape:vp_x="0 : 526.18109 : 1"
       sodipodi:type="inkscape:persp3d" />
    <inkscape:perspective
       id="perspective2486"
       inkscape:persp3d-origin="372.04724 : 350.78739 : 1"
       inkscape:vp_z="744.09448 : 526.18109 : 1"
       inkscape:vp_y="0 : 1000 : 0"
       inkscape:vp_x="0 : 526.18109 : 1"
       sodipodi:type="inkscape:persp3d" />
    <inkscape:perspective
       id="perspective3311"
       inkscape:persp3d-origin="372.04724 : 350.78739 : 1"
       inkscape:vp_z="744.09448 : 526.18109 : 1"
       inkscape:vp_y="0 : 1000 : 0"
       inkscape:vp_x="0 : 526.18109 : 1"
       sodipodi:type="inkscape:persp3d" />
    <inkscape:perspective
       id="perspective2393"
       inkscape:persp3d-origin="372.04724 : 350.78739 : 1"
       inkscape:vp_z="744.09448 : 526.18109 : 1"
       inkscape:vp_y="0 : 1000 : 0"
       inkscape:vp_x="0 : 526.18109 : 1"
       sodipodi:type="inkscape:persp3d" />
    <inkscape:perspective
       id="perspective2410"
       inkscape:persp3d-origin="372.04724 : 350.78739 : 1"
       inkscape:vp_z="744.09448 : 526.18109 : 1"
       inkscape:vp_y="0 : 1000 : 0"
       inkscape:vp_x="0 : 526.18109 : 1"
       sodipodi:type="inkscape:persp3d" />
    <inkscape:perspective
       id="perspective2427"
       inkscape:persp3d-origin="372.04724 : 350.78739 : 1"
       inkscape:vp_z="744.09448 : 526.18109 : 1"
       inkscape:vp_y="0 : 1000 : 0"
       inkscape:vp_x="0 : 526.18109 : 1"
       sodipodi:type="inkscape:persp3d" />
    <inkscape:perspective
       id="perspective2477"
       inkscape:persp3d-origin="372.04724 : 350.78739 : 1"
       inkscape:vp_z="744.09448 : 526.18109 : 1"
       inkscape:vp_y="0 : 1000 : 0"
       inkscape:vp_x="0 : 526.18109 : 1"
       sodipodi:type="inkscape:persp3d" />
    <inkscape:perspective
       id="perspective2526"
       inkscape:persp3d-origin="372.04724 : 350.78739 : 1"
       inkscape:vp_z="744.09448 : 526.18109 : 1"
       inkscape:vp_y="0 : 1000 : 0"
       inkscape:vp_x="0 : 526.18109 : 1"
       sodipodi:type="inkscape:persp3d" />
    <inkscape:perspective
       id="perspective2541"
       inkscape:persp3d-origin="372.04724 : 350.78739 : 1"
       inkscape:vp_z="744.09448 : 526.18109 : 1"
       inkscape:vp_y="0 : 1000 : 0"
       inkscape:vp_x="0 : 526.18109 : 1"
       sodipodi:type="inkscape:persp3d" />
    <inkscape:perspective
       id="perspective2556"
       inkscape:persp3d-origin="372.04724 : 350.78739 : 1"
       inkscape:vp_z="744.09448 : 526.18109 : 1"
       inkscape:vp_y="0 : 1000 : 0"
       inkscape:vp_x="0 : 526.18109 : 1"
       sodipodi:type="inkscape:persp3d" />
    <inkscape:perspective
       id="perspective2573"
       inkscape:persp3d-origin="372.04724 : 350.78739 : 1"
       inkscape:vp_z="744.09448 : 526.18109 : 1"
       inkscape:vp_y="0 : 1000 : 0"
       inkscape:vp_x="0 : 526.18109 : 1"
       sodipodi:type="inkscape:persp3d" />
    <inkscape:perspective
       id="perspective2401"
       inkscape:persp3d-origin="372.04724 : 350.78739 : 1"
       inkscape:vp_z="744.09448 : 526.18109 : 1"
       inkscape:vp_y="0 : 1000 : 0"
       inkscape:vp_x="0 : 526.18109 : 1"
       sodipodi:type="inkscape:persp3d" />
    <inkscape:perspective
       id="perspective2420"
       inkscape:persp3d-origin="372.04724 : 350.78739 : 1"
       inkscape:vp_z="744.09448 : 526.18109 : 1"
       inkscape:vp_y="0 : 1000 : 0"
       inkscape:vp_x="0 : 526.18109 : 1"
       sodipodi:type="inkscape:persp3d" />
    <inkscape:perspective
       id="perspective2433"
       inkscape:persp3d-origin="372.04724 : 350.78739 : 1"
       inkscape:vp_z="744.09448 : 526.18109 : 1"
       inkscape:vp_y="0 : 1000 : 0"
       inkscape:vp_x="0 : 526.18109 : 1"
       sodipodi:type="inkscape:persp3d" />
    <inkscape:perspective
       id="perspective2404"
       inkscape:persp3d-origin="372.04724 : 350.78739 : 1"
       inkscape:vp_z="744.09448 : 526.18109 : 1"
       inkscape:vp_y="0 : 1000 : 0"
       inkscape:vp_x="0 : 526.18109 : 1"
       sodipodi:type="inkscape:persp3d" />
    <inkscape:perspective
       id="perspective2419"
       inkscape:persp3d-origin="372.04724 : 350.78739 : 1"
       inkscape:vp_z="744.09448 : 526.18109 : 1"
       inkscape:vp_y="0 : 1000 : 0"
       inkscape:vp_x="0 : 526.18109 : 1"
       sodipodi:type="inkscape:persp3d" />
    <inkscape:perspective
       id="perspective2434"
       inkscape:persp3d-origin="372.04724 : 350.78739 : 1"
       inkscape:vp_z="744.09448 : 526.18109 : 1"
       inkscape:vp_y="0 : 1000 : 0"
       inkscape:vp_x="0 : 526.18109 : 1"
       sodipodi:type="inkscape:persp3d" />
    <inkscape:perspective
       id="perspective2453"
       inkscape:persp3d-origin="372.04724 : 350.78739 : 1"
       inkscape:vp_z="744.09448 : 526.18109 : 1"
       inkscape:vp_y="0 : 1000 : 0"
       inkscape:vp_x="0 : 526.18109 : 1"
       sodipodi:type="inkscape:persp3d" />
    <inkscape:perspective
       id="perspective2538"
       inkscape:persp3d-origin="372.04724 : 350.78739 : 1"
       inkscape:vp_z="744.09448 : 526.18109 : 1"
       inkscape:vp_y="0 : 1000 : 0"
       inkscape:vp_x="0 : 526.18109 : 1"
       sodipodi:type="inkscape:persp3d" />
    <inkscape:perspective
       id="perspective2553"
       inkscape:persp3d-origin="372.04724 : 350.78739 : 1"
       inkscape:vp_z="744.09448 : 526.18109 : 1"
       inkscape:vp_y="0 : 1000 : 0"
       inkscape:vp_x="0 : 526.18109 : 1"
       sodipodi:type="inkscape:persp3d" />
    <inkscape:perspective
       id="perspective2570"
       inkscape:persp3d-origin="372.04724 : 350.78739 : 1"
       inkscape:vp_z="744.09448 : 526.18109 : 1"
       inkscape:vp_y="0 : 1000 : 0"
       inkscape:vp_x="0 : 526.18109 : 1"
       sodipodi:type="inkscape:persp3d" />
    <inkscape:perspective
       id="perspective2585"
       inkscape:persp3d-origin="372.04724 : 350.78739 : 1"
       inkscape:vp_z="744.09448 : 526.18109 : 1"
       inkscape:vp_y="0 : 1000 : 0"
       inkscape:vp_x="0 : 526.18109 : 1"
       sodipodi:type="inkscape:persp3d" />
    <inkscape:perspective
       id="perspective2600"
       inkscape:persp3d-origin="372.04724 : 350.78739 : 1"
       inkscape:vp_z="744.09448 : 526.18109 : 1"
       inkscape:vp_y="0 : 1000 : 0"
       inkscape:vp_x="0 : 526.18109 : 1"
       sodipodi:type="inkscape:persp3d" />
    <inkscape:perspective
       id="perspective2615"
       inkscape:persp3d-origin="372.04724 : 350.78739 : 1"
       inkscape:vp_z="744.09448 : 526.18109 : 1"
       inkscape:vp_y="0 : 1000 : 0"
       inkscape:vp_x="0 : 526.18109 : 1"
       sodipodi:type="inkscape:persp3d" />
    <inkscape:perspective
       id="perspective2630"
       inkscape:persp3d-origin="372.04724 : 350.78739 : 1"
       inkscape:vp_z="744.09448 : 526.18109 : 1"
       inkscape:vp_y="0 : 1000 : 0"
       inkscape:vp_x="0 : 526.18109 : 1"
       sodipodi:type="inkscape:persp3d" />
    <inkscape:perspective
       id="perspective2645"
       inkscape:persp3d-origin="372.04724 : 350.78739 : 1"
       inkscape:vp_z="744.09448 : 526.18109 : 1"
       inkscape:vp_y="0 : 1000 : 0"
       inkscape:vp_x="0 : 526.18109 : 1"
       sodipodi:type="inkscape:persp3d" />
    <inkscape:perspective
       id="perspective2416"
       inkscape:persp3d-origin="372.04724 : 350.78739 : 1"
       inkscape:vp_z="744.09448 : 526.18109 : 1"
       inkscape:vp_y="0 : 1000 : 0"
       inkscape:vp_x="0 : 526.18109 : 1"
       sodipodi:type="inkscape:persp3d" />
    <inkscape:perspective
       id="perspective2437"
       inkscape:persp3d-origin="372.04724 : 350.78739 : 1"
       inkscape:vp_z="744.09448 : 526.18109 : 1"
       inkscape:vp_y="0 : 1000 : 0"
       inkscape:vp_x="0 : 526.18109 : 1"
       sodipodi:type="inkscape:persp3d" />
    <inkscape:perspective
       id="perspective2476"
       inkscape:persp3d-origin="372.04724 : 350.78739 : 1"
       inkscape:vp_z="744.09448 : 526.18109 : 1"
       inkscape:vp_y="0 : 1000 : 0"
       inkscape:vp_x="0 : 526.18109 : 1"
       sodipodi:type="inkscape:persp3d" />
    <inkscape:perspective
       id="perspective2491"
       inkscape:persp3d-origin="372.04724 : 350.78739 : 1"
       inkscape:vp_z="744.09448 : 526.18109 : 1"
       inkscape:vp_y="0 : 1000 : 0"
       inkscape:vp_x="0 : 526.18109 : 1"
       sodipodi:type="inkscape:persp3d" />
    <inkscape:perspective
       id="perspective2506"
       inkscape:persp3d-origin="372.04724 : 350.78739 : 1"
       inkscape:vp_z="744.09448 : 526.18109 : 1"
       inkscape:vp_y="0 : 1000 : 0"
       inkscape:vp_x="0 : 526.18109 : 1"
       sodipodi:type="inkscape:persp3d" />
  </defs>
  <sodipodi:namedview
     id="base"
     pagecolor="#ffffff"
     bordercolor="#666666"
     borderopacity="1.0"
     gridtolerance="10000"
     guidetolerance="10"
     objecttolerance="10"
     inkscape:pageopacity="0.0"
     inkscape:pageshadow="2"
     inkscape:zoom="1.0564636"
     inkscape:cx="175.64798"
     inkscape:cy="134.3701"
     inkscape:document-units="px"
     inkscape:current-layer="layer1"
     showgrid="true"
     width="300px"
     borderlayer="true"
     inkscape:showpageshadow="true"
     inkscape:window-width="1024"
     inkscape:window-height="718"
     inkscape:window-x="-4"
     inkscape:window-y="-4">
    <inkscape:grid
       type="xygrid"
       id="grid2396"
       visible="true"
       enabled="true"
       dotted="false" />
  </sodipodi:namedview>
  <metadata
     id="metadata7">
    <rdf:RDF>
      <cc:Work
         rdf:about="">
        <dc:format>image/svg+xml</dc:format>
        <dc:type
           rdf:resource="http://purl.org/dc/dcmitype/StillImage" />
      </cc:Work>
    </rdf:RDF>
  </metadata>
  <g
     inkscape:label="Layer 1"
     inkscape:groupmode="layer"
     id="layer1"
     transform="translate(-121.21427,-114.50503)">
    <path
       style="fill:#000000"
       d="M 157.25 51.375 C 150.97701 51.54339 145.74257 54.341572 147.0625 57.78125 C 149.026 62.89803 141.1189 71.907062 132.03125 74.90625 C 127.44955 76.41835 122.65238 78.873478 121.40625 80.375 C 120.1601 81.8765 117.89288 83.124997 116.34375 83.125 C 114.79464 83.125 113.53125 84.031711 113.53125 85.15625 C 113.53125 87.99245 114.60577 87.790037 123.75 83.125 C 135.53923 77.11058 137.22254 78.080691 129.90625 86.6875 C 101.77719 119.77823 95.68057 126.0625 91.5625 126.0625 C 88.20913 126.0625 88.178509 117.94014 91.53125 117.6875 C 92.93692 117.58157 97.617748 113.47001 101.9375 108.5625 C 109.36752 100.12156 109.68373 99.272997 107.5 92.65625 C 104.0942 82.33659 98.254321 77.968062 88.15625 78.1875 C 82.05565 78.32007 78.114051 79.805263 74.46875 83.3125 C 63.02913 94.31887 51.509898 102.63847 45.375 104.34375 L 38.90625 106.15625 L 45.03125 108.8125 C 48.40488 110.28434 55.064448 112.11946 59.84375 112.875 C 64.62305 113.63055 68.531248 114.45196 68.53125 114.71875 C 68.53125 114.98552 67.515797 118.11482 66.28125 121.65625 C 64.16996 127.71266 60.375002 130.5554 60.375 126.0625 C 60.375 122.91277 54.29959 123.63791 50.71875 127.21875 C 47.80978 130.12772 47.91185 130.92441 51.6875 136.03125 L 55.84375 141.65625 L 51.8125 188.21875 C 48.37677 227.76158 48.146259 236.15837 50.40625 243.8125 C 51.86994 248.76968 53.362419 252.81251 53.71875 252.8125 C 54.07509 252.8125 56.660442 251.3088 59.46875 249.46875 C 63.46569 246.84983 64.513147 244.53381 64.3125 238.75 C 64.17152 234.68622 65.0557 224.43405 66.25 216 C 67.44428 207.56592 68.347946 196.99818 68.28125 192.5 L 68.15625 184.3125 L 66.25 190.96875 C 63.01393 202.17629 62.163601 198.43864 63.65625 179.71875 C 64.44084 169.879 64.973553 160.22706 64.875 158.28125 C 64.63757 153.5932 68.23406 151.51824 69.75 155.46875 C 71.11127 159.01613 87.221776 169 91.59375 169 C 93.18715 169 96.115418 167.15806 98.125 164.9375 C 101.13786 161.60833 101.54591 158.82828 100.4375 149.03125 L 99.09375 137.15625 L 111.6875 125.96875 C 126.88294 112.47673 127.05339 112.39334 128.46875 118.28125 C 131.10845 129.2624 132.40682 174.5585 130.125 175.96875 C 128.85701 176.75242 127.84375 178.44563 127.84375 179.71875 C 127.84375 180.99186 129.08157 180.34926 130.59375 178.28125 C 133.2241 174.68401 133.37005 174.70484 134.46875 178.90625 C 135.40266 182.47752 134.74674 183.31251 130.84375 183.3125 C 128.20405 183.3125 125.45634 184.23212 124.75 185.375 C 124.04366 186.51789 122.56484 186.89618 121.46875 186.21875 C 120.37266 185.54133 118.21144 186.05306 116.65625 187.34375 C 111.37138 191.72978 91.223221 190.00029 94.0625 185.40625 C 94.63665 184.47725 93.738076 183.22474 92.09375 182.59375 C 83.93019 179.46109 86.936304 194.40233 95.34375 198.75 C 100.65405 201.49606 102.75944 201.41902 116.59375 197.875 C 134.15294 193.37675 134.8728 194.14636 125.71875 207.65625 C 119.36973 217.02638 119.26565 220.66997 125.03125 229.8125 C 129.26445 236.5251 138.04626 235.67111 154.40625 226.96875 C 166.74939 220.40306 170.18098 216.90321 171.53125 209.375 C 172.36634 204.71913 176.11707 208.76155 177.53125 215.84375 C 179.95874 228.00045 187.39357 232.68869 200 230 L 209.625 227.9375 L 209.625 218.09375 C 209.625 208.72044 209.06856 207.74103 198 197.625 C 187.09019 187.65405 186.18078 187.21202 183.59375 190.75 C 181.77472 193.23767 180.33287 193.75227 179.375 192.28125 C 178.576 191.0542 175.40499 189.44435 172.3125 188.6875 C 169.22001 187.93066 166.6875 186.52919 166.6875 185.5625 C 166.6875 182.09726 178.24827 179.39524 197.03125 178.5 C 207.53971 177.99914 217.06394 176.68605 218.1875 175.5625 C 222.09851 171.65149 218.87504 165.93635 211.34375 163.46875 C 203.33315 160.84411 191.30267 163.37818 173.65625 171.375 C 168.10075 173.89259 162.99292 174.74377 158.34375 173.9375 C 153.06225 173.02156 152.08773 173.2541 154.40625 174.90625 C 156.09307 176.10826 156.56204 177.09375 155.4375 177.09375 C 151.84777 177.09375 148.85947 174.2345 147.3125 169.28125 C 145.86304 164.64015 146.12056 164.51254 154 165.84375 C 159.07186 166.70064 162.6919 166.38935 163.53125 165.03125 C 164.2753 163.82736 168.42821 162.84375 172.75 162.84375 C 179.70704 162.84375 180.84685 162.10741 182.8125 156.46875 C 185.43864 148.93539 184.03806 145.76522 178.71875 147.15625 C 172.6921 148.73226 172.28916 145.25159 178.0625 141.46875 C 181.54317 139.18813 183.08067 136.57554 182.65625 133.59375 C 182.08966 129.61327 180.86287 129.13666 171.46875 129.375 C 165.45533 129.52756 158.88082 131.08229 156.1875 132.96875 C 147.20856 139.25784 144.53557 137.45254 143.03125 124.15625 C 141.82729 113.51466 141.02867 111.89435 136.59375 110.78125 C 132.49652 109.75291 132.03241 108.96456 134 106.59375 C 136.04918 104.12464 137.62649 104.67051 144.375 110.09375 C 148.76418 113.62099 152.37499 117.70407 152.375 119.15625 C 152.375 120.9886 155.42908 120.23874 162.375 116.75 C 167.87988 113.98506 174.10172 111.72295 176.1875 111.71875 C 181.40555 111.70823 193.24999 104.22565 193.25 100.9375 C 193.25 91.28153 175.70547 90.546882 162 99.625 C 152.4711 105.93668 142.27745 107.16246 140.65625 102.21875 C 139.46563 98.58806 160.83804 76.977117 165.59375 77 C 171.34914 77.02772 189.14755 85.780888 195.3125 91.625 C 205.34546 101.13583 236.4142 124.07672 245.9375 129 C 251.26699 131.7552 259.8342 135.03804 265 136.3125 C 274.14903 138.56963 274.59211 138.47037 280.9375 132.125 L 287.4375 125.625 L 282.78125 121.1875 C 276.11927 114.8619 267.67768 110.98555 263.8125 112.46875 C 261.98479 113.17011 257.03937 111.96888 252.8125 109.8125 C 248.58564 107.65611 240.14134 104.11544 234.03125 101.9375 C 227.92115 99.75954 213.27546 91.847809 201.5 84.34375 C 189.72454 76.83967 177.99996 70.174366 175.4375 69.53125 C 172.87505 68.88811 170.68203 66.846044 170.5625 65 C 170.44295 63.15397 170.19285 59.860349 170.03125 57.6875 C 169.83758 55.08332 167.54908 53.174112 163.28125 52.0625 C 161.71257 51.653917 160.10291 51.422107 158.53125 51.375 C 158.10559 51.362242 157.6682 51.363774 157.25 51.375 z M 80.4375 132.53125 C 82.217657 132.4216 82.843752 133.2161 82.84375 135.1875 C 82.84375 137.11075 81.017679 139.16515 78.78125 139.75 C 76.54481 140.33484 75.175584 141.55865 75.71875 142.4375 C 77.31337 145.01768 71.66734 146.22982 67.90625 144.125 C 62.66456 141.1916 63.478652 134.22139 69.0625 134.1875 C 71.59273 134.17215 75.719769 133.61558 78.25 132.9375 C 79.114522 132.70582 79.844114 132.5678 80.4375 132.53125 z M 86.84375 142.84375 C 88.216258 142.65688 88.70613 144.12697 89.90625 148.03125 C 90.684 150.56147 91.013169 152.481 90.65625 152.3125 C 90.29934 152.14401 87.467493 151.62472 84.375 151.15625 C 77.64195 150.13628 77.298139 148.41241 83.0625 144.8125 C 84.889256 143.67167 86.020245 142.95587 86.84375 142.84375 z M 157.125 145.09375 C 157.54638 145.0942 157.85078 145.16328 158.03125 145.34375 C 158.60844 145.92095 157.92249 147.78601 156.5 149.5 C 153.76894 152.79072 146.25001 153.82448 146.25 150.90625 C 146.25 149.04715 154.17534 145.09057 157.125 145.09375 z M 160.125 189.4375 C 163.14691 189.4375 173.06043 201.72345 171.75 203.84375 C 170.20869 206.33764 159.71127 211.99156 150.3125 215.40625 C 139.75232 219.24289 137.55326 218.8578 139.1875 213.46875 C 141.18377 206.88591 156.38243 189.4375 160.125 189.4375 z "
       transform="translate(121.21427,114.50503)"
       id="path2522" />
  </g>
</svg>
