<?xml version="1.0" encoding="UTF-8" standalone="no"?>
<!-- Created with Inkscape (http://www.inkscape.org/) -->
<svg
   xmlns:dc="http://purl.org/dc/elements/1.1/"
   xmlns:cc="http://creativecommons.org/ns#"
   xmlns:rdf="http://www.w3.org/1999/02/22-rdf-syntax-ns#"
   xmlns:svg="http://www.w3.org/2000/svg"
   xmlns="http://www.w3.org/2000/svg"
   xmlns:sodipodi="http://sodipodi.sourceforge.net/DTD/sodipodi-0.dtd"
   xmlns:inkscape="http://www.inkscape.org/namespaces/inkscape"
   width="300"
   height="300"
   id="svg2"
   sodipodi:version="0.32"
   inkscape:version="0.46"
   version="1.0"
   sodipodi:docname="20兰.svg"
   inkscape:output_extension="org.inkscape.output.svg.inkscape"
   inkscape:export-filename="E:\MyWork\Recent\Calligraphy Vectorization Project\矢量字转位图\12初.png"
   inkscape:export-xdpi="90"
   inkscape:export-ydpi="90">
  <defs
     id="defs4">
    <inkscape:perspective
       sodipodi:type="inkscape:persp3d"
       inkscape:vp_x="0 : 526.18109 : 1"
       inkscape:vp_y="0 : 1000 : 0"
       inkscape:vp_z="744.09448 : 526.18109 : 1"
       inkscape:persp3d-origin="372.04724 : 350.78739 : 1"
       id="perspective10" />
    <inkscape:perspective
       id="perspective2390"
       inkscape:persp3d-origin="372.04724 : 350.78739 : 1"
       inkscape:vp_z="744.09448 : 526.18109 : 1"
       inkscape:vp_y="0 : 1000 : 0"
       inkscape:vp_x="0 : 526.18109 : 1"
       sodipodi:type="inkscape:persp3d" />
    <inkscape:perspective
       id="perspective2389"
       inkscape:persp3d-origin="372.04724 : 350.78739 : 1"
       inkscape:vp_z="744.09448 : 526.18109 : 1"
       inkscape:vp_y="0 : 1000 : 0"
       inkscape:vp_x="0 : 526.18109 : 1"
       sodipodi:type="inkscape:persp3d" />
    <inkscape:perspective
       id="perspective2444"
       inkscape:persp3d-origin="372.04724 : 350.78739 : 1"
       inkscape:vp_z="744.09448 : 526.18109 : 1"
       inkscape:vp_y="0 : 1000 : 0"
       inkscape:vp_x="0 : 526.18109 : 1"
       sodipodi:type="inkscape:persp3d" />
    <inkscape:perspective
       id="perspective2486"
       inkscape:persp3d-origin="372.04724 : 350.78739 : 1"
       inkscape:vp_z="744.09448 : 526.18109 : 1"
       inkscape:vp_y="0 : 1000 : 0"
       inkscape:vp_x="0 : 526.18109 : 1"
       sodipodi:type="inkscape:persp3d" />
    <inkscape:perspective
       id="perspective3311"
       inkscape:persp3d-origin="372.04724 : 350.78739 : 1"
       inkscape:vp_z="744.09448 : 526.18109 : 1"
       inkscape:vp_y="0 : 1000 : 0"
       inkscape:vp_x="0 : 526.18109 : 1"
       sodipodi:type="inkscape:persp3d" />
    <inkscape:perspective
       id="perspective2393"
       inkscape:persp3d-origin="372.04724 : 350.78739 : 1"
       inkscape:vp_z="744.09448 : 526.18109 : 1"
       inkscape:vp_y="0 : 1000 : 0"
       inkscape:vp_x="0 : 526.18109 : 1"
       sodipodi:type="inkscape:persp3d" />
    <inkscape:perspective
       id="perspective2410"
       inkscape:persp3d-origin="372.04724 : 350.78739 : 1"
       inkscape:vp_z="744.09448 : 526.18109 : 1"
       inkscape:vp_y="0 : 1000 : 0"
       inkscape:vp_x="0 : 526.18109 : 1"
       sodipodi:type="inkscape:persp3d" />
    <inkscape:perspective
       id="perspective2427"
       inkscape:persp3d-origin="372.04724 : 350.78739 : 1"
       inkscape:vp_z="744.09448 : 526.18109 : 1"
       inkscape:vp_y="0 : 1000 : 0"
       inkscape:vp_x="0 : 526.18109 : 1"
       sodipodi:type="inkscape:persp3d" />
    <inkscape:perspective
       id="perspective2477"
       inkscape:persp3d-origin="372.04724 : 350.78739 : 1"
       inkscape:vp_z="744.09448 : 526.18109 : 1"
       inkscape:vp_y="0 : 1000 : 0"
       inkscape:vp_x="0 : 526.18109 : 1"
       sodipodi:type="inkscape:persp3d" />
    <inkscape:perspective
       id="perspective2526"
       inkscape:persp3d-origin="372.04724 : 350.78739 : 1"
       inkscape:vp_z="744.09448 : 526.18109 : 1"
       inkscape:vp_y="0 : 1000 : 0"
       inkscape:vp_x="0 : 526.18109 : 1"
       sodipodi:type="inkscape:persp3d" />
    <inkscape:perspective
       id="perspective2541"
       inkscape:persp3d-origin="372.04724 : 350.78739 : 1"
       inkscape:vp_z="744.09448 : 526.18109 : 1"
       inkscape:vp_y="0 : 1000 : 0"
       inkscape:vp_x="0 : 526.18109 : 1"
       sodipodi:type="inkscape:persp3d" />
    <inkscape:perspective
       id="perspective2556"
       inkscape:persp3d-origin="372.04724 : 350.78739 : 1"
       inkscape:vp_z="744.09448 : 526.18109 : 1"
       inkscape:vp_y="0 : 1000 : 0"
       inkscape:vp_x="0 : 526.18109 : 1"
       sodipodi:type="inkscape:persp3d" />
    <inkscape:perspective
       id="perspective2573"
       inkscape:persp3d-origin="372.04724 : 350.78739 : 1"
       inkscape:vp_z="744.09448 : 526.18109 : 1"
       inkscape:vp_y="0 : 1000 : 0"
       inkscape:vp_x="0 : 526.18109 : 1"
       sodipodi:type="inkscape:persp3d" />
    <inkscape:perspective
       id="perspective2401"
       inkscape:persp3d-origin="372.04724 : 350.78739 : 1"
       inkscape:vp_z="744.09448 : 526.18109 : 1"
       inkscape:vp_y="0 : 1000 : 0"
       inkscape:vp_x="0 : 526.18109 : 1"
       sodipodi:type="inkscape:persp3d" />
    <inkscape:perspective
       id="perspective2420"
       inkscape:persp3d-origin="372.04724 : 350.78739 : 1"
       inkscape:vp_z="744.09448 : 526.18109 : 1"
       inkscape:vp_y="0 : 1000 : 0"
       inkscape:vp_x="0 : 526.18109 : 1"
       sodipodi:type="inkscape:persp3d" />
    <inkscape:perspective
       id="perspective2433"
       inkscape:persp3d-origin="372.04724 : 350.78739 : 1"
       inkscape:vp_z="744.09448 : 526.18109 : 1"
       inkscape:vp_y="0 : 1000 : 0"
       inkscape:vp_x="0 : 526.18109 : 1"
       sodipodi:type="inkscape:persp3d" />
    <inkscape:perspective
       id="perspective2404"
       inkscape:persp3d-origin="372.04724 : 350.78739 : 1"
       inkscape:vp_z="744.09448 : 526.18109 : 1"
       inkscape:vp_y="0 : 1000 : 0"
       inkscape:vp_x="0 : 526.18109 : 1"
       sodipodi:type="inkscape:persp3d" />
    <inkscape:perspective
       id="perspective2419"
       inkscape:persp3d-origin="372.04724 : 350.78739 : 1"
       inkscape:vp_z="744.09448 : 526.18109 : 1"
       inkscape:vp_y="0 : 1000 : 0"
       inkscape:vp_x="0 : 526.18109 : 1"
       sodipodi:type="inkscape:persp3d" />
    <inkscape:perspective
       id="perspective2434"
       inkscape:persp3d-origin="372.04724 : 350.78739 : 1"
       inkscape:vp_z="744.09448 : 526.18109 : 1"
       inkscape:vp_y="0 : 1000 : 0"
       inkscape:vp_x="0 : 526.18109 : 1"
       sodipodi:type="inkscape:persp3d" />
    <inkscape:perspective
       id="perspective2453"
       inkscape:persp3d-origin="372.04724 : 350.78739 : 1"
       inkscape:vp_z="744.09448 : 526.18109 : 1"
       inkscape:vp_y="0 : 1000 : 0"
       inkscape:vp_x="0 : 526.18109 : 1"
       sodipodi:type="inkscape:persp3d" />
    <inkscape:perspective
       id="perspective2538"
       inkscape:persp3d-origin="372.04724 : 350.78739 : 1"
       inkscape:vp_z="744.09448 : 526.18109 : 1"
       inkscape:vp_y="0 : 1000 : 0"
       inkscape:vp_x="0 : 526.18109 : 1"
       sodipodi:type="inkscape:persp3d" />
    <inkscape:perspective
       id="perspective2553"
       inkscape:persp3d-origin="372.04724 : 350.78739 : 1"
       inkscape:vp_z="744.09448 : 526.18109 : 1"
       inkscape:vp_y="0 : 1000 : 0"
       inkscape:vp_x="0 : 526.18109 : 1"
       sodipodi:type="inkscape:persp3d" />
    <inkscape:perspective
       id="perspective2570"
       inkscape:persp3d-origin="372.04724 : 350.78739 : 1"
       inkscape:vp_z="744.09448 : 526.18109 : 1"
       inkscape:vp_y="0 : 1000 : 0"
       inkscape:vp_x="0 : 526.18109 : 1"
       sodipodi:type="inkscape:persp3d" />
    <inkscape:perspective
       id="perspective2585"
       inkscape:persp3d-origin="372.04724 : 350.78739 : 1"
       inkscape:vp_z="744.09448 : 526.18109 : 1"
       inkscape:vp_y="0 : 1000 : 0"
       inkscape:vp_x="0 : 526.18109 : 1"
       sodipodi:type="inkscape:persp3d" />
    <inkscape:perspective
       id="perspective2600"
       inkscape:persp3d-origin="372.04724 : 350.78739 : 1"
       inkscape:vp_z="744.09448 : 526.18109 : 1"
       inkscape:vp_y="0 : 1000 : 0"
       inkscape:vp_x="0 : 526.18109 : 1"
       sodipodi:type="inkscape:persp3d" />
    <inkscape:perspective
       id="perspective2615"
       inkscape:persp3d-origin="372.04724 : 350.78739 : 1"
       inkscape:vp_z="744.09448 : 526.18109 : 1"
       inkscape:vp_y="0 : 1000 : 0"
       inkscape:vp_x="0 : 526.18109 : 1"
       sodipodi:type="inkscape:persp3d" />
    <inkscape:perspective
       id="perspective2630"
       inkscape:persp3d-origin="372.04724 : 350.78739 : 1"
       inkscape:vp_z="744.09448 : 526.18109 : 1"
       inkscape:vp_y="0 : 1000 : 0"
       inkscape:vp_x="0 : 526.18109 : 1"
       sodipodi:type="inkscape:persp3d" />
    <inkscape:perspective
       id="perspective2645"
       inkscape:persp3d-origin="372.04724 : 350.78739 : 1"
       inkscape:vp_z="744.09448 : 526.18109 : 1"
       inkscape:vp_y="0 : 1000 : 0"
       inkscape:vp_x="0 : 526.18109 : 1"
       sodipodi:type="inkscape:persp3d" />
    <inkscape:perspective
       id="perspective2416"
       inkscape:persp3d-origin="372.04724 : 350.78739 : 1"
       inkscape:vp_z="744.09448 : 526.18109 : 1"
       inkscape:vp_y="0 : 1000 : 0"
       inkscape:vp_x="0 : 526.18109 : 1"
       sodipodi:type="inkscape:persp3d" />
    <inkscape:perspective
       id="perspective2437"
       inkscape:persp3d-origin="372.04724 : 350.78739 : 1"
       inkscape:vp_z="744.09448 : 526.18109 : 1"
       inkscape:vp_y="0 : 1000 : 0"
       inkscape:vp_x="0 : 526.18109 : 1"
       sodipodi:type="inkscape:persp3d" />
    <inkscape:perspective
       id="perspective2476"
       inkscape:persp3d-origin="372.04724 : 350.78739 : 1"
       inkscape:vp_z="744.09448 : 526.18109 : 1"
       inkscape:vp_y="0 : 1000 : 0"
       inkscape:vp_x="0 : 526.18109 : 1"
       sodipodi:type="inkscape:persp3d" />
    <inkscape:perspective
       id="perspective2491"
       inkscape:persp3d-origin="372.04724 : 350.78739 : 1"
       inkscape:vp_z="744.09448 : 526.18109 : 1"
       inkscape:vp_y="0 : 1000 : 0"
       inkscape:vp_x="0 : 526.18109 : 1"
       sodipodi:type="inkscape:persp3d" />
    <inkscape:perspective
       id="perspective2506"
       inkscape:persp3d-origin="372.04724 : 350.78739 : 1"
       inkscape:vp_z="744.09448 : 526.18109 : 1"
       inkscape:vp_y="0 : 1000 : 0"
       inkscape:vp_x="0 : 526.18109 : 1"
       sodipodi:type="inkscape:persp3d" />
    <inkscape:perspective
       id="perspective2560"
       inkscape:persp3d-origin="372.04724 : 350.78739 : 1"
       inkscape:vp_z="744.09448 : 526.18109 : 1"
       inkscape:vp_y="0 : 1000 : 0"
       inkscape:vp_x="0 : 526.18109 : 1"
       sodipodi:type="inkscape:persp3d" />
    <inkscape:perspective
       id="perspective2422"
       inkscape:persp3d-origin="372.04724 : 350.78739 : 1"
       inkscape:vp_z="744.09448 : 526.18109 : 1"
       inkscape:vp_y="0 : 1000 : 0"
       inkscape:vp_x="0 : 526.18109 : 1"
       sodipodi:type="inkscape:persp3d" />
    <inkscape:perspective
       id="perspective2441"
       inkscape:persp3d-origin="372.04724 : 350.78739 : 1"
       inkscape:vp_z="744.09448 : 526.18109 : 1"
       inkscape:vp_y="0 : 1000 : 0"
       inkscape:vp_x="0 : 526.18109 : 1"
       sodipodi:type="inkscape:persp3d" />
    <inkscape:perspective
       id="perspective2457"
       inkscape:persp3d-origin="372.04724 : 350.78739 : 1"
       inkscape:vp_z="744.09448 : 526.18109 : 1"
       inkscape:vp_y="0 : 1000 : 0"
       inkscape:vp_x="0 : 526.18109 : 1"
       sodipodi:type="inkscape:persp3d" />
    <inkscape:perspective
       id="perspective2469"
       inkscape:persp3d-origin="372.04724 : 350.78739 : 1"
       inkscape:vp_z="744.09448 : 526.18109 : 1"
       inkscape:vp_y="0 : 1000 : 0"
       inkscape:vp_x="0 : 526.18109 : 1"
       sodipodi:type="inkscape:persp3d" />
  </defs>
  <sodipodi:namedview
     id="base"
     pagecolor="#ffffff"
     bordercolor="#666666"
     borderopacity="1.0"
     gridtolerance="10000"
     guidetolerance="10"
     objecttolerance="10"
     inkscape:pageopacity="0.0"
     inkscape:pageshadow="2"
     inkscape:zoom="1.0564636"
     inkscape:cx="158.54245"
     inkscape:cy="146.94682"
     inkscape:document-units="px"
     inkscape:current-layer="layer1"
     showgrid="true"
     width="300px"
     borderlayer="true"
     inkscape:showpageshadow="true"
     inkscape:window-width="1024"
     inkscape:window-height="718"
     inkscape:window-x="0"
     inkscape:window-y="22">
    <inkscape:grid
       type="xygrid"
       id="grid2396"
       visible="true"
       enabled="true"
       dotted="false" />
  </sodipodi:namedview>
  <metadata
     id="metadata7">
    <rdf:RDF>
      <cc:Work
         rdf:about="">
        <dc:format>image/svg+xml</dc:format>
        <dc:type
           rdf:resource="http://purl.org/dc/dcmitype/StillImage" />
      </cc:Work>
    </rdf:RDF>
  </metadata>
  <g
     inkscape:label="Layer 1"
     inkscape:groupmode="layer"
     id="layer1"
     transform="translate(-121.21427,-114.50503)">
    <path
       style="fill:#000000"
       d="M 273.98334,134.7238 C 273.83091,134.71907 273.71309,134.762 273.65184,134.82325 C 273.16186,135.31321 274.40421,139.10574 276.40329,143.24336 C 279.43014,149.50823 279.83036,152.88961 278.88954,163.46487 C 277.62602,177.6677 275.18843,185.66732 269.14343,195.38833 C 264.61062,202.67761 251.95006,214.81463 248.42467,215.2452 C 247.18611,215.39647 244.94188,215.61096 243.45217,215.7093 C 241.96244,215.80762 240.73387,217.10494 240.73387,218.59335 C 240.73387,220.08176 238.80707,221.57593 236.45751,221.90835 C 234.10795,222.24078 231.83199,223.91398 231.38556,225.62115 C 230.52093,228.92748 219.01757,230.45588 217.19735,227.5107 C 216.67107,226.65917 215.04435,226.4199 213.584,226.9803 C 211.69212,227.70628 213.398,229.88311 219.45155,234.50536 C 228.43404,241.36401 233.22509,242.69351 238.64542,239.87566 C 242.64718,237.79527 244.92407,239.49772 242.02672,242.39506 C 239.37306,245.04872 225.20288,245.78569 222.23616,243.42271 C 220.62632,242.14048 219.98195,242.43686 219.98195,244.45036 C 219.98195,247.31567 222.99482,250.08889 226.28046,250.21847 C 227.2736,250.25763 227.99159,251.76162 227.83851,253.56662 C 227.63207,256.0006 228.46447,256.61481 231.12036,255.92027 C 233.91646,255.18908 234.42657,255.64421 233.47401,258.00872 C 230.24396,266.02652 232.82253,271.54199 241.29742,274.78263 C 243.59176,275.65993 244.96218,277.16892 244.34722,278.16393 C 242.66907,280.87922 234.45346,280.36575 233.34141,277.46778 C 232.2615,274.65354 226.83529,274.74251 225.88266,277.60038 C 225.54746,278.60598 226.49279,280.45094 227.97111,281.67783 C 230.09531,283.44077 230.22438,284.59445 228.56781,287.24704 C 226.88491,289.9418 227.09834,291.30968 229.66176,294.14224 C 234.16178,299.11471 252.24176,301.90934 261.05483,298.98214 C 264.10054,297.97054 265.13227,298.31047 265.13228,300.40759 C 265.13228,304.25542 259.08851,306.30996 246.23677,306.80555 C 240.72291,307.01815 239.6033,307.56452 241.26427,309.2255 C 244.91081,312.87204 256.92689,314.52559 261.98303,312.0764 C 264.1969,311.00401 265.48787,311.33261 266.19308,313.17035 C 268.1298,318.21733 263.7398,322.79203 255.71768,324.07671 C 248.70253,325.20014 247.58904,324.8516 243.81682,320.26446 C 241.52774,317.48084 237.93776,311.93502 235.86081,307.9658 C 233.78387,303.99657 231.09309,299.94551 229.89381,298.94899 C 228.69453,297.9525 226.39058,295.1392 224.75556,292.68364 C 221.32229,287.52739 220.85301,290.08495 223.86051,297.49039 C 224.99595,300.28621 226.05953,304.18941 226.24731,306.1757 C 226.70414,311.00828 232.3069,323.47115 235.76136,327.35856 C 237.74963,329.59603 237.97838,331.12227 236.62326,332.76201 C 235.58192,334.02209 234.1804,338.16473 233.47401,341.94457 C 232.41547,347.60871 232.88362,349.53216 236.12601,352.98352 C 240.26978,357.39434 248.85562,358.7421 248.85562,354.97253 C 248.85562,350.94548 244.94441,341.38102 243.28642,341.38102 C 242.39042,341.38102 241.62892,338.49402 241.62892,334.98306 C 241.62892,329.20213 241.97033,328.79219 245.17597,330.50781 C 247.48891,331.74565 251.24279,331.84547 256.01603,330.77301 C 262.88678,329.22927 267.38754,330.72595 263.34218,333.22611 C 259.94264,335.32715 261.4607,339.24224 268.57988,346.65187 C 276.61365,355.01342 278.60902,355.55887 281.44209,350.26522 C 282.93257,347.48025 282.8627,344.24257 281.14374,337.53562 C 278.56812,327.48605 280.21523,322.41922 286.08309,322.41921 C 288.7781,322.41921 289.60528,323.94061 290.02794,329.67906 C 290.4644,335.60476 291.48599,337.34226 295.46455,339.06052 C 305.21183,343.27018 309.45435,343.53 313.66391,340.12132 C 317.15896,337.2912 317.4494,336.123 315.81866,331.83381 C 313.77933,326.46997 311.80212,323.75342 305.01175,317.0489 C 300.84208,312.93196 300.80872,312.66606 303.9178,309.557 C 305.69686,307.77792 308.33471,303.42573 309.78536,299.91034 C 311.23601,296.39494 313.45168,292.31697 314.69156,290.82724 C 319.22788,285.37676 319.16978,281.95918 314.52581,276.44013 C 309.3265,270.26111 305.73488,269.5794 300.90115,273.95388 C 299.07044,275.61064 296.14471,277.07431 294.40375,277.20258 C 292.66276,277.33083 290.44009,277.90174 289.46439,278.46228 C 288.48871,279.02282 285.36439,280.03929 282.53604,280.71648 C 273.98941,282.76284 277.81494,277.79805 287.30964,274.51743 C 298.28739,270.72439 303.78445,265.91142 300.96745,262.51712 C 298.42838,259.45773 302.40334,256.10753 312.60311,252.73787 C 320.42932,250.15234 321.54071,248.97419 319.99556,244.94761 C 319.28788,243.10343 316.70367,242.06356 312.76886,242.06356 C 309.3991,242.06356 306.63611,241.4565 306.6361,240.70441 C 306.6361,239.95231 310.36763,237.10466 314.89046,234.37276 C 319.4133,231.64086 322.65803,228.6842 322.11716,227.80905 C 320.07645,224.50709 311.70324,223.85 307.4317,226.6488 C 301.59627,230.47234 299.98961,230.14052 299.0116,225.02445 C 298.33854,221.5036 299.09075,220.4087 302.75755,219.4884 C 305.27068,218.85763 310.58118,216.76926 314.55896,214.8474 C 318.53676,212.92554 322.3442,211.36664 323.04536,211.36664 C 324.61283,211.36664 326.27991,233.92561 327.42117,270.97038 C 327.89541,286.36414 329.23779,311.74404 330.40467,327.39171 C 331.57156,343.03938 332.06127,356.29941 331.49862,356.86208 C 330.3496,358.01108 315.47887,349.12149 313.53131,346.12147 C 312.84046,345.05727 311.80946,344.66091 311.24396,345.22642 C 310.67845,345.79191 314.0698,352.5247 318.80216,360.17708 C 334.20198,385.07914 335.47967,387.38169 335.50977,390.64195 C 335.52611,392.41198 337.3858,394.58365 339.62037,395.48185 C 341.85494,396.38004 343.79596,397.17584 343.96303,397.2388 C 344.13008,397.30177 345.58004,396.85772 347.17858,396.2443 C 352.1905,394.32105 353.83062,389.05137 351.98533,380.69694 C 345.94321,353.3417 342.51643,308.59568 342.90222,261.92042 C 343.06229,242.55408 343.07929,224.1192 342.96853,220.947 C 342.85778,217.77482 343.6047,214.69568 344.59288,214.08495 C 348.77759,211.49865 345.57119,206.42712 335.67552,199.99619 C 322.92123,191.70752 318.3988,191.88866 310.34891,201.05699 C 301.31364,211.34758 294.24181,215.74074 287.37594,215.27835 C 280.56038,214.81934 275.35954,217.05699 268.51358,223.43325 L 263.80628,227.8422 L 258.46913,222.50505 L 253.16512,217.20105 L 259.49678,214.74795 C 264.88786,212.65231 270.46815,208.76774 282.73494,198.63704 C 283.97636,197.61178 284.98915,195.22156 284.98914,193.33303 C 284.98914,191.44451 285.7861,189.40528 286.77924,188.79148 C 287.7724,188.17769 288.6025,185.6202 288.60249,183.08968 C 288.60249,179.43692 289.24294,178.75214 291.75175,179.74153 C 293.48975,180.42694 298.63398,181.59073 303.1885,182.32723 C 310.02174,183.43218 313.09656,182.88007 320.79116,179.24428 C 330.79517,174.51726 333.2025,169.26034 326.32722,167.07822 C 322.94359,166.0043 318.31726,167.36897 303.95095,173.67507 C 301.96466,174.54696 298.31207,175.44657 295.8292,175.69722 C 290.99717,176.18503 291.08731,176.66072 293.40925,162.20517 C 294.86094,153.16735 290.51234,144.49507 281.60784,138.60235 C 278.20595,136.35109 275.05032,134.75692 273.98334,134.7238 z M 227.63961,148.54736 C 227.23556,148.66994 227.20866,149.59745 227.20866,151.26566 C 227.20866,153.44074 228.3743,155.87441 229.79436,156.66911 C 233.92503,158.98076 238.0035,168.36749 238.01557,175.56462 C 238.026,181.78977 237.45738,182.4966 228.56781,186.80248 C 223.35378,189.328 215.55841,191.93801 211.2635,192.60373 C 204.87829,193.59346 203.90434,194.23902 205.86005,196.11764 C 211.05511,201.10787 225.53965,202.83283 228.99876,198.86909 C 229.49534,198.30007 232.50542,196.89377 235.69506,195.75299 C 241.82716,193.55981 243.49326,194.4106 245.83897,200.99069 C 246.45855,202.72869 248.10205,204.13994 249.51862,204.13994 C 252.95528,204.13994 254.33432,190.52424 251.20927,187.39918 C 249.95257,186.14248 248.43359,181.07022 247.86112,176.12817 C 246.11064,161.01661 245.49656,159.47218 240.80017,158.29346 C 238.33818,157.67554 234.29574,154.93649 231.78336,152.22701 C 229.30591,149.55519 228.1591,148.38976 227.63961,148.54736 z M 283.79574,220.947 C 287.73078,220.83707 287.17292,221.7446 282.73494,229.566 C 279.84019,234.66768 279.262,237.07653 280.74594,238.01926 C 282.29372,239.00255 286.77924,256.36634 286.77924,261.35687 C 286.77924,263.09453 280.10454,261.37788 278.12709,259.13582 C 275.98156,256.7032 270.37157,255.59056 263.07698,256.15232 C 260.92489,256.31805 260.19953,254.97013 260.39183,251.14667 C 260.53658,248.26825 261.2525,245.31349 261.98303,244.58296 C 262.71356,243.85243 263.30903,241.36425 263.30903,239.04691 C 263.30903,233.21618 275.50626,221.379 281.83989,221.04645 C 282.58749,221.0072 283.23359,220.9627 283.79574,220.947 z M 290.06109,226.4499 C 291.51259,226.42084 292.19636,230.35796 291.1882,235.73191 C 290.53293,239.22483 289.28621,242.06356 288.40359,242.06356 C 286.35424,242.06356 286.35358,231.11067 288.40359,227.87535 C 289.0273,226.89103 289.57726,226.45959 290.06109,226.4499 z M 202.37929,235.76506 C 202.00837,235.83449 201.68327,236.46495 201.25219,237.58831 C 200.63098,239.20714 200.90262,241.95292 201.84889,243.72106 C 202.85644,245.60369 203.18749,259.96606 202.6445,278.36283 C 201.56335,314.99164 201.50733,315.46184 197.24104,329.64591 C 195.44873,335.60479 193.88089,344.98373 193.76029,350.49727 C 193.63969,356.01082 192.94215,361.49928 192.20224,362.69648 C 191.41778,363.96577 192.04784,365.34666 193.69399,365.97833 C 195.24665,366.57414 196.51174,368.24241 196.51174,369.69113 C 196.51174,371.13988 197.34005,373.90289 198.36814,375.82389 C 200.86007,380.48009 204.47118,380.21427 206.954,375.22719 C 210.38129,368.34297 214.18132,343.16767 214.5122,325.17066 C 214.68541,315.75023 215.4125,307.21645 216.13655,306.20885 C 216.86061,305.20124 217.28757,297.68375 217.06475,289.50124 C 216.84195,281.31873 217.34901,274.17643 218.19185,273.65553 C 221.00639,271.91606 216.10762,259.39136 204.40145,238.28446 C 203.40823,236.49363 202.8562,235.67579 202.37929,235.76506 z M 257.87243,263.71052 C 259.38849,263.82054 263.30903,268.12393 263.30903,270.07533 C 263.30903,271.32761 261.89779,272.75802 260.15978,273.25773 C 258.42178,273.75746 255.55195,274.756 253.79497,275.47878 C 250.73945,276.73576 250.73945,276.51591 253.79497,270.70518 C 255.55195,267.36393 257.18404,264.33239 257.40833,263.94257 C 257.50875,263.76803 257.65584,263.6948 257.87243,263.71052 z M 265.56323,281.28003 C 265.74143,281.28963 265.85939,281.34414 265.92788,281.41263 C 268.95302,284.43778 265.71052,286.9738 255.65138,289.46809 C 249.44421,291.00724 241.7074,292.37099 238.47967,292.48474 C 233.35897,292.6652 232.61211,292.10612 232.61211,288.14209 C 232.61211,284.56382 233.54371,283.60054 236.92161,283.60054 C 239.28033,283.60054 243.94571,283.14071 247.29757,282.57288 C 253.04714,281.59886 253.19921,281.703 249.91642,284.36299 C 244.32178,288.89625 247.29476,288.97122 256.44698,284.52874 C 260.52979,282.54694 264.31581,281.2128 265.56323,281.28003 z M 302.7244,282.27453 C 304.57307,282.09261 302.49686,287.42844 296.98945,295.79974 C 291.50534,304.13563 288.47372,307.07075 285.45324,307.07075 C 279.78421,307.07075 280.34275,305.43598 286.77924,303.1922 C 290.58587,301.8652 292.21585,300.11791 292.21585,297.32464 C 292.21585,293.84497 291.41654,293.43007 285.88419,294.07594 C 277.13754,295.09707 277.99919,293.50753 288.00579,290.09794 C 292.64091,288.5186 297.82027,285.95427 299.542,284.39614 C 301.05694,283.02514 302.10818,282.33518 302.7244,282.27453 z M 280.48074,310.4189 C 281.42423,310.4189 282.47851,311.27397 282.83439,312.3416 C 283.19027,313.40923 282.13598,314.29745 280.48074,314.29745 C 278.8255,314.29745 277.73806,313.40923 278.09394,312.3416 C 278.44982,311.27397 279.53725,310.41891 280.48074,310.4189 z"
       id="path2475" />
  </g>
</svg>
