<?xml version="1.0" encoding="UTF-8" standalone="no"?>
<!-- Created with Inkscape (http://www.inkscape.org/) -->
<svg
   xmlns:dc="http://purl.org/dc/elements/1.1/"
   xmlns:cc="http://creativecommons.org/ns#"
   xmlns:rdf="http://www.w3.org/1999/02/22-rdf-syntax-ns#"
   xmlns:svg="http://www.w3.org/2000/svg"
   xmlns="http://www.w3.org/2000/svg"
   xmlns:sodipodi="http://sodipodi.sourceforge.net/DTD/sodipodi-0.dtd"
   xmlns:inkscape="http://www.inkscape.org/namespaces/inkscape"
   width="300"
   height="300"
   id="svg2"
   sodipodi:version="0.32"
   inkscape:version="0.46"
   version="1.0"
   sodipodi:docname="21亭.svg"
   inkscape:output_extension="org.inkscape.output.svg.inkscape"
   inkscape:export-filename="E:\MyWork\Recent\Calligraphy Vectorization Project\矢量字转位图\12初.png"
   inkscape:export-xdpi="90"
   inkscape:export-ydpi="90">
  <defs
     id="defs4">
    <inkscape:perspective
       sodipodi:type="inkscape:persp3d"
       inkscape:vp_x="0 : 526.18109 : 1"
       inkscape:vp_y="0 : 1000 : 0"
       inkscape:vp_z="744.09448 : 526.18109 : 1"
       inkscape:persp3d-origin="372.04724 : 350.78739 : 1"
       id="perspective10" />
    <inkscape:perspective
       id="perspective2390"
       inkscape:persp3d-origin="372.04724 : 350.78739 : 1"
       inkscape:vp_z="744.09448 : 526.18109 : 1"
       inkscape:vp_y="0 : 1000 : 0"
       inkscape:vp_x="0 : 526.18109 : 1"
       sodipodi:type="inkscape:persp3d" />
    <inkscape:perspective
       id="perspective2389"
       inkscape:persp3d-origin="372.04724 : 350.78739 : 1"
       inkscape:vp_z="744.09448 : 526.18109 : 1"
       inkscape:vp_y="0 : 1000 : 0"
       inkscape:vp_x="0 : 526.18109 : 1"
       sodipodi:type="inkscape:persp3d" />
    <inkscape:perspective
       id="perspective2444"
       inkscape:persp3d-origin="372.04724 : 350.78739 : 1"
       inkscape:vp_z="744.09448 : 526.18109 : 1"
       inkscape:vp_y="0 : 1000 : 0"
       inkscape:vp_x="0 : 526.18109 : 1"
       sodipodi:type="inkscape:persp3d" />
    <inkscape:perspective
       id="perspective2486"
       inkscape:persp3d-origin="372.04724 : 350.78739 : 1"
       inkscape:vp_z="744.09448 : 526.18109 : 1"
       inkscape:vp_y="0 : 1000 : 0"
       inkscape:vp_x="0 : 526.18109 : 1"
       sodipodi:type="inkscape:persp3d" />
    <inkscape:perspective
       id="perspective3311"
       inkscape:persp3d-origin="372.04724 : 350.78739 : 1"
       inkscape:vp_z="744.09448 : 526.18109 : 1"
       inkscape:vp_y="0 : 1000 : 0"
       inkscape:vp_x="0 : 526.18109 : 1"
       sodipodi:type="inkscape:persp3d" />
    <inkscape:perspective
       id="perspective2393"
       inkscape:persp3d-origin="372.04724 : 350.78739 : 1"
       inkscape:vp_z="744.09448 : 526.18109 : 1"
       inkscape:vp_y="0 : 1000 : 0"
       inkscape:vp_x="0 : 526.18109 : 1"
       sodipodi:type="inkscape:persp3d" />
    <inkscape:perspective
       id="perspective2410"
       inkscape:persp3d-origin="372.04724 : 350.78739 : 1"
       inkscape:vp_z="744.09448 : 526.18109 : 1"
       inkscape:vp_y="0 : 1000 : 0"
       inkscape:vp_x="0 : 526.18109 : 1"
       sodipodi:type="inkscape:persp3d" />
    <inkscape:perspective
       id="perspective2427"
       inkscape:persp3d-origin="372.04724 : 350.78739 : 1"
       inkscape:vp_z="744.09448 : 526.18109 : 1"
       inkscape:vp_y="0 : 1000 : 0"
       inkscape:vp_x="0 : 526.18109 : 1"
       sodipodi:type="inkscape:persp3d" />
    <inkscape:perspective
       id="perspective2477"
       inkscape:persp3d-origin="372.04724 : 350.78739 : 1"
       inkscape:vp_z="744.09448 : 526.18109 : 1"
       inkscape:vp_y="0 : 1000 : 0"
       inkscape:vp_x="0 : 526.18109 : 1"
       sodipodi:type="inkscape:persp3d" />
    <inkscape:perspective
       id="perspective2526"
       inkscape:persp3d-origin="372.04724 : 350.78739 : 1"
       inkscape:vp_z="744.09448 : 526.18109 : 1"
       inkscape:vp_y="0 : 1000 : 0"
       inkscape:vp_x="0 : 526.18109 : 1"
       sodipodi:type="inkscape:persp3d" />
    <inkscape:perspective
       id="perspective2541"
       inkscape:persp3d-origin="372.04724 : 350.78739 : 1"
       inkscape:vp_z="744.09448 : 526.18109 : 1"
       inkscape:vp_y="0 : 1000 : 0"
       inkscape:vp_x="0 : 526.18109 : 1"
       sodipodi:type="inkscape:persp3d" />
    <inkscape:perspective
       id="perspective2556"
       inkscape:persp3d-origin="372.04724 : 350.78739 : 1"
       inkscape:vp_z="744.09448 : 526.18109 : 1"
       inkscape:vp_y="0 : 1000 : 0"
       inkscape:vp_x="0 : 526.18109 : 1"
       sodipodi:type="inkscape:persp3d" />
    <inkscape:perspective
       id="perspective2573"
       inkscape:persp3d-origin="372.04724 : 350.78739 : 1"
       inkscape:vp_z="744.09448 : 526.18109 : 1"
       inkscape:vp_y="0 : 1000 : 0"
       inkscape:vp_x="0 : 526.18109 : 1"
       sodipodi:type="inkscape:persp3d" />
    <inkscape:perspective
       id="perspective2401"
       inkscape:persp3d-origin="372.04724 : 350.78739 : 1"
       inkscape:vp_z="744.09448 : 526.18109 : 1"
       inkscape:vp_y="0 : 1000 : 0"
       inkscape:vp_x="0 : 526.18109 : 1"
       sodipodi:type="inkscape:persp3d" />
    <inkscape:perspective
       id="perspective2420"
       inkscape:persp3d-origin="372.04724 : 350.78739 : 1"
       inkscape:vp_z="744.09448 : 526.18109 : 1"
       inkscape:vp_y="0 : 1000 : 0"
       inkscape:vp_x="0 : 526.18109 : 1"
       sodipodi:type="inkscape:persp3d" />
    <inkscape:perspective
       id="perspective2433"
       inkscape:persp3d-origin="372.04724 : 350.78739 : 1"
       inkscape:vp_z="744.09448 : 526.18109 : 1"
       inkscape:vp_y="0 : 1000 : 0"
       inkscape:vp_x="0 : 526.18109 : 1"
       sodipodi:type="inkscape:persp3d" />
    <inkscape:perspective
       id="perspective2404"
       inkscape:persp3d-origin="372.04724 : 350.78739 : 1"
       inkscape:vp_z="744.09448 : 526.18109 : 1"
       inkscape:vp_y="0 : 1000 : 0"
       inkscape:vp_x="0 : 526.18109 : 1"
       sodipodi:type="inkscape:persp3d" />
    <inkscape:perspective
       id="perspective2419"
       inkscape:persp3d-origin="372.04724 : 350.78739 : 1"
       inkscape:vp_z="744.09448 : 526.18109 : 1"
       inkscape:vp_y="0 : 1000 : 0"
       inkscape:vp_x="0 : 526.18109 : 1"
       sodipodi:type="inkscape:persp3d" />
    <inkscape:perspective
       id="perspective2434"
       inkscape:persp3d-origin="372.04724 : 350.78739 : 1"
       inkscape:vp_z="744.09448 : 526.18109 : 1"
       inkscape:vp_y="0 : 1000 : 0"
       inkscape:vp_x="0 : 526.18109 : 1"
       sodipodi:type="inkscape:persp3d" />
    <inkscape:perspective
       id="perspective2453"
       inkscape:persp3d-origin="372.04724 : 350.78739 : 1"
       inkscape:vp_z="744.09448 : 526.18109 : 1"
       inkscape:vp_y="0 : 1000 : 0"
       inkscape:vp_x="0 : 526.18109 : 1"
       sodipodi:type="inkscape:persp3d" />
    <inkscape:perspective
       id="perspective2538"
       inkscape:persp3d-origin="372.04724 : 350.78739 : 1"
       inkscape:vp_z="744.09448 : 526.18109 : 1"
       inkscape:vp_y="0 : 1000 : 0"
       inkscape:vp_x="0 : 526.18109 : 1"
       sodipodi:type="inkscape:persp3d" />
    <inkscape:perspective
       id="perspective2553"
       inkscape:persp3d-origin="372.04724 : 350.78739 : 1"
       inkscape:vp_z="744.09448 : 526.18109 : 1"
       inkscape:vp_y="0 : 1000 : 0"
       inkscape:vp_x="0 : 526.18109 : 1"
       sodipodi:type="inkscape:persp3d" />
    <inkscape:perspective
       id="perspective2570"
       inkscape:persp3d-origin="372.04724 : 350.78739 : 1"
       inkscape:vp_z="744.09448 : 526.18109 : 1"
       inkscape:vp_y="0 : 1000 : 0"
       inkscape:vp_x="0 : 526.18109 : 1"
       sodipodi:type="inkscape:persp3d" />
    <inkscape:perspective
       id="perspective2585"
       inkscape:persp3d-origin="372.04724 : 350.78739 : 1"
       inkscape:vp_z="744.09448 : 526.18109 : 1"
       inkscape:vp_y="0 : 1000 : 0"
       inkscape:vp_x="0 : 526.18109 : 1"
       sodipodi:type="inkscape:persp3d" />
    <inkscape:perspective
       id="perspective2600"
       inkscape:persp3d-origin="372.04724 : 350.78739 : 1"
       inkscape:vp_z="744.09448 : 526.18109 : 1"
       inkscape:vp_y="0 : 1000 : 0"
       inkscape:vp_x="0 : 526.18109 : 1"
       sodipodi:type="inkscape:persp3d" />
    <inkscape:perspective
       id="perspective2615"
       inkscape:persp3d-origin="372.04724 : 350.78739 : 1"
       inkscape:vp_z="744.09448 : 526.18109 : 1"
       inkscape:vp_y="0 : 1000 : 0"
       inkscape:vp_x="0 : 526.18109 : 1"
       sodipodi:type="inkscape:persp3d" />
    <inkscape:perspective
       id="perspective2630"
       inkscape:persp3d-origin="372.04724 : 350.78739 : 1"
       inkscape:vp_z="744.09448 : 526.18109 : 1"
       inkscape:vp_y="0 : 1000 : 0"
       inkscape:vp_x="0 : 526.18109 : 1"
       sodipodi:type="inkscape:persp3d" />
    <inkscape:perspective
       id="perspective2645"
       inkscape:persp3d-origin="372.04724 : 350.78739 : 1"
       inkscape:vp_z="744.09448 : 526.18109 : 1"
       inkscape:vp_y="0 : 1000 : 0"
       inkscape:vp_x="0 : 526.18109 : 1"
       sodipodi:type="inkscape:persp3d" />
    <inkscape:perspective
       id="perspective2416"
       inkscape:persp3d-origin="372.04724 : 350.78739 : 1"
       inkscape:vp_z="744.09448 : 526.18109 : 1"
       inkscape:vp_y="0 : 1000 : 0"
       inkscape:vp_x="0 : 526.18109 : 1"
       sodipodi:type="inkscape:persp3d" />
    <inkscape:perspective
       id="perspective2437"
       inkscape:persp3d-origin="372.04724 : 350.78739 : 1"
       inkscape:vp_z="744.09448 : 526.18109 : 1"
       inkscape:vp_y="0 : 1000 : 0"
       inkscape:vp_x="0 : 526.18109 : 1"
       sodipodi:type="inkscape:persp3d" />
    <inkscape:perspective
       id="perspective2476"
       inkscape:persp3d-origin="372.04724 : 350.78739 : 1"
       inkscape:vp_z="744.09448 : 526.18109 : 1"
       inkscape:vp_y="0 : 1000 : 0"
       inkscape:vp_x="0 : 526.18109 : 1"
       sodipodi:type="inkscape:persp3d" />
    <inkscape:perspective
       id="perspective2491"
       inkscape:persp3d-origin="372.04724 : 350.78739 : 1"
       inkscape:vp_z="744.09448 : 526.18109 : 1"
       inkscape:vp_y="0 : 1000 : 0"
       inkscape:vp_x="0 : 526.18109 : 1"
       sodipodi:type="inkscape:persp3d" />
    <inkscape:perspective
       id="perspective2506"
       inkscape:persp3d-origin="372.04724 : 350.78739 : 1"
       inkscape:vp_z="744.09448 : 526.18109 : 1"
       inkscape:vp_y="0 : 1000 : 0"
       inkscape:vp_x="0 : 526.18109 : 1"
       sodipodi:type="inkscape:persp3d" />
    <inkscape:perspective
       id="perspective2560"
       inkscape:persp3d-origin="372.04724 : 350.78739 : 1"
       inkscape:vp_z="744.09448 : 526.18109 : 1"
       inkscape:vp_y="0 : 1000 : 0"
       inkscape:vp_x="0 : 526.18109 : 1"
       sodipodi:type="inkscape:persp3d" />
    <inkscape:perspective
       id="perspective2422"
       inkscape:persp3d-origin="372.04724 : 350.78739 : 1"
       inkscape:vp_z="744.09448 : 526.18109 : 1"
       inkscape:vp_y="0 : 1000 : 0"
       inkscape:vp_x="0 : 526.18109 : 1"
       sodipodi:type="inkscape:persp3d" />
    <inkscape:perspective
       id="perspective2441"
       inkscape:persp3d-origin="372.04724 : 350.78739 : 1"
       inkscape:vp_z="744.09448 : 526.18109 : 1"
       inkscape:vp_y="0 : 1000 : 0"
       inkscape:vp_x="0 : 526.18109 : 1"
       sodipodi:type="inkscape:persp3d" />
    <inkscape:perspective
       id="perspective2457"
       inkscape:persp3d-origin="372.04724 : 350.78739 : 1"
       inkscape:vp_z="744.09448 : 526.18109 : 1"
       inkscape:vp_y="0 : 1000 : 0"
       inkscape:vp_x="0 : 526.18109 : 1"
       sodipodi:type="inkscape:persp3d" />
    <inkscape:perspective
       id="perspective2469"
       inkscape:persp3d-origin="372.04724 : 350.78739 : 1"
       inkscape:vp_z="744.09448 : 526.18109 : 1"
       inkscape:vp_y="0 : 1000 : 0"
       inkscape:vp_x="0 : 526.18109 : 1"
       sodipodi:type="inkscape:persp3d" />
    <inkscape:perspective
       id="perspective2522"
       inkscape:persp3d-origin="372.04724 : 350.78739 : 1"
       inkscape:vp_z="744.09448 : 526.18109 : 1"
       inkscape:vp_y="0 : 1000 : 0"
       inkscape:vp_x="0 : 526.18109 : 1"
       sodipodi:type="inkscape:persp3d" />
    <inkscape:perspective
       id="perspective2537"
       inkscape:persp3d-origin="372.04724 : 350.78739 : 1"
       inkscape:vp_z="744.09448 : 526.18109 : 1"
       inkscape:vp_y="0 : 1000 : 0"
       inkscape:vp_x="0 : 526.18109 : 1"
       sodipodi:type="inkscape:persp3d" />
    <inkscape:perspective
       id="perspective2552"
       inkscape:persp3d-origin="372.04724 : 350.78739 : 1"
       inkscape:vp_z="744.09448 : 526.18109 : 1"
       inkscape:vp_y="0 : 1000 : 0"
       inkscape:vp_x="0 : 526.18109 : 1"
       sodipodi:type="inkscape:persp3d" />
  </defs>
  <sodipodi:namedview
     id="base"
     pagecolor="#ffffff"
     bordercolor="#666666"
     borderopacity="1.0"
     gridtolerance="10000"
     guidetolerance="10"
     objecttolerance="10"
     inkscape:pageopacity="0.0"
     inkscape:pageshadow="2"
     inkscape:zoom="1.0564636"
     inkscape:cx="142.14858"
     inkscape:cy="181.88054"
     inkscape:document-units="px"
     inkscape:current-layer="layer1"
     showgrid="true"
     width="300px"
     borderlayer="true"
     inkscape:showpageshadow="true"
     inkscape:window-width="1024"
     inkscape:window-height="718"
     inkscape:window-x="0"
     inkscape:window-y="22">
    <inkscape:grid
       type="xygrid"
       id="grid2396"
       visible="true"
       enabled="true"
       dotted="false" />
  </sodipodi:namedview>
  <metadata
     id="metadata7">
    <rdf:RDF>
      <cc:Work
         rdf:about="">
        <dc:format>image/svg+xml</dc:format>
        <dc:type
           rdf:resource="http://purl.org/dc/dcmitype/StillImage" />
      </cc:Work>
    </rdf:RDF>
  </metadata>
  <g
     inkscape:label="Layer 1"
     inkscape:groupmode="layer"
     id="layer1"
     transform="translate(-121.21427,-114.50503)">
    <path
       style="fill:#000000"
       d="M 236.55802,140.94253 L 241.99552,144.88003 C 253.18563,153.00996 256.25077,158.72378 249.43302,158.72378 C 247.57483,158.72378 246.66515,159.71939 247.40177,160.91128 C 248.1384,162.10317 252.34628,163.06307 256.74552,163.06753 C 261.14476,163.07198 267.93682,165.03196 271.83927,167.41128 C 275.74172,169.79061 280.8593,171.72378 283.21427,171.72378 C 293.29141,171.72378 283.63574,178.44634 272.30802,179.31753 C 267.68001,179.67346 257.93337,182.37152 243.99552,187.13003 C 237.36079,189.39519 230.68012,191.22378 229.15177,191.22378 C 227.62341,191.22378 223.31381,192.5591 219.55802,194.19253 C 215.80223,195.82594 208.82558,198.24569 204.05802,199.56753 C 199.29046,200.88938 188.05968,204.07743 179.12052,206.63003 C 170.18136,209.18262 161.70089,211.44284 160.24552,211.66128 C 155.88902,212.31515 154.29836,215.06753 158.27677,215.06753 C 160.30519,215.06753 164.1057,216.46951 166.74552,218.16128 C 169.38534,219.85305 176.90888,221.86214 183.46427,222.63003 C 194.3971,223.91068 196.74336,223.32503 211.65177,215.69253 C 236.41399,203.01529 247.10023,199.44585 247.58927,203.69253 C 247.69221,204.58645 248.56077,207.13917 249.52677,209.34878 C 251.79351,214.53366 249.06495,266.29942 246.24552,271.56753 C 244.1266,275.5268 226.79548,284.41128 221.21427,284.41128 C 219.63716,284.41128 217.57673,283.21365 216.62052,281.72378 C 213.52,276.89288 203.01765,268.48291 201.71427,269.78628 C 201.01707,270.48348 201.69497,273.31494 203.21427,276.09878 C 206.088,281.36435 205.98997,292.59385 203.02677,296.34878 C 202.08622,297.54067 200.35839,303.10753 199.18302,308.72378 C 197.37522,317.3619 197.5989,319.43566 200.71427,322.25503 C 205.61967,326.69437 211.46226,326.50065 213.15177,321.81753 C 213.90426,319.73172 216.22055,315.52501 218.30802,312.50503 C 220.3955,309.48506 222.78154,303.38341 223.62052,298.91128 C 224.86347,292.28579 226.55801,290.18408 232.74552,287.59878 C 236.92201,285.85373 244.10294,284.41128 248.68302,284.41128 C 254.56534,284.41128 257.6372,283.24124 259.15177,280.41128 C 260.37191,278.1314 266.69178,274.80122 273.83927,272.69253 C 280.7472,270.6545 288.09721,268.07466 290.18302,266.94253 C 292.8734,265.48228 293.99258,265.66403 294.02677,267.59878 C 294.05327,269.09873 296.00849,272.77531 298.33927,275.75503 C 303.81249,282.75216 303.73082,284.41128 297.93302,284.41128 C 295.32809,284.41128 291.17486,286.29963 288.71427,288.59878 C 276.54959,299.96532 246.43278,311.53993 243.08927,306.13003 C 241.23977,303.13744 235.46427,303.32455 235.46427,306.38003 C 235.46427,310.87423 246.4341,319.08459 252.37052,319.03628 C 255.58681,319.01011 262.63425,316.99927 267.99552,314.56753 L 277.71427,310.16128 L 282.62052,315.81753 C 286.55966,320.39704 287.49551,324.10648 287.49552,335.06753 C 287.49552,354.35576 282.4974,367.08898 269.93302,379.78628 C 264.09842,385.68263 259.30802,391.00853 259.30802,391.63003 C 259.30802,393.498 263.31747,392.90659 264.58927,390.84878 C 265.24036,389.7953 270.4126,386.76283 276.08927,384.09878 C 286.62819,379.15288 299.49955,366.36592 304.18302,356.19253 C 308.67542,346.4342 307.56089,331.48877 301.52677,320.69253 C 298.5187,315.31051 294.13222,310.40225 291.77677,309.78628 C 283.84903,307.71313 287.41655,304.24036 299.96427,301.81753 C 306.81764,300.49423 314.59392,298.94421 317.24552,298.38003 C 320.42229,297.70413 322.65695,295.07216 323.80802,290.63003 C 325.62675,283.61133 328.6633,281.89696 350.33927,275.63003 C 366.08692,271.07708 378.24293,264.80953 379.58927,260.56753 C 381.40354,254.85128 378.54317,245.41128 374.99552,245.41128 C 373.32526,245.41128 370.28657,243.4513 368.24552,241.06753 C 363.80303,235.87908 352.95064,235.35474 343.08927,239.84878 C 339.33347,241.56037 332.82338,243.89742 328.65177,245.03628 C 324.48015,246.17515 319.41711,247.79234 317.37052,248.63003 C 313.92937,250.03849 313.76309,248.21029 315.15177,224.47378 C 317.02363,192.47873 316.95801,184.57185 314.87052,180.09878 C 313.39594,176.93905 315.35764,176.63335 333.02677,177.16128 C 349.14796,177.64298 353.05663,177.13356 354.08927,174.44253 C 356.08421,169.2438 351.79462,164.4251 342.12052,161.00503 C 333.85263,158.08213 332.36698,158.20157 321.71427,162.59878 C 315.40164,165.20448 306.82338,168.00029 302.65177,168.81753 C 295.92621,170.1351 295.38579,169.90269 297.87052,166.88003 C 299.46567,164.93952 300.11906,161.23759 299.37052,158.25503 C 297.37233,150.29368 287.25118,145.52429 270.65177,144.75503 C 262.6262,144.3831 251.67153,143.37382 246.30802,142.50503 L 236.55802,140.94253 z M 299.21427,181.75503 C 300.06344,181.75784 300.61982,181.87406 300.83927,182.09878 C 303.04657,184.3591 303.44228,211.19333 301.55802,231.91128 C 300.66133,241.77054 299.3276,250.20498 298.58927,250.66128 C 297.85096,251.11758 294.3206,249.14662 290.74552,246.28628 C 287.17044,243.42592 285.3047,241.1047 286.62052,241.09878 C 287.93634,241.09286 291.60324,238.69845 294.74552,235.78628 C 305.66628,225.66526 295.25169,219.32972 282.05802,228.06753 C 272.98801,234.07436 270.15177,233.55646 270.15177,225.84878 C 270.15177,221.57459 271.46556,218.7668 273.93302,217.84878 C 282.37396,214.70834 289.65176,207.61065 289.65177,202.50503 C 289.65177,197.93004 288.94158,197.45115 283.99552,198.69253 C 268.97982,202.46123 265.33645,202.6492 263.46427,199.69253 C 260.37811,194.8186 261.17586,191.22378 265.37052,191.22378 C 267.51591,191.22378 270.20699,190.35122 271.33927,189.25503 C 274.01806,186.66167 293.2701,181.73534 299.21427,181.75503 z M 275.49552,245.41128 C 279.99748,245.41128 289.65176,254.8509 289.65177,259.25503 C 289.65177,259.94896 286.0518,262.04157 281.65177,263.88003 C 277.25173,265.71848 271.44058,267.76615 268.74552,268.44253 C 264.14525,269.59714 263.94755,269.17453 265.15177,261.34878 C 266.98601,249.42868 269.57277,245.41128 275.49552,245.41128 z M 344.21427,251.34878 C 348.69352,251.0294 344.52446,257.07141 331.87052,268.97378 C 318.2407,281.79408 309.33206,286.247 312.18302,278.81753 C 312.90906,276.92549 314.10372,271.60491 314.83927,267.00503 C 315.95618,260.02021 317.18697,258.42477 322.37052,257.28628 C 325.78416,256.53652 329.0928,255.99482 329.71427,256.09878 C 330.33574,256.20274 334.26708,254.87067 338.43302,253.13003 C 341.0493,252.03688 342.96008,251.43821 344.21427,251.34878 z"
       id="path2562" />
  </g>
</svg>
