<?xml version="1.0" encoding="UTF-8" standalone="no"?>
<!-- Created with Inkscape (http://www.inkscape.org/) -->
<svg
   xmlns:dc="http://purl.org/dc/elements/1.1/"
   xmlns:cc="http://creativecommons.org/ns#"
   xmlns:rdf="http://www.w3.org/1999/02/22-rdf-syntax-ns#"
   xmlns:svg="http://www.w3.org/2000/svg"
   xmlns="http://www.w3.org/2000/svg"
   xmlns:sodipodi="http://sodipodi.sourceforge.net/DTD/sodipodi-0.dtd"
   xmlns:inkscape="http://www.inkscape.org/namespaces/inkscape"
   width="300"
   height="300"
   id="svg2"
   sodipodi:version="0.32"
   inkscape:version="0.46"
   version="1.0"
   sodipodi:docname="22修.svg"
   inkscape:output_extension="org.inkscape.output.svg.inkscape"
   inkscape:export-filename="E:\MyWork\Recent\Calligraphy Vectorization Project\矢量字转位图\12初.png"
   inkscape:export-xdpi="90"
   inkscape:export-ydpi="90">
  <defs
     id="defs4">
    <inkscape:perspective
       sodipodi:type="inkscape:persp3d"
       inkscape:vp_x="0 : 526.18109 : 1"
       inkscape:vp_y="0 : 1000 : 0"
       inkscape:vp_z="744.09448 : 526.18109 : 1"
       inkscape:persp3d-origin="372.04724 : 350.78739 : 1"
       id="perspective10" />
    <inkscape:perspective
       id="perspective2390"
       inkscape:persp3d-origin="372.04724 : 350.78739 : 1"
       inkscape:vp_z="744.09448 : 526.18109 : 1"
       inkscape:vp_y="0 : 1000 : 0"
       inkscape:vp_x="0 : 526.18109 : 1"
       sodipodi:type="inkscape:persp3d" />
    <inkscape:perspective
       id="perspective2389"
       inkscape:persp3d-origin="372.04724 : 350.78739 : 1"
       inkscape:vp_z="744.09448 : 526.18109 : 1"
       inkscape:vp_y="0 : 1000 : 0"
       inkscape:vp_x="0 : 526.18109 : 1"
       sodipodi:type="inkscape:persp3d" />
    <inkscape:perspective
       id="perspective2444"
       inkscape:persp3d-origin="372.04724 : 350.78739 : 1"
       inkscape:vp_z="744.09448 : 526.18109 : 1"
       inkscape:vp_y="0 : 1000 : 0"
       inkscape:vp_x="0 : 526.18109 : 1"
       sodipodi:type="inkscape:persp3d" />
    <inkscape:perspective
       id="perspective2486"
       inkscape:persp3d-origin="372.04724 : 350.78739 : 1"
       inkscape:vp_z="744.09448 : 526.18109 : 1"
       inkscape:vp_y="0 : 1000 : 0"
       inkscape:vp_x="0 : 526.18109 : 1"
       sodipodi:type="inkscape:persp3d" />
    <inkscape:perspective
       id="perspective3311"
       inkscape:persp3d-origin="372.04724 : 350.78739 : 1"
       inkscape:vp_z="744.09448 : 526.18109 : 1"
       inkscape:vp_y="0 : 1000 : 0"
       inkscape:vp_x="0 : 526.18109 : 1"
       sodipodi:type="inkscape:persp3d" />
    <inkscape:perspective
       id="perspective2393"
       inkscape:persp3d-origin="372.04724 : 350.78739 : 1"
       inkscape:vp_z="744.09448 : 526.18109 : 1"
       inkscape:vp_y="0 : 1000 : 0"
       inkscape:vp_x="0 : 526.18109 : 1"
       sodipodi:type="inkscape:persp3d" />
    <inkscape:perspective
       id="perspective2410"
       inkscape:persp3d-origin="372.04724 : 350.78739 : 1"
       inkscape:vp_z="744.09448 : 526.18109 : 1"
       inkscape:vp_y="0 : 1000 : 0"
       inkscape:vp_x="0 : 526.18109 : 1"
       sodipodi:type="inkscape:persp3d" />
    <inkscape:perspective
       id="perspective2427"
       inkscape:persp3d-origin="372.04724 : 350.78739 : 1"
       inkscape:vp_z="744.09448 : 526.18109 : 1"
       inkscape:vp_y="0 : 1000 : 0"
       inkscape:vp_x="0 : 526.18109 : 1"
       sodipodi:type="inkscape:persp3d" />
    <inkscape:perspective
       id="perspective2477"
       inkscape:persp3d-origin="372.04724 : 350.78739 : 1"
       inkscape:vp_z="744.09448 : 526.18109 : 1"
       inkscape:vp_y="0 : 1000 : 0"
       inkscape:vp_x="0 : 526.18109 : 1"
       sodipodi:type="inkscape:persp3d" />
    <inkscape:perspective
       id="perspective2526"
       inkscape:persp3d-origin="372.04724 : 350.78739 : 1"
       inkscape:vp_z="744.09448 : 526.18109 : 1"
       inkscape:vp_y="0 : 1000 : 0"
       inkscape:vp_x="0 : 526.18109 : 1"
       sodipodi:type="inkscape:persp3d" />
    <inkscape:perspective
       id="perspective2541"
       inkscape:persp3d-origin="372.04724 : 350.78739 : 1"
       inkscape:vp_z="744.09448 : 526.18109 : 1"
       inkscape:vp_y="0 : 1000 : 0"
       inkscape:vp_x="0 : 526.18109 : 1"
       sodipodi:type="inkscape:persp3d" />
    <inkscape:perspective
       id="perspective2556"
       inkscape:persp3d-origin="372.04724 : 350.78739 : 1"
       inkscape:vp_z="744.09448 : 526.18109 : 1"
       inkscape:vp_y="0 : 1000 : 0"
       inkscape:vp_x="0 : 526.18109 : 1"
       sodipodi:type="inkscape:persp3d" />
    <inkscape:perspective
       id="perspective2573"
       inkscape:persp3d-origin="372.04724 : 350.78739 : 1"
       inkscape:vp_z="744.09448 : 526.18109 : 1"
       inkscape:vp_y="0 : 1000 : 0"
       inkscape:vp_x="0 : 526.18109 : 1"
       sodipodi:type="inkscape:persp3d" />
    <inkscape:perspective
       id="perspective2401"
       inkscape:persp3d-origin="372.04724 : 350.78739 : 1"
       inkscape:vp_z="744.09448 : 526.18109 : 1"
       inkscape:vp_y="0 : 1000 : 0"
       inkscape:vp_x="0 : 526.18109 : 1"
       sodipodi:type="inkscape:persp3d" />
    <inkscape:perspective
       id="perspective2420"
       inkscape:persp3d-origin="372.04724 : 350.78739 : 1"
       inkscape:vp_z="744.09448 : 526.18109 : 1"
       inkscape:vp_y="0 : 1000 : 0"
       inkscape:vp_x="0 : 526.18109 : 1"
       sodipodi:type="inkscape:persp3d" />
    <inkscape:perspective
       id="perspective2433"
       inkscape:persp3d-origin="372.04724 : 350.78739 : 1"
       inkscape:vp_z="744.09448 : 526.18109 : 1"
       inkscape:vp_y="0 : 1000 : 0"
       inkscape:vp_x="0 : 526.18109 : 1"
       sodipodi:type="inkscape:persp3d" />
    <inkscape:perspective
       id="perspective2404"
       inkscape:persp3d-origin="372.04724 : 350.78739 : 1"
       inkscape:vp_z="744.09448 : 526.18109 : 1"
       inkscape:vp_y="0 : 1000 : 0"
       inkscape:vp_x="0 : 526.18109 : 1"
       sodipodi:type="inkscape:persp3d" />
    <inkscape:perspective
       id="perspective2419"
       inkscape:persp3d-origin="372.04724 : 350.78739 : 1"
       inkscape:vp_z="744.09448 : 526.18109 : 1"
       inkscape:vp_y="0 : 1000 : 0"
       inkscape:vp_x="0 : 526.18109 : 1"
       sodipodi:type="inkscape:persp3d" />
    <inkscape:perspective
       id="perspective2434"
       inkscape:persp3d-origin="372.04724 : 350.78739 : 1"
       inkscape:vp_z="744.09448 : 526.18109 : 1"
       inkscape:vp_y="0 : 1000 : 0"
       inkscape:vp_x="0 : 526.18109 : 1"
       sodipodi:type="inkscape:persp3d" />
    <inkscape:perspective
       id="perspective2453"
       inkscape:persp3d-origin="372.04724 : 350.78739 : 1"
       inkscape:vp_z="744.09448 : 526.18109 : 1"
       inkscape:vp_y="0 : 1000 : 0"
       inkscape:vp_x="0 : 526.18109 : 1"
       sodipodi:type="inkscape:persp3d" />
    <inkscape:perspective
       id="perspective2538"
       inkscape:persp3d-origin="372.04724 : 350.78739 : 1"
       inkscape:vp_z="744.09448 : 526.18109 : 1"
       inkscape:vp_y="0 : 1000 : 0"
       inkscape:vp_x="0 : 526.18109 : 1"
       sodipodi:type="inkscape:persp3d" />
    <inkscape:perspective
       id="perspective2553"
       inkscape:persp3d-origin="372.04724 : 350.78739 : 1"
       inkscape:vp_z="744.09448 : 526.18109 : 1"
       inkscape:vp_y="0 : 1000 : 0"
       inkscape:vp_x="0 : 526.18109 : 1"
       sodipodi:type="inkscape:persp3d" />
    <inkscape:perspective
       id="perspective2570"
       inkscape:persp3d-origin="372.04724 : 350.78739 : 1"
       inkscape:vp_z="744.09448 : 526.18109 : 1"
       inkscape:vp_y="0 : 1000 : 0"
       inkscape:vp_x="0 : 526.18109 : 1"
       sodipodi:type="inkscape:persp3d" />
    <inkscape:perspective
       id="perspective2585"
       inkscape:persp3d-origin="372.04724 : 350.78739 : 1"
       inkscape:vp_z="744.09448 : 526.18109 : 1"
       inkscape:vp_y="0 : 1000 : 0"
       inkscape:vp_x="0 : 526.18109 : 1"
       sodipodi:type="inkscape:persp3d" />
    <inkscape:perspective
       id="perspective2600"
       inkscape:persp3d-origin="372.04724 : 350.78739 : 1"
       inkscape:vp_z="744.09448 : 526.18109 : 1"
       inkscape:vp_y="0 : 1000 : 0"
       inkscape:vp_x="0 : 526.18109 : 1"
       sodipodi:type="inkscape:persp3d" />
    <inkscape:perspective
       id="perspective2615"
       inkscape:persp3d-origin="372.04724 : 350.78739 : 1"
       inkscape:vp_z="744.09448 : 526.18109 : 1"
       inkscape:vp_y="0 : 1000 : 0"
       inkscape:vp_x="0 : 526.18109 : 1"
       sodipodi:type="inkscape:persp3d" />
    <inkscape:perspective
       id="perspective2630"
       inkscape:persp3d-origin="372.04724 : 350.78739 : 1"
       inkscape:vp_z="744.09448 : 526.18109 : 1"
       inkscape:vp_y="0 : 1000 : 0"
       inkscape:vp_x="0 : 526.18109 : 1"
       sodipodi:type="inkscape:persp3d" />
    <inkscape:perspective
       id="perspective2645"
       inkscape:persp3d-origin="372.04724 : 350.78739 : 1"
       inkscape:vp_z="744.09448 : 526.18109 : 1"
       inkscape:vp_y="0 : 1000 : 0"
       inkscape:vp_x="0 : 526.18109 : 1"
       sodipodi:type="inkscape:persp3d" />
    <inkscape:perspective
       id="perspective2416"
       inkscape:persp3d-origin="372.04724 : 350.78739 : 1"
       inkscape:vp_z="744.09448 : 526.18109 : 1"
       inkscape:vp_y="0 : 1000 : 0"
       inkscape:vp_x="0 : 526.18109 : 1"
       sodipodi:type="inkscape:persp3d" />
    <inkscape:perspective
       id="perspective2437"
       inkscape:persp3d-origin="372.04724 : 350.78739 : 1"
       inkscape:vp_z="744.09448 : 526.18109 : 1"
       inkscape:vp_y="0 : 1000 : 0"
       inkscape:vp_x="0 : 526.18109 : 1"
       sodipodi:type="inkscape:persp3d" />
    <inkscape:perspective
       id="perspective2476"
       inkscape:persp3d-origin="372.04724 : 350.78739 : 1"
       inkscape:vp_z="744.09448 : 526.18109 : 1"
       inkscape:vp_y="0 : 1000 : 0"
       inkscape:vp_x="0 : 526.18109 : 1"
       sodipodi:type="inkscape:persp3d" />
    <inkscape:perspective
       id="perspective2491"
       inkscape:persp3d-origin="372.04724 : 350.78739 : 1"
       inkscape:vp_z="744.09448 : 526.18109 : 1"
       inkscape:vp_y="0 : 1000 : 0"
       inkscape:vp_x="0 : 526.18109 : 1"
       sodipodi:type="inkscape:persp3d" />
    <inkscape:perspective
       id="perspective2506"
       inkscape:persp3d-origin="372.04724 : 350.78739 : 1"
       inkscape:vp_z="744.09448 : 526.18109 : 1"
       inkscape:vp_y="0 : 1000 : 0"
       inkscape:vp_x="0 : 526.18109 : 1"
       sodipodi:type="inkscape:persp3d" />
    <inkscape:perspective
       id="perspective2560"
       inkscape:persp3d-origin="372.04724 : 350.78739 : 1"
       inkscape:vp_z="744.09448 : 526.18109 : 1"
       inkscape:vp_y="0 : 1000 : 0"
       inkscape:vp_x="0 : 526.18109 : 1"
       sodipodi:type="inkscape:persp3d" />
    <inkscape:perspective
       id="perspective2422"
       inkscape:persp3d-origin="372.04724 : 350.78739 : 1"
       inkscape:vp_z="744.09448 : 526.18109 : 1"
       inkscape:vp_y="0 : 1000 : 0"
       inkscape:vp_x="0 : 526.18109 : 1"
       sodipodi:type="inkscape:persp3d" />
    <inkscape:perspective
       id="perspective2441"
       inkscape:persp3d-origin="372.04724 : 350.78739 : 1"
       inkscape:vp_z="744.09448 : 526.18109 : 1"
       inkscape:vp_y="0 : 1000 : 0"
       inkscape:vp_x="0 : 526.18109 : 1"
       sodipodi:type="inkscape:persp3d" />
    <inkscape:perspective
       id="perspective2457"
       inkscape:persp3d-origin="372.04724 : 350.78739 : 1"
       inkscape:vp_z="744.09448 : 526.18109 : 1"
       inkscape:vp_y="0 : 1000 : 0"
       inkscape:vp_x="0 : 526.18109 : 1"
       sodipodi:type="inkscape:persp3d" />
    <inkscape:perspective
       id="perspective2469"
       inkscape:persp3d-origin="372.04724 : 350.78739 : 1"
       inkscape:vp_z="744.09448 : 526.18109 : 1"
       inkscape:vp_y="0 : 1000 : 0"
       inkscape:vp_x="0 : 526.18109 : 1"
       sodipodi:type="inkscape:persp3d" />
    <inkscape:perspective
       id="perspective2522"
       inkscape:persp3d-origin="372.04724 : 350.78739 : 1"
       inkscape:vp_z="744.09448 : 526.18109 : 1"
       inkscape:vp_y="0 : 1000 : 0"
       inkscape:vp_x="0 : 526.18109 : 1"
       sodipodi:type="inkscape:persp3d" />
    <inkscape:perspective
       id="perspective2537"
       inkscape:persp3d-origin="372.04724 : 350.78739 : 1"
       inkscape:vp_z="744.09448 : 526.18109 : 1"
       inkscape:vp_y="0 : 1000 : 0"
       inkscape:vp_x="0 : 526.18109 : 1"
       sodipodi:type="inkscape:persp3d" />
    <inkscape:perspective
       id="perspective2552"
       inkscape:persp3d-origin="372.04724 : 350.78739 : 1"
       inkscape:vp_z="744.09448 : 526.18109 : 1"
       inkscape:vp_y="0 : 1000 : 0"
       inkscape:vp_x="0 : 526.18109 : 1"
       sodipodi:type="inkscape:persp3d" />
    <inkscape:perspective
       id="perspective2594"
       inkscape:persp3d-origin="372.04724 : 350.78739 : 1"
       inkscape:vp_z="744.09448 : 526.18109 : 1"
       inkscape:vp_y="0 : 1000 : 0"
       inkscape:vp_x="0 : 526.18109 : 1"
       sodipodi:type="inkscape:persp3d" />
  </defs>
  <sodipodi:namedview
     id="base"
     pagecolor="#ffffff"
     bordercolor="#666666"
     borderopacity="1.0"
     gridtolerance="10000"
     guidetolerance="10"
     objecttolerance="10"
     inkscape:pageopacity="0.0"
     inkscape:pageshadow="2"
     inkscape:zoom="0.74703258"
     inkscape:cx="181.65731"
     inkscape:cy="134.44253"
     inkscape:document-units="px"
     inkscape:current-layer="layer1"
     showgrid="true"
     width="300px"
     borderlayer="true"
     inkscape:showpageshadow="true"
     inkscape:window-width="1024"
     inkscape:window-height="718"
     inkscape:window-x="-4"
     inkscape:window-y="-4">
    <inkscape:grid
       type="xygrid"
       id="grid2396"
       visible="true"
       enabled="true"
       dotted="false" />
  </sodipodi:namedview>
  <metadata
     id="metadata7">
    <rdf:RDF>
      <cc:Work
         rdf:about="">
        <dc:format>image/svg+xml</dc:format>
        <dc:type
           rdf:resource="http://purl.org/dc/dcmitype/StillImage" />
      </cc:Work>
    </rdf:RDF>
  </metadata>
  <g
     inkscape:label="Layer 1"
     inkscape:groupmode="layer"
     id="layer1"
     transform="translate(-121.21427,-114.50503)">
    <path
       style="fill:#000000"
       d="M 274.9152,140.47378 C 274.02288,140.47418 273.19312,140.49021 272.38212,140.53711 L 260.57167,141.2337 L 268.01257,145.28662 C 281.25543,152.53367 282.98937,155.62197 282.98937,172.10554 C 282.98937,186.2778 282.57493,187.50531 276.94166,189.64707 C 273.61321,190.91255 267.76797,191.9585 263.95965,191.9585 C 260.15135,191.9585 257.02537,193.004 257.02537,194.30159 C 257.02537,195.59918 261.86559,196.67635 267.79093,196.67635 C 278.13118,196.67635 278.54474,196.92937 277.82823,203.10402 C 277.39301,206.85459 274.9353,210.57961 271.93884,212.06477 C 262.13025,216.92623 273.64284,223.98652 284.9525,220.04395 C 291.5097,217.7581 297.14292,209.61595 297.14292,202.43909 C 297.14292,200.55375 298.8656,199.01944 300.97419,199.01944 C 303.97447,199.01944 304.48681,200.54928 303.38061,206.08038 C 300.56107,220.17808 295.97402,223.97482 275.26349,229.19468 C 243.96833,237.08225 242.89237,237.19749 241.51029,233.59589 C 240.81781,231.79127 236.06965,228.31444 230.96637,225.87002 C 221.92918,221.54128 219.33259,216.41947 223.87377,211.87479 C 227.43276,208.31306 228.38989,192.25976 225.20363,189.61541 C 223.63791,188.31597 218.91319,186.56517 214.69138,185.7208 C 207.42392,184.26732 207.1901,184.45541 210.03685,189.0138 C 212.5299,193.00581 212.33164,195.62574 208.99196,204.37056 C 206.77662,210.17137 204.55335,217.03139 204.05247,219.63233 C 202.3393,228.52808 191.20064,247.98236 179.29167,262.82123 C 172.74486,270.9787 167.20937,278.7951 167.00627,280.20445 C 165.76808,288.79624 165.94398,296.04346 167.41789,296.95439 C 168.35513,297.53364 171.54928,295.91302 174.5105,293.34476 C 177.47171,290.77652 180.61634,288.69024 181.47645,288.69024 C 182.33656,288.69024 185.41974,284.40033 188.34741,279.19122 C 191.27511,273.98209 194.6093,270.31296 195.75665,271.02205 C 196.904,271.73115 197.42527,273.58953 196.89653,275.16996 C 196.36779,276.7504 195.38708,283.37385 194.74342,289.86179 C 193.1403,306.02097 188.58897,326.43304 186.57426,326.43304 C 184.6784,326.43304 183.69251,332.44252 183.15461,347.64753 C 182.84674,356.35068 183.95131,359.42541 189.20232,364.61912 C 193.53212,368.90168 196.14299,370.06283 197.2765,368.22875 C 198.1988,366.73642 199.36323,352.75226 199.8729,337.13527 C 200.58734,315.24422 202.1286,304.79688 206.52221,291.57161 C 212.45478,273.71391 213.77227,262.72624 210.00519,262.72624 C 205.5978,262.72624 204.9512,253.20466 208.80198,245.08971 C 210.97303,240.51461 213.66827,236.76224 214.81803,236.76224 C 215.96777,236.76224 216.93948,234.11682 216.93948,230.87284 C 216.93948,222.4574 221.04398,223.57575 223.55713,232.67765 C 225.84249,240.95452 224.69645,272.51107 222.03729,274.50503 C 221.15308,275.16804 220.08928,282.07625 219.6942,289.86179 C 219.29911,297.64735 217.37987,310.61283 215.41963,318.6755 C 210.93961,337.10224 211.72392,342.43237 219.88418,348.50244 C 229.77474,355.8596 232.65404,351.05004 235.84254,321.71519 C 237.32256,308.09869 238.72929,296.75902 238.97722,296.51111 C 239.22513,296.26318 242.05769,295.68083 245.27824,295.21291 C 252.99992,294.09099 260.73933,289.82124 272.95207,279.95114 C 278.46684,275.49424 283.0687,272.71671 283.17935,273.77677 C 284.01904,281.82328 282.04738,304.6366 279.25309,319.34043 C 274.78361,342.85918 274.96782,345.84322 281.27954,353.18862 C 292.22212,365.9233 297.40668,359.31731 297.64953,332.29077 C 297.78111,317.64839 299.5769,316.65897 314.5578,322.9184 C 322.57865,326.26973 323.07525,327.13682 323.07526,337.07194 C 323.07526,342.89369 322.47951,347.64753 321.74539,347.64753 C 318.46214,347.64753 309.75742,341.94572 306.04034,337.35692 C 294.90196,323.60635 309.85257,356.53076 322.15702,372.85161 C 325.27112,376.9822 327.82477,381.28931 327.82477,382.41396 C 327.82477,383.53861 329.0857,385.73301 330.64281,387.29013 C 334.408,391.05531 336.06457,390.85862 339.9202,386.21357 C 343.12479,382.35283 346.94065,349.58144 343.97311,351.41547 C 342.30674,352.44535 341.35024,346.10071 337.19714,306.35843 C 335.12148,286.49579 335.1685,276.60418 337.32379,264.21442 C 339.97161,248.99363 339.83855,247.76279 335.26567,243.18991 C 330.23225,238.15649 318.26906,236.63578 310.75819,240.08689 C 307.09139,241.77172 306.91535,241.21369 309.20668,234.64079 C 310.69546,230.37003 313.88168,226.79145 316.83756,226.06 C 321.80636,224.83045 362.35277,223.86296 371.26698,224.7618 C 378.12088,225.45289 383.77515,218.76441 380.60769,213.74293 C 375.54307,205.71383 362.40713,205.06286 340.96509,211.74813 C 330.11384,215.13139 320.15978,217.89084 318.86402,217.89084 C 317.56828,217.89084 316.09944,213.63246 315.60269,208.42348 C 314.73557,199.33085 315.02137,198.86457 323.01193,196.64468 C 327.58957,195.37294 332.78714,194.34049 334.53741,194.33325 C 338.71527,194.31597 353.83763,187.0882 359.07656,182.61779 C 364.5613,177.93763 364.56159,168.36925 359.07656,168.36925 C 349.3611,168.36925 322.27183,175.43701 318.32574,179.00816 C 315.96289,181.14652 311.63891,182.53984 308.70006,182.11118 C 303.71736,181.38439 303.33938,180.14948 303.19063,163.87305 L 303.03231,146.4265 L 293.59661,143.13351 C 289.05504,141.55439 281.16147,140.47096 274.9152,140.47378 z M 289.00542,230.71452 C 289.69773,230.76263 290.05031,231.1919 290.05031,232.01272 C 290.05031,235.45976 278.05802,253.29054 275.73845,253.29054 C 274.70073,253.29054 273.25278,255.18931 272.50878,257.53344 C 271.76478,259.87757 264.4299,268.92263 256.20212,277.60805 C 247.97432,286.29345 240.46619,293.40808 239.5155,293.40809 C 238.5648,293.40809 238.39043,290.48547 239.13553,286.91709 C 239.88063,283.34871 241.44905,271.58121 242.61851,260.79477 C 243.78797,250.00831 245.38108,240.55399 246.16481,239.77026 C 246.94854,238.98652 247.58967,239.52583 247.58967,240.97347 C 247.58967,242.7587 250.23914,242.50138 255.79049,240.18188 C 260.29208,238.301 267.98279,236.14711 272.88874,235.36904 C 277.79468,234.59099 283.66329,232.94102 285.93407,231.72775 C 287.29355,231.0014 288.31311,230.66641 289.00542,230.71452 z M 316.01431,253.51218 C 317.49995,253.53347 318.01326,255.99509 319.33897,263.32784 C 320.83865,271.6229 319.09124,274.44858 315.00108,270.38879 C 314.02061,269.41558 308.84675,268.61563 303.4756,268.61563 C 296.13561,268.61563 293.49972,267.60254 292.90002,264.56272 C 292.15286,260.77545 295.76675,258.86911 306.70527,257.2168 C 308.57534,256.93433 311.51961,255.81369 313.22793,254.74706 C 314.45987,253.97786 315.33903,253.50251 316.01431,253.51218 z M 303.03231,274.50503 C 306.66518,274.50503 307.6951,280.67442 305.15376,287.29705 C 302.64606,293.83201 299.48601,291.31427 299.48601,282.76918 C 299.48601,277.00211 300.56071,274.50503 303.03231,274.50503 z M 317.50249,291.19165 C 319.68568,291.17856 320.80368,292.85845 320.32054,296.09948 C 319.79182,299.64625 317.61969,301.35376 313.06962,301.83056 C 305.70984,302.60177 304.55657,298.98597 310.69486,294.32633 C 313.43932,292.24299 315.80446,291.20183 317.50249,291.19165 z"
       id="path2432" />
  </g>
</svg>
