<?xml version="1.0" encoding="UTF-8" standalone="no"?>
<!-- Created with Inkscape (http://www.inkscape.org/) -->
<svg
   xmlns:dc="http://purl.org/dc/elements/1.1/"
   xmlns:cc="http://creativecommons.org/ns#"
   xmlns:rdf="http://www.w3.org/1999/02/22-rdf-syntax-ns#"
   xmlns:svg="http://www.w3.org/2000/svg"
   xmlns="http://www.w3.org/2000/svg"
   xmlns:sodipodi="http://sodipodi.sourceforge.net/DTD/sodipodi-0.dtd"
   xmlns:inkscape="http://www.inkscape.org/namespaces/inkscape"
   width="300"
   height="300"
   id="svg2"
   sodipodi:version="0.32"
   inkscape:version="0.46"
   version="1.0"
   sodipodi:docname="23禊.svg"
   inkscape:output_extension="org.inkscape.output.svg.inkscape"
   inkscape:export-filename="E:\MyWork\Recent\Calligraphy Vectorization Project\矢量字转位图\12初.png"
   inkscape:export-xdpi="90"
   inkscape:export-ydpi="90">
  <defs
     id="defs4">
    <inkscape:perspective
       sodipodi:type="inkscape:persp3d"
       inkscape:vp_x="0 : 526.18109 : 1"
       inkscape:vp_y="0 : 1000 : 0"
       inkscape:vp_z="744.09448 : 526.18109 : 1"
       inkscape:persp3d-origin="372.04724 : 350.78739 : 1"
       id="perspective10" />
    <inkscape:perspective
       id="perspective2390"
       inkscape:persp3d-origin="372.04724 : 350.78739 : 1"
       inkscape:vp_z="744.09448 : 526.18109 : 1"
       inkscape:vp_y="0 : 1000 : 0"
       inkscape:vp_x="0 : 526.18109 : 1"
       sodipodi:type="inkscape:persp3d" />
    <inkscape:perspective
       id="perspective2389"
       inkscape:persp3d-origin="372.04724 : 350.78739 : 1"
       inkscape:vp_z="744.09448 : 526.18109 : 1"
       inkscape:vp_y="0 : 1000 : 0"
       inkscape:vp_x="0 : 526.18109 : 1"
       sodipodi:type="inkscape:persp3d" />
    <inkscape:perspective
       id="perspective2444"
       inkscape:persp3d-origin="372.04724 : 350.78739 : 1"
       inkscape:vp_z="744.09448 : 526.18109 : 1"
       inkscape:vp_y="0 : 1000 : 0"
       inkscape:vp_x="0 : 526.18109 : 1"
       sodipodi:type="inkscape:persp3d" />
    <inkscape:perspective
       id="perspective2486"
       inkscape:persp3d-origin="372.04724 : 350.78739 : 1"
       inkscape:vp_z="744.09448 : 526.18109 : 1"
       inkscape:vp_y="0 : 1000 : 0"
       inkscape:vp_x="0 : 526.18109 : 1"
       sodipodi:type="inkscape:persp3d" />
    <inkscape:perspective
       id="perspective3311"
       inkscape:persp3d-origin="372.04724 : 350.78739 : 1"
       inkscape:vp_z="744.09448 : 526.18109 : 1"
       inkscape:vp_y="0 : 1000 : 0"
       inkscape:vp_x="0 : 526.18109 : 1"
       sodipodi:type="inkscape:persp3d" />
    <inkscape:perspective
       id="perspective2393"
       inkscape:persp3d-origin="372.04724 : 350.78739 : 1"
       inkscape:vp_z="744.09448 : 526.18109 : 1"
       inkscape:vp_y="0 : 1000 : 0"
       inkscape:vp_x="0 : 526.18109 : 1"
       sodipodi:type="inkscape:persp3d" />
    <inkscape:perspective
       id="perspective2410"
       inkscape:persp3d-origin="372.04724 : 350.78739 : 1"
       inkscape:vp_z="744.09448 : 526.18109 : 1"
       inkscape:vp_y="0 : 1000 : 0"
       inkscape:vp_x="0 : 526.18109 : 1"
       sodipodi:type="inkscape:persp3d" />
    <inkscape:perspective
       id="perspective2427"
       inkscape:persp3d-origin="372.04724 : 350.78739 : 1"
       inkscape:vp_z="744.09448 : 526.18109 : 1"
       inkscape:vp_y="0 : 1000 : 0"
       inkscape:vp_x="0 : 526.18109 : 1"
       sodipodi:type="inkscape:persp3d" />
    <inkscape:perspective
       id="perspective2477"
       inkscape:persp3d-origin="372.04724 : 350.78739 : 1"
       inkscape:vp_z="744.09448 : 526.18109 : 1"
       inkscape:vp_y="0 : 1000 : 0"
       inkscape:vp_x="0 : 526.18109 : 1"
       sodipodi:type="inkscape:persp3d" />
    <inkscape:perspective
       id="perspective2526"
       inkscape:persp3d-origin="372.04724 : 350.78739 : 1"
       inkscape:vp_z="744.09448 : 526.18109 : 1"
       inkscape:vp_y="0 : 1000 : 0"
       inkscape:vp_x="0 : 526.18109 : 1"
       sodipodi:type="inkscape:persp3d" />
    <inkscape:perspective
       id="perspective2541"
       inkscape:persp3d-origin="372.04724 : 350.78739 : 1"
       inkscape:vp_z="744.09448 : 526.18109 : 1"
       inkscape:vp_y="0 : 1000 : 0"
       inkscape:vp_x="0 : 526.18109 : 1"
       sodipodi:type="inkscape:persp3d" />
    <inkscape:perspective
       id="perspective2556"
       inkscape:persp3d-origin="372.04724 : 350.78739 : 1"
       inkscape:vp_z="744.09448 : 526.18109 : 1"
       inkscape:vp_y="0 : 1000 : 0"
       inkscape:vp_x="0 : 526.18109 : 1"
       sodipodi:type="inkscape:persp3d" />
    <inkscape:perspective
       id="perspective2573"
       inkscape:persp3d-origin="372.04724 : 350.78739 : 1"
       inkscape:vp_z="744.09448 : 526.18109 : 1"
       inkscape:vp_y="0 : 1000 : 0"
       inkscape:vp_x="0 : 526.18109 : 1"
       sodipodi:type="inkscape:persp3d" />
    <inkscape:perspective
       id="perspective2401"
       inkscape:persp3d-origin="372.04724 : 350.78739 : 1"
       inkscape:vp_z="744.09448 : 526.18109 : 1"
       inkscape:vp_y="0 : 1000 : 0"
       inkscape:vp_x="0 : 526.18109 : 1"
       sodipodi:type="inkscape:persp3d" />
    <inkscape:perspective
       id="perspective2420"
       inkscape:persp3d-origin="372.04724 : 350.78739 : 1"
       inkscape:vp_z="744.09448 : 526.18109 : 1"
       inkscape:vp_y="0 : 1000 : 0"
       inkscape:vp_x="0 : 526.18109 : 1"
       sodipodi:type="inkscape:persp3d" />
    <inkscape:perspective
       id="perspective2433"
       inkscape:persp3d-origin="372.04724 : 350.78739 : 1"
       inkscape:vp_z="744.09448 : 526.18109 : 1"
       inkscape:vp_y="0 : 1000 : 0"
       inkscape:vp_x="0 : 526.18109 : 1"
       sodipodi:type="inkscape:persp3d" />
    <inkscape:perspective
       id="perspective2404"
       inkscape:persp3d-origin="372.04724 : 350.78739 : 1"
       inkscape:vp_z="744.09448 : 526.18109 : 1"
       inkscape:vp_y="0 : 1000 : 0"
       inkscape:vp_x="0 : 526.18109 : 1"
       sodipodi:type="inkscape:persp3d" />
    <inkscape:perspective
       id="perspective2419"
       inkscape:persp3d-origin="372.04724 : 350.78739 : 1"
       inkscape:vp_z="744.09448 : 526.18109 : 1"
       inkscape:vp_y="0 : 1000 : 0"
       inkscape:vp_x="0 : 526.18109 : 1"
       sodipodi:type="inkscape:persp3d" />
    <inkscape:perspective
       id="perspective2434"
       inkscape:persp3d-origin="372.04724 : 350.78739 : 1"
       inkscape:vp_z="744.09448 : 526.18109 : 1"
       inkscape:vp_y="0 : 1000 : 0"
       inkscape:vp_x="0 : 526.18109 : 1"
       sodipodi:type="inkscape:persp3d" />
    <inkscape:perspective
       id="perspective2453"
       inkscape:persp3d-origin="372.04724 : 350.78739 : 1"
       inkscape:vp_z="744.09448 : 526.18109 : 1"
       inkscape:vp_y="0 : 1000 : 0"
       inkscape:vp_x="0 : 526.18109 : 1"
       sodipodi:type="inkscape:persp3d" />
    <inkscape:perspective
       id="perspective2538"
       inkscape:persp3d-origin="372.04724 : 350.78739 : 1"
       inkscape:vp_z="744.09448 : 526.18109 : 1"
       inkscape:vp_y="0 : 1000 : 0"
       inkscape:vp_x="0 : 526.18109 : 1"
       sodipodi:type="inkscape:persp3d" />
    <inkscape:perspective
       id="perspective2553"
       inkscape:persp3d-origin="372.04724 : 350.78739 : 1"
       inkscape:vp_z="744.09448 : 526.18109 : 1"
       inkscape:vp_y="0 : 1000 : 0"
       inkscape:vp_x="0 : 526.18109 : 1"
       sodipodi:type="inkscape:persp3d" />
    <inkscape:perspective
       id="perspective2570"
       inkscape:persp3d-origin="372.04724 : 350.78739 : 1"
       inkscape:vp_z="744.09448 : 526.18109 : 1"
       inkscape:vp_y="0 : 1000 : 0"
       inkscape:vp_x="0 : 526.18109 : 1"
       sodipodi:type="inkscape:persp3d" />
    <inkscape:perspective
       id="perspective2585"
       inkscape:persp3d-origin="372.04724 : 350.78739 : 1"
       inkscape:vp_z="744.09448 : 526.18109 : 1"
       inkscape:vp_y="0 : 1000 : 0"
       inkscape:vp_x="0 : 526.18109 : 1"
       sodipodi:type="inkscape:persp3d" />
    <inkscape:perspective
       id="perspective2600"
       inkscape:persp3d-origin="372.04724 : 350.78739 : 1"
       inkscape:vp_z="744.09448 : 526.18109 : 1"
       inkscape:vp_y="0 : 1000 : 0"
       inkscape:vp_x="0 : 526.18109 : 1"
       sodipodi:type="inkscape:persp3d" />
    <inkscape:perspective
       id="perspective2615"
       inkscape:persp3d-origin="372.04724 : 350.78739 : 1"
       inkscape:vp_z="744.09448 : 526.18109 : 1"
       inkscape:vp_y="0 : 1000 : 0"
       inkscape:vp_x="0 : 526.18109 : 1"
       sodipodi:type="inkscape:persp3d" />
    <inkscape:perspective
       id="perspective2630"
       inkscape:persp3d-origin="372.04724 : 350.78739 : 1"
       inkscape:vp_z="744.09448 : 526.18109 : 1"
       inkscape:vp_y="0 : 1000 : 0"
       inkscape:vp_x="0 : 526.18109 : 1"
       sodipodi:type="inkscape:persp3d" />
    <inkscape:perspective
       id="perspective2645"
       inkscape:persp3d-origin="372.04724 : 350.78739 : 1"
       inkscape:vp_z="744.09448 : 526.18109 : 1"
       inkscape:vp_y="0 : 1000 : 0"
       inkscape:vp_x="0 : 526.18109 : 1"
       sodipodi:type="inkscape:persp3d" />
    <inkscape:perspective
       id="perspective2416"
       inkscape:persp3d-origin="372.04724 : 350.78739 : 1"
       inkscape:vp_z="744.09448 : 526.18109 : 1"
       inkscape:vp_y="0 : 1000 : 0"
       inkscape:vp_x="0 : 526.18109 : 1"
       sodipodi:type="inkscape:persp3d" />
    <inkscape:perspective
       id="perspective2437"
       inkscape:persp3d-origin="372.04724 : 350.78739 : 1"
       inkscape:vp_z="744.09448 : 526.18109 : 1"
       inkscape:vp_y="0 : 1000 : 0"
       inkscape:vp_x="0 : 526.18109 : 1"
       sodipodi:type="inkscape:persp3d" />
    <inkscape:perspective
       id="perspective2476"
       inkscape:persp3d-origin="372.04724 : 350.78739 : 1"
       inkscape:vp_z="744.09448 : 526.18109 : 1"
       inkscape:vp_y="0 : 1000 : 0"
       inkscape:vp_x="0 : 526.18109 : 1"
       sodipodi:type="inkscape:persp3d" />
    <inkscape:perspective
       id="perspective2491"
       inkscape:persp3d-origin="372.04724 : 350.78739 : 1"
       inkscape:vp_z="744.09448 : 526.18109 : 1"
       inkscape:vp_y="0 : 1000 : 0"
       inkscape:vp_x="0 : 526.18109 : 1"
       sodipodi:type="inkscape:persp3d" />
    <inkscape:perspective
       id="perspective2506"
       inkscape:persp3d-origin="372.04724 : 350.78739 : 1"
       inkscape:vp_z="744.09448 : 526.18109 : 1"
       inkscape:vp_y="0 : 1000 : 0"
       inkscape:vp_x="0 : 526.18109 : 1"
       sodipodi:type="inkscape:persp3d" />
    <inkscape:perspective
       id="perspective2560"
       inkscape:persp3d-origin="372.04724 : 350.78739 : 1"
       inkscape:vp_z="744.09448 : 526.18109 : 1"
       inkscape:vp_y="0 : 1000 : 0"
       inkscape:vp_x="0 : 526.18109 : 1"
       sodipodi:type="inkscape:persp3d" />
    <inkscape:perspective
       id="perspective2422"
       inkscape:persp3d-origin="372.04724 : 350.78739 : 1"
       inkscape:vp_z="744.09448 : 526.18109 : 1"
       inkscape:vp_y="0 : 1000 : 0"
       inkscape:vp_x="0 : 526.18109 : 1"
       sodipodi:type="inkscape:persp3d" />
    <inkscape:perspective
       id="perspective2441"
       inkscape:persp3d-origin="372.04724 : 350.78739 : 1"
       inkscape:vp_z="744.09448 : 526.18109 : 1"
       inkscape:vp_y="0 : 1000 : 0"
       inkscape:vp_x="0 : 526.18109 : 1"
       sodipodi:type="inkscape:persp3d" />
    <inkscape:perspective
       id="perspective2457"
       inkscape:persp3d-origin="372.04724 : 350.78739 : 1"
       inkscape:vp_z="744.09448 : 526.18109 : 1"
       inkscape:vp_y="0 : 1000 : 0"
       inkscape:vp_x="0 : 526.18109 : 1"
       sodipodi:type="inkscape:persp3d" />
    <inkscape:perspective
       id="perspective2469"
       inkscape:persp3d-origin="372.04724 : 350.78739 : 1"
       inkscape:vp_z="744.09448 : 526.18109 : 1"
       inkscape:vp_y="0 : 1000 : 0"
       inkscape:vp_x="0 : 526.18109 : 1"
       sodipodi:type="inkscape:persp3d" />
    <inkscape:perspective
       id="perspective2522"
       inkscape:persp3d-origin="372.04724 : 350.78739 : 1"
       inkscape:vp_z="744.09448 : 526.18109 : 1"
       inkscape:vp_y="0 : 1000 : 0"
       inkscape:vp_x="0 : 526.18109 : 1"
       sodipodi:type="inkscape:persp3d" />
    <inkscape:perspective
       id="perspective2537"
       inkscape:persp3d-origin="372.04724 : 350.78739 : 1"
       inkscape:vp_z="744.09448 : 526.18109 : 1"
       inkscape:vp_y="0 : 1000 : 0"
       inkscape:vp_x="0 : 526.18109 : 1"
       sodipodi:type="inkscape:persp3d" />
    <inkscape:perspective
       id="perspective2552"
       inkscape:persp3d-origin="372.04724 : 350.78739 : 1"
       inkscape:vp_z="744.09448 : 526.18109 : 1"
       inkscape:vp_y="0 : 1000 : 0"
       inkscape:vp_x="0 : 526.18109 : 1"
       sodipodi:type="inkscape:persp3d" />
    <inkscape:perspective
       id="perspective2594"
       inkscape:persp3d-origin="372.04724 : 350.78739 : 1"
       inkscape:vp_z="744.09448 : 526.18109 : 1"
       inkscape:vp_y="0 : 1000 : 0"
       inkscape:vp_x="0 : 526.18109 : 1"
       sodipodi:type="inkscape:persp3d" />
    <inkscape:perspective
       id="perspective2470"
       inkscape:persp3d-origin="372.04724 : 350.78739 : 1"
       inkscape:vp_z="744.09448 : 526.18109 : 1"
       inkscape:vp_y="0 : 1000 : 0"
       inkscape:vp_x="0 : 526.18109 : 1"
       sodipodi:type="inkscape:persp3d" />
    <inkscape:perspective
       id="perspective2485"
       inkscape:persp3d-origin="372.04724 : 350.78739 : 1"
       inkscape:vp_z="744.09448 : 526.18109 : 1"
       inkscape:vp_y="0 : 1000 : 0"
       inkscape:vp_x="0 : 526.18109 : 1"
       sodipodi:type="inkscape:persp3d" />
    <inkscape:perspective
       id="perspective2502"
       inkscape:persp3d-origin="372.04724 : 350.78739 : 1"
       inkscape:vp_z="744.09448 : 526.18109 : 1"
       inkscape:vp_y="0 : 1000 : 0"
       inkscape:vp_x="0 : 526.18109 : 1"
       sodipodi:type="inkscape:persp3d" />
  </defs>
  <sodipodi:namedview
     id="base"
     pagecolor="#ffffff"
     bordercolor="#666666"
     borderopacity="1.0"
     gridtolerance="10000"
     guidetolerance="10"
     objecttolerance="10"
     inkscape:pageopacity="0.0"
     inkscape:pageshadow="2"
     inkscape:zoom="1.0564636"
     inkscape:cx="205.92883"
     inkscape:cy="156.73591"
     inkscape:document-units="px"
     inkscape:current-layer="layer1"
     showgrid="true"
     width="300px"
     borderlayer="true"
     inkscape:showpageshadow="true"
     inkscape:window-width="1024"
     inkscape:window-height="718"
     inkscape:window-x="-4"
     inkscape:window-y="-4">
    <inkscape:grid
       type="xygrid"
       id="grid2396"
       visible="true"
       enabled="true"
       dotted="false" />
  </sodipodi:namedview>
  <metadata
     id="metadata7">
    <rdf:RDF>
      <cc:Work
         rdf:about="">
        <dc:format>image/svg+xml</dc:format>
        <dc:type
           rdf:resource="http://purl.org/dc/dcmitype/StillImage" />
      </cc:Work>
    </rdf:RDF>
  </metadata>
  <g
     inkscape:label="Layer 1"
     inkscape:groupmode="layer"
     id="layer1"
     transform="translate(-121.21427,-114.50503)">
    <path
       style="fill:#000000"
       d="M 177.25 53.5625 C 176.00488 53.6153 174.55922 53.900932 172.90625 54.375 C 169.14891 55.45258 165.22968 57.5701 164.21875 59.09375 C 162.47961 61.71488 163.51054 72.686851 166.125 79.5 C 166.78376 81.21671 166.17706 82.625003 164.78125 82.625 C 163.38546 82.625 157.6737 84.676783 152.09375 87.21875 C 144.26933 90.78318 141.07986 91.314092 138.125 89.46875 C 132.69926 86.08031 131.1663 90.015421 136.15625 94.53125 C 141.39994 99.27673 156.26679 102.7957 159.09375 99.96875 C 160.23609 98.8264 163.00903 97.906247 165.25 97.90625 C 168.77363 97.90625 169.20237 99.308552 168.46875 108.28125 C 167.71098 117.5493 166.8429 119.0524 160.15625 122.4375 C 156.03922 124.52173 148.71169 126.15579 143.90625 126.0625 C 131.05514 125.81305 130.88499 125.90203 135.1875 130.65625 C 139.9043 135.86825 146.0764 136.18359 156.6875 131.75 C 167.35625 127.29231 169.24447 127.5738 167.15625 133.21875 C 164.78147 139.63842 144.01969 148.9333 140.78125 145.03125 C 139.52397 143.51631 139.23441 141.48309 140.125 140.5 C 141.01559 139.51692 140.69365 139.29949 139.40625 140.03125 C 138.11885 140.76299 135.41082 139.43492 133.40625 137.09375 C 131.40168 134.75257 128.23365 132.84376 126.34375 132.84375 C 123.78281 132.84375 123.05238 131.04073 123.5625 125.75 C 124.11892 119.97919 125.13575 118.73631 128.9375 119.125 C 132.60492 119.49997 133.81136 118.21169 134.5625 113.09375 C 135.14299 109.13859 134.31605 105.56438 132.46875 104.03125 C 130.79222 102.63986 127.92987 98.581897 126.09375 95.03125 C 122.50318 88.08784 124.43242 84.916018 132.25 84.84375 C 134.74497 84.82068 135.51145 83.474303 134.75 80.5625 C 133.546 75.9584 121.89094 69.500001 114.78125 69.5 C 112.33066 69.5 109.76653 68.619828 109.09375 67.53125 C 107.22335 64.50487 98.723262 67.473048 99.96875 70.71875 C 101.08661 73.63186 93.873368 80.730678 66.8125 103.25 C 58.23063 110.3916 51.5428 116.5428 51.9375 116.9375 C 52.33221 117.33221 62.641398 112.52564 74.84375 106.25 C 95.6777 95.53515 97.250549 95.06304 100.71875 98.53125 C 104.18696 101.99946 104.14981 102.42124 100.28125 105.25 C 98.01546 106.90679 87.731281 112.54975 77.4375 117.8125 C 67.14372 123.07525 58.400451 128.13023 58 129.03125 C 57.59955 129.93227 56.45616 130.65625 55.46875 130.65625 C 54.48137 130.65625 46.518442 135.09391 37.75 140.5 C 28.5288 146.18526 19.00451 150.37643 15.15625 150.46875 C 9.38528 150.60718 10.07959 151.23021 20.5 155 C 35.43794 160.4041 44.891458 159.38323 57.65625 151 C 83.26971 134.17844 89.182864 130.65625 91.875 130.65625 C 93.47106 130.65625 94.781247 129.6701 94.78125 128.46875 C 94.78125 127.26738 96.753551 126.28125 99.15625 126.28125 C 103.6027 126.28125 105.07626 129.46075 101.625 131.59375 C 100.57882 132.24034 99.153687 135.48379 98.46875 138.8125 C 96.13877 150.13601 70.996801 188.1104 58.71875 198.875 C 56.31603 200.98155 52.099131 203.34019 49.34375 204.09375 C 42.78966 205.88627 44.45286 210.40624 51.65625 210.40625 C 54.74313 210.40625 57.925129 211.05676 58.75 211.875 C 60.2531 213.366 66.51272 211.80965 68.5625 209.4375 C 69.16319 208.74235 73.317699 205.44394 77.8125 202.09375 L 86 196 L 90.21875 205.375 C 92.53601 210.53405 96.57359 220.17379 99.1875 226.78125 C 101.80142 233.3887 105.36259 241.06721 107.125 243.84375 C 108.88773 246.6208 112.00433 248.57786 114.03125 248.1875 C 118.42314 247.3417 118.83255 243.77444 119.5625 200.5625 C 119.85677 183.14283 120.28623 164.49607 120.53125 159.125 L 121 149.34375 L 128.78125 157.375 C 135.56392 164.35808 137.22158 165.10009 141.625 163.09375 C 144.89962 161.60173 146.30388 159.44527 145.65625 156.96875 C 144.88803 154.03107 147.11356 152.28854 155.21875 149.4375 C 173.50286 143.00598 173.40625 143.0244 173.40625 146.875 C 173.40625 148.85487 174.88547 151.02723 176.6875 151.71875 C 185.46924 155.0886 176.81758 160.67576 157.03125 164.40625 C 154.62854 164.85925 149.81409 166.3146 146.34375 167.65625 C 142.87341 168.9979 139.57708 169.63958 139 169.0625 C 138.42292 168.48542 136.47017 169.49859 134.65625 171.3125 C 132.84234 173.12642 129.99089 174.06957 128.34375 173.4375 C 124.68423 172.03321 124.19068 183.36413 127.625 189.78125 C 130.6052 195.34978 132.48025 195.13437 143.21875 188 C 152.36205 181.92544 173.22153 174.1298 176 175.75 C 177.46754 176.60575 173.68869 186.02852 166.40625 199.59375 C 161.44658 208.83228 143.84527 224.59375 138.5 224.59375 C 131.10227 224.59375 133.58657 228.92501 141.1875 229.28125 C 145.09189 229.46423 149.76046 229.77289 151.5625 229.96875 C 153.36454 230.16461 157.49465 229.03863 160.71875 227.46875 C 168.95095 223.46033 193.3074 200.52447 191.84375 198.15625 C 191.17794 197.07895 191.39023 194.97044 192.34375 193.46875 C 193.29728 191.96706 194.14575 189.76386 194.21875 188.5625 C 194.29175 187.36114 195.78385 186.6988 197.53125 187.09375 C 203.44476 188.43031 208.76868 195.0384 215 208.78125 C 222.12366 224.49218 224.89115 227.76727 232.4375 229.53125 C 235.41979 230.22836 240.04695 231.47472 242.75 232.3125 C 246.98259 233.62436 247.6875 233.04728 247.6875 228.125 C 247.6875 224.98149 246.70135 222.40625 245.5 222.40625 C 244.29864 222.40625 243.31249 220.92702 243.3125 219.125 C 243.3125 217.32296 244.22337 215.84374 245.34375 215.84375 C 249.3222 215.84375 250.32354 206.88291 246.78125 202.96875 C 244.87095 200.85786 243.281 197.73869 243.25 196.03125 C 243.16779 191.5019 228.7427 185.66023 214.90625 184.5625 C 197.27061 183.16333 195.14349 181.87918 197.78125 174.3125 C 200.8304 165.56573 213.49947 163.63781 239.4375 167.9375 C 251.86742 169.998 254.67175 169.85952 257.4375 167.09375 C 259.23755 165.29372 261.9456 163.38758 263.46875 162.875 C 268.67653 161.12247 260.8582 154.94823 248.53125 151.0625 C 236.97996 147.42129 233.00382 143.76937 240.5625 143.75 C 243.37767 143.7428 244.50402 141.78343 244.78125 136.3125 C 245.18664 128.31134 257.03992 99.163932 262.34375 93.125 C 264.99615 90.10499 265.10754 88.041193 263.03125 81.75 C 260.002 72.57129 254.2802 70.215719 246.0625 74.75 C 232.35118 82.31554 224.8018 85.124081 215.03125 86.28125 C 205.74866 87.38064 203.95964 86.825596 196.96875 80.6875 C 192.70098 76.94036 187.50722 73.875 185.40625 73.875 C 182.22364 73.875 181.78622 72.5219 182.875 65.8125 C 184.28125 57.146789 182.64551 53.333701 177.25 53.5625 z M 195.3125 87.6875 C 197.39263 87.674824 201.41567 89.163971 208.09375 92.34375 C 219.70661 97.87322 221.58593 99.552728 221.03125 104.03125 C 220.44719 108.74704 219.23059 109.29239 208.875 109.625 C 202.5587 109.82788 195.45734 109.26091 193.0625 108.375 C 190.66764 107.48908 187.20695 107.34026 185.40625 108.03125 C 182.82463 109.02191 182.15625 107.3862 182.15625 100.3125 C 182.15625 92.28229 182.7123 91.343752 187.4375 91.34375 C 190.34077 91.34375 193.1186 90.126698 193.625 88.625 C 193.83109 88.013828 194.36699 87.693262 195.3125 87.6875 z M 243.34375 91.53125 C 245.91237 91.764677 244.43696 98.407557 239.5625 114.84375 C 235.992 126.88304 232.375 129.98931 232.375 121.03125 C 232.375 118.12799 231.15794 115.23433 229.65625 114.625 C 227.53363 113.76373 227.57066 113.05289 229.875 111.4375 C 231.65578 110.18915 232.28065 107.59403 231.4375 104.9375 C 230.41844 101.72671 231.63959 99.269063 235.875 95.9375 C 239.54269 93.052489 241.99828 91.408979 243.34375 91.53125 z M 200.25 113.40625 C 201.52395 113.3192 203.35767 113.65634 205.9375 114.40625 C 209.85332 115.54452 212.73459 117.4549 212.34375 118.65625 C 211.95291 119.85761 210.90102 120.58159 210 120.28125 C 209.09899 119.98091 208.34375 121.22921 208.34375 123.03125 C 208.34375 124.83328 207.38886 126.28125 206.1875 126.28125 C 204.98615 126.28125 204 125.32635 204 124.125 C 204 122.92365 201.04157 121.9375 197.4375 121.9375 C 193.83344 121.9375 190.87501 120.95137 190.875 119.75 C 190.875 118.54865 192.26682 117.5625 193.96875 117.5625 C 195.67068 117.5625 197.45797 116.3761 197.9375 114.9375 C 198.25343 113.98972 198.97605 113.4933 200.25 113.40625 z M 218.59375 124.1875 C 220.02454 124.14754 221.82001 125.07991 222.5625 126.28125 C 223.30498 127.48261 225.82445 128.46875 228.15625 128.46875 C 230.48806 128.46875 232.375 129.45489 232.375 130.65625 C 232.375 131.8576 231.01271 132.84376 229.34375 132.84375 C 225.60094 132.84375 214.97628 124.28856 218.59375 124.1875 z M 210.125 129.28125 C 211.97055 129.14701 213.01277 130.29131 214.875 133.125 C 216.69306 135.89147 221.04935 140.90592 224.53125 144.25 C 228.01317 147.59407 229.95421 150.38768 228.875 150.46875 C 227.79581 150.54982 223.48599 151.02673 219.28125 151.53125 C 215.07651 152.03576 209.4218 152.98633 206.71875 153.625 C 202.94144 154.51747 201.8125 153.80905 201.8125 150.625 C 201.8125 145.87931 196.94973 141.14145 192.6875 141.71875 C 187.01364 142.48725 184.10825 141.55702 185.4375 139.40625 C 186.17998 138.2049 189.65432 137.21874 193.1875 137.21875 C 196.72066 137.21875 199.625 136.38351 199.625 135.375 C 199.625 134.36648 202.30605 132.31049 205.59375 130.8125 C 207.61429 129.89188 209.01767 129.36179 210.125 129.28125 z M 103.6875 171.0625 L 102.65625 184.1875 C 102.08696 191.39564 101.54757 198.03648 101.46875 198.9375 C 101.23818 201.57351 95.960967 200.80765 91.4375 197.5 C 87.80226 194.84184 87.623313 193.77703 90.0625 189.3125 C 91.60528 186.48868 95.304221 181.22907 98.28125 177.625 L 103.6875 171.0625 z "
       transform="translate(121.21427,114.50503)"
       id="path2508" />
  </g>
</svg>
