<?xml version="1.0" encoding="UTF-8" standalone="no"?>
<!-- Created with Inkscape (http://www.inkscape.org/) -->
<svg
   xmlns:dc="http://purl.org/dc/elements/1.1/"
   xmlns:cc="http://creativecommons.org/ns#"
   xmlns:rdf="http://www.w3.org/1999/02/22-rdf-syntax-ns#"
   xmlns:svg="http://www.w3.org/2000/svg"
   xmlns="http://www.w3.org/2000/svg"
   xmlns:sodipodi="http://sodipodi.sourceforge.net/DTD/sodipodi-0.dtd"
   xmlns:inkscape="http://www.inkscape.org/namespaces/inkscape"
   width="300"
   height="300"
   id="svg2"
   sodipodi:version="0.32"
   inkscape:version="0.46"
   version="1.0"
   sodipodi:docname="24事.svg"
   inkscape:output_extension="org.inkscape.output.svg.inkscape"
   inkscape:export-filename="E:\MyWork\Recent\Calligraphy Vectorization Project\矢量字转位图\12初.png"
   inkscape:export-xdpi="90"
   inkscape:export-ydpi="90">
  <defs
     id="defs4">
    <inkscape:perspective
       sodipodi:type="inkscape:persp3d"
       inkscape:vp_x="0 : 526.18109 : 1"
       inkscape:vp_y="0 : 1000 : 0"
       inkscape:vp_z="744.09448 : 526.18109 : 1"
       inkscape:persp3d-origin="372.04724 : 350.78739 : 1"
       id="perspective10" />
    <inkscape:perspective
       id="perspective2390"
       inkscape:persp3d-origin="372.04724 : 350.78739 : 1"
       inkscape:vp_z="744.09448 : 526.18109 : 1"
       inkscape:vp_y="0 : 1000 : 0"
       inkscape:vp_x="0 : 526.18109 : 1"
       sodipodi:type="inkscape:persp3d" />
    <inkscape:perspective
       id="perspective2389"
       inkscape:persp3d-origin="372.04724 : 350.78739 : 1"
       inkscape:vp_z="744.09448 : 526.18109 : 1"
       inkscape:vp_y="0 : 1000 : 0"
       inkscape:vp_x="0 : 526.18109 : 1"
       sodipodi:type="inkscape:persp3d" />
    <inkscape:perspective
       id="perspective2444"
       inkscape:persp3d-origin="372.04724 : 350.78739 : 1"
       inkscape:vp_z="744.09448 : 526.18109 : 1"
       inkscape:vp_y="0 : 1000 : 0"
       inkscape:vp_x="0 : 526.18109 : 1"
       sodipodi:type="inkscape:persp3d" />
    <inkscape:perspective
       id="perspective2486"
       inkscape:persp3d-origin="372.04724 : 350.78739 : 1"
       inkscape:vp_z="744.09448 : 526.18109 : 1"
       inkscape:vp_y="0 : 1000 : 0"
       inkscape:vp_x="0 : 526.18109 : 1"
       sodipodi:type="inkscape:persp3d" />
    <inkscape:perspective
       id="perspective3311"
       inkscape:persp3d-origin="372.04724 : 350.78739 : 1"
       inkscape:vp_z="744.09448 : 526.18109 : 1"
       inkscape:vp_y="0 : 1000 : 0"
       inkscape:vp_x="0 : 526.18109 : 1"
       sodipodi:type="inkscape:persp3d" />
    <inkscape:perspective
       id="perspective2393"
       inkscape:persp3d-origin="372.04724 : 350.78739 : 1"
       inkscape:vp_z="744.09448 : 526.18109 : 1"
       inkscape:vp_y="0 : 1000 : 0"
       inkscape:vp_x="0 : 526.18109 : 1"
       sodipodi:type="inkscape:persp3d" />
    <inkscape:perspective
       id="perspective2410"
       inkscape:persp3d-origin="372.04724 : 350.78739 : 1"
       inkscape:vp_z="744.09448 : 526.18109 : 1"
       inkscape:vp_y="0 : 1000 : 0"
       inkscape:vp_x="0 : 526.18109 : 1"
       sodipodi:type="inkscape:persp3d" />
    <inkscape:perspective
       id="perspective2427"
       inkscape:persp3d-origin="372.04724 : 350.78739 : 1"
       inkscape:vp_z="744.09448 : 526.18109 : 1"
       inkscape:vp_y="0 : 1000 : 0"
       inkscape:vp_x="0 : 526.18109 : 1"
       sodipodi:type="inkscape:persp3d" />
    <inkscape:perspective
       id="perspective2477"
       inkscape:persp3d-origin="372.04724 : 350.78739 : 1"
       inkscape:vp_z="744.09448 : 526.18109 : 1"
       inkscape:vp_y="0 : 1000 : 0"
       inkscape:vp_x="0 : 526.18109 : 1"
       sodipodi:type="inkscape:persp3d" />
    <inkscape:perspective
       id="perspective2526"
       inkscape:persp3d-origin="372.04724 : 350.78739 : 1"
       inkscape:vp_z="744.09448 : 526.18109 : 1"
       inkscape:vp_y="0 : 1000 : 0"
       inkscape:vp_x="0 : 526.18109 : 1"
       sodipodi:type="inkscape:persp3d" />
    <inkscape:perspective
       id="perspective2541"
       inkscape:persp3d-origin="372.04724 : 350.78739 : 1"
       inkscape:vp_z="744.09448 : 526.18109 : 1"
       inkscape:vp_y="0 : 1000 : 0"
       inkscape:vp_x="0 : 526.18109 : 1"
       sodipodi:type="inkscape:persp3d" />
    <inkscape:perspective
       id="perspective2556"
       inkscape:persp3d-origin="372.04724 : 350.78739 : 1"
       inkscape:vp_z="744.09448 : 526.18109 : 1"
       inkscape:vp_y="0 : 1000 : 0"
       inkscape:vp_x="0 : 526.18109 : 1"
       sodipodi:type="inkscape:persp3d" />
    <inkscape:perspective
       id="perspective2573"
       inkscape:persp3d-origin="372.04724 : 350.78739 : 1"
       inkscape:vp_z="744.09448 : 526.18109 : 1"
       inkscape:vp_y="0 : 1000 : 0"
       inkscape:vp_x="0 : 526.18109 : 1"
       sodipodi:type="inkscape:persp3d" />
    <inkscape:perspective
       id="perspective2401"
       inkscape:persp3d-origin="372.04724 : 350.78739 : 1"
       inkscape:vp_z="744.09448 : 526.18109 : 1"
       inkscape:vp_y="0 : 1000 : 0"
       inkscape:vp_x="0 : 526.18109 : 1"
       sodipodi:type="inkscape:persp3d" />
    <inkscape:perspective
       id="perspective2420"
       inkscape:persp3d-origin="372.04724 : 350.78739 : 1"
       inkscape:vp_z="744.09448 : 526.18109 : 1"
       inkscape:vp_y="0 : 1000 : 0"
       inkscape:vp_x="0 : 526.18109 : 1"
       sodipodi:type="inkscape:persp3d" />
    <inkscape:perspective
       id="perspective2433"
       inkscape:persp3d-origin="372.04724 : 350.78739 : 1"
       inkscape:vp_z="744.09448 : 526.18109 : 1"
       inkscape:vp_y="0 : 1000 : 0"
       inkscape:vp_x="0 : 526.18109 : 1"
       sodipodi:type="inkscape:persp3d" />
    <inkscape:perspective
       id="perspective2404"
       inkscape:persp3d-origin="372.04724 : 350.78739 : 1"
       inkscape:vp_z="744.09448 : 526.18109 : 1"
       inkscape:vp_y="0 : 1000 : 0"
       inkscape:vp_x="0 : 526.18109 : 1"
       sodipodi:type="inkscape:persp3d" />
    <inkscape:perspective
       id="perspective2419"
       inkscape:persp3d-origin="372.04724 : 350.78739 : 1"
       inkscape:vp_z="744.09448 : 526.18109 : 1"
       inkscape:vp_y="0 : 1000 : 0"
       inkscape:vp_x="0 : 526.18109 : 1"
       sodipodi:type="inkscape:persp3d" />
    <inkscape:perspective
       id="perspective2434"
       inkscape:persp3d-origin="372.04724 : 350.78739 : 1"
       inkscape:vp_z="744.09448 : 526.18109 : 1"
       inkscape:vp_y="0 : 1000 : 0"
       inkscape:vp_x="0 : 526.18109 : 1"
       sodipodi:type="inkscape:persp3d" />
    <inkscape:perspective
       id="perspective2453"
       inkscape:persp3d-origin="372.04724 : 350.78739 : 1"
       inkscape:vp_z="744.09448 : 526.18109 : 1"
       inkscape:vp_y="0 : 1000 : 0"
       inkscape:vp_x="0 : 526.18109 : 1"
       sodipodi:type="inkscape:persp3d" />
    <inkscape:perspective
       id="perspective2538"
       inkscape:persp3d-origin="372.04724 : 350.78739 : 1"
       inkscape:vp_z="744.09448 : 526.18109 : 1"
       inkscape:vp_y="0 : 1000 : 0"
       inkscape:vp_x="0 : 526.18109 : 1"
       sodipodi:type="inkscape:persp3d" />
    <inkscape:perspective
       id="perspective2553"
       inkscape:persp3d-origin="372.04724 : 350.78739 : 1"
       inkscape:vp_z="744.09448 : 526.18109 : 1"
       inkscape:vp_y="0 : 1000 : 0"
       inkscape:vp_x="0 : 526.18109 : 1"
       sodipodi:type="inkscape:persp3d" />
    <inkscape:perspective
       id="perspective2570"
       inkscape:persp3d-origin="372.04724 : 350.78739 : 1"
       inkscape:vp_z="744.09448 : 526.18109 : 1"
       inkscape:vp_y="0 : 1000 : 0"
       inkscape:vp_x="0 : 526.18109 : 1"
       sodipodi:type="inkscape:persp3d" />
    <inkscape:perspective
       id="perspective2585"
       inkscape:persp3d-origin="372.04724 : 350.78739 : 1"
       inkscape:vp_z="744.09448 : 526.18109 : 1"
       inkscape:vp_y="0 : 1000 : 0"
       inkscape:vp_x="0 : 526.18109 : 1"
       sodipodi:type="inkscape:persp3d" />
    <inkscape:perspective
       id="perspective2600"
       inkscape:persp3d-origin="372.04724 : 350.78739 : 1"
       inkscape:vp_z="744.09448 : 526.18109 : 1"
       inkscape:vp_y="0 : 1000 : 0"
       inkscape:vp_x="0 : 526.18109 : 1"
       sodipodi:type="inkscape:persp3d" />
    <inkscape:perspective
       id="perspective2615"
       inkscape:persp3d-origin="372.04724 : 350.78739 : 1"
       inkscape:vp_z="744.09448 : 526.18109 : 1"
       inkscape:vp_y="0 : 1000 : 0"
       inkscape:vp_x="0 : 526.18109 : 1"
       sodipodi:type="inkscape:persp3d" />
    <inkscape:perspective
       id="perspective2630"
       inkscape:persp3d-origin="372.04724 : 350.78739 : 1"
       inkscape:vp_z="744.09448 : 526.18109 : 1"
       inkscape:vp_y="0 : 1000 : 0"
       inkscape:vp_x="0 : 526.18109 : 1"
       sodipodi:type="inkscape:persp3d" />
    <inkscape:perspective
       id="perspective2645"
       inkscape:persp3d-origin="372.04724 : 350.78739 : 1"
       inkscape:vp_z="744.09448 : 526.18109 : 1"
       inkscape:vp_y="0 : 1000 : 0"
       inkscape:vp_x="0 : 526.18109 : 1"
       sodipodi:type="inkscape:persp3d" />
    <inkscape:perspective
       id="perspective2416"
       inkscape:persp3d-origin="372.04724 : 350.78739 : 1"
       inkscape:vp_z="744.09448 : 526.18109 : 1"
       inkscape:vp_y="0 : 1000 : 0"
       inkscape:vp_x="0 : 526.18109 : 1"
       sodipodi:type="inkscape:persp3d" />
    <inkscape:perspective
       id="perspective2437"
       inkscape:persp3d-origin="372.04724 : 350.78739 : 1"
       inkscape:vp_z="744.09448 : 526.18109 : 1"
       inkscape:vp_y="0 : 1000 : 0"
       inkscape:vp_x="0 : 526.18109 : 1"
       sodipodi:type="inkscape:persp3d" />
    <inkscape:perspective
       id="perspective2476"
       inkscape:persp3d-origin="372.04724 : 350.78739 : 1"
       inkscape:vp_z="744.09448 : 526.18109 : 1"
       inkscape:vp_y="0 : 1000 : 0"
       inkscape:vp_x="0 : 526.18109 : 1"
       sodipodi:type="inkscape:persp3d" />
    <inkscape:perspective
       id="perspective2491"
       inkscape:persp3d-origin="372.04724 : 350.78739 : 1"
       inkscape:vp_z="744.09448 : 526.18109 : 1"
       inkscape:vp_y="0 : 1000 : 0"
       inkscape:vp_x="0 : 526.18109 : 1"
       sodipodi:type="inkscape:persp3d" />
    <inkscape:perspective
       id="perspective2506"
       inkscape:persp3d-origin="372.04724 : 350.78739 : 1"
       inkscape:vp_z="744.09448 : 526.18109 : 1"
       inkscape:vp_y="0 : 1000 : 0"
       inkscape:vp_x="0 : 526.18109 : 1"
       sodipodi:type="inkscape:persp3d" />
    <inkscape:perspective
       id="perspective2560"
       inkscape:persp3d-origin="372.04724 : 350.78739 : 1"
       inkscape:vp_z="744.09448 : 526.18109 : 1"
       inkscape:vp_y="0 : 1000 : 0"
       inkscape:vp_x="0 : 526.18109 : 1"
       sodipodi:type="inkscape:persp3d" />
    <inkscape:perspective
       id="perspective2422"
       inkscape:persp3d-origin="372.04724 : 350.78739 : 1"
       inkscape:vp_z="744.09448 : 526.18109 : 1"
       inkscape:vp_y="0 : 1000 : 0"
       inkscape:vp_x="0 : 526.18109 : 1"
       sodipodi:type="inkscape:persp3d" />
    <inkscape:perspective
       id="perspective2441"
       inkscape:persp3d-origin="372.04724 : 350.78739 : 1"
       inkscape:vp_z="744.09448 : 526.18109 : 1"
       inkscape:vp_y="0 : 1000 : 0"
       inkscape:vp_x="0 : 526.18109 : 1"
       sodipodi:type="inkscape:persp3d" />
    <inkscape:perspective
       id="perspective2457"
       inkscape:persp3d-origin="372.04724 : 350.78739 : 1"
       inkscape:vp_z="744.09448 : 526.18109 : 1"
       inkscape:vp_y="0 : 1000 : 0"
       inkscape:vp_x="0 : 526.18109 : 1"
       sodipodi:type="inkscape:persp3d" />
    <inkscape:perspective
       id="perspective2469"
       inkscape:persp3d-origin="372.04724 : 350.78739 : 1"
       inkscape:vp_z="744.09448 : 526.18109 : 1"
       inkscape:vp_y="0 : 1000 : 0"
       inkscape:vp_x="0 : 526.18109 : 1"
       sodipodi:type="inkscape:persp3d" />
    <inkscape:perspective
       id="perspective2522"
       inkscape:persp3d-origin="372.04724 : 350.78739 : 1"
       inkscape:vp_z="744.09448 : 526.18109 : 1"
       inkscape:vp_y="0 : 1000 : 0"
       inkscape:vp_x="0 : 526.18109 : 1"
       sodipodi:type="inkscape:persp3d" />
    <inkscape:perspective
       id="perspective2537"
       inkscape:persp3d-origin="372.04724 : 350.78739 : 1"
       inkscape:vp_z="744.09448 : 526.18109 : 1"
       inkscape:vp_y="0 : 1000 : 0"
       inkscape:vp_x="0 : 526.18109 : 1"
       sodipodi:type="inkscape:persp3d" />
    <inkscape:perspective
       id="perspective2552"
       inkscape:persp3d-origin="372.04724 : 350.78739 : 1"
       inkscape:vp_z="744.09448 : 526.18109 : 1"
       inkscape:vp_y="0 : 1000 : 0"
       inkscape:vp_x="0 : 526.18109 : 1"
       sodipodi:type="inkscape:persp3d" />
    <inkscape:perspective
       id="perspective2594"
       inkscape:persp3d-origin="372.04724 : 350.78739 : 1"
       inkscape:vp_z="744.09448 : 526.18109 : 1"
       inkscape:vp_y="0 : 1000 : 0"
       inkscape:vp_x="0 : 526.18109 : 1"
       sodipodi:type="inkscape:persp3d" />
    <inkscape:perspective
       id="perspective2470"
       inkscape:persp3d-origin="372.04724 : 350.78739 : 1"
       inkscape:vp_z="744.09448 : 526.18109 : 1"
       inkscape:vp_y="0 : 1000 : 0"
       inkscape:vp_x="0 : 526.18109 : 1"
       sodipodi:type="inkscape:persp3d" />
    <inkscape:perspective
       id="perspective2485"
       inkscape:persp3d-origin="372.04724 : 350.78739 : 1"
       inkscape:vp_z="744.09448 : 526.18109 : 1"
       inkscape:vp_y="0 : 1000 : 0"
       inkscape:vp_x="0 : 526.18109 : 1"
       sodipodi:type="inkscape:persp3d" />
    <inkscape:perspective
       id="perspective2502"
       inkscape:persp3d-origin="372.04724 : 350.78739 : 1"
       inkscape:vp_z="744.09448 : 526.18109 : 1"
       inkscape:vp_y="0 : 1000 : 0"
       inkscape:vp_x="0 : 526.18109 : 1"
       sodipodi:type="inkscape:persp3d" />
    <inkscape:perspective
       id="perspective2548"
       inkscape:persp3d-origin="372.04724 : 350.78739 : 1"
       inkscape:vp_z="744.09448 : 526.18109 : 1"
       inkscape:vp_y="0 : 1000 : 0"
       inkscape:vp_x="0 : 526.18109 : 1"
       sodipodi:type="inkscape:persp3d" />
  </defs>
  <sodipodi:namedview
     id="base"
     pagecolor="#ffffff"
     bordercolor="#666666"
     borderopacity="1.0"
     gridtolerance="10000"
     guidetolerance="10"
     objecttolerance="10"
     inkscape:pageopacity="0.0"
     inkscape:pageshadow="2"
     inkscape:zoom="1.0564636"
     inkscape:cx="202.93264"
     inkscape:cy="173.85479"
     inkscape:document-units="px"
     inkscape:current-layer="layer1"
     showgrid="true"
     width="300px"
     borderlayer="true"
     inkscape:showpageshadow="true"
     inkscape:window-width="1024"
     inkscape:window-height="718"
     inkscape:window-x="-4"
     inkscape:window-y="-4">
    <inkscape:grid
       type="xygrid"
       id="grid2396"
       visible="true"
       enabled="true"
       dotted="false" />
  </sodipodi:namedview>
  <metadata
     id="metadata7">
    <rdf:RDF>
      <cc:Work
         rdf:about="">
        <dc:format>image/svg+xml</dc:format>
        <dc:type
           rdf:resource="http://purl.org/dc/dcmitype/StillImage" />
      </cc:Work>
    </rdf:RDF>
  </metadata>
  <g
     inkscape:label="Layer 1"
     inkscape:groupmode="layer"
     id="layer1"
     transform="translate(-121.21427,-114.50503)">
    <path
       style="fill:#000000"
       d="M 132.90625 26.34375 C 126.67066 26.46731 122.72164 27.161153 125.0625 28.53125 C 132.29253 32.76295 139.99491 39.902869 140.1875 42.5625 C 140.29566 44.05622 140.96372 47.174161 141.6875 49.5 C 142.83128 53.17546 141.41022 54.202798 130.875 57.40625 C 115.89031 61.96263 87.197429 72.282201 71.46875 78.75 C 59.97799 83.47513 52.94704 83.589208 47.28125 79.15625 C 43.82707 76.45367 43.872318 81.634838 47.34375 86.15625 C 54.18201 95.06284 63.866067 95.230572 78.78125 86.71875 C 83.54596 83.99962 91.678542 79.874129 96.84375 77.53125 C 102.00896 75.18837 107.91151 72.334812 109.9375 71.21875 C 111.9635 70.10269 119.87185 67.74508 127.53125 65.96875 C 135.19065 64.19242 143.17018 61.831831 145.25 60.71875 C 148.38541 59.04073 149.036 59.514479 149.0625 63.46875 C 149.08007 66.09176 149.91345 69.569853 150.9375 71.1875 C 154.26519 76.44411 151.06514 79.257796 136.21875 84.125 C 124.38554 88.00439 121.29928 88.378962 119.90625 86.125 C 116.34001 80.3547 113.45468 86.399197 113.9375 98.625 C 114.54226 113.93856 111.26094 118.38743 106.46875 108.78125 C 102.55079 100.9275 102.18887 93.703324 105.375 87.75 C 108.73059 81.47998 105.92694 80.466238 101.03125 86.1875 C 97.28956 90.56013 96.816031 93.556963 97.3125 110.40625 C 97.93881 131.66181 99.49503 134.66052 110.9375 136.78125 C 117.6711 138.02924 117.71875 137.96484 117.71875 129.65625 C 117.71875 122.37881 118.19921 121.53132 121.375 123.125 C 125.29254 125.0909 128.93043 124.27952 141.125 118.71875 C 152.39586 113.57918 155.28126 114.09541 155.28125 121.28125 C 155.28125 126.68332 153.89459 128.03789 143.28125 132.9375 C 136.68125 135.98438 124.97251 140.51057 117.25 143 C 109.52748 145.48945 103.18155 148.15923 103.15625 148.9375 C 103.00936 153.45499 140.20759 153.30503 148.71875 148.75 C 154.1933 145.82011 155.28126 145.91496 155.28125 149.28125 C 155.28125 151.88666 138.57225 160.41051 121.75 166.375 C 117.6474 167.82962 110.35555 168.70122 105.5625 168.34375 C 100.76946 167.98627 96.843752 168.40113 96.84375 169.25 C 96.84375 171.77443 116.50725 179.875 122.625 179.875 C 125.73605 179.875 133.99199 177.46772 140.96875 174.53125 C 147.94551 171.59477 154.10194 169.66443 154.65625 170.21875 C 155.21058 170.77308 155.05401 173.13246 154.3125 175.46875 C 153.4559 178.16765 146.74172 182.69575 135.875 187.90625 C 114.85622 197.98456 104.8564 201.25351 97.375 200.46875 C 88.62738 199.55117 89.225833 203.57593 98.25 206.34375 C 112.93746 210.84855 124.65666 209.70013 138.40625 202.4375 C 145.3425 198.77372 151.68407 196.46532 152.53125 197.3125 C 154.608 199.38925 153.75058 219.18323 150.75 238.25 C 148.01328 255.63997 142.6764 263.375 133.34375 263.375 C 126.55128 263.375 119.27172 259.64472 120.90625 257 C 121.58006 255.90975 121.15308 255 119.9375 255 C 118.72194 255 117.71875 256.79928 117.71875 259 C 117.71875 261.81965 120.50714 264.06635 127.125 266.59375 C 132.29021 268.56637 136.5 271.03363 136.5 272.0625 C 136.5 273.09137 138.6049 274.77441 141.1875 275.8125 C 143.7701 276.85057 146.72208 277.77099 147.71875 277.84375 C 150.25068 278.0286 161.45945 264.95496 161.5 261.78125 C 161.51834 260.34647 162.26718 259.18751 163.15625 259.1875 C 165.22189 259.1875 169.71589 232.81109 172.1875 206.125 C 173.24262 194.73284 174.58539 184.91461 175.1875 184.3125 C 175.7896 183.71039 181.65647 184.50934 188.21875 186.0625 C 199.64629 188.76714 215.32712 189.39163 217.46875 187.25 C 218.02798 186.69078 217.29568 184.81198 215.84375 183.0625 C 214.03842 180.88723 213.96057 179.875 215.5625 179.875 C 216.85088 179.875 217.90625 178.47173 217.90625 176.75 C 217.90625 175.02826 216.96034 173.625 215.8125 173.625 C 212.97393 173.625 213.16014 163.77446 216.03125 162 C 217.29619 161.21822 219.62997 157.40851 221.25 153.53125 C 222.87001 149.65398 225.03272 146.5 226.03125 146.5 C 227.02981 146.5 228.39161 144.37795 229.0625 141.8125 C 230.67773 135.63585 222.65226 123.7876 215.8125 122.25 C 212.94293 121.60491 208.31606 120.42162 205.53125 119.59375 C 200.4072 118.07047 182.33374 119.84388 175.625 122.53125 C 172.83942 123.64708 171.96875 122.94757 171.96875 119.59375 C 171.96875 117.17528 171.75571 114.50294 171.46875 113.65625 C 170.95322 112.13512 186.35605 109.12551 197.625 108.5625 C 200.82245 108.40275 204.02872 107.3233 204.75 106.15625 C 205.54578 104.86865 204.67915 104.58204 202.53125 105.40625 C 199.99055 106.38122 198.40574 105.27964 196.96875 101.5 C 195.26366 97.01532 195.90189 95.322412 201.21875 90.125 C 204.65223 86.76866 207.46875 83.058207 207.46875 81.875 C 207.46875 80.69179 204.05722 75.969617 199.90625 71.375 C 191.7119 62.30483 184.32169 60.571921 177.0625 66.0625 C 170.85236 70.75961 169.57735 69.92726 170.28125 61.625 C 170.8933 54.40603 171.56195 53.777189 182.25 50.15625 C 196.97403 45.16799 198.78243 47.155551 184.875 53.03125 C 178.93196 55.54212 174.0625 58.303511 174.0625 59.1875 C 174.0625 60.0715 175.25271 60.456981 176.6875 60.03125 C 179.66302 59.14835 192.38279 56.23785 210.5 52.3125 C 217.34119 50.83025 224.78894 47.773552 227.03125 45.53125 C 231.07584 41.48666 231.06368 41.42067 225.03125 36.59375 C 218.05394 31.01078 209.4063 30.32827 202.5625 34.8125 C 198.23196 37.64997 175.14579 46.160279 171.4375 46.28125 C 170.57226 46.30946 170.11492 43.305921 170.40625 39.625 C 170.84938 34.02592 169.92538 32.428869 164.6875 29.8125 C 160.06998 27.506019 143.2989 26.137817 132.90625 26.34375 z M 178.3125 76.0625 C 180.59469 76.061652 180.52615 78.387517 178.34375 83.65625 C 175.5618 90.37249 170.78472 93.453462 169.28125 89.5 C 167.81541 85.64552 171.22902 78.343511 175.21875 76.8125 C 176.51544 76.314918 177.55177 76.062783 178.3125 76.0625 z M 151.125 85.96875 C 152.27283 85.96875 153.18751 89.263851 153.1875 93.28125 C 153.1875 97.29864 152.47926 100.59375 151.59375 100.59375 C 150.70825 100.59375 144.36233 104.31614 137.5 108.875 C 123.92638 117.8924 117.70504 119.38593 117.75 113.625 C 117.79814 107.45461 120.18268 100.59375 122.28125 100.59375 C 123.37719 100.59375 125.57994 99.295057 127.15625 97.71875 C 128.73258 96.14243 134.3026 93.575096 139.53125 92.03125 C 144.7599 90.48742 149.03126 88.490993 149.03125 87.59375 C 149.03125 86.69652 149.97719 85.968753 151.125 85.96875 z M 196.875 131.9375 C 199.33923 131.95716 201.39713 132.61547 202.15625 133.84375 C 202.81742 134.91353 200.94514 142.17544 198 150 C 195.05485 157.82455 191.99229 164.88729 191.1875 165.6875 C 190.38271 166.48771 187.50524 165.46455 184.78125 163.40625 C 179.93959 159.74779 179.90351 159.52018 183.5 154.03125 C 187.02255 148.65517 187.02447 148.30196 183.40625 145.65625 C 181.32788 144.13651 177.78426 143.37957 175.53125 143.96875 C 168.769 145.73712 172.53059 139.43775 179.46875 137.375 C 182.81844 136.37911 187.16313 134.73157 189.15625 133.71875 C 191.52429 132.51542 194.41077 131.91784 196.875 131.9375 z M 175.96875 163.4375 C 176.59906 163.3777 177.22156 163.56531 177.71875 164.0625 C 178.42674 164.77047 178.00994 166.36504 176.78125 167.59375 C 175.28244 169.09256 174.09968 169.1129 173.21875 167.6875 C 172.10715 165.88891 174.07781 163.6169 175.96875 163.4375 z "
       transform="translate(121.21427,114.50503)"
       id="path2556" />
  </g>
</svg>
