<?xml version="1.0" encoding="UTF-8" standalone="no"?>
<!-- Created with Inkscape (http://www.inkscape.org/) -->
<svg
   xmlns:dc="http://purl.org/dc/elements/1.1/"
   xmlns:cc="http://creativecommons.org/ns#"
   xmlns:rdf="http://www.w3.org/1999/02/22-rdf-syntax-ns#"
   xmlns:svg="http://www.w3.org/2000/svg"
   xmlns="http://www.w3.org/2000/svg"
   xmlns:sodipodi="http://sodipodi.sourceforge.net/DTD/sodipodi-0.dtd"
   xmlns:inkscape="http://www.inkscape.org/namespaces/inkscape"
   width="300"
   height="300"
   id="svg2"
   sodipodi:version="0.32"
   inkscape:version="0.46"
   version="1.0"
   sodipodi:docname="26群.svg"
   inkscape:output_extension="org.inkscape.output.svg.inkscape"
   inkscape:export-filename="E:\MyWork\Recent\Calligraphy Vectorization Project\矢量字转位图\12初.png"
   inkscape:export-xdpi="90"
   inkscape:export-ydpi="90">
  <defs
     id="defs4">
    <inkscape:perspective
       sodipodi:type="inkscape:persp3d"
       inkscape:vp_x="0 : 526.18109 : 1"
       inkscape:vp_y="0 : 1000 : 0"
       inkscape:vp_z="744.09448 : 526.18109 : 1"
       inkscape:persp3d-origin="372.04724 : 350.78739 : 1"
       id="perspective10" />
    <inkscape:perspective
       id="perspective2390"
       inkscape:persp3d-origin="372.04724 : 350.78739 : 1"
       inkscape:vp_z="744.09448 : 526.18109 : 1"
       inkscape:vp_y="0 : 1000 : 0"
       inkscape:vp_x="0 : 526.18109 : 1"
       sodipodi:type="inkscape:persp3d" />
    <inkscape:perspective
       id="perspective2389"
       inkscape:persp3d-origin="372.04724 : 350.78739 : 1"
       inkscape:vp_z="744.09448 : 526.18109 : 1"
       inkscape:vp_y="0 : 1000 : 0"
       inkscape:vp_x="0 : 526.18109 : 1"
       sodipodi:type="inkscape:persp3d" />
    <inkscape:perspective
       id="perspective2444"
       inkscape:persp3d-origin="372.04724 : 350.78739 : 1"
       inkscape:vp_z="744.09448 : 526.18109 : 1"
       inkscape:vp_y="0 : 1000 : 0"
       inkscape:vp_x="0 : 526.18109 : 1"
       sodipodi:type="inkscape:persp3d" />
    <inkscape:perspective
       id="perspective2486"
       inkscape:persp3d-origin="372.04724 : 350.78739 : 1"
       inkscape:vp_z="744.09448 : 526.18109 : 1"
       inkscape:vp_y="0 : 1000 : 0"
       inkscape:vp_x="0 : 526.18109 : 1"
       sodipodi:type="inkscape:persp3d" />
    <inkscape:perspective
       id="perspective3311"
       inkscape:persp3d-origin="372.04724 : 350.78739 : 1"
       inkscape:vp_z="744.09448 : 526.18109 : 1"
       inkscape:vp_y="0 : 1000 : 0"
       inkscape:vp_x="0 : 526.18109 : 1"
       sodipodi:type="inkscape:persp3d" />
    <inkscape:perspective
       id="perspective2393"
       inkscape:persp3d-origin="372.04724 : 350.78739 : 1"
       inkscape:vp_z="744.09448 : 526.18109 : 1"
       inkscape:vp_y="0 : 1000 : 0"
       inkscape:vp_x="0 : 526.18109 : 1"
       sodipodi:type="inkscape:persp3d" />
    <inkscape:perspective
       id="perspective2410"
       inkscape:persp3d-origin="372.04724 : 350.78739 : 1"
       inkscape:vp_z="744.09448 : 526.18109 : 1"
       inkscape:vp_y="0 : 1000 : 0"
       inkscape:vp_x="0 : 526.18109 : 1"
       sodipodi:type="inkscape:persp3d" />
    <inkscape:perspective
       id="perspective2427"
       inkscape:persp3d-origin="372.04724 : 350.78739 : 1"
       inkscape:vp_z="744.09448 : 526.18109 : 1"
       inkscape:vp_y="0 : 1000 : 0"
       inkscape:vp_x="0 : 526.18109 : 1"
       sodipodi:type="inkscape:persp3d" />
    <inkscape:perspective
       id="perspective2477"
       inkscape:persp3d-origin="372.04724 : 350.78739 : 1"
       inkscape:vp_z="744.09448 : 526.18109 : 1"
       inkscape:vp_y="0 : 1000 : 0"
       inkscape:vp_x="0 : 526.18109 : 1"
       sodipodi:type="inkscape:persp3d" />
    <inkscape:perspective
       id="perspective2526"
       inkscape:persp3d-origin="372.04724 : 350.78739 : 1"
       inkscape:vp_z="744.09448 : 526.18109 : 1"
       inkscape:vp_y="0 : 1000 : 0"
       inkscape:vp_x="0 : 526.18109 : 1"
       sodipodi:type="inkscape:persp3d" />
    <inkscape:perspective
       id="perspective2541"
       inkscape:persp3d-origin="372.04724 : 350.78739 : 1"
       inkscape:vp_z="744.09448 : 526.18109 : 1"
       inkscape:vp_y="0 : 1000 : 0"
       inkscape:vp_x="0 : 526.18109 : 1"
       sodipodi:type="inkscape:persp3d" />
    <inkscape:perspective
       id="perspective2556"
       inkscape:persp3d-origin="372.04724 : 350.78739 : 1"
       inkscape:vp_z="744.09448 : 526.18109 : 1"
       inkscape:vp_y="0 : 1000 : 0"
       inkscape:vp_x="0 : 526.18109 : 1"
       sodipodi:type="inkscape:persp3d" />
    <inkscape:perspective
       id="perspective2573"
       inkscape:persp3d-origin="372.04724 : 350.78739 : 1"
       inkscape:vp_z="744.09448 : 526.18109 : 1"
       inkscape:vp_y="0 : 1000 : 0"
       inkscape:vp_x="0 : 526.18109 : 1"
       sodipodi:type="inkscape:persp3d" />
    <inkscape:perspective
       id="perspective2401"
       inkscape:persp3d-origin="372.04724 : 350.78739 : 1"
       inkscape:vp_z="744.09448 : 526.18109 : 1"
       inkscape:vp_y="0 : 1000 : 0"
       inkscape:vp_x="0 : 526.18109 : 1"
       sodipodi:type="inkscape:persp3d" />
    <inkscape:perspective
       id="perspective2420"
       inkscape:persp3d-origin="372.04724 : 350.78739 : 1"
       inkscape:vp_z="744.09448 : 526.18109 : 1"
       inkscape:vp_y="0 : 1000 : 0"
       inkscape:vp_x="0 : 526.18109 : 1"
       sodipodi:type="inkscape:persp3d" />
    <inkscape:perspective
       id="perspective2433"
       inkscape:persp3d-origin="372.04724 : 350.78739 : 1"
       inkscape:vp_z="744.09448 : 526.18109 : 1"
       inkscape:vp_y="0 : 1000 : 0"
       inkscape:vp_x="0 : 526.18109 : 1"
       sodipodi:type="inkscape:persp3d" />
    <inkscape:perspective
       id="perspective2404"
       inkscape:persp3d-origin="372.04724 : 350.78739 : 1"
       inkscape:vp_z="744.09448 : 526.18109 : 1"
       inkscape:vp_y="0 : 1000 : 0"
       inkscape:vp_x="0 : 526.18109 : 1"
       sodipodi:type="inkscape:persp3d" />
    <inkscape:perspective
       id="perspective2419"
       inkscape:persp3d-origin="372.04724 : 350.78739 : 1"
       inkscape:vp_z="744.09448 : 526.18109 : 1"
       inkscape:vp_y="0 : 1000 : 0"
       inkscape:vp_x="0 : 526.18109 : 1"
       sodipodi:type="inkscape:persp3d" />
    <inkscape:perspective
       id="perspective2434"
       inkscape:persp3d-origin="372.04724 : 350.78739 : 1"
       inkscape:vp_z="744.09448 : 526.18109 : 1"
       inkscape:vp_y="0 : 1000 : 0"
       inkscape:vp_x="0 : 526.18109 : 1"
       sodipodi:type="inkscape:persp3d" />
    <inkscape:perspective
       id="perspective2453"
       inkscape:persp3d-origin="372.04724 : 350.78739 : 1"
       inkscape:vp_z="744.09448 : 526.18109 : 1"
       inkscape:vp_y="0 : 1000 : 0"
       inkscape:vp_x="0 : 526.18109 : 1"
       sodipodi:type="inkscape:persp3d" />
    <inkscape:perspective
       id="perspective2538"
       inkscape:persp3d-origin="372.04724 : 350.78739 : 1"
       inkscape:vp_z="744.09448 : 526.18109 : 1"
       inkscape:vp_y="0 : 1000 : 0"
       inkscape:vp_x="0 : 526.18109 : 1"
       sodipodi:type="inkscape:persp3d" />
    <inkscape:perspective
       id="perspective2553"
       inkscape:persp3d-origin="372.04724 : 350.78739 : 1"
       inkscape:vp_z="744.09448 : 526.18109 : 1"
       inkscape:vp_y="0 : 1000 : 0"
       inkscape:vp_x="0 : 526.18109 : 1"
       sodipodi:type="inkscape:persp3d" />
    <inkscape:perspective
       id="perspective2570"
       inkscape:persp3d-origin="372.04724 : 350.78739 : 1"
       inkscape:vp_z="744.09448 : 526.18109 : 1"
       inkscape:vp_y="0 : 1000 : 0"
       inkscape:vp_x="0 : 526.18109 : 1"
       sodipodi:type="inkscape:persp3d" />
    <inkscape:perspective
       id="perspective2585"
       inkscape:persp3d-origin="372.04724 : 350.78739 : 1"
       inkscape:vp_z="744.09448 : 526.18109 : 1"
       inkscape:vp_y="0 : 1000 : 0"
       inkscape:vp_x="0 : 526.18109 : 1"
       sodipodi:type="inkscape:persp3d" />
    <inkscape:perspective
       id="perspective2600"
       inkscape:persp3d-origin="372.04724 : 350.78739 : 1"
       inkscape:vp_z="744.09448 : 526.18109 : 1"
       inkscape:vp_y="0 : 1000 : 0"
       inkscape:vp_x="0 : 526.18109 : 1"
       sodipodi:type="inkscape:persp3d" />
    <inkscape:perspective
       id="perspective2615"
       inkscape:persp3d-origin="372.04724 : 350.78739 : 1"
       inkscape:vp_z="744.09448 : 526.18109 : 1"
       inkscape:vp_y="0 : 1000 : 0"
       inkscape:vp_x="0 : 526.18109 : 1"
       sodipodi:type="inkscape:persp3d" />
    <inkscape:perspective
       id="perspective2630"
       inkscape:persp3d-origin="372.04724 : 350.78739 : 1"
       inkscape:vp_z="744.09448 : 526.18109 : 1"
       inkscape:vp_y="0 : 1000 : 0"
       inkscape:vp_x="0 : 526.18109 : 1"
       sodipodi:type="inkscape:persp3d" />
    <inkscape:perspective
       id="perspective2645"
       inkscape:persp3d-origin="372.04724 : 350.78739 : 1"
       inkscape:vp_z="744.09448 : 526.18109 : 1"
       inkscape:vp_y="0 : 1000 : 0"
       inkscape:vp_x="0 : 526.18109 : 1"
       sodipodi:type="inkscape:persp3d" />
    <inkscape:perspective
       id="perspective2416"
       inkscape:persp3d-origin="372.04724 : 350.78739 : 1"
       inkscape:vp_z="744.09448 : 526.18109 : 1"
       inkscape:vp_y="0 : 1000 : 0"
       inkscape:vp_x="0 : 526.18109 : 1"
       sodipodi:type="inkscape:persp3d" />
    <inkscape:perspective
       id="perspective2437"
       inkscape:persp3d-origin="372.04724 : 350.78739 : 1"
       inkscape:vp_z="744.09448 : 526.18109 : 1"
       inkscape:vp_y="0 : 1000 : 0"
       inkscape:vp_x="0 : 526.18109 : 1"
       sodipodi:type="inkscape:persp3d" />
    <inkscape:perspective
       id="perspective2476"
       inkscape:persp3d-origin="372.04724 : 350.78739 : 1"
       inkscape:vp_z="744.09448 : 526.18109 : 1"
       inkscape:vp_y="0 : 1000 : 0"
       inkscape:vp_x="0 : 526.18109 : 1"
       sodipodi:type="inkscape:persp3d" />
    <inkscape:perspective
       id="perspective2491"
       inkscape:persp3d-origin="372.04724 : 350.78739 : 1"
       inkscape:vp_z="744.09448 : 526.18109 : 1"
       inkscape:vp_y="0 : 1000 : 0"
       inkscape:vp_x="0 : 526.18109 : 1"
       sodipodi:type="inkscape:persp3d" />
    <inkscape:perspective
       id="perspective2506"
       inkscape:persp3d-origin="372.04724 : 350.78739 : 1"
       inkscape:vp_z="744.09448 : 526.18109 : 1"
       inkscape:vp_y="0 : 1000 : 0"
       inkscape:vp_x="0 : 526.18109 : 1"
       sodipodi:type="inkscape:persp3d" />
    <inkscape:perspective
       id="perspective2560"
       inkscape:persp3d-origin="372.04724 : 350.78739 : 1"
       inkscape:vp_z="744.09448 : 526.18109 : 1"
       inkscape:vp_y="0 : 1000 : 0"
       inkscape:vp_x="0 : 526.18109 : 1"
       sodipodi:type="inkscape:persp3d" />
    <inkscape:perspective
       id="perspective2422"
       inkscape:persp3d-origin="372.04724 : 350.78739 : 1"
       inkscape:vp_z="744.09448 : 526.18109 : 1"
       inkscape:vp_y="0 : 1000 : 0"
       inkscape:vp_x="0 : 526.18109 : 1"
       sodipodi:type="inkscape:persp3d" />
    <inkscape:perspective
       id="perspective2441"
       inkscape:persp3d-origin="372.04724 : 350.78739 : 1"
       inkscape:vp_z="744.09448 : 526.18109 : 1"
       inkscape:vp_y="0 : 1000 : 0"
       inkscape:vp_x="0 : 526.18109 : 1"
       sodipodi:type="inkscape:persp3d" />
    <inkscape:perspective
       id="perspective2457"
       inkscape:persp3d-origin="372.04724 : 350.78739 : 1"
       inkscape:vp_z="744.09448 : 526.18109 : 1"
       inkscape:vp_y="0 : 1000 : 0"
       inkscape:vp_x="0 : 526.18109 : 1"
       sodipodi:type="inkscape:persp3d" />
    <inkscape:perspective
       id="perspective2469"
       inkscape:persp3d-origin="372.04724 : 350.78739 : 1"
       inkscape:vp_z="744.09448 : 526.18109 : 1"
       inkscape:vp_y="0 : 1000 : 0"
       inkscape:vp_x="0 : 526.18109 : 1"
       sodipodi:type="inkscape:persp3d" />
    <inkscape:perspective
       id="perspective2522"
       inkscape:persp3d-origin="372.04724 : 350.78739 : 1"
       inkscape:vp_z="744.09448 : 526.18109 : 1"
       inkscape:vp_y="0 : 1000 : 0"
       inkscape:vp_x="0 : 526.18109 : 1"
       sodipodi:type="inkscape:persp3d" />
    <inkscape:perspective
       id="perspective2537"
       inkscape:persp3d-origin="372.04724 : 350.78739 : 1"
       inkscape:vp_z="744.09448 : 526.18109 : 1"
       inkscape:vp_y="0 : 1000 : 0"
       inkscape:vp_x="0 : 526.18109 : 1"
       sodipodi:type="inkscape:persp3d" />
    <inkscape:perspective
       id="perspective2552"
       inkscape:persp3d-origin="372.04724 : 350.78739 : 1"
       inkscape:vp_z="744.09448 : 526.18109 : 1"
       inkscape:vp_y="0 : 1000 : 0"
       inkscape:vp_x="0 : 526.18109 : 1"
       sodipodi:type="inkscape:persp3d" />
    <inkscape:perspective
       id="perspective2594"
       inkscape:persp3d-origin="372.04724 : 350.78739 : 1"
       inkscape:vp_z="744.09448 : 526.18109 : 1"
       inkscape:vp_y="0 : 1000 : 0"
       inkscape:vp_x="0 : 526.18109 : 1"
       sodipodi:type="inkscape:persp3d" />
    <inkscape:perspective
       id="perspective2470"
       inkscape:persp3d-origin="372.04724 : 350.78739 : 1"
       inkscape:vp_z="744.09448 : 526.18109 : 1"
       inkscape:vp_y="0 : 1000 : 0"
       inkscape:vp_x="0 : 526.18109 : 1"
       sodipodi:type="inkscape:persp3d" />
    <inkscape:perspective
       id="perspective2485"
       inkscape:persp3d-origin="372.04724 : 350.78739 : 1"
       inkscape:vp_z="744.09448 : 526.18109 : 1"
       inkscape:vp_y="0 : 1000 : 0"
       inkscape:vp_x="0 : 526.18109 : 1"
       sodipodi:type="inkscape:persp3d" />
    <inkscape:perspective
       id="perspective2502"
       inkscape:persp3d-origin="372.04724 : 350.78739 : 1"
       inkscape:vp_z="744.09448 : 526.18109 : 1"
       inkscape:vp_y="0 : 1000 : 0"
       inkscape:vp_x="0 : 526.18109 : 1"
       sodipodi:type="inkscape:persp3d" />
    <inkscape:perspective
       id="perspective2548"
       inkscape:persp3d-origin="372.04724 : 350.78739 : 1"
       inkscape:vp_z="744.09448 : 526.18109 : 1"
       inkscape:vp_y="0 : 1000 : 0"
       inkscape:vp_x="0 : 526.18109 : 1"
       sodipodi:type="inkscape:persp3d" />
    <inkscape:perspective
       id="perspective2614"
       inkscape:persp3d-origin="372.04724 : 350.78739 : 1"
       inkscape:vp_z="744.09448 : 526.18109 : 1"
       inkscape:vp_y="0 : 1000 : 0"
       inkscape:vp_x="0 : 526.18109 : 1"
       sodipodi:type="inkscape:persp3d" />
    <inkscape:perspective
       id="perspective2629"
       inkscape:persp3d-origin="372.04724 : 350.78739 : 1"
       inkscape:vp_z="744.09448 : 526.18109 : 1"
       inkscape:vp_y="0 : 1000 : 0"
       inkscape:vp_x="0 : 526.18109 : 1"
       sodipodi:type="inkscape:persp3d" />
    <inkscape:perspective
       id="perspective2644"
       inkscape:persp3d-origin="372.04724 : 350.78739 : 1"
       inkscape:vp_z="744.09448 : 526.18109 : 1"
       inkscape:vp_y="0 : 1000 : 0"
       inkscape:vp_x="0 : 526.18109 : 1"
       sodipodi:type="inkscape:persp3d" />
    <inkscape:perspective
       id="perspective2659"
       inkscape:persp3d-origin="372.04724 : 350.78739 : 1"
       inkscape:vp_z="744.09448 : 526.18109 : 1"
       inkscape:vp_y="0 : 1000 : 0"
       inkscape:vp_x="0 : 526.18109 : 1"
       sodipodi:type="inkscape:persp3d" />
    <inkscape:perspective
       id="perspective2674"
       inkscape:persp3d-origin="372.04724 : 350.78739 : 1"
       inkscape:vp_z="744.09448 : 526.18109 : 1"
       inkscape:vp_y="0 : 1000 : 0"
       inkscape:vp_x="0 : 526.18109 : 1"
       sodipodi:type="inkscape:persp3d" />
    <inkscape:perspective
       id="perspective2689"
       inkscape:persp3d-origin="372.04724 : 350.78739 : 1"
       inkscape:vp_z="744.09448 : 526.18109 : 1"
       inkscape:vp_y="0 : 1000 : 0"
       inkscape:vp_x="0 : 526.18109 : 1"
       sodipodi:type="inkscape:persp3d" />
    <inkscape:perspective
       id="perspective2440"
       inkscape:persp3d-origin="372.04724 : 350.78739 : 1"
       inkscape:vp_z="744.09448 : 526.18109 : 1"
       inkscape:vp_y="0 : 1000 : 0"
       inkscape:vp_x="0 : 526.18109 : 1"
       sodipodi:type="inkscape:persp3d" />
    <inkscape:perspective
       id="perspective2455"
       inkscape:persp3d-origin="372.04724 : 350.78739 : 1"
       inkscape:vp_z="744.09448 : 526.18109 : 1"
       inkscape:vp_y="0 : 1000 : 0"
       inkscape:vp_x="0 : 526.18109 : 1"
       sodipodi:type="inkscape:persp3d" />
    <inkscape:perspective
       id="perspective2472"
       inkscape:persp3d-origin="372.04724 : 350.78739 : 1"
       inkscape:vp_z="744.09448 : 526.18109 : 1"
       inkscape:vp_y="0 : 1000 : 0"
       inkscape:vp_x="0 : 526.18109 : 1"
       sodipodi:type="inkscape:persp3d" />
    <inkscape:perspective
       id="perspective2487"
       inkscape:persp3d-origin="372.04724 : 350.78739 : 1"
       inkscape:vp_z="744.09448 : 526.18109 : 1"
       inkscape:vp_y="0 : 1000 : 0"
       inkscape:vp_x="0 : 526.18109 : 1"
       sodipodi:type="inkscape:persp3d" />
    <inkscape:perspective
       id="perspective2507"
       inkscape:persp3d-origin="372.04724 : 350.78739 : 1"
       inkscape:vp_z="744.09448 : 526.18109 : 1"
       inkscape:vp_y="0 : 1000 : 0"
       inkscape:vp_x="0 : 526.18109 : 1"
       sodipodi:type="inkscape:persp3d" />
    <inkscape:perspective
       id="perspective2519"
       inkscape:persp3d-origin="372.04724 : 350.78739 : 1"
       inkscape:vp_z="744.09448 : 526.18109 : 1"
       inkscape:vp_y="0 : 1000 : 0"
       inkscape:vp_x="0 : 526.18109 : 1"
       sodipodi:type="inkscape:persp3d" />
    <inkscape:perspective
       id="perspective2534"
       inkscape:persp3d-origin="372.04724 : 350.78739 : 1"
       inkscape:vp_z="744.09448 : 526.18109 : 1"
       inkscape:vp_y="0 : 1000 : 0"
       inkscape:vp_x="0 : 526.18109 : 1"
       sodipodi:type="inkscape:persp3d" />
    <inkscape:perspective
       id="perspective2555"
       inkscape:persp3d-origin="372.04724 : 350.78739 : 1"
       inkscape:vp_z="744.09448 : 526.18109 : 1"
       inkscape:vp_y="0 : 1000 : 0"
       inkscape:vp_x="0 : 526.18109 : 1"
       sodipodi:type="inkscape:persp3d" />
    <inkscape:perspective
       id="perspective2572"
       inkscape:persp3d-origin="372.04724 : 350.78739 : 1"
       inkscape:vp_z="744.09448 : 526.18109 : 1"
       inkscape:vp_y="0 : 1000 : 0"
       inkscape:vp_x="0 : 526.18109 : 1"
       sodipodi:type="inkscape:persp3d" />
    <inkscape:perspective
       id="perspective2587"
       inkscape:persp3d-origin="372.04724 : 350.78739 : 1"
       inkscape:vp_z="744.09448 : 526.18109 : 1"
       inkscape:vp_y="0 : 1000 : 0"
       inkscape:vp_x="0 : 526.18109 : 1"
       sodipodi:type="inkscape:persp3d" />
    <inkscape:perspective
       id="perspective2602"
       inkscape:persp3d-origin="372.04724 : 350.78739 : 1"
       inkscape:vp_z="744.09448 : 526.18109 : 1"
       inkscape:vp_y="0 : 1000 : 0"
       inkscape:vp_x="0 : 526.18109 : 1"
       sodipodi:type="inkscape:persp3d" />
  </defs>
  <sodipodi:namedview
     id="base"
     pagecolor="#ffffff"
     bordercolor="#666666"
     borderopacity="1.0"
     gridtolerance="10000"
     guidetolerance="10"
     objecttolerance="10"
     inkscape:pageopacity="0.0"
     inkscape:pageshadow="2"
     inkscape:zoom="0.74703258"
     inkscape:cx="140.87125"
     inkscape:cy="148.78639"
     inkscape:document-units="px"
     inkscape:current-layer="layer1"
     showgrid="true"
     width="300px"
     borderlayer="true"
     inkscape:showpageshadow="true"
     inkscape:window-width="1024"
     inkscape:window-height="718"
     inkscape:window-x="0"
     inkscape:window-y="22">
    <inkscape:grid
       type="xygrid"
       id="grid2396"
       visible="true"
       enabled="true"
       dotted="false" />
  </sodipodi:namedview>
  <metadata
     id="metadata7">
    <rdf:RDF>
      <cc:Work
         rdf:about="">
        <dc:format>image/svg+xml</dc:format>
        <dc:type
           rdf:resource="http://purl.org/dc/dcmitype/StillImage" />
      </cc:Work>
    </rdf:RDF>
  </metadata>
  <g
     inkscape:label="Layer 1"
     inkscape:groupmode="layer"
     id="layer1"
     transform="translate(-121.21427,-114.50503)">
    <path
       style="fill:#000000"
       d="M 302.55802,147.44253 C 294.1133,147.58755 283.63057,148.72405 276.43302,150.59878 C 269.66275,152.36221 262.93657,153.35126 261.46427,152.78628 C 259.99195,152.2213 258.21048,152.64877 257.52677,153.75503 C 256.84307,154.8613 257.76277,156.31614 259.55802,157.00503 C 261.35325,157.69392 262.80802,160.08676 262.80802,162.31753 C 262.80802,168.69707 256.6116,179.15753 253.52677,177.97378 C 252.01377,177.39319 249.01187,178.10166 246.87052,179.53628 C 240.75647,183.63246 198.66125,193.77704 193.96427,192.28628 C 191.64088,191.54886 189.74552,189.5876 189.74552,187.94253 C 189.74552,186.29747 188.80007,184.97378 187.65177,184.97378 C 185.02534,184.97378 184.96762,191.46143 187.52677,198.19253 C 188.90162,201.80865 192.46202,204.32737 199.52677,206.66128 C 217.84757,212.71376 230.51334,210.90712 245.46427,200.16128 C 249.12564,197.5297 252.6758,196.27524 253.33927,197.34878 C 254.00276,198.42232 253.58401,199.88744 252.43302,200.59878 C 251.28201,201.31014 250.66518,203.94796 251.05802,206.47378 C 251.62494,210.11893 249.14557,212.81064 239.02677,219.47378 C 226.39446,227.79205 221.41755,230.37819 201.21427,239.25503 C 195.47277,241.7777 188.82925,244.75244 186.43302,245.88003 C 183.31783,247.34593 179.90158,247.03993 174.43302,244.75503 C 165.96688,241.21765 165.36288,242.27255 169.80802,252.91128 C 173.26727,261.19043 179.54455,264.31754 192.71427,264.31753 C 199.80669,264.31753 203.81319,262.70383 211.90177,256.59878 C 217.52132,252.35727 222.57762,248.33351 223.15177,247.66128 C 223.72592,246.98905 229.12319,242.93205 235.15177,238.66128 C 248.38099,229.28943 249.2455,231.59428 239.87052,251.41128 C 231.46544,269.17812 221.20779,283.09878 216.52677,283.09878 C 214.42482,283.09878 212.71427,284.41033 212.71427,286.03628 C 212.71427,289.89523 198.39314,301.20324 191.21427,303.00503 C 181.71196,305.38995 186.69386,307.35749 203.12052,307.69253 C 219.89668,308.0347 231.0656,304.77458 239.30802,297.16128 C 243.48568,293.3025 244.82193,293.09959 252.12052,295.28628 C 259.83046,297.59624 261.77928,297.49169 270.65177,294.28628 C 277.7625,291.71737 284.63549,291.67732 286.21427,294.16128 C 289.00575,298.55321 288.00206,301.88003 283.90177,301.88003 C 281.71919,301.88003 274.91937,304.23925 268.77677,307.09878 C 262.63418,309.95832 255.94255,312.30631 253.93302,312.31753 C 251.9235,312.32875 250.30802,313.26299 250.30802,314.41128 C 250.30802,315.55958 251.71057,316.50503 253.43302,316.50503 C 257.48592,316.50503 257.48592,319.88729 253.43302,321.44253 C 250.19314,322.68579 249.34989,328.31323 251.55802,334.06753 C 252.94794,337.6896 268.73301,338.83307 272.30802,335.56753 C 273.3989,334.57108 277.3573,333.17106 281.08927,332.47378 L 287.87052,331.22378 L 288.21427,345.25503 C 288.40106,352.97735 288.64524,366.11732 288.74552,374.44253 C 288.86424,384.29802 289.75424,389.56752 291.30802,389.56753 C 295.60997,389.56749 296.87492,382.6566 297.83927,353.69253 C 298.60929,330.56469 299.37633,324.87311 301.96427,323.88003 C 307.03929,321.93257 308.09954,324.88011 303.52677,328.22378 C 300.58531,330.37465 300.08946,331.73608 301.83927,332.81753 C 303.64451,333.93323 303.89171,338.86148 302.68302,351.00503 C 301.77125,360.16567 301.32375,368.04164 301.71427,368.50503 C 304.3243,371.60192 310.18192,346.21203 310.74552,329.34878 C 310.81442,327.28731 314.00665,326.68026 322.83927,327.00503 C 340.80203,327.66547 342.15177,327.36516 342.15177,322.81753 C 342.15177,316.83773 331.92028,312.27004 320.43302,313.13003 C 312.2144,313.74531 310.83928,313.28132 310.83927,309.94253 C 310.83927,307.80086 312.02889,305.94999 313.46427,305.81753 C 314.89964,305.68508 317.00347,305.36557 318.15177,305.09878 C 319.30007,304.83199 322.6687,304.46118 325.65177,304.28628 C 330.09504,304.02576 331.10788,302.90894 331.24552,298.06753 C 331.41299,292.17789 331.38595,292.15086 321.65177,293.75503 C 307.37227,296.10825 306.65762,296.03007 307.93302,291.97378 C 308.92667,288.81363 308.66479,288.85407 305.83927,292.31753 C 303.90598,294.6873 303.28186,297.23059 304.33927,298.56753 C 306.39406,301.16556 305.95642,313.70471 303.62052,319.09878 C 300.44628,326.42873 298.30802,322.44956 298.30802,309.19253 C 298.30802,301.64513 299.22307,295.63003 300.37052,295.63003 C 301.50528,295.63003 302.20654,293.62021 301.93302,291.19253 C 301.53186,287.63219 303.23544,286.26896 310.65177,284.03628 C 321.08059,280.89669 323.88857,277.79291 322.33927,271.19253 C 321.66983,268.34062 322.46867,265.93434 324.46427,264.81753 C 326.22967,263.82958 328.24494,259.55768 328.93302,255.31753 C 329.94681,249.0703 329.53592,247.59879 326.77677,247.59878 C 321.15192,247.59878 322.33603,237.59894 328.05802,236.78628 C 330.6417,236.41935 332.81593,235.18458 332.87052,234.03628 C 333.04005,230.4703 341.39093,218.30668 342.74552,219.66128 C 345.52951,222.44526 348.0768,202.87578 345.30802,199.97378 C 344.96319,199.61236 339.92877,198.78568 334.12052,198.16128 C 325.13776,197.19559 320.91582,198.15912 305.99552,204.56753 C 296.34807,208.71118 286.88616,212.09878 284.96427,212.09878 C 279.93107,212.09878 278.13696,205.74249 282.30802,202.69253 C 284.21704,201.29661 285.77676,199.09506 285.77677,197.78628 C 285.77677,196.47749 287.08343,195.41128 288.68302,195.41128 C 290.28262,195.41128 292.14706,194.00873 292.80802,192.28628 C 293.46899,190.56383 295.76051,189.13003 297.90177,189.13003 C 302.9167,189.13003 317.08928,175.00284 317.08927,170.00503 C 317.08927,167.89981 318.11359,166.16128 319.33927,166.16128 C 320.70214,166.16128 320.97382,164.34664 320.05802,161.47378 C 319.23441,158.8901 318.48551,155.38373 318.37052,153.66128 C 318.25553,151.93883 317.20632,149.81742 316.05802,148.97378 C 314.47041,147.80739 309.12614,147.32973 302.55802,147.44253 z M 277.58927,166.16128 C 283.03333,166.16128 283.87477,166.87636 283.30802,170.84878 C 282.23266,178.38615 271.18302,177.7896 271.18302,170.19253 C 271.18302,167.11797 272.66536,166.16128 277.58927,166.16128 z M 268.71427,189.50503 C 268.88207,189.48638 269.0595,189.49717 269.21427,189.50503 C 271.07147,189.59941 272.0375,191.50393 269.87052,192.91128 C 268.64058,193.71007 267.0887,195.78258 266.43302,197.50503 C 265.6217,199.63636 265.17021,199.14941 265.05802,196.03628 C 264.96737,193.52037 265.89583,190.85568 267.12052,190.09878 C 267.67259,189.75759 268.21087,189.56098 268.71427,189.50503 z M 304.05802,223.50503 C 306.35219,223.54306 306.68694,227.39248 303.80802,231.78628 C 302.04632,234.47498 296.21098,239.12773 290.83927,242.13003 C 285.46756,245.13233 280.73754,247.59879 280.30802,247.59878 C 279.8785,247.59878 279.52677,242.98652 279.52677,237.34878 L 279.52677,227.09878 L 288.83927,227.25503 C 293.95778,227.33241 299.51396,226.23398 301.18302,224.84878 C 302.33663,223.89137 303.2933,223.49235 304.05802,223.50503 z M 264.46427,225.53628 C 264.6063,225.53316 264.74646,225.59654 264.90177,225.69253 C 266.05007,226.40221 266.99551,229.72165 266.99552,233.09878 C 266.99552,236.47592 266.05006,239.25503 264.90177,239.25503 C 263.75347,239.25503 262.80802,235.90435 262.80802,231.81753 C 262.80802,227.94822 263.47009,225.55815 264.46427,225.53628 z M 265.80802,243.00503 C 265.97006,242.91764 266.14076,243.21201 266.33927,243.97378 C 266.86861,246.00516 266.84867,248.84151 266.27677,250.25503 C 265.70486,251.66854 265.26545,250.01244 265.30802,246.56753 C 265.33461,244.41447 265.53796,243.15069 265.80802,243.00503 z M 310.93302,249.84878 C 312.90046,249.70389 312.80884,253.4225 310.55802,260.53628 C 308.04723,268.47176 306.29787,270.17792 295.77677,275.19253 C 283.18072,281.19613 273.24552,284.36347 273.24552,282.34878 C 273.24552,278.12318 284.31991,258.03628 286.65177,258.03628 C 288.21772,258.03628 289.97884,256.79562 290.55802,255.28628 C 291.19533,253.62549 294.38828,252.74327 298.62052,253.03628 C 302.46683,253.30256 306.81015,252.53471 308.27677,251.31753 C 309.38521,250.3976 310.27721,249.89708 310.93302,249.84878 z M 263.49552,256.38003 C 263.9259,256.43458 264.5277,256.84971 265.27677,257.59878 C 266.6356,258.9576 267.27631,260.53675 266.68302,261.13003 C 265.28963,262.52342 262.80802,260.07304 262.80802,257.28628 C 262.80802,256.63216 263.06514,256.32548 263.49552,256.38003 z M 259.27677,276.88003 C 259.36504,276.89066 259.43565,276.94516 259.49552,277.00503 C 259.9944,277.50392 260.71508,280.72495 261.08927,284.16128 C 261.71161,289.87637 261.18349,290.45883 254.83927,291.06753 C 248.64445,291.66189 248.15301,291.3341 250.12052,287.94253 C 253.58702,281.96704 257.95266,276.72063 259.27677,276.88003 z M 286.27677,309.19253 C 286.62811,309.07103 287.24174,310.07117 288.08927,312.19253 C 290.92202,319.2829 288.98098,322.76217 282.18302,322.84878 C 278.98916,322.88947 274.05377,324.23897 271.18302,325.88003 C 265.13705,329.33622 257.34183,329.92254 255.55802,327.03628 C 253.89264,324.34165 262.2123,319.32326 271.18302,317.59878 C 283.80785,315.17187 285.79706,314.2388 285.93302,310.63003 C 285.96616,309.7504 286.06597,309.26543 286.27677,309.19253 z"
       id="path2610"
       inkscape:export-filename="E:\MyWork\Recent\Calligraphy Vectorization Project\PNG\26群.png"
       inkscape:export-xdpi="90"
       inkscape:export-ydpi="90" />
  </g>
</svg>
