<?xml version="1.0" encoding="UTF-8" standalone="no"?>
<!-- Created with Inkscape (http://www.inkscape.org/) -->

<svg
   xmlns:dc="http://purl.org/dc/elements/1.1/"
   xmlns:cc="http://creativecommons.org/ns#"
   xmlns:rdf="http://www.w3.org/1999/02/22-rdf-syntax-ns#"
   xmlns:svg="http://www.w3.org/2000/svg"
   xmlns="http://www.w3.org/2000/svg"
   xmlns:sodipodi="http://sodipodi.sourceforge.net/DTD/sodipodi-0.dtd"
   xmlns:inkscape="http://www.inkscape.org/namespaces/inkscape"
   width="81.844368mm"
   height="71.65992mm"
   viewBox="0 0 289.99973 253.9131"
   id="svg3355"
   version="1.1"
   inkscape:version="0.91 r13725"
   sodipodi:docname="180知.svg">
  <defs
     id="defs3357" />
  <sodipodi:namedview
     id="base"
     pagecolor="#ffffff"
     bordercolor="#666666"
     borderopacity="1.0"
     inkscape:pageopacity="0.0"
     inkscape:pageshadow="2"
     inkscape:zoom="0.35"
     inkscape:cx="291.42844"
     inkscape:cy="344.09941"
     inkscape:document-units="px"
     inkscape:current-layer="layer1"
     showgrid="false"
     inkscape:window-width="1280"
     inkscape:window-height="751"
     inkscape:window-x="0"
     inkscape:window-y="1"
     inkscape:window-maximized="1"
     fit-margin-top="0"
     fit-margin-left="0"
     fit-margin-right="0"
     fit-margin-bottom="0" />
  <metadata
     id="metadata3360">
    <rdf:RDF>
      <cc:Work
         rdf:about="">
        <dc:format>image/svg+xml</dc:format>
        <dc:type
           rdf:resource="http://purl.org/dc/dcmitype/StillImage" />
        <dc:title />
      </cc:Work>
    </rdf:RDF>
  </metadata>
  <g
     inkscape:label="Layer 1"
     inkscape:groupmode="layer"
     id="layer1"
     transform="translate(-83.571561,-622.54851)">
    <path
       style="fill:#000000"
       d="M 216.4783,874.46827 C 206.6163,868.73127 197.8983,848.99227 197.8983,832.39927 C 197.8983,814.43427 194.2613,814.07427 189.2413,831.54627 C 185.7443,843.71927 177.6223,857.33227 170.5513,862.86827 C 165.0613,867.17027 144.9243,870.25127 136.3663,868.10227 C 129.4113,866.35727 121.0413,859.49027 121.0413,855.52827 C 121.0413,854.27627 125.4803,853.25327 130.9043,853.25327 C 143.6983,853.25327 157.9413,841.95527 169.7363,822.45227 C 178.2943,808.29927 183.7233,790.95127 180.5773,787.80627 C 178.9423,786.17127 134.2713,807.33627 117.7373,817.58227 C 107.7563,823.76727 107.3963,823.79227 98.424297,818.96427 C 93.395297,816.25827 87.666297,811.46427 85.698297,808.31027 C 82.366297,802.97527 82.591297,802.69527 88.954297,804.29227 C 95.915297,806.04127 100.7183,804.15427 160.4803,776.22827 L 187.5663,763.57227 L 185.9203,747.82127 C 184.5253,734.48927 185.0223,731.66827 189.1513,729.45827 C 192.8343,727.48827 196.9903,728.83827 206.1363,734.98127 C 212.7983,739.45527 223.5493,744.45127 230.0303,746.08127 C 238.4823,748.20827 241.8163,750.45627 241.8163,754.01627 C 241.8163,761.48327 236.2033,765.67927 218.2663,771.62527 C 209.3283,774.58527 201.1073,778.28927 199.9983,779.86027 C 196.3503,785.01727 197.8103,799.20627 202.7023,806.11527 C 205.3423,809.84827 210.5913,818.68427 214.3683,825.74527 C 218.1423,832.81227 224.1993,841.99527 227.8313,846.15727 C 234.1033,853.34627 234.2413,854.27327 230.5753,864.67927 C 226.3353,876.72427 223.6113,878.61527 216.4783,874.46827 Z M 208.1593,753.15227 C 210.7823,751.12327 210.2723,748.72227 205.9133,742.60127 C 195.9583,728.62127 189.1533,734.61327 194.0883,753.01227 C 195.7023,759.03127 200.4923,759.08027 208.1593,753.14927 Z M 282.9903,852.93127 C 282.9903,851.54827 284.0283,850.00627 285.2983,849.50027 C 288.5233,848.22427 307.6933,822.63427 307.6933,819.60927 C 307.6933,818.24227 302.4423,817.83027 296.0283,818.69127 C 285.7323,820.07527 283.5023,819.34127 277.0313,812.46427 C 268.0383,802.90027 259.5103,777.79527 257.0423,753.63027 C 256.0273,743.67427 253.4193,732.10727 251.2513,727.92427 C 246.7163,719.18727 246.5303,718.20427 249.4013,718.20427 C 251.8343,718.20427 251.9103,718.34227 272.9743,760.32227 C 281.8073,777.93027 290.3073,793.12127 291.8653,794.08427 C 295.6443,796.42027 335.9653,753.32727 343.7793,738.60227 C 348.8563,729.03027 349.3393,726.20027 346.4923,722.76627 C 342.5403,718.00427 338.2043,718.51527 315.3463,726.42327 C 299.5993,731.87527 298.5033,731.91027 284.2683,727.42227 C 269.6633,722.81627 266.7323,718.23727 278.3493,718.16927 C 281.6563,718.16927 293.6253,715.18227 304.9493,711.57227 C 323.9693,705.51227 335.4833,703.45327 346.2603,704.18927 C 348.5983,704.35327 355.7023,707.84427 362.0423,711.95427 C 370.7713,717.61727 373.5713,721.18527 373.5713,726.65927 C 373.5713,735.81527 360.4403,752.89727 335.3703,776.35227 L 315.7613,794.70227 L 324.7433,795.56627 C 340.7373,797.10927 337.9303,804.30427 310.9223,831.00527 C 286.5473,855.10327 282.9903,857.89427 282.9903,852.93127 Z M 159.5333,715.57727 C 157.2303,711.27727 158.8993,705.55827 167.9213,686.83527 C 181.1303,659.42527 184.0333,644.35827 177.9043,635.00427 C 175.2613,630.96827 174.5553,627.11527 176.0303,624.73027 C 177.9593,621.60627 178.7173,621.77427 180.2023,625.64127 C 181.2023,628.24027 183.4273,630.40627 185.1543,630.45227 C 186.8803,630.51227 190.5973,633.70327 193.4163,637.57027 C 198.6313,644.72927 199.8333,659.22727 196.4763,674.51127 C 194.3623,684.13227 195.8733,684.33627 210.7633,676.44927 C 225.1853,668.80927 237.2103,671.59127 238.5303,682.86427 C 239.1903,688.51527 237.7883,690.53827 231.6693,692.74827 C 227.4363,694.27627 215.9453,698.65027 206.1323,702.46827 C 186.6363,710.05527 181.8493,709.75327 192.4503,701.60927 C 199.2413,696.39127 199.2433,696.36527 193.1463,696.30527 C 188.8893,696.28527 186.5023,698.32327 185.3133,703.06027 C 184.3723,706.80727 179.5713,712.36527 174.6433,715.41227 C 163.6173,722.22827 163.0963,722.23427 159.5333,715.57727 Z"
       id="path3729"
       inkscape:connector-curvature="0" />
  </g>
</svg>
