<?xml version="1.0" encoding="UTF-8" standalone="no"?>
<!-- Created with Inkscape (http://www.inkscape.org/) -->

<svg
   xmlns:dc="http://purl.org/dc/elements/1.1/"
   xmlns:cc="http://creativecommons.org/ns#"
   xmlns:rdf="http://www.w3.org/1999/02/22-rdf-syntax-ns#"
   xmlns:svg="http://www.w3.org/2000/svg"
   xmlns="http://www.w3.org/2000/svg"
   xmlns:sodipodi="http://sodipodi.sourceforge.net/DTD/sodipodi-0.dtd"
   xmlns:inkscape="http://www.inkscape.org/namespaces/inkscape"
   width="59.26582mm"
   height="84.666664mm"
   viewBox="0 0 209.997 299.99999"
   id="svg2"
   version="1.1"
   inkscape:version="0.91 r13725"
   sodipodi:docname="181.svg">
  <defs
     id="defs4" />
  <sodipodi:namedview
     id="base"
     pagecolor="#ffffff"
     bordercolor="#666666"
     borderopacity="1.0"
     inkscape:pageopacity="0.0"
     inkscape:pageshadow="2"
     inkscape:zoom="0.98994949"
     inkscape:cx="54.878544"
     inkscape:cy="70.111723"
     inkscape:document-units="px"
     inkscape:current-layer="layer1"
     showgrid="false"
     fit-margin-top="0"
     fit-margin-left="0"
     fit-margin-right="0"
     fit-margin-bottom="0"
     inkscape:window-width="1280"
     inkscape:window-height="751"
     inkscape:window-x="2"
     inkscape:window-y="0"
     inkscape:window-maximized="0" />
  <metadata
     id="metadata7">
    <rdf:RDF>
      <cc:Work
         rdf:about="">
        <dc:format>image/svg+xml</dc:format>
        <dc:type
           rdf:resource="http://purl.org/dc/dcmitype/StillImage" />
        <dc:title></dc:title>
      </cc:Work>
    </rdf:RDF>
  </metadata>
  <g
     inkscape:label="Layer 1"
     inkscape:groupmode="layer"
     id="layer1"
     transform="translate(-246.95974,-249.51525)">
    <path
       style="fill:#000000"
       d="M 342.76628,249.53522 C 337.75942,249.85527 333.03896,254.02943 327.40422,262.33993 L 321.47271,271.08765 L 327.81035,270.42265 C 331.29578,270.05706 335.2755,270.45126 336.6518,271.30188 C 339.08948,272.80843 339.07174,294.17661 336.62502,303.86484 C 335.17054,309.62407 311.49126,317.57556 295.79637,317.57556 L 284.87064,317.57556 L 292.36869,323.79716 C 296.49301,327.21959 301.66627,330.04742 303.8657,330.08124 C 306.06513,330.11506 307.86466,331.31384 307.86466,332.74572 C 307.86466,334.52683 311.4735,334.92563 319.29026,333.99986 C 326.32265,333.16698 330.71586,333.52739 330.71586,334.94158 C 330.71586,342.01643 323.0836,369.06245 319.35719,375.19004 C 315.12819,382.1441 312.29057,383.88209 288.74908,393.9307 C 276.76459,399.04624 276.59604,398.85372 281.76429,386.20505 C 283.24809,382.57365 282.33653,382.88102 277.03338,387.79837 C 273.42347,391.14569 269.63053,393.36545 268.60255,392.73012 C 267.57456,392.09479 266.7325,397.72836 266.7325,405.25365 C 266.7325,429.13263 274.74225,431.38697 301.09856,414.91633 C 309.21871,409.84188 320.74702,402.92434 326.7169,399.54533 C 332.68678,396.1663 337.6932,391.7663 337.83899,389.76662 C 338.05953,386.74171 338.27739,386.78664 339.13331,390.04332 C 339.76683,392.45392 334.61462,400.88091 325.72607,411.97958 C 302.03244,441.56467 291.15744,456.20438 282.99165,469.50481 C 251.29688,521.1291 245.2869,533.4554 247.31343,542.68222 C 248.13907,546.44124 249.5143,549.51525 250.36622,549.51525 C 252.17219,549.51525 262.48711,533.2069 272.04808,515.23845 C 275.72618,508.32596 280.14921,501.04829 281.87587,499.06409 C 283.60251,497.0799 285.01346,494.65518 285.01346,493.67708 C 285.01346,491.96934 314.15907,449.03203 316.9114,446.68484 C 317.64829,446.05644 323.23778,439.62954 329.33229,432.40284 C 335.4268,425.17615 341.13322,419.2634 342.01203,419.2634 C 342.89087,419.2634 342.84021,424.662 341.90045,431.26028 C 339.43547,448.5679 339.49319,484.28442 341.99864,490.87425 C 343.1774,493.97461 347.69513,499.21637 352.03619,502.52747 C 358.64387,507.56739 362.35849,508.5685 374.83831,508.66427 C 414.76356,508.97071 458.40924,495.18115 456.91964,482.73351 C 455.7335,472.82171 441.74409,446.68542 437.62555,446.68484 C 435.47034,446.68455 432.6064,444.62824 431.26115,442.1146 C 427.24724,434.61457 424.7395,436.90318 426.87835,446.11356 C 429.78151,458.61516 429.40789,472.64477 426.04822,477.23941 C 421.60341,483.31804 398.02764,490.33279 377.56082,491.66424 C 361.09352,492.73548 358.76978,492.36586 354.13834,487.95983 C 346.93793,481.10984 347.54949,471.85208 356.99474,444.7166 C 361.3936,432.07902 364.99266,420.15202 364.99266,418.21458 C 364.99266,412.0998 376.79773,415.00504 390.88771,424.58346 C 396.36423,428.30642 398.17044,428.54252 402.66588,426.13661 C 405.58643,424.57359 409.09969,423.9915 410.47636,424.84232 C 411.853,425.69314 412.98018,425.1573 412.98018,423.65065 C 412.98018,422.144 414.71121,419.64712 416.82293,418.103 C 420.31846,415.547 420.1649,415.03355 415.10909,412.36787 C 412.05476,410.75746 409.03835,408.73183 408.40994,407.86904 C 405.88192,404.39808 390.97841,400.98244 378.36418,400.98244 C 360.9129,400.98244 361.00494,397.97534 378.93992,382.31319 C 408.0757,356.86966 419.83554,343.78495 419.83554,336.81609 C 419.83554,331.48093 418.64226,329.97412 413.55146,328.88512 C 410.09522,328.14579 404.97438,326.61618 402.17049,325.48422 C 398.1716,323.86978 396.57051,324.36518 394.74385,327.77828 C 393.46309,330.17144 392.38259,333.99401 392.34269,336.27607 C 392.22131,343.21728 378.43479,354.36275 361.91755,360.86787 C 353.31296,364.25668 345.89283,366.6455 345.42632,366.17899 C 344.95981,365.71248 345.54279,361.78406 346.72509,357.44912 C 347.90739,353.11418 350.45345,343.73356 352.37985,336.60186 C 355.58645,324.73091 356.6022,323.40104 364.43477,320.87827 C 375.77699,317.22509 378.70338,314.64553 378.70338,308.29226 C 378.70338,305.3783 379.73169,302.35648 380.9885,301.57972 C 384.53873,299.38555 383.67928,291.75228 379.62723,289.48465 C 374.82924,286.79954 364.93457,288.78837 363.41716,292.74272 C 362.75752,294.46171 361.27962,295.86692 360.12785,295.86692 C 358.91488,295.86692 358.63873,288.41521 359.47622,278.15724 C 360.83511,261.51324 360.59778,260.15735 355.53083,255.64524 C 350.72682,251.36726 346.66051,249.2863 342.76628,249.53522 Z"
       id="path3417"
       inkscape:connector-curvature="0" />
  </g>
</svg>
