<?xml version="1.0" encoding="UTF-8" standalone="no"?>
<!-- Created with Inkscape (http://www.inkscape.org/) -->

<svg
   xmlns:dc="http://purl.org/dc/elements/1.1/"
   xmlns:cc="http://creativecommons.org/ns#"
   xmlns:rdf="http://www.w3.org/1999/02/22-rdf-syntax-ns#"
   xmlns:svg="http://www.w3.org/2000/svg"
   xmlns="http://www.w3.org/2000/svg"
   xmlns:sodipodi="http://sodipodi.sourceforge.net/DTD/sodipodi-0.dtd"
   xmlns:inkscape="http://www.inkscape.org/namespaces/inkscape"
   width="69.355568mm"
   height="84.666664mm"
   viewBox="0 0 245.74808 299.99999"
   id="svg3480"
   version="1.1"
   inkscape:version="0.91 r13725"
   sodipodi:docname="182.svg">
  <defs
     id="defs3482" />
  <sodipodi:namedview
     id="base"
     pagecolor="#ffffff"
     bordercolor="#666666"
     borderopacity="1.0"
     inkscape:pageopacity="0.0"
     inkscape:pageshadow="2"
     inkscape:zoom="1.979899"
     inkscape:cx="10.35898"
     inkscape:cy="25.902041"
     inkscape:document-units="px"
     inkscape:current-layer="layer1"
     showgrid="false"
     fit-margin-top="0"
     fit-margin-left="0"
     fit-margin-right="0"
     fit-margin-bottom="0"
     inkscape:window-width="1280"
     inkscape:window-height="751"
     inkscape:window-x="0"
     inkscape:window-y="1"
     inkscape:window-maximized="1" />
  <metadata
     id="metadata3485">
    <rdf:RDF>
      <cc:Work
         rdf:about="">
        <dc:format>image/svg+xml</dc:format>
        <dc:type
           rdf:resource="http://purl.org/dc/dcmitype/StillImage" />
        <dc:title></dc:title>
      </cc:Work>
    </rdf:RDF>
  </metadata>
  <g
     inkscape:label="Layer 1"
     inkscape:groupmode="layer"
     id="layer1"
     transform="translate(-364.64102,-258.26425)">
    <path
       style="fill:#000000"
       d="M 569.31519,554.1815 C 564.12185,552.07418 545.42585,547.81134 527.76852,544.70852 C 492.88217,538.57816 427.72657,522.02419 418.00408,516.82085 C 407.65806,511.28382 402.40497,502.51324 404.8398,494.84169 C 406.12427,490.79474 426.23542,472.154 449.53124,453.41789 C 497.35183,414.95723 534.06231,378.8128 522.10307,381.9651 C 517.9484,383.06023 500.10222,389.30145 482.44489,395.83451 C 413.42028,421.37294 403.62686,423.96051 393.4846,419.33938 C 388.28549,416.97054 382.89976,412.0433 381.51629,408.38999 C 380.13283,404.73668 376.78126,399.50168 374.06834,396.75662 C 371.35545,394.01159 369.1358,388.70023 369.1358,384.95359 C 369.1358,381.20699 368.12448,372.40529 366.88839,365.39429 L 364.64102,352.64702 L 374.71609,364.92217 C 381.72814,373.46541 388.01597,377.19732 395.39828,377.19732 C 407.50226,377.19732 494.66871,363.89181 520.21458,358.14474 C 555.02653,350.31308 562.08916,350.05345 574.90329,356.13414 C 583.64346,360.28159 589.00321,366.29816 591.9724,375.29482 C 600.29714,400.51912 590.5796,410.58607 539.08704,430.08146 C 504.02241,443.35713 471.06409,457.55389 455.46607,466.10102 C 449.97575,469.10957 438.50321,475.29704 429.97153,479.85097 C 421.43988,484.4049 414.45944,490.61586 414.45944,493.65307 C 414.45944,498.35226 419.94783,498.67002 451.28489,495.7851 C 471.53889,493.92048 511.05543,492.43644 539.09943,492.48724 C 582.23541,492.56534 591.68822,493.65024 600.47519,499.53132 C 612.47813,507.56482 613.17509,514.119 604.76167,539.84156 C 599.45782,556.05707 597.36221,558.46062 588.70955,558.25243 C 583.23596,558.12077 574.50852,556.28886 569.31519,554.1815 Z M 468.68373,338.48338 C 453.62763,322.36479 446.14572,304.63078 443.23466,278.16276 C 441.22233,259.86602 441.72927,256.89026 446.5437,258.73777 C 449.67069,259.93767 452.22913,263.2026 452.22913,265.99314 C 452.22913,268.78368 454.95622,272.59298 458.28932,274.45827 C 469.86361,280.93555 501.32974,314.19479 501.32974,319.95134 C 501.32974,325.9157 485.96873,350.68673 482.24157,350.73274 C 481.09107,350.7469 474.99006,345.23471 468.68373,338.48338 Z"
       id="path3582"
       inkscape:connector-curvature="0" />
  </g>
</svg>
