<?xml version="1.0" encoding="UTF-8" standalone="no"?>
<!-- Created with Inkscape (http://www.inkscape.org/) -->

<svg
   xmlns:dc="http://purl.org/dc/elements/1.1/"
   xmlns:cc="http://creativecommons.org/ns#"
   xmlns:rdf="http://www.w3.org/1999/02/22-rdf-syntax-ns#"
   xmlns:svg="http://www.w3.org/2000/svg"
   xmlns="http://www.w3.org/2000/svg"
   xmlns:sodipodi="http://sodipodi.sourceforge.net/DTD/sodipodi-0.dtd"
   xmlns:inkscape="http://www.inkscape.org/namespaces/inkscape"
   width="81.357559mm"
   height="84.666664mm"
   viewBox="0 0 288.27482 299.99999"
   id="svg2"
   version="1.1"
   inkscape:version="0.91 r13725"
   sodipodi:docname="183.svg">
  <defs
     id="defs4" />
  <sodipodi:namedview
     id="base"
     pagecolor="#ffffff"
     bordercolor="#666666"
     borderopacity="1.0"
     inkscape:pageopacity="0.0"
     inkscape:pageshadow="2"
     inkscape:zoom="0.7"
     inkscape:cx="14.387262"
     inkscape:cy="58.463852"
     inkscape:document-units="px"
     inkscape:current-layer="layer1"
     showgrid="true"
     fit-margin-top="0"
     fit-margin-left="0"
     fit-margin-right="0"
     fit-margin-bottom="0"
     inkscape:window-width="1280"
     inkscape:window-height="751"
     inkscape:window-x="0"
     inkscape:window-y="1"
     inkscape:window-maximized="1">
    <inkscape:grid
       type="xygrid"
       id="grid3423"
       originx="-360.61275"
       originy="-491.84071" />
  </sodipodi:namedview>
  <metadata
     id="metadata7">
    <rdf:RDF>
      <cc:Work
         rdf:about="">
        <dc:format>image/svg+xml</dc:format>
        <dc:type
           rdf:resource="http://purl.org/dc/dcmitype/StillImage" />
        <dc:title></dc:title>
      </cc:Work>
    </rdf:RDF>
  </metadata>
  <g
     inkscape:label="Layer 1"
     inkscape:groupmode="layer"
     id="layer1"
     transform="translate(-360.61274,-260.52148)">
    <path
       style="fill:#000000"
       d="M 540.14914,260.5376 C 531.94267,260.78567 523.71844,263.89804 519.10846,270.13341 C 511.9207,279.85538 511.91637,279.85993 520.06922,277.81368 C 529.57664,275.42747 530.10006,277.78633 523.53169,293.50659 C 510.28897,325.20093 470.0214,373.68762 454.34276,376.82334 C 442.35351,379.22121 444.83946,384.17464 458.02278,384.1592 C 468.71966,384.14667 484.58227,375.8334 498.02545,363.19707 C 509.09077,352.7959 511.913,355.83884 501.94717,367.42697 C 493.42305,377.33868 492.67792,379.77501 497.28824,382.62433 C 508.79704,389.73716 472.18504,430.57922 454.30046,430.57922 C 450.57106,430.57922 447.78643,432.56387 447.78643,435.22001 C 447.78643,446.9534 442.24816,438.13069 440.50499,423.61802 C 436.27942,388.43826 441.06213,346.28536 452.43932,318.39044 C 454.15805,314.17641 453.5007,313.38206 449.55092,314.89774 C 445.31165,316.5245 444.57534,314.96009 445.20014,305.68261 C 446.08855,292.49171 441.82415,288.50659 416.98074,279.29415 C 398.5685,272.46652 395.44559,272.60596 402.77433,279.93467 C 408.45009,285.61043 410.10546,370.63648 404.47234,367.15502 C 402.77071,366.10335 401.37848,362.40262 401.37848,358.93694 C 401.37848,346.94797 376.60879,311.99793 371.6363,316.97039 C 370.43214,318.17458 371.7535,321.71572 374.57909,324.83799 C 378.47358,329.14133 379.72143,336.5559 379.72143,355.4926 C 379.72143,380.47326 379.7184,380.47759 391.27509,389.7487 C 402.83176,399.0198 402.83213,399.01581 391.2328,415.56915 C 370.84811,444.66004 371.19137,444.33441 365.89573,439.93939 C 356.56281,432.19378 360.53703,452.90624 370.48213,463.83825 C 385.22959,480.04926 393.04113,477.746 399.87384,455.17908 C 402.98973,444.88802 406.5141,435.86551 407.70518,435.12939 C 409.38598,434.0906 414.66223,494.01514 415.20418,520.30126 C 415.32957,526.38357 402.49357,524.8751 392.09688,517.58809 C 387.84282,514.60644 382.29095,510.92716 379.76372,509.41231 C 374.22753,506.09389 395.53921,536.33517 408.6962,550.46642 C 413.84523,555.9967 418.90209,560.52148 419.92959,560.52148 C 423.69949,560.52148 429.22325,552.94687 429.22325,547.77742 C 429.22325,540.19251 439.32991,523.43645 443.9191,523.41325 C 449.21923,523.38646 449.17436,524.05281 446.59603,481.62796 C 445.31777,460.59483 445.66892,452.91809 447.69581,457.65052 C 451.27875,466.01605 457.61811,466.45677 469.94502,459.19745 C 480.23183,453.13954 480.56712,453.40122 516.1596,495.51412 C 530.39301,512.35507 530.39202,512.35603 536.06428,500.40264 C 541.73654,488.44925 541.73626,488.44684 532.84351,481.35604 C 527.95251,477.45607 520.87106,473.4902 517.1083,472.5458 C 508.58462,470.40652 484.91279,455.10458 484.91279,451.73474 C 484.91279,448.61672 514.05116,433.67308 520.12968,433.67308 C 522.59688,433.67308 525.07943,432.57092 525.64666,431.2258 C 526.88324,428.29322 559.54284,417.5478 561.44361,419.44858 C 570.51083,428.51579 572.68953,504.03156 564.21723,515.61817 C 557.55884,524.72409 534.99217,526.90737 521.04815,519.79368 C 501.45784,509.79945 504.3381,515.91567 525.54997,529.35325 C 536.37992,536.21395 546.68094,543.02485 548.43974,544.48416 C 572.4014,564.36582 605.74978,522.09644 599.13195,480.2321 C 597.68742,471.09422 593.79336,455.13583 590.47881,444.77355 C 578.69633,407.93761 579.53207,406.73685 617.17545,406.13649 C 627.8106,405.96688 636.5121,404.43607 636.5121,402.73445 C 636.5121,401.03282 639.29657,399.64058 642.69982,399.64058 C 647.45453,399.64058 648.88755,397.57732 648.88755,390.73366 C 648.88755,374.88862 621.13649,369.45555 588.55721,378.92621 C 567.47869,385.05363 566.52154,383.27995 580.85881,364.65938 C 618.96769,315.16543 617.66979,278.97991 577.78911,278.97991 C 568.81397,278.97991 565.30633,277.52669 563.95135,273.2575 C 561.21541,264.63731 550.7003,260.21866 540.14914,260.5376 Z M 568.48336,285.16763 C 585.13951,285.16763 588.40951,296.40238 577.99458,317.84053 C 569.2218,335.89846 551.43265,355.5457 549.17694,349.66745 C 547.95892,346.49333 543.32793,345.08206 534.71072,345.25025 C 519.71117,345.54302 519.68552,345.44411 531.44159,331.6904 C 536.47734,325.799 540.60233,319.88409 540.60233,318.54754 C 540.60233,312.44434 563.38588,285.16763 568.48336,285.16763 Z M 547.39435,395.93039 C 548.98416,396.04598 549.88392,396.58026 549.88392,397.61023 C 549.88392,398.63013 538.39795,405.22516 524.35955,412.26986 C 510.32114,419.31452 491.27516,429.10242 482.03648,434.01752 C 463.52457,443.86612 450.52688,446.18497 456.89884,438.50724 C 458.92641,436.06417 464.57376,433.19573 469.44347,432.12615 C 474.31318,431.05657 479.99367,428.12928 482.07271,425.62421 C 491.1791,414.6517 536.26551,395.12122 547.39435,395.93039 Z"
       id="path3419"
       inkscape:connector-curvature="0" />
  </g>
</svg>
