<?xml version="1.0" encoding="UTF-8" standalone="no"?>
<!-- Created with Inkscape (http://www.inkscape.org/) -->

<svg
   xmlns:dc="http://purl.org/dc/elements/1.1/"
   xmlns:cc="http://creativecommons.org/ns#"
   xmlns:rdf="http://www.w3.org/1999/02/22-rdf-syntax-ns#"
   xmlns:svg="http://www.w3.org/2000/svg"
   xmlns="http://www.w3.org/2000/svg"
   xmlns:sodipodi="http://sodipodi.sourceforge.net/DTD/sodipodi-0.dtd"
   xmlns:inkscape="http://www.inkscape.org/namespaces/inkscape"
   width="58.414555mm"
   height="84.666664mm"
   viewBox="0 0 206.98071 299.99999"
   id="svg3476"
   version="1.1"
   inkscape:version="0.91 r13725"
   sodipodi:docname="184.svg">
  <defs
     id="defs3478" />
  <sodipodi:namedview
     id="base"
     pagecolor="#ffffff"
     bordercolor="#666666"
     borderopacity="1.0"
     inkscape:pageopacity="0.0"
     inkscape:pageshadow="2"
     inkscape:zoom="0.7"
     inkscape:cx="351.73331"
     inkscape:cy="101.968"
     inkscape:document-units="px"
     inkscape:current-layer="layer1"
     showgrid="true"
     fit-margin-top="0"
     fit-margin-left="0"
     fit-margin-right="0"
     fit-margin-bottom="0"
     inkscape:window-width="1280"
     inkscape:window-height="751"
     inkscape:window-x="0"
     inkscape:window-y="1"
     inkscape:window-maximized="1">
    <inkscape:grid
       type="xygrid"
       id="grid3583"
       originx="-237.5524"
       originy="-346.60342" />
  </sodipodi:namedview>
  <metadata
     id="metadata3481">
    <rdf:RDF>
      <cc:Work
         rdf:about="">
        <dc:format>image/svg+xml</dc:format>
        <dc:type
           rdf:resource="http://purl.org/dc/dcmitype/StillImage" />
        <dc:title></dc:title>
      </cc:Work>
    </rdf:RDF>
  </metadata>
  <g
     inkscape:label="Layer 1"
     inkscape:groupmode="layer"
     id="layer1"
     transform="translate(-237.5524,-405.75878)">
    <path
       style="fill:#000000"
       d="M 361.81817,405.76699 C 350.42258,405.48725 332.94477,412.35681 305.74535,426.2837 C 283.21645,437.81913 259.65398,447.56593 251.26311,448.82423 C 231.265,451.82312 232.57793,454.21933 258.93752,462.86101 C 277.90339,469.07876 283.17494,469.67722 292.84116,466.71059 C 299.13638,464.77855 304.90597,463.82265 305.66489,464.58157 C 310.95859,469.87524 277.96211,522.29827 262.79331,532.69211 C 250.36659,541.20704 248.05401,557.87991 258.30623,565.06085 C 267.14663,571.25293 292.51059,568.58369 294.42556,561.26076 C 295.247,558.11957 301.28904,553.00466 307.84962,549.89147 C 319.67553,544.27969 319.82906,544.29145 325.66171,551.49444 C 331.82536,559.10624 333.97387,583.4114 328.48393,583.4114 C 322.62087,583.4114 303.31143,602.87776 295.74384,616.41764 C 284.43045,636.65949 296.7821,656.40112 317.50453,651.20011 C 325.29596,649.24459 325.53625,649.51314 321.56458,655.87285 C 319.24505,659.58696 316.30159,662.63129 315.02273,662.63129 C 303.67556,662.63129 303.53252,694.7791 314.84325,703.2748 C 323.02042,709.41684 355.58584,703.712 383.83265,691.18759 C 387.31832,689.64204 393.73513,687.40487 398.09223,686.21777 C 424.31223,679.07407 421.21325,657.46717 392.70153,648.61926 C 380.80898,644.92869 371.49735,626.38112 375.61358,614.57327 C 381.62032,597.34232 379.91579,586.73537 369.57307,577.07381 C 364.34455,572.18965 359.96636,566.26664 359.84385,563.9159 C 359.72138,561.56519 358.50171,562.49735 357.13925,565.98303 C 353.17417,576.12713 349.45404,560.60688 351.91568,544.19138 C 353.84697,531.3127 354.38994,530.80265 371.65259,525.59946 C 387.34345,520.87006 390.17429,520.78716 396.03745,524.89389 C 405.71093,531.66944 417.35837,530.82642 419.35161,523.20429 C 421.07544,516.61243 431.12197,514.51577 434.53337,520.03549 C 438.24448,526.0402 444.03783,523.17992 444.50392,515.11518 C 445.62099,495.78667 414.52233,478.84115 377.93447,478.84115 C 349.44592,478.84115 348.58528,477.18774 367.46876,458.73293 L 384.1854,442.40001 L 381.39413,428.14043 C 378.52552,413.47537 373.21376,406.04676 361.81817,405.76699 Z M 346.3579,482.32559 C 348.82297,482.0378 353.56583,485.21395 361.34161,492.09809 C 376.02689,505.09944 375.8597,505.68009 356.10569,509.89782 C 346.95579,511.85141 334.60313,514.22535 328.65723,515.1771 L 317.84495,516.91002 L 323.90404,509.8545 C 327.23568,505.97374 333.17153,500.15542 337.09291,496.92556 C 341.0143,493.69574 344.2227,489.01571 344.2227,486.52795 C 344.2227,483.91408 344.87887,482.49826 346.3579,482.32559 Z M 329.99405,605.59297 C 334.94231,605.59297 331.6512,618.42409 324.49198,627.05041 C 316.39852,636.80244 303.02836,638.27868 303.02836,629.42082 C 303.02836,624.09991 323.97283,605.59297 329.99405,605.59297 Z M 363.19213,636.76105 L 366.37949,645.14721 C 371.3005,658.09047 370.25917,662.52263 361.5087,665.84958 C 334.81151,675.99984 333.45194,674.38448 350.53551,652.77212 L 363.19213,636.76105 Z"
       id="path3581"
       inkscape:connector-curvature="0" />
  </g>
</svg>
