<?xml version="1.0" encoding="UTF-8" standalone="no"?>
<!-- Created with Inkscape (http://www.inkscape.org/) -->

<svg
   xmlns:dc="http://purl.org/dc/elements/1.1/"
   xmlns:cc="http://creativecommons.org/ns#"
   xmlns:rdf="http://www.w3.org/1999/02/22-rdf-syntax-ns#"
   xmlns:svg="http://www.w3.org/2000/svg"
   xmlns="http://www.w3.org/2000/svg"
   xmlns:sodipodi="http://sodipodi.sourceforge.net/DTD/sodipodi-0.dtd"
   xmlns:inkscape="http://www.inkscape.org/namespaces/inkscape"
   width="300"
   height="287.09692"
   viewBox="0 0 299.99999 287.09692"
   id="svg2"
   version="1.1"
   inkscape:version="0.91 r13725"
   sodipodi:docname="185.svg">
  <defs
     id="defs4" />
  <sodipodi:namedview
     id="base"
     pagecolor="#ffffff"
     bordercolor="#666666"
     borderopacity="1.0"
     inkscape:pageopacity="0.0"
     inkscape:pageshadow="2"
     inkscape:zoom="0.98994949"
     inkscape:cx="291.30708"
     inkscape:cy="128.54644"
     inkscape:document-units="px"
     inkscape:current-layer="layer1"
     showgrid="true"
     fit-margin-top="0"
     fit-margin-left="0"
     fit-margin-right="0"
     fit-margin-bottom="0"
     units="px"
     inkscape:window-width="1280"
     inkscape:window-height="751"
     inkscape:window-x="0"
     inkscape:window-y="1"
     inkscape:window-maximized="1">
    <inkscape:grid
       type="xygrid"
       id="grid3502"
       originx="-181.24188"
       originy="-334.3107" />
  </sodipodi:namedview>
  <metadata
     id="metadata7">
    <rdf:RDF>
      <cc:Work
         rdf:about="">
        <dc:format>image/svg+xml</dc:format>
        <dc:type
           rdf:resource="http://purl.org/dc/dcmitype/StillImage" />
        <dc:title></dc:title>
      </cc:Work>
    </rdf:RDF>
  </metadata>
  <g
     inkscape:label="Layer 1"
     inkscape:groupmode="layer"
     id="layer1"
     transform="translate(-181.24189,-430.9546)">
    <path
       style="fill:#000000"
       d="M 359.95139,430.96453 C 348.07764,430.60297 326.28243,440.12094 299.20936,458.90949 C 228.85759,507.73328 199.21644,523.41401 188.56181,517.4514 C 181.10862,513.28038 178.27703,517.82326 185.18237,522.87257 C 197.85722,532.14064 231.99324,523.7479 270.50752,501.89771 C 280.99231,495.94937 290.67813,491.08465 292.03391,491.08465 C 293.38968,491.08465 294.95069,490.01395 295.50134,488.7085 C 296.05209,487.40307 303.22622,481.65801 311.44813,475.94169 C 319.67003,470.22541 329.0521,463.18544 332.29391,460.29413 C 341.22667,452.32717 342.69561,453.83038 339.56912,467.74535 C 334.8515,488.74199 335.62805,520.12843 341.00068,525.50103 C 343.56921,528.06959 346.52619,532.867 347.57183,536.16155 C 349.19403,541.27266 355.21452,543.96807 359.27082,541.40087 C 359.92346,540.98782 363.46392,543.35344 367.13859,546.65778 C 374.9738,553.70331 374.16291,585.75558 365.63661,606.16189 C 360.55299,618.32865 360.32926,618.47704 352.78769,614.49903 C 331.76785,603.41147 311.11865,598.32127 289.73988,598.95709 C 280.85373,599.22137 280.65253,599.88206 298.25302,571.79829 C 312.72426,548.70762 320.28551,527.13209 313.90644,527.13209 C 312.30617,527.13209 307.35509,519.6973 302.90563,510.61035 C 293.32996,491.05425 292.0632,490.32111 294.09913,505.50011 C 295.61892,516.83108 286.84025,547.64173 273.61709,577.4131 C 270.50632,584.41684 267.96122,591.43519 267.96122,593.00785 C 267.96122,598.00943 263.08706,599.13306 253.41082,596.35795 C 241.95053,593.07117 237.25673,597.97723 247.96616,602.04906 C 259.79783,606.54738 260.01243,610.4734 249.24518,625.57022 C 243.6708,633.38608 237.16728,643.83566 234.79451,648.79219 C 230.48042,657.80405 230.47994,657.80405 229.53174,643.53527 C 228.2912,624.86741 224.21108,625.29172 221.9573,644.32146 C 220.97675,652.6006 215.91218,668.30073 210.70422,679.2131 C 201.27553,698.96914 201.26529,699.08028 207.17223,704.98723 C 215.8253,713.64029 222.78825,707.98544 237.23523,680.57425 C 264.67198,628.51674 275.74341,613.97706 281.21499,622.83028 C 282.09016,624.24632 290.31387,626.17843 299.48512,627.125 C 309.8825,628.19811 321.80897,632.10916 331.17328,637.51565 C 346.19167,646.18647 346.19404,646.18734 324.84269,665.51342 C 313.09943,676.14276 301.24192,686.07443 298.49358,687.58542 C 295.74523,689.09637 292.81893,691.1606 291.99284,692.1735 C 289.41037,695.33994 266.04677,704.90221 255.73417,707.01138 C 250.31666,708.11936 245.33136,710.67972 244.65709,712.70246 C 239.16373,729.18254 309.60111,704.48418 336.08405,680.64466 C 359.79966,659.29623 355.85815,659.67323 374.75995,676.94839 C 384.03261,685.42308 395.22904,693.09379 399.63644,693.99231 C 404.04384,694.89085 413.05215,697.07977 419.66085,698.85613 C 443.42395,705.24346 481.24188,700.35071 481.24188,690.88859 C 481.24188,683.63038 469.03121,671.75783 459.42802,669.67906 C 454.07861,668.5211 441.9685,663.68203 432.51563,658.93053 C 423.06273,654.17906 413.99972,650.29416 412.37392,650.29416 C 410.748,650.29416 404.79452,647.25266 399.14361,643.53527 C 393.49269,639.81788 386.47311,635.36701 383.54886,633.64334 C 379.14179,631.04564 378.83358,629.39311 381.72419,623.99197 C 387.71155,612.80447 392.61623,555.96403 388.71779,542.95565 C 385.54183,532.35846 369.76567,521.12418 358.06221,521.12418 C 350.74169,521.12418 356.47297,477.79964 367.46716,450.02085 C 372.42077,437.50464 369.18657,431.24573 359.95139,430.96453 Z"
       id="path3500"
       inkscape:connector-curvature="0" />
  </g>
</svg>
