<?xml version="1.0" encoding="UTF-8" standalone="no"?>
<!-- Created with Inkscape (http://www.inkscape.org/) -->

<svg
   xmlns:dc="http://purl.org/dc/elements/1.1/"
   xmlns:cc="http://creativecommons.org/ns#"
   xmlns:rdf="http://www.w3.org/1999/02/22-rdf-syntax-ns#"
   xmlns:svg="http://www.w3.org/2000/svg"
   xmlns="http://www.w3.org/2000/svg"
   xmlns:sodipodi="http://sodipodi.sourceforge.net/DTD/sodipodi-0.dtd"
   xmlns:inkscape="http://www.inkscape.org/namespaces/inkscape"
   width="55.603516mm"
   height="84.666672mm"
   viewBox="0 0 197.02033 300.00002"
   id="svg3537"
   version="1.1"
   inkscape:version="0.91 r13725"
   sodipodi:docname="186.svg">
  <defs
     id="defs3539" />
  <sodipodi:namedview
     id="base"
     pagecolor="#ffffff"
     bordercolor="#666666"
     borderopacity="1.0"
     inkscape:pageopacity="0.0"
     inkscape:pageshadow="2"
     inkscape:zoom="1.4"
     inkscape:cx="25.89693"
     inkscape:cy="136.57276"
     inkscape:document-units="px"
     inkscape:current-layer="layer1"
     showgrid="false"
     fit-margin-top="0"
     fit-margin-left="0"
     fit-margin-right="0"
     fit-margin-bottom="0"
     inkscape:window-width="1280"
     inkscape:window-height="751"
     inkscape:window-x="0"
     inkscape:window-y="1"
     inkscape:window-maximized="1" />
  <metadata
     id="metadata3542">
    <rdf:RDF>
      <cc:Work
         rdf:about="">
        <dc:format>image/svg+xml</dc:format>
        <dc:type
           rdf:resource="http://purl.org/dc/dcmitype/StillImage" />
        <dc:title></dc:title>
      </cc:Work>
    </rdf:RDF>
  </metadata>
  <g
     inkscape:label="Layer 1"
     inkscape:groupmode="layer"
     id="layer1"
     transform="translate(-551.13358,-327.09308)">
    <path
       style="fill:#000000"
       d="M 608.73703,623.12826 C 590.89859,613.75021 594.3715,593.83169 618.42702,567.55246 C 626.90416,558.29169 628.86608,554.83459 624.95875,556.04278 C 593.33161,565.82232 582.16447,568.05074 573.81502,566.24852 C 562.33915,563.7715 550.90148,553.39779 551.13716,545.68029 C 551.30803,540.08482 551.40051,540.09878 553.80865,546.08348 C 557.83797,556.09712 569.37768,557.07915 591.44076,549.286 C 610.99675,542.37842 610.99675,542.37842 611.8421,526.83025 C 612.68741,511.28211 612.68741,511.28211 604.8611,512.45829 C 597.03475,513.63448 597.03475,513.63448 604.72321,509.21272 C 612.23619,504.89187 612.39549,504.26746 611.70421,481.84775 C 611.31511,469.22898 609.82099,458.05787 608.3839,457.02306 C 606.77808,455.86673 606.84727,453.71426 608.56343,451.43826 C 610.09925,449.40143 611.15667,443.41659 610.91329,438.13859 C 610.41445,427.321 590.43033,417.5722 573.21921,419.75038 C 568.65581,420.32791 564.92215,419.63536 564.92215,418.21138 C 564.92215,416.7874 566.49287,415.61459 568.41265,415.60512 C 570.33242,415.59566 575.27411,413.82921 579.39415,411.6797 C 583.5142,409.53017 590.65272,406.94399 595.2575,405.93261 C 608.54952,403.01321 610.54304,398.70814 606.84705,380.90475 C 605.08318,372.4082 602.46798,364.73214 601.03548,363.84681 C 591.74438,358.1046 607.59044,354.21518 617.86762,359.71537 C 623.41135,362.6823 629.14735,376.32864 629.14735,386.55064 C 629.14735,392.9468 629.14735,392.9468 647.99606,386.36118 C 666.84476,379.77558 666.84476,379.77558 667.75419,358.76098 C 668.56725,339.97358 668.04934,337.36276 662.86749,334.12665 C 655.16364,329.31551 655.4681,325.38909 663.35426,327.84883 C 686.55268,335.08447 694.01383,346.04381 692.02185,369.95734 C 690.23133,391.45217 690.45607,392.86739 695.93601,394.60666 C 703.7341,397.08168 703.30985,403.99781 695.17011,407.09252 C 690.39877,408.9066 688.10486,412.53298 686.82363,420.28731 C 684.33362,435.3575 684.5567,513.36513 687.08966,513.31428 C 688.24152,513.29116 694.18428,511.53206 700.29581,509.40517 C 714.71267,504.3879 728.9913,506.85065 738.83755,516.05278 C 752.49513,528.8169 747.32151,533.21119 719.72508,532.28624 C 692.32639,531.3679 691.72024,531.82071 689.78575,554.65146 C 688.47491,570.12206 688.8491,572.03622 692.93083,570.74074 C 714.92989,563.75851 756.01034,587.68659 746.84055,602.14151 C 745.57858,604.13081 738.15886,606.19294 730.35232,606.72397 C 722.34151,607.26888 711.2093,610.47112 704.7968,614.07514 C 688.74036,623.09936 688.29796,619.61448 703.53762,604.15611 C 720.11702,587.33882 714.09094,575.01395 689.18396,574.79924 C 681.67952,574.73457 680.22041,573.20297 675.17879,560.09798 C 666.4954,537.52687 648.1958,540.87675 624.87498,569.30645 C 608.41649,589.37052 608.61447,612.79725 625.14906,601.73853 C 648.90766,585.84827 653.20503,584.94144 638.43387,598.93513 C 630.48698,606.46375 623.12543,616.0483 622.07485,620.23414 C 619.92822,628.78701 619.62566,628.85266 608.73703,623.12826 Z M 647.29796,530.7868 C 664.40451,526.24521 658.07885,497.30975 640.30118,498.78154 C 628.94778,499.72149 626.49203,501.59181 632.02062,505.0882 C 634.80244,506.84747 635.00168,507.69982 632.63785,507.72878 C 630.38902,507.75631 629.14735,512.07602 629.14735,519.87192 C 629.14735,533.4383 631.0394,536.70172 637.37871,534.06938 C 639.76266,533.07944 644.22632,531.60229 647.29796,530.7868 Z M 667.60633,507.77153 C 667.2916,493.95434 658.59601,487.35769 652.88276,496.60193 C 651.93356,498.13775 652.19127,499.39433 653.45542,499.39433 C 654.7196,499.39433 657.93147,504.42065 660.59294,510.56393 C 666.8867,525.09139 667.99084,524.65179 667.60633,507.77153 Z M 648.03476,477.05513 C 654.39233,473.98349 660.91124,471.47033 662.52126,471.47033 C 667.2988,471.47033 666.12761,447.1968 661.25996,445.32891 C 655.99575,443.30886 655.73494,435.16912 660.93442,435.16912 C 665.05779,435.16912 667.73676,425.88079 666.01706,417.5469 C 664.89547,412.11135 658.24659,412.60754 637.92412,419.64335 C 624.04059,424.44997 621.26907,442.46921 634.83048,439.75693 C 653.51607,436.0198 659.87842,449.4305 645.90176,463.09313 C 641.2943,467.59707 637.52456,472.58103 637.52456,474.16862 C 637.52456,475.75619 636.26798,477.05513 634.73216,477.05513 C 633.19634,477.05513 631.93975,478.31171 631.93975,479.84753 C 631.93975,483.87671 635.02279,483.34183 648.03476,477.05513 Z M 668.24096,576.48409 C 668.24096,575.88049 670.19109,574.63832 672.5746,573.72367 C 675.05961,572.77009 676.18048,573.23821 675.20219,574.82111 C 673.56232,577.47448 668.24096,578.74569 668.24096,576.48409 Z"
       id="path3631"
       inkscape:connector-curvature="0" />
  </g>
</svg>
