<?xml version="1.0" encoding="UTF-8" standalone="no"?>
<!-- Created with Inkscape (http://www.inkscape.org/) -->

<svg
   xmlns:dc="http://purl.org/dc/elements/1.1/"
   xmlns:cc="http://creativecommons.org/ns#"
   xmlns:rdf="http://www.w3.org/1999/02/22-rdf-syntax-ns#"
   xmlns:svg="http://www.w3.org/2000/svg"
   xmlns="http://www.w3.org/2000/svg"
   xmlns:sodipodi="http://sodipodi.sourceforge.net/DTD/sodipodi-0.dtd"
   xmlns:inkscape="http://www.inkscape.org/namespaces/inkscape"
   width="300"
   height="297.34955"
   viewBox="0 0 299.99999 297.34954"
   id="svg2"
   version="1.1"
   inkscape:version="0.91 r13725"
   sodipodi:docname="187.svg">
  <defs
     id="defs4" />
  <sodipodi:namedview
     id="base"
     pagecolor="#ffffff"
     bordercolor="#666666"
     borderopacity="1.0"
     inkscape:pageopacity="0.0"
     inkscape:pageshadow="2"
     inkscape:zoom="0.7"
     inkscape:cx="257.72231"
     inkscape:cy="116.10142"
     inkscape:document-units="px"
     inkscape:current-layer="layer1"
     showgrid="false"
     fit-margin-top="0"
     fit-margin-left="0"
     fit-margin-right="0"
     fit-margin-bottom="0"
     units="px"
     inkscape:window-width="1280"
     inkscape:window-height="751"
     inkscape:window-x="0"
     inkscape:window-y="1"
     inkscape:window-maximized="1" />
  <metadata
     id="metadata7">
    <rdf:RDF>
      <cc:Work
         rdf:about="">
        <dc:format>image/svg+xml</dc:format>
        <dc:type
           rdf:resource="http://purl.org/dc/dcmitype/StillImage" />
        <dc:title></dc:title>
      </cc:Work>
    </rdf:RDF>
  </metadata>
  <g
     inkscape:label="Layer 1"
     inkscape:groupmode="layer"
     id="layer1"
     transform="translate(-260.13483,-465.3998)">
    <path
       style="fill:#000000"
       d="M 491.05625,747.35814 C 523.60844,702.818 529.21784,680.99948 510.27263,672.61351 C 503.79569,669.74653 496.19916,661.6073 492.28769,653.34376 C 488.56324,645.47529 483.01499,637.19553 479.95825,634.94433 C 470.18349,627.74542 469.47171,598.1287 478.61847,579.19707 C 483.09598,569.92974 486.75939,556.80897 486.75939,550.03982 C 486.75939,536.72882 478.25214,526.67563 470.40991,530.71929 C 454.2638,539.04461 447.32986,545.11858 429.46298,566.58778 C 409.69923,590.33635 409.5895,590.61756 409.5895,617.51096 C 409.5895,640.02767 410.80334,645.20334 416.84219,648.43521 C 422.62091,651.52791 423.57326,654.88828 421.5281,664.9696 C 419.49333,674.99972 416.8285,677.87179 408.67195,678.82553 C 402.57533,679.53842 397.41494,683.07767 396.00775,687.51123 C 394.70157,691.62666 390.11401,696.87707 385.81318,699.17882 C 379.45307,702.58263 376.26082,701.73607 368.71125,694.64362 C 363.51722,689.76409 359.42906,681.4992 359.42906,675.8781 C 359.42906,670.35312 355.95642,662.85935 351.71208,659.22522 C 346.37666,654.65688 343.99509,647.8429 343.99509,637.14599 C 343.99509,621.70881 348.89962,616.4966 353.10742,627.46198 C 356.52779,636.37533 362.8632,634.44578 377.17814,620.13084 C 388.99193,608.31705 390.29702,604.85004 390.29702,585.28045 C 390.29702,573.32815 387.75343,557.46124 384.64456,550.02072 L 378.9921,536.49249 L 363.57656,544.35691 C 343.19835,554.75308 329.52037,554.27779 312.29828,542.57509 C 304.49062,537.26966 296.37659,532.92886 294.26708,532.92886 C 292.15756,532.92886 289.62423,531.62662 288.63749,530.03499 C 287.65072,528.44336 295.06362,527.72267 305.1106,528.43348 C 323.7944,529.75528 336.71769,525.45723 394.25001,498.78728 C 456.30402,470.02123 511.88807,458.41492 533.98636,469.60942 C 552.51204,478.99412 560.07079,486.76363 560.07079,496.42117 C 560.07079,505.54118 551.47553,509.62899 532.09671,509.72522 C 526.25494,509.7542 521.4473,511.94567 521.40003,514.60101 C 521.35284,517.25372 518.17171,515.33825 514.33077,510.34439 C 508.38645,502.61571 503.83269,501.23155 483.72716,501.04218 C 470.73603,500.91979 457.85622,502.59588 455.10534,504.76675 C 452.35443,506.93765 444.89472,509.89403 438.52821,511.33653 C 429.49269,513.38373 407.68981,522.71322 390.84072,531.74206 C 390.07867,532.15045 393.11724,537.62742 397.59309,543.91322 C 402.06894,550.19898 405.731,559.5593 405.731,564.71398 C 405.731,569.86866 406.76435,575.11949 408.02731,576.38245 C 411.67559,580.03074 472.93425,516.17821 471.72712,509.9854 C 470.83836,505.42585 471.70845,505.29239 476.48387,509.25564 C 479.69835,511.92341 484.62761,513.63615 487.43775,513.06174 C 503.6493,509.74795 521.48584,534.15397 521.48584,559.65025 C 521.48584,574.87791 521.71261,575.13404 533.16605,572.84333 C 541.44742,571.18707 547.06134,572.51192 552.45852,577.39631 C 565.5399,589.23479 562.06563,597.24051 540.77832,604.31101 C 530.16746,607.83536 521.48584,612.39463 521.48584,614.44272 C 521.48584,616.49081 517.04128,622.61108 511.60899,628.04334 C 502.23389,637.41848 502.06666,638.28984 508.31734,645.19674 C 511.9392,649.19885 522.44368,656.89269 531.66058,662.29415 C 553.49295,675.08877 556.50848,686.3986 543.37786,706.24029 C 531.88649,723.60494 502.05956,752.49056 487.85138,760.01439 C 478.42562,765.00574 478.56723,764.44649 491.05625,747.35814 Z M 384.27877,650.15765 C 387.93315,635.5975 384.35031,634.69261 377.4906,648.4432 C 372.82726,657.79106 372.65579,660.25918 376.66975,660.25918 C 379.46029,660.25918 382.88435,655.71349 384.27877,650.15765 Z M 307.56349,736.24853 C 301.09503,721.01439 293.66947,701.59339 279.98436,664.11768 C 274.17219,648.20139 266.86212,631.21807 263.73982,626.37693 C 260.61749,621.53583 259.26065,616.37714 260.72456,614.91319 C 262.18851,613.44924 264.59413,614.19192 266.07035,616.56355 C 267.54661,618.93517 276.56789,622.85679 286.11766,625.27823 C 295.66744,627.69966 309.62797,632.31967 317.14108,635.54487 C 330.50961,641.28376 330.94207,642.16898 337.39818,677.01138 C 347.35109,730.72556 346.85913,734.26376 328.35649,742.03628 L 312.79634,748.57276 L 307.56349,736.24853 Z"
       id="path3521"
       inkscape:connector-curvature="0" />
  </g>
</svg>
