<?xml version="1.0" encoding="UTF-8" standalone="no"?>
<!-- Created with Inkscape (http://www.inkscape.org/) -->

<svg
   xmlns:dc="http://purl.org/dc/elements/1.1/"
   xmlns:cc="http://creativecommons.org/ns#"
   xmlns:rdf="http://www.w3.org/1999/02/22-rdf-syntax-ns#"
   xmlns:svg="http://www.w3.org/2000/svg"
   xmlns="http://www.w3.org/2000/svg"
   xmlns:sodipodi="http://sodipodi.sourceforge.net/DTD/sodipodi-0.dtd"
   xmlns:inkscape="http://www.inkscape.org/namespaces/inkscape"
   width="71.566757mm"
   height="84.666664mm"
   viewBox="0 0 253.583 299.99999"
   id="svg3542"
   version="1.1"
   inkscape:version="0.91 r13725"
   sodipodi:docname="188.svg">
  <defs
     id="defs3544" />
  <sodipodi:namedview
     id="base"
     pagecolor="#ffffff"
     bordercolor="#666666"
     borderopacity="1.0"
     inkscape:pageopacity="0.0"
     inkscape:pageshadow="2"
     inkscape:zoom="0.98994949"
     inkscape:cx="332.15767"
     inkscape:cy="152.67347"
     inkscape:document-units="px"
     inkscape:current-layer="layer1"
     showgrid="true"
     fit-margin-top="0"
     fit-margin-left="0"
     fit-margin-right="0"
     fit-margin-bottom="0"
     inkscape:window-width="1280"
     inkscape:window-height="751"
     inkscape:window-x="0"
     inkscape:window-y="1"
     inkscape:window-maximized="1">
    <inkscape:grid
       type="xygrid"
       id="grid3614"
       originx="-199.9852"
       originy="-354.77395" />
  </sodipodi:namedview>
  <metadata
     id="metadata3547">
    <rdf:RDF>
      <cc:Work
         rdf:about="">
        <dc:format>image/svg+xml</dc:format>
        <dc:type
           rdf:resource="http://purl.org/dc/dcmitype/StillImage" />
        <dc:title></dc:title>
      </cc:Work>
    </rdf:RDF>
  </metadata>
  <g
     inkscape:label="Layer 1"
     inkscape:groupmode="layer"
     id="layer1"
     transform="translate(-199.98519,-397.58823)">
    <path
       style="fill:#000000"
       d="M 257.46321,397.59312 C 251.16668,397.63694 247.26057,397.9717 247.26057,398.58289 C 247.26057,399.80523 258.83395,407.74764 272.9792,416.23467 C 287.12445,424.72171 301.55722,431.67968 305.05308,431.69115 C 316.85169,431.72983 323.46305,427.12901 323.40442,418.92115 C 323.29023,402.94347 318.18715,400.40811 281.9986,398.34475 C 272.44528,397.80001 263.7597,397.5493 257.46321,397.59312 Z M 386.35403,452.21546 C 371.41006,452.5471 339.48538,462.89007 287.26733,484.25212 C 264.21582,493.68232 239.95423,502.65024 233.35197,504.17366 C 222.47051,506.68448 221.15589,505.99396 219.31687,496.79889 C 218.20103,491.21981 218.26005,479.43378 219.44337,470.61141 C 220.62669,461.78904 220.54592,454.57449 219.26479,454.57449 C 213.6651,454.57449 200.32913,488.43206 199.9981,503.48901 C 199.53837,524.40458 211.41314,536.43355 226.75859,530.59923 C 232.01959,528.59901 240.81662,526.96768 246.30803,526.96768 C 251.79943,526.96768 259.8345,523.72957 264.16076,519.77896 C 278.76247,506.44513 356.10804,470.70541 360.61307,475.21043 C 363.84604,478.4434 339.98772,505.85825 315.04735,527.57045 C 274.71679,562.68092 240.32183,583.7617 216.94295,587.69224 C 199.53456,590.61898 196.26924,603.01799 207.37287,624.01533 C 214.05191,636.6455 217.98404,639.70857 230.39017,641.94248 C 238.62052,643.42448 259.20929,647.11756 276.14195,650.15072 C 293.07464,653.18384 318.79327,660.86659 333.29447,667.22206 C 347.7957,673.57758 364.80425,680.0019 371.09103,681.50273 C 377.37781,683.00355 384.23611,685.28116 386.3317,686.56313 C 388.4273,687.84509 399.57204,690.82057 411.0978,693.17137 C 440.37589,699.14297 441.57914,699.12727 441.57914,692.70999 C 441.57914,689.5666 444.151,686.99474 447.29439,686.99474 C 458.83333,686.99474 453.57088,669.26359 438.72151,658.11336 C 430.86304,652.21255 423.5761,646.26557 422.5283,644.89684 C 415.78293,636.08522 348.69079,620.75813 298.69784,616.60337 C 254.91101,612.96436 216.5492,605.75716 217.9848,601.44454 C 218.71597,599.24809 222.43001,596.84685 226.23766,596.10882 C 230.04532,595.37079 251.33863,584.92198 273.55221,572.88318 C 295.76584,560.84434 332.79884,541.17355 355.85036,529.17042 C 404.7824,503.69102 422.5283,491.06893 422.5283,481.75912 C 422.5283,473.00793 404.28076,455.78422 391.72698,452.6843 C 390.27542,452.32584 388.48891,452.16806 386.35403,452.21546 Z"
       id="path3612"
       inkscape:connector-curvature="0" />
  </g>
</svg>
