<?xml version="1.0" encoding="UTF-8" standalone="no"?>
<!-- Created with Inkscape (http://www.inkscape.org/) -->

<svg
   xmlns:dc="http://purl.org/dc/elements/1.1/"
   xmlns:cc="http://creativecommons.org/ns#"
   xmlns:rdf="http://www.w3.org/1999/02/22-rdf-syntax-ns#"
   xmlns:svg="http://www.w3.org/2000/svg"
   xmlns="http://www.w3.org/2000/svg"
   xmlns:sodipodi="http://sodipodi.sourceforge.net/DTD/sodipodi-0.dtd"
   xmlns:inkscape="http://www.inkscape.org/namespaces/inkscape"
   width="84.666664mm"
   height="64.517326mm"
   viewBox="0 0 299.99999 228.6047"
   id="svg2"
   version="1.1"
   inkscape:version="0.91 r13725"
   sodipodi:docname="189.svg">
  <defs
     id="defs4" />
  <sodipodi:namedview
     id="base"
     pagecolor="#ffffff"
     bordercolor="#666666"
     borderopacity="1.0"
     inkscape:pageopacity="0.0"
     inkscape:pageshadow="2"
     inkscape:zoom="0.98994949"
     inkscape:cx="25.2868"
     inkscape:cy="43.96272"
     inkscape:document-units="px"
     inkscape:current-layer="layer1"
     showgrid="true"
     fit-margin-top="0"
     fit-margin-left="0"
     fit-margin-right="0"
     fit-margin-bottom="0"
     inkscape:window-width="1280"
     inkscape:window-height="751"
     inkscape:window-x="0"
     inkscape:window-y="1"
     inkscape:window-maximized="1">
    <inkscape:grid
       type="xygrid"
       id="grid3432"
       originx="-443.54204"
       originy="-475.60402" />
  </sodipodi:namedview>
  <metadata
     id="metadata7">
    <rdf:RDF>
      <cc:Work
         rdf:about="">
        <dc:format>image/svg+xml</dc:format>
        <dc:type
           rdf:resource="http://purl.org/dc/dcmitype/StillImage" />
        <dc:title></dc:title>
      </cc:Work>
    </rdf:RDF>
  </metadata>
  <g
     inkscape:label="Layer 1"
     inkscape:groupmode="layer"
     id="layer1"
     transform="translate(-443.54205,-348.15354)">
    <path
       style="fill:#000000"
       d="M 619.88663,348.16947 C 613.76958,348.3678 606.8638,350.41737 601.63731,354.46386 C 599.96367,355.75964 593.61417,357.91833 587.52731,359.25906 L 576.45979,361.69524 L 588.66274,365.12352 C 599.43745,368.1504 600.42783,369.08987 597.12874,373.14858 C 593.85107,377.181 594.08437,377.46461 599.0358,375.458 C 602.14,374.20001 609.7594,372.62697 615.9678,371.96357 C 627.76207,370.70329 634.31081,365.11384 634.31081,356.30477 C 634.31081,350.72395 627.75141,347.91448 619.88663,348.16947 Z M 523.31025,367.08018 C 522.25251,367.05594 521.16593,367.06618 520.07488,367.11326 C 512.80132,367.42712 505.21857,369.27305 503.08776,371.9305 C 498.80343,377.27376 466.68943,390.79712 458.2885,390.79712 C 453.72013,390.79712 450.88075,389.24274 450.88075,386.73499 C 450.88075,384.49845 449.50567,381.81963 447.82726,380.78232 C 445.97323,379.63645 445.11926,380.95111 445.64461,384.13895 C 446.1202,387.02479 445.51118,390.9735 444.29422,392.91362 C 443.0386,394.91547 443.38732,396.44113 445.09895,396.44113 C 447.12647,396.44113 447.97307,410.54746 447.67842,439.47664 C 447.12732,493.58456 449.62783,565.6093 452.28622,572.11069 C 455.09921,578.99002 462.54385,578.28553 478.29603,569.64143 C 497.14756,559.29654 504.07967,552.3972 511.97266,536.13017 C 524.01126,511.31937 528.63271,505.12344 535.75573,504.24486 C 548.72076,502.64575 548.91672,502.28925 546.29412,484.88769 C 542.67801,460.89326 543.49433,432.87011 548.43269,411.57631 L 552.75938,392.92463 L 544.9603,381.6697 C 540.67126,375.4806 534.65379,369.49271 531.58887,368.35891 C 529.41678,367.55541 526.48351,367.15296 523.31025,367.08018 Z M 636.85721,386.66332 C 634.5478,386.45965 632.38773,387.1577 629.31166,388.65858 C 625.30809,390.612 619.66228,396.48628 616.76149,401.71034 C 608.44864,416.681 583.26504,438.69385 574.3984,438.74357 C 570.25616,438.76679 569.72102,436.73411 570.89294,425.36664 L 572.2764,411.96213 L 568.14812,420.42813 C 562.94746,431.08717 562.64796,444.63836 567.47016,451.23312 C 572.07973,457.53711 589.54388,455.96206 597.79014,448.49931 C 601.06247,445.5379 603.2688,444.87936 603.2688,446.86235 C 603.2688,451.33449 585.70622,495.99737 577.04403,513.55417 C 567.16657,533.57406 562.76163,554.30296 566.36783,563.78798 C 570.50997,574.6826 574.37027,573.21578 577.90386,559.41168 C 580.59487,548.89905 581.88068,544.27594 583.49275,542.15447 L 583.11243,541.77417 L 585.93443,536.13017 L 588.24935,531.10899 C 588.55268,530.25155 588.91884,529.32373 589.42886,528.2043 C 589.81883,527.34842 590.2434,526.59229 590.66899,525.87285 L 602.86644,499.44416 L 602.87194,499.4717 C 605.39856,492.35366 608.70702,483.78206 612.20881,475.45715 C 625.99251,442.68873 630.4636,433.9033 632.288,435.97668 C 633.60291,437.47107 631.04928,461.74787 626.14794,494.32928 C 621.72161,523.75341 627.44231,546.50114 641.6028,555.77946 C 656.77261,565.71908 729.14771,556.71421 742.65471,543.20722 C 747.36674,538.49518 732.0871,498.03316 725.59591,498.03316 C 723.50348,498.03316 721.76671,497.08073 721.73219,495.91666 C 721.69768,494.75258 719.31063,490.7349 716.42993,486.98768 C 711.21014,480.19772 711.19605,480.24662 712.63234,500.32053 C 714.51591,526.64596 710.90079,532.56074 690.31539,536.83017 C 658.09587,543.51256 655.17857,543.58313 648.09561,537.84982 C 640.3688,531.5953 639.70295,520.74079 643.95079,470.62888 C 645.74843,449.42191 645.44411,438.42155 642.80435,428.99333 C 639.32878,416.57971 639.44772,415.99957 646.64053,410.34168 C 656.42254,402.64716 655.99845,396.15201 645.31221,390.06958 C 641.62775,387.97244 639.16665,386.86701 636.85721,386.66332 Z M 456.62394,397.19624 C 457.44444,397.23998 458.49792,397.42651 459.82626,397.73087 C 472.34709,400.59974 488.30031,401.19498 499.19648,399.20248 L 510.14277,397.20174 L 510.1152,410.22592 L 510.09316,423.25014 L 491.48008,433.83264 C 481.24282,439.65302 471.69851,444.41514 470.27097,444.41514 C 467.32706,444.41514 464.02712,436.60878 459.38533,418.66438 C 457.62905,411.87496 455.52994,404.04622 454.72242,401.2694 C 453.8325,398.20925 454.16248,397.06501 456.62394,397.19624 Z M 487.78721,453.20632 C 507.933,453.0177 511.99767,455.76769 502.38226,463.06679 C 499.36625,465.35628 498.81698,466.84813 500.97126,466.90296 C 508.23176,467.08769 504.11387,472.18041 493.15565,476.56501 C 473.76627,484.32312 472.439,483.6006 469.68123,463.72268 L 468.24819,453.39373 L 487.78721,453.20632 Z M 473.45675,489.89787 L 493.91626,491.49075 C 505.16899,492.36641 516.18027,494.7746 518.38278,496.84261 C 521.80516,500.05603 520.77948,502.38858 511.32778,512.90378 C 505.24501,519.67097 494.16335,532.43205 486.70142,541.25606 C 479.23949,550.08009 471.30261,557.29518 469.06391,557.29518 C 466.82522,557.29518 464.9905,556.97771 464.99075,556.58968 C 464.99103,556.20165 466.89588,545.93095 469.22375,533.76565 C 471.55165,521.60034 473.45675,506.75405 473.45675,500.77248 L 473.45675,489.89787 Z"
       id="path3430"
       inkscape:connector-curvature="0" />
  </g>
</svg>
