<?xml version="1.0" encoding="UTF-8" standalone="no"?>
<!-- Created with Inkscape (http://www.inkscape.org/) -->

<svg
   xmlns:dc="http://purl.org/dc/elements/1.1/"
   xmlns:cc="http://creativecommons.org/ns#"
   xmlns:rdf="http://www.w3.org/1999/02/22-rdf-syntax-ns#"
   xmlns:svg="http://www.w3.org/2000/svg"
   xmlns="http://www.w3.org/2000/svg"
   xmlns:sodipodi="http://sodipodi.sourceforge.net/DTD/sodipodi-0.dtd"
   xmlns:inkscape="http://www.inkscape.org/namespaces/inkscape"
   width="84.666664mm"
   height="83.837341mm"
   viewBox="0 0 299.99999 297.06144"
   id="svg3473"
   version="1.1"
   inkscape:version="0.91 r13725"
   sodipodi:docname="190.svg">
  <defs
     id="defs3475" />
  <sodipodi:namedview
     id="base"
     pagecolor="#ffffff"
     bordercolor="#666666"
     borderopacity="1.0"
     inkscape:pageopacity="0.0"
     inkscape:pageshadow="2"
     inkscape:zoom="0.7"
     inkscape:cx="70.551395"
     inkscape:cy="51.048999"
     inkscape:document-units="px"
     inkscape:current-layer="layer1"
     showgrid="true"
     fit-margin-top="0"
     fit-margin-left="0"
     fit-margin-right="0"
     fit-margin-bottom="0"
     inkscape:window-width="1280"
     inkscape:window-height="751"
     inkscape:window-x="0"
     inkscape:window-y="1"
     inkscape:window-maximized="1">
    <inkscape:grid
       type="xygrid"
       id="grid3545"
       originx="-490.16287"
       originy="-354.6653" />
  </sodipodi:namedview>
  <metadata
     id="metadata3478">
    <rdf:RDF>
      <cc:Work
         rdf:about="">
        <dc:format>image/svg+xml</dc:format>
        <dc:type
           rdf:resource="http://purl.org/dc/dcmitype/StillImage" />
        <dc:title></dc:title>
      </cc:Work>
    </rdf:RDF>
  </metadata>
  <g
     inkscape:label="Layer 1"
     inkscape:groupmode="layer"
     id="layer1"
     transform="translate(-490.16289,-400.63548)">
    <path
       style="fill:#000000"
       d="M 655.47898,400.63741 C 648.26935,400.69066 638.79084,401.84486 637.15616,403.47949 C 636.32802,404.30765 637.37478,408.45149 639.47958,412.68854 C 641.96221,417.68604 642.62635,423.48295 641.37432,429.19602 C 640.31279,434.03977 640.35902,438.00283 641.47488,438.00283 C 642.59072,438.00283 644.42373,434.03977 645.55016,429.19602 C 648.21326,417.74446 650.8201,426.58536 648.47163,439.10368 C 647.16739,446.05591 644.39993,448.97636 634.59985,453.73759 C 618.50119,461.55894 615.01353,461.25785 609.50256,451.57293 C 604.62803,443.00656 600.82278,441.01319 600.82278,447.02664 C 600.82278,451.26101 615.42889,473.90527 621.30496,478.78197 C 627.0664,483.56355 638.04166,478.08441 641.84536,468.52499 C 645.21599,460.05403 648.31598,464.46516 645.86241,474.24096 C 644.12232,481.17403 634.10895,486.72633 623.0515,486.89014 L 615.72661,486.99601 L 623.30025,491.10302 C 627.46525,493.36136 633.56227,494.83944 636.84919,494.38441 C 641.82694,493.69534 642.66971,494.68528 641.9036,500.32795 C 641.39771,504.05391 638.44279,509.84608 635.33553,513.19944 C 631.72458,517.09636 630.95139,519.29646 633.19735,519.29646 C 640.25851,519.29646 630.72236,526.55669 610.58756,536.50784 C 589.48706,546.93627 580.3356,547.31201 583.41028,537.62457 C 584.63001,533.7815 584.06635,532.56057 581.46262,533.42757 C 571.70411,536.67704 578.89272,553.18382 590.9416,555.19055 C 597.27461,556.24531 609.29764,551.23816 619.47905,543.30347 C 629.41928,535.55668 631.25386,537.25739 625.38023,548.77069 C 622.43304,554.54768 620.60878,559.86101 621.32615,560.57837 C 622.04351,561.2957 620.77151,563.42468 618.49992,565.30993 C 616.2283,567.19518 614.37172,569.78395 614.37172,571.06292 C 614.37172,575.45331 595.81225,601.95588 584.37353,613.89555 C 573.61939,625.12066 572.70711,625.53854 569.2633,620.82882 C 565.93519,616.27735 565.59554,616.71774 565.59554,625.63446 C 565.59554,639.91843 572.97725,641.30663 590.81985,630.38188 C 606.11969,621.014 621.20979,603.14466 629.13267,585.00881 C 631.89982,578.67468 634.95174,573.49221 635.9177,573.49221 C 639.74449,573.49221 644.17938,580.33077 644.17938,586.23139 C 644.17938,589.65927 645.30124,592.46073 646.67217,592.46073 C 648.11874,592.46073 648.53163,603.07074 647.65658,617.73795 C 646.02372,645.10705 649.38272,655.36029 661.60248,660.30598 C 664.68806,661.55481 667.32734,662.65138 667.46662,662.74584 C 667.60591,662.84033 674.8367,660.46705 683.53482,657.47447 C 692.23294,654.48186 705.49061,651.55635 712.99845,650.96989 C 720.5063,650.38347 727.12392,648.4835 727.70119,646.75173 C 729.00213,642.84888 720.34875,636.02346 713.95642,635.90729 C 711.34825,635.8599 709.12023,634.29307 709.0026,632.4301 C 708.83145,629.72031 708.51354,629.72031 707.42011,632.4301 C 706.66839,634.29307 704.01876,635.82232 701.5348,635.8279 C 699.05082,635.83345 693.36203,638.06933 688.89088,640.79234 C 668.71754,653.07816 657.72832,651.02886 657.72832,634.9864 C 657.72832,626.35993 658.44883,624.619 660.97795,627.14812 C 667.18735,633.35752 678.52648,630.87563 686.33458,621.59623 C 690.40917,616.75384 697.31339,610.622 701.67769,607.96789 C 711.35605,602.08213 710.15933,596.28364 699.46011,597.21342 C 695.1367,597.58914 689.87071,596.77498 687.75299,595.40868 C 684.46978,593.29046 684.56958,591.90677 688.43043,586.01439 C 690.92076,582.21367 695.39437,577.79725 698.37514,576.202 C 701.3559,574.60675 703.79471,571.5749 703.79471,569.45929 C 703.79471,567.12765 707.79677,564.93213 713.95642,563.88623 C 719.54535,562.93724 727.77633,561.25639 732.24748,560.14968 C 744.7957,557.04375 769.2059,556.82797 779.13421,559.73687 C 789.58735,562.79953 792.92583,558.68924 787.78753,549.08825 C 783.20805,540.53141 770.10929,536.07525 735.7194,531.37935 C 718.90641,529.08356 701.19565,525.94484 696.36396,524.40376 C 682.01442,519.82698 676.51631,522.89956 690.24577,527.82275 C 730.35711,542.20606 744.02961,547.71129 742.76907,548.97181 C 741.98819,549.75269 733.20507,553.05023 723.25015,556.29669 L 705.14961,562.1979 L 699.16902,556.64601 C 691.56311,549.58311 681.79598,551.26765 665.12203,562.52074 C 652.94579,570.73839 645.6569,572.51685 639.71777,568.71304 C 636.74665,566.81012 643.742,544.0301 653.22964,524.71604 C 658.80378,513.36867 679.65928,504.31838 712.3422,499.06302 C 723.61069,497.25107 728.2138,490.06823 721.33425,485.03775 C 718.4781,482.94932 711.44656,482.33564 701.54537,483.30709 L 686.18109,484.81547 L 692.95556,479.48586 C 696.68152,476.55487 701.78684,473.40911 704.29751,472.49439 C 706.80821,471.5797 710.17437,468.37302 711.78119,465.37063 C 714.209,460.83423 713.66926,459.33577 708.57388,456.5109 C 705.20158,454.64131 701.52527,453.37332 700.40748,453.68996 C 696.39117,454.82766 698.4977,449.54203 705.14432,441.81347 C 708.86846,437.4831 711.91698,430.64706 711.91879,426.61855 C 711.92156,420.46184 710.30392,418.83954 701.76237,416.46742 C 687.70771,412.56424 682.21968,412.90849 680.33811,417.81174 C 678.66005,422.18472 662.97073,438.84384 661.84593,437.44711 C 661.49203,437.00764 662.07878,429.33151 663.15318,420.38921 C 664.22756,411.44691 664.52818,403.10917 663.82006,401.85998 C 663.31515,400.96928 659.80478,400.60543 655.47898,400.63741 Z M 686.41397,421.87643 C 688.81403,421.80521 686.38628,426.79661 676.35811,443.67645 C 663.29089,465.67188 660.43811,468.19567 660.43811,457.75992 C 660.43811,450.68949 678.50017,424.64171 685.09612,422.19927 C 685.62786,422.00235 686.0711,421.88659 686.41397,421.87643 Z M 527.44683,460.03574 C 526.82409,460.05836 526.13667,460.11725 525.37742,460.2051 C 515.99518,461.29069 513.39718,472.8468 522.02725,475.10362 C 525.12592,475.91395 527.65852,476.95297 527.65852,477.41648 C 527.65852,477.88001 528.9529,487.58441 530.53767,498.97834 C 533.3533,519.22213 533.2578,519.90611 526.33538,528.98184 C 518.48984,539.26787 514.10958,540.83255 514.10958,533.3482 C 514.10958,528.21521 496.83032,511.1671 491.6268,511.1671 C 489.59104,511.1671 489.67786,512.20844 491.89143,514.42201 C 493.94412,516.47471 495.14106,526.76344 495.14106,542.32966 C 495.14106,566.14937 497.3933,573.64364 504.48772,573.39694 C 507.4958,573.29234 520.94236,554.22809 527.46799,540.81597 C 533.02506,529.39451 535.75292,530.95578 536.01545,545.71689 C 536.14134,552.79621 536.73002,565.90481 537.32273,574.84711 C 540.17297,617.84881 540.0316,665.16685 537.02633,673.929 C 534.26381,681.98333 534.53826,684.2459 539.05867,690.69053 C 545.58314,699.99223 547.6145,700.01914 551.79256,690.8493 C 557.32709,678.70232 559.57526,661.04543 557.32858,647.39213 C 548.80987,595.62346 545.05427,562.23649 542.60468,516.58667 C 542.32481,511.37033 541.12174,501.1414 539.93196,493.84985 C 537.54171,479.20169 537.59054,479.19128 554.13187,491.42586 C 559.00534,495.03048 567.23632,498.66593 572.42293,499.50759 C 580.43022,500.80698 581.85427,500.25722 581.85427,495.86631 C 581.85427,493.02214 579.97368,488.00996 577.67315,484.72551 C 574.27058,479.86764 572.58232,479.32005 568.63877,481.78284 C 564.93934,484.09318 560.51973,483.71963 549.97194,480.21623 C 538.33408,476.35074 535.86722,474.34144 534.36418,467.49822 C 533.04696,461.50095 531.80595,459.87738 527.44683,460.03574 Z M 687.13906,465.43415 C 689.07897,465.70106 687.16529,469.01516 680.50748,475.26241 C 674.55125,480.85135 666.98992,487.75047 663.70362,490.58965 C 657.76864,495.71708 657.7284,495.70798 657.73361,489.23476 C 657.73743,484.4971 661.26931,480.30977 670.66333,473.90752 C 679.40849,467.94748 685.19912,465.16721 687.13906,465.43415 Z M 679.18962,489.4888 C 686.942,489.4888 683.15865,495.21439 671.3143,501.40764 C 656.51675,509.14506 655.01854,509.57485 655.01854,506.10741 C 655.01854,503.40933 675.26561,489.4888 679.18962,489.4888 Z M 668.48279,581.62158 C 672.11131,581.62158 673.31732,582.92149 672.25639,585.68626 C 671.3985,587.92183 668.99763,589.75094 666.92149,589.75094 C 664.84536,589.75094 663.1479,587.92183 663.1479,585.68626 C 663.1479,583.44971 665.54752,581.62158 668.48279,581.62158 Z M 674.99794,604.45365 C 676.10166,604.27521 677.19208,604.616 677.85061,605.68151 C 678.69021,607.04004 677.55308,608.85456 675.32606,609.70915 C 673.09902,610.56374 671.27726,610.15448 671.27726,608.79882 C 671.27726,606.50306 673.15837,604.75105 674.99794,604.45365 Z"
       id="path3543"
       inkscape:connector-curvature="0" />
  </g>
</svg>
