<?xml version="1.0" encoding="UTF-8" standalone="no"?>
<!-- Created with Inkscape (http://www.inkscape.org/) -->

<svg
   xmlns:dc="http://purl.org/dc/elements/1.1/"
   xmlns:cc="http://creativecommons.org/ns#"
   xmlns:rdf="http://www.w3.org/1999/02/22-rdf-syntax-ns#"
   xmlns:svg="http://www.w3.org/2000/svg"
   xmlns="http://www.w3.org/2000/svg"
   xmlns:sodipodi="http://sodipodi.sourceforge.net/DTD/sodipodi-0.dtd"
   xmlns:inkscape="http://www.inkscape.org/namespaces/inkscape"
   width="80.129463mm"
   height="84.666664mm"
   viewBox="0 0 283.92329 299.99999"
   id="svg3569"
   version="1.1"
   inkscape:version="0.91 r13725"
   sodipodi:docname="191.svg">
  <defs
     id="defs3571" />
  <sodipodi:namedview
     id="base"
     pagecolor="#ffffff"
     bordercolor="#666666"
     borderopacity="1.0"
     inkscape:pageopacity="0.0"
     inkscape:pageshadow="2"
     inkscape:zoom="0.7"
     inkscape:cx="53.794509"
     inkscape:cy="44.30525"
     inkscape:document-units="px"
     inkscape:current-layer="layer1"
     showgrid="true"
     fit-margin-top="0"
     fit-margin-left="0"
     fit-margin-right="0"
     fit-margin-bottom="0"
     inkscape:window-width="1280"
     inkscape:window-height="751"
     inkscape:window-x="0"
     inkscape:window-y="1"
     inkscape:window-maximized="1">
    <inkscape:grid
       type="xygrid"
       id="grid3673"
       originx="-487.73195"
       originy="-457.22483" />
  </sodipodi:namedview>
  <metadata
     id="metadata3574">
    <rdf:RDF>
      <cc:Work
         rdf:about="">
        <dc:format>image/svg+xml</dc:format>
        <dc:type
           rdf:resource="http://purl.org/dc/dcmitype/StillImage" />
        <dc:title></dc:title>
      </cc:Work>
    </rdf:RDF>
  </metadata>
  <g
     inkscape:label="Layer 1"
     inkscape:groupmode="layer"
     id="layer1"
     transform="translate(-487.73198,-295.13736)">
    <path
       style="fill:#000000"
       d="M 697.33452,295.17546 C 695.39129,294.94505 692.84183,295.76429 688.63147,297.50829 C 681.3235,300.53535 678.20219,304.54543 675.80397,313.9937 C 672.60316,326.60392 676.17681,331.91582 679.92221,320.11509 C 681.03423,316.61148 683.13796,313.74488 684.60034,313.74488 C 687.39288,313.74488 694.25519,330.89381 694.25519,337.87579 C 694.25519,343.78241 658.25049,364.74799 644.15818,367.04563 L 632.14562,368.99899 L 644.88604,374.73467 C 664.40711,383.51661 676.27342,382.40131 685.97516,370.87148 C 693.90868,361.44303 700.6254,360.67631 700.6254,369.20427 C 700.6254,371.47283 697.08701,377.14178 692.76838,381.80162 C 683.03342,392.30582 677.39709,412.25344 680.09637,426.64196 C 682.03117,436.95515 681.25795,438.15666 665.24706,449.65932 C 655.95633,456.33406 645.90923,461.38201 642.92023,460.87564 C 635.20131,459.56793 633.04535,464.81505 637.38983,474.35011 C 641.85178,484.14307 648.45273,485.01843 651.25626,476.1853 C 652.36827,472.68169 654.25331,469.78646 655.44913,469.75285 C 656.64491,469.71925 663.34147,464.70271 670.32956,458.60498 C 683.91554,446.75002 691.07008,444.57529 691.07008,452.29701 C 691.07008,454.92472 693.93668,459.94126 697.4403,463.44488 C 700.94391,466.94849 703.81051,471.21249 703.81051,472.9193 C 703.81051,476.64189 686.84641,485.82783 673.552,489.3052 C 666.2475,491.21582 668.3074,491.65084 682.31104,491.15903 C 692.8289,490.78965 700.63146,491.87463 700.63161,493.70339 C 700.63273,507.7306 692.76756,567.59196 690.60971,569.98417 C 686.30443,574.75702 687.42878,581.26744 692.23959,579.42129 C 694.82587,578.42887 697.29487,580.41205 698.3112,584.29851 C 699.25332,587.90122 701.30568,590.84913 702.87113,590.84913 C 709.58785,590.84913 712.30872,583.22864 710.88368,568.39786 C 709.45187,553.49678 709.78252,552.62289 716.93662,552.59674 C 721.10108,552.58151 732.03851,551.66719 741.23551,550.5625 C 756.6369,548.71256 757.95732,549.07238 757.95732,555.10376 C 757.95732,558.70539 756.16569,562.39361 753.97593,563.30293 C 751.25474,564.43294 752.42447,567.0769 757.67114,571.65759 C 762.70962,576.0566 766.42432,577.28717 768.48307,575.22841 C 772.93276,570.77872 772.66037,542.16475 767.9232,515.99913 C 765.70311,503.73647 763.24033,488.74752 762.44879,482.69235 C 760.09914,464.71704 753.24811,457.07467 739.48118,457.07467 C 732.90413,457.07467 724.08097,459.48152 719.87912,462.42462 C 712.55853,467.55217 712.35086,467.51892 714.79661,461.62835 C 716.20041,458.24729 717.57074,451.01197 717.84488,445.54732 C 718.44483,433.58795 732.4377,414.31041 745.37863,407.61841 C 765.06858,397.43632 751.94744,389.37529 731.86059,399.3135 C 724.50602,402.95222 718.12724,405.56796 717.68311,405.12383 C 717.23898,404.6797 721.81866,398.06519 727.86055,390.43004 C 733.90247,382.7949 738.84668,374.56509 738.84668,372.14056 C 738.84668,366.80073 724.84654,360.98061 718.16836,363.54325 C 714.64952,364.89358 713.36583,363.18751 713.36583,357.16683 C 713.36583,348.20012 722.64127,341.76961 741.40967,337.72647 C 754.082,334.99655 754.21466,326.5299 741.65228,322.112 C 735.63205,319.99476 730.50763,320.62602 722.87758,324.43238 C 717.10626,327.31149 712.01452,329.67041 711.56175,329.67041 C 711.10896,329.67041 709.7945,324.06803 708.63792,317.22235 C 707.48135,310.3767 704.67689,302.24349 702.41078,299.14439 C 700.6148,296.68822 699.27775,295.40587 697.33452,295.17546 Z M 573.16516,358.64118 C 570.07181,358.49922 565.85397,360.46571 560.5616,364.53239 C 553.04917,370.30498 552.93753,370.87206 558.17277,376.65694 C 563.10127,382.10287 563.64335,391.68494 563.47297,470.06391 C 563.36854,518.1007 562.17941,564.11083 560.82908,572.30458 C 559.47872,580.49833 559.52424,589.26164 560.93483,591.78224 C 564.51055,598.17169 578.91921,594.86864 583.31768,586.65001 C 585.69253,582.21259 586.12516,569.01886 584.64272,546.4318 C 579.27499,464.64815 577.39886,412.79812 579.2181,396.55765 L 581.18392,379.03956 L 585.25238,392.4394 C 589.94755,407.90427 591.85785,409.65464 601.33344,407.17673 C 616.13622,403.30571 607.04618,372.40358 590.16066,369.19185 C 584.58864,368.13201 579.2583,365.2585 578.31608,362.80297 C 577.29465,360.14134 575.57109,358.75158 573.16516,358.64118 Z M 699.65493,392.81887 C 700.55361,392.73702 701.18993,393.4449 701.73271,394.85932 C 703.69511,399.97326 702.3496,406.08685 696.6129,418.05711 C 693.06957,425.45073 690.49632,426.77742 686.82118,423.10226 C 682.72265,419.00376 684.76577,410.43987 692.27692,400.25906 C 695.93903,395.29539 698.15711,392.95529 699.65493,392.81887 Z M 509.50657,401.33531 L 501.43806,410.71643 C 494.81199,418.4212 493.49386,422.97578 494.05384,436.19728 C 494.42888,445.05181 492.8097,458.88384 490.45193,466.9348 C 488.09415,474.98576 487.06931,483.94387 488.1813,486.84171 C 490.61128,493.17409 502.54425,493.57054 510.43971,487.582 C 513.67444,485.12851 517.80935,475.11361 519.99503,464.44022 C 522.11418,454.09172 526.24736,441.96959 529.17709,437.50365 C 536.42636,426.45315 544.73863,406.10723 541.99838,406.12539 C 540.77393,406.13348 535.05727,410.56705 529.28908,415.9731 C 516.64771,427.82074 509.5182,426.31039 509.51278,411.78644 L 509.50657,401.33531 Z M 734.56045,469.99549 C 739.86257,469.44485 743.21101,474.62097 746.685,486.31916 C 752.51005,505.9342 753.20925,515.93154 748.14693,507.24009 C 744.08535,500.26678 725.2995,499.74025 719.73604,506.44381 C 712.80748,514.7922 710.04335,511.6371 712.06564,497.68477 C 713.38758,488.56431 716.7767,481.81179 722.45456,476.994 C 727.49579,472.7164 731.3792,470.32585 734.56045,469.99549 Z M 716.81221,517.59168 C 720.70435,517.59168 722.90242,519.23781 722.12487,521.57307 C 720.11816,527.59989 710.18072,528.45334 710.18072,522.5995 C 710.18072,519.6449 712.89985,517.59168 716.81221,517.59168 Z M 753.84528,518.57458 C 754.55059,518.75211 754.77221,519.86123 754.77221,521.97742 C 754.77221,524.81961 752.62226,527.147 749.99455,527.147 C 747.36684,527.147 745.21689,526.60777 745.21689,525.94635 C 745.21689,525.28496 747.36684,522.9576 749.99455,520.77679 C 751.951,519.15306 753.13997,518.39704 753.84528,518.57458 Z"
       id="path3671"
       inkscape:connector-curvature="0" />
  </g>
</svg>
